<?xml version="1.0" encoding="UTF-8"?>
<svg xmlns="http://www.w3.org/2000/svg" xmlns:xlink="http://www.w3.org/1999/xlink" version="1.2" >
<font id="Abside Oblique Round 1">
<font-face  font-family="Abside" units-per-em="1000" ascent="732" descent="-206" font-style="italic" font-weight="400" font-stretch="normal" cap-height="733" x-height="489" underline-position="-107" underline-thickness="73" />
<missing-glyph  horiz-adv-x="599" d="M378 732 C264 732 203 714 122 651 C112 643 108 628 115 620 L174 553 C181 545 197 546 206 553 C240 582 282 596 332 596 C480 596 494 454 377 428 C265 403 227 322 209 220 C207 208 214 195 227 195 L322 195 C332 195 344 206 346 217 C360 278 389 315 433 327 C531 354 584 425 596 518 C611 647 487 732 378 732 L378 732 Z M189 68 C185 29 209 0 254 0 C299 0 332 29 336 68 C341 107 317 137 270 137 C226 137 194 107 189 68 L189 68 Z " />
<glyph glyph-name="&amp;#x20;" unicode="&#x20;" horiz-adv-x="342" d="" />
<glyph glyph-name="&amp;#xa0;" unicode="&#xa0;" horiz-adv-x="342" d="" />
<glyph glyph-name="exclam" unicode="&#x21;" horiz-adv-x="293" d="M180 214 L271 651 C277 698 266 716 215 716 C167 716 149 698 143 651 L112 215 C112 204 120 195 131 195 L157 195 C167 195 178 204 180 214 L180 214 Z M57 68 C53 29 77 0 122 0 C167 0 199 29 203 68 C208 107 185 137 138 137 C94 137 62 107 57 68 L57 68 Z " />
<glyph glyph-name="quotedbl" unicode="&#x22;" horiz-adv-x="391" d="M200 550 C246 728 248 731 248 733 C251 760 227 775 198 775 C167 775 142 761 139 732 C139 730 139 726 143 550 C143 540 151 536 161 536 L178 536 C188 536 197 540 200 550 L200 550 Z M353 550 C399 728 400 731 400 733 C403 760 380 775 351 775 C321 775 295 761 292 732 C292 729 291 726 295 550 C295 540 303 536 313 536 L331 536 C341 536 350 540 353 550 L353 550 Z " />
<glyph glyph-name="numbersign" unicode="&#x23;" horiz-adv-x="729" d="M480 401 L441 312 C438 304 427 297 419 297 L357 297 C342 297 334 310 340 324 L378 413 C382 421 392 428 400 428 L463 428 C478 428 486 415 480 401 L480 401 Z M290 520 L178 520 C169 520 159 513 156 505 L136 457 C131 442 139 430 153 430 L241 430 C256 430 264 417 258 403 L219 315 C216 307 206 300 197 300 L96 300 C87 300 77 293 74 285 L54 237 C49 222 57 210 71 210 L149 210 C163 210 171 197 165 183 L99 27 C93 13 101 0 116 0 L188 0 C196 0 206 7 209 15 L287 195 C291 203 301 210 309 210 L371 210 C385 210 393 197 387 183 L321 27 C315 13 323 0 338 0 L409 0 C418 0 428 7 431 15 L508 195 C512 203 522 210 530 210 L650 210 C658 210 669 217 672 225 L692 273 C698 287 690 300 675 300 L580 300 C565 300 557 313 563 327 L600 415 C604 423 614 430 622 430 L732 430 C740 430 751 437 754 445 L773 493 C779 508 771 520 756 520 L671 520 C656 520 648 533 654 547 L721 705 C727 719 720 732 705 732 L633 732 C625 732 615 725 612 717 L533 535 C530 527 520 520 511 520 L449 520 C434 520 426 533 432 547 L499 705 C505 719 498 732 483 732 L411 732 C402 732 392 725 389 717 L312 535 C309 527 298 520 290 520 L290 520 Z " />
<glyph glyph-name="dollar" unicode="&#x24;" horiz-adv-x="642" d="M625 650 C583 691 543 716 482 726 C473 727 466 737 468 747 L475 809 C477 821 469 830 457 830 L363 830 C351 830 341 821 339 809 L331 743 C330 734 322 725 314 722 C216 697 120 620 108 518 C90 374 198 327 316 312 C380 305 419 289 432 261 C467 185 389 127 295 137 C230 142 182 159 152 189 C144 196 128 196 119 189 L45 122 C35 113 32 102 41 94 C88 48 147 16 221 5 C230 4 239 -6 238 -16 L231 -77 C229 -89 237 -98 249 -98 L343 -98 C355 -98 365 -89 367 -77 L375 -9 C376 -1 384 9 392 11 C489 36 586 122 597 215 C616 364 507 422 381 439 C301 450 230 479 283 554 C302 582 341 596 400 596 C449 596 488 582 516 553 C523 546 539 545 548 553 L623 620 C633 628 633 642 625 650 L625 650 Z " />
<glyph glyph-name="percent" unicode="&#x25;" horiz-adv-x="928" d="M299 11 L774 701 C785 716 777 732 760 732 L689 732 C683 732 673 726 670 721 L194 31 C183 16 191 0 208 0 L280 0 C286 0 296 6 299 11 L299 11 Z M97 554 C84 451 155 371 258 371 C362 371 451 451 464 554 C477 658 407 738 303 738 C200 738 110 658 97 554 L97 554 Z M267 458 C212 458 180 501 186 555 C193 609 236 651 290 651 C346 651 379 609 372 555 C366 501 322 458 267 458 L267 458 Z M505 178 C492 75 562 -4 666 -4 C769 -4 857 75 870 178 C883 281 813 360 710 360 C606 360 518 281 505 178 L505 178 Z M673 84 C619 84 587 125 594 179 C600 230 644 273 697 273 C750 273 782 231 776 179 C769 125 727 84 673 84 L673 84 Z " />
<glyph glyph-name="ampersand" unicode="&#x26;" horiz-adv-x="802" d="M622 188 C653 226 664 252 686 305 C691 316 687 329 676 332 L600 358 C590 361 577 355 572 344 C561 319 550 298 540 282 C537 276 531 277 527 282 L461 387 C455 396 459 409 469 416 C544 465 592 495 602 575 C615 681 536 738 430 738 C325 738 223 688 211 583 C206 542 215 497 246 447 C252 436 247 419 235 413 C135 360 80 291 69 206 C52 69 160 -3 297 -3 C376 -3 435 15 499 61 C509 68 520 65 527 56 L561 8 C563 4 572 0 576 0 L687 0 C706 0 718 20 708 34 L618 160 C614 167 616 181 622 188 L622 188 Z M380 503 C347 550 342 567 343 582 C347 611 371 631 414 631 C459 631 481 608 476 573 C474 554 462 537 411 499 C401 492 387 494 380 503 L380 503 Z M420 151 C377 122 342 110 306 110 C243 110 203 149 211 211 C216 254 248 299 306 330 C315 335 324 332 329 324 L427 181 C434 172 430 159 420 151 L420 151 Z " />
<glyph glyph-name="quotesingle" unicode="&#x27;" horiz-adv-x="244" d="M200 550 C246 728 248 731 248 733 C251 761 224 775 198 775 C173 775 143 762 139 732 C139 730 139 726 143 550 C143 540 151 536 161 536 L178 536 C188 536 197 540 200 550 L200 550 Z " />
<glyph glyph-name="parenleft" unicode="&#x28;" horiz-adv-x="461" d="M83 293 C62 121 107 -38 205 -175 C207 -179 218 -186 222 -186 L302 -186 C320 -186 329 -160 320 -145 C244 -19 232 136 251 293 C270 449 320 612 436 742 C449 757 438 773 419 773 L339 773 C335 773 323 766 320 763 C192 635 105 469 83 293 L83 293 Z " />
<glyph glyph-name="parenright" unicode="&#x29;" horiz-adv-x="471" d="M407 293 C429 469 381 635 285 763 C283 766 273 773 269 773 L189 773 C170 773 154 757 164 742 C248 612 258 449 239 293 C220 136 169 -19 62 -145 C49 -160 52 -186 71 -186 L151 -186 C155 -186 167 -179 170 -175 C302 -38 386 121 407 293 L407 293 Z " />
<glyph glyph-name="asterisk" unicode="&#x2a;" horiz-adv-x="439" d="M168 499 L171 497 C179 492 192 495 199 503 L251 564 C262 575 278 575 285 564 L322 506 C328 496 341 495 352 503 L357 507 C366 514 369 527 364 536 L328 593 C321 605 327 620 342 625 L414 651 C426 656 432 668 429 679 L427 687 C424 697 413 703 402 699 L335 675 C320 669 307 679 309 694 L317 760 C319 772 310 781 299 781 L292 781 C280 781 270 772 268 760 L260 694 C258 678 244 669 230 674 L170 697 C159 701 146 695 141 684 L138 676 C133 665 137 653 148 649 L211 627 C224 622 227 607 218 595 L164 529 C156 518 158 505 168 499 L168 499 Z " />
<glyph glyph-name="plus" unicode="&#x2b;" horiz-adv-x="586" d="M248 130 L325 130 C337 130 347 139 349 151 L363 271 C365 283 375 292 387 292 L517 292 C528 292 539 301 540 313 L550 388 C551 400 543 409 531 409 L401 409 C390 409 381 418 383 430 L397 549 C399 561 391 570 379 570 L302 570 C290 570 280 561 278 549 L264 430 C262 418 252 409 240 409 L110 409 C99 409 88 400 87 388 L77 313 C76 301 84 292 96 292 L226 292 C237 292 246 283 244 271 L230 151 C228 139 236 130 248 130 L248 130 Z " />
<glyph glyph-name="comma" unicode="&#x2c;" horiz-adv-x="290" d="M105 -92 C162 -58 195 -5 204 67 C209 106 185 137 139 137 C94 137 62 107 57 68 C53 29 78 0 123 0 L128 0 C117 -24 101 -42 80 -53 C73 -56 69 -65 72 -71 L78 -85 C82 -96 94 -99 105 -92 L105 -92 Z " />
<glyph glyph-name="&amp;#x2d;" unicode="&#x2d;" horiz-adv-x="439" d="M369 217 L375 272 C377 284 369 293 357 293 L96 293 C84 293 74 284 72 272 L66 217 C64 205 72 196 84 196 L345 196 C357 196 367 205 369 217 L369 217 Z " />
<glyph glyph-name="&amp;#xad;" unicode="&#xad;" horiz-adv-x="439" d="M369 217 L375 272 C377 284 369 293 357 293 L96 293 C84 293 74 284 72 272 L66 217 C64 205 72 196 84 196 L345 196 C357 196 367 205 369 217 L369 217 Z " />
<glyph glyph-name="period" unicode="&#x2e;" horiz-adv-x="284" d="M52 68 C48 29 73 0 118 0 C163 0 195 29 199 68 C204 107 181 137 134 137 C89 137 57 107 52 68 L52 68 Z " />
<glyph glyph-name="slash" unicode="&#x2f;" horiz-adv-x="402" d="M413 705 L362 705 C355 705 344 698 341 691 L3 -1 C-4 -15 4 -29 19 -29 L70 -29 C77 -29 88 -22 91 -15 L429 677 C436 691 428 705 413 705 L413 705 Z " />
<glyph glyph-name="zero" unicode="0" horiz-adv-x="675" d="M90 366 C69 194 125 0 313 0 C501 0 606 194 627 366 C648 539 591 732 403 732 C215 732 111 538 90 366 L90 366 Z M331 137 C238 137 226 285 236 366 C246 447 294 596 386 596 C479 596 491 447 481 366 C471 286 423 137 331 137 L331 137 Z " />
<glyph glyph-name="one" unicode="1" horiz-adv-x="462" d="M102 522 L162 454 C169 446 182 446 192 454 L244 501 C259 515 280 506 278 486 L221 21 C219 9 227 0 239 0 L343 0 C355 0 365 9 367 21 L451 712 C453 724 445 733 433 733 L317 733 C313 733 304 729 301 726 L106 552 C96 544 95 530 102 522 L102 522 Z " />
<glyph glyph-name="two" unicode="2" horiz-adv-x="635" d="M382 732 C276 732 200 693 136 635 C127 626 125 614 132 606 L192 539 C199 531 215 532 224 540 C262 571 317 596 366 596 C469 596 483 463 403 400 L72 133 C69 131 64 121 63 118 L52 21 C50 9 58 0 70 0 L521 0 C533 0 543 9 545 21 L557 125 C559 137 551 146 539 146 L353 146 C333 146 327 170 344 183 L474 285 C679 445 632 732 382 732 L382 732 Z " />
<glyph glyph-name="three" unicode="3" horiz-adv-x="684" d="M578 387 C619 417 641 464 648 518 C663 647 551 732 424 732 C325 732 252 716 169 652 C159 643 155 629 162 620 L221 553 C228 545 244 546 253 553 C288 582 331 596 384 596 C475 596 548 554 490 471 C472 445 421 435 337 438 C325 438 315 429 313 417 L302 328 C301 317 310 308 321 307 C404 302 452 287 464 261 C499 185 421 127 328 137 C262 142 214 159 184 189 C177 196 160 196 152 189 L77 122 C67 113 67 99 76 91 C142 27 232 0 334 0 C458 0 614 83 630 215 C639 281 626 327 578 357 C570 362 570 381 578 387 L578 387 Z " />
<glyph glyph-name="four" unicode="4" horiz-adv-x="689" d="M76 300 L61 182 C60 170 68 161 80 161 L371 161 C382 161 391 152 389 140 L375 21 C373 9 381 0 393 0 L497 0 C509 0 519 9 521 21 L535 140 C537 152 547 161 559 161 L615 161 C626 161 637 170 638 182 L651 286 C653 298 644 307 633 307 L577 307 C565 307 557 316 558 328 L605 712 C607 724 599 733 587 733 L472 733 C468 733 458 728 455 724 L82 313 C80 311 76 302 76 300 L76 300 Z M261 341 L395 492 C409 508 433 500 431 479 L412 328 C411 316 400 307 389 307 L273 307 C255 307 248 326 261 341 L261 341 Z " />
<glyph glyph-name="five" unicode="5" horiz-adv-x="636" d="M153 711 L112 377 C111 365 119 356 131 356 L266 356 C378 356 472 358 454 243 C444 178 385 142 297 142 C237 145 192 160 163 189 C156 196 140 197 131 189 L56 122 C46 113 46 99 55 91 C121 27 212 0 314 0 C438 0 580 96 597 234 C619 416 513 488 331 488 L293 488 C281 488 273 497 274 509 L283 575 C284 587 295 596 306 596 L567 596 C579 596 589 605 591 617 L602 711 C604 723 595 732 584 732 L177 732 C165 732 155 723 153 711 L153 711 Z " />
<glyph glyph-name="six" unicode="6" horiz-adv-x="678" d="M92 356 C67 158 112 8 321 0 C474 -7 597 99 615 244 C634 401 558 488 396 488 C356 488 314 474 270 445 C258 438 245 444 248 457 C273 546 328 591 406 591 C446 591 481 584 511 570 C519 566 533 569 540 576 L598 644 C607 653 606 665 597 672 C552 711 492 730 416 732 C214 721 116 555 92 356 L92 356 Z M240 249 C256 317 297 353 365 356 C443 356 479 316 472 234 C461 172 418 140 343 137 C268 140 234 176 239 244 C239 244 240 249 240 249 L240 249 Z " />
<glyph glyph-name="seven" unicode="7" horiz-adv-x="616" d="M271 13 L618 675 C619 676 621 682 621 683 L624 711 C626 723 617 732 606 732 L148 732 C136 732 126 723 124 711 L114 617 C112 605 121 596 132 596 L393 596 C409 596 416 582 408 567 L130 53 C130 52 128 46 127 45 L125 21 C123 9 131 0 143 0 L250 0 C257 0 267 6 271 13 L271 13 Z " />
<glyph glyph-name="eight" unicode="8" horiz-adv-x="631" d="M325 303 C452 303 427 137 305 137 C184 137 199 303 325 303 L325 303 Z M342 437 C212 437 242 595 361 595 C481 595 473 437 342 437 L342 437 Z M516 387 C557 417 579 464 586 518 C603 658 515 732 379 732 C241 732 135 659 118 518 C111 467 119 419 154 388 C161 382 158 363 149 358 C96 330 69 284 60 215 C41 61 145 0 288 0 C431 0 549 61 568 215 C577 283 564 329 512 359 C504 364 508 381 516 387 L516 387 Z " />
<glyph glyph-name="nine" unicode="9" horiz-adv-x="648" d="M608 408 C628 605 570 705 425 730 C275 752 144 659 112 514 C77 356 144 262 302 246 C342 243 385 253 431 277 C443 284 455 277 450 264 C417 177 358 137 284 144 C243 147 210 158 181 176 C174 180 160 179 153 172 L88 110 C79 102 78 89 86 81 C126 38 184 12 258 3 C342 -4 416 22 479 83 C544 143 587 251 608 408 L608 408 Z M470 483 C454 415 413 379 345 375 C267 375 231 416 238 498 C249 560 292 592 367 595 C442 592 476 556 471 488 C471 488 470 483 470 483 L470 483 Z " />
<glyph glyph-name="colon" unicode="&#x3a;" horiz-adv-x="286" d="M55 68 C51 29 75 0 120 0 C165 0 197 29 201 68 C206 107 183 137 136 137 C92 137 60 107 55 68 L55 68 Z M98 418 C94 379 118 350 163 350 C208 350 240 379 244 418 C249 457 226 487 179 487 C135 487 103 457 98 418 L98 418 Z " />
<glyph glyph-name="&amp;#x3b;" unicode="&#x3b;" horiz-adv-x="294" d="M103 -92 C160 -58 193 -5 202 67 C207 106 184 137 137 137 C92 137 60 107 55 68 C51 29 76 0 121 0 L126 0 C115 -24 99 -42 78 -53 C71 -56 67 -65 70 -71 L76 -85 C80 -96 92 -99 103 -92 L103 -92 Z M102 420 C97 381 121 352 166 352 C211 352 243 381 248 420 C252 459 229 489 182 489 C138 489 106 459 102 420 L102 420 Z " />
<glyph glyph-name="&amp;#x37e;" unicode="&#x37e;" horiz-adv-x="294" d="M103 -92 C160 -58 193 -5 202 67 C207 106 184 137 137 137 C92 137 60 107 55 68 C51 29 76 0 121 0 L126 0 C115 -24 99 -42 78 -53 C71 -56 67 -65 70 -71 L76 -85 C80 -96 92 -99 103 -92 L103 -92 Z M102 420 C97 381 121 352 166 352 C211 352 243 381 248 420 C252 459 229 489 182 489 C138 489 106 459 102 420 L102 420 Z " />
<glyph glyph-name="less" unicode="&#x3c;" horiz-adv-x="561" d="M531 618 L82 390 C76 387 69 378 69 371 L68 364 C67 358 71 349 76 346 L469 115 C483 107 500 116 502 133 L510 198 C511 204 507 213 502 216 L279 348 C265 356 267 376 284 384 L538 516 C544 519 551 528 552 534 L560 600 C562 617 547 626 531 618 L531 618 Z " />
<glyph glyph-name="equal" unicode="&#x3d;" horiz-adv-x="586" d="M94 195 L491 195 C503 195 513 204 515 216 L521 271 C523 283 514 292 503 292 L106 292 C94 292 84 283 82 271 L76 216 C74 204 82 195 94 195 L94 195 Z M118 391 L515 391 C527 391 537 400 539 412 L545 467 C547 479 539 488 527 488 L130 488 C118 488 108 479 106 467 L100 412 C98 400 106 391 118 391 L118 391 Z " />
<glyph glyph-name="greater" unicode="&#x3e;" horiz-adv-x="563" d="M123 516 L346 384 C360 376 358 356 341 348 L86 216 C81 213 74 204 73 198 L65 133 C63 116 78 107 94 115 L544 346 C549 349 556 358 557 364 L558 371 C558 378 554 387 549 390 L156 618 C142 626 125 617 123 600 L115 534 C114 528 118 519 123 516 L123 516 Z " />
<glyph glyph-name="question" unicode="&#x3f;" horiz-adv-x="610" d="M378 732 C264 732 203 714 122 651 C112 643 108 628 115 620 L174 553 C181 545 197 546 206 553 C240 582 282 596 332 596 C480 596 494 454 377 428 C265 403 227 322 209 220 C207 208 214 195 227 195 L322 195 C332 195 344 206 346 217 C360 278 389 315 433 327 C531 354 584 425 596 518 C611 647 487 732 378 732 L378 732 Z M189 68 C185 29 209 0 254 0 C299 0 332 29 336 68 C341 107 317 137 270 137 C226 137 194 107 189 68 L189 68 Z " />
<glyph glyph-name="at" unicode="&#x40;" horiz-adv-x="1069" d="M543 -94 C279 -90 171 26 201 265 C226 476 384 610 599 610 C825 609 931 471 905 263 C886 104 752 70 763 160 L800 466 C802 478 793 487 782 487 L705 488 C694 488 684 479 682 468 L682 464 C681 458 674 454 670 458 C650 475 618 485 578 488 C438 495 320 375 304 244 C287 107 377 0 518 0 C560 0 604 16 642 36 C648 40 664 37 669 33 C753 -41 982 -5 1015 263 C1049 540 905 708 611 708 C332 708 111 536 78 267 C43 -19 173 -193 523 -204 C535 -204 551 -195 553 -183 L561 -115 C562 -104 554 -94 543 -94 L543 -94 Z M536 113 C461 113 419 170 428 243 C437 316 493 374 568 374 C643 374 686 316 677 243 C668 170 611 113 536 113 L536 113 Z " />
<glyph glyph-name="A" unicode="A" horiz-adv-x="803" d="M185 13 L229 99 C232 106 243 112 250 112 L553 112 C561 112 570 106 571 99 L594 13 C596 6 605 0 612 0 L722 0 C738 0 749 14 745 29 L555 719 C553 726 544 732 537 732 L418 732 C411 732 401 726 397 719 L36 29 C28 14 36 0 52 0 L164 0 C171 0 181 6 185 13 L185 13 Z M501 259 L343 259 C327 259 319 273 327 288 L432 488 C442 506 466 506 471 488 L524 288 C528 273 517 259 501 259 L501 259 Z " />
<glyph glyph-name="B" unicode="B" horiz-adv-x="768" d="M291 606 L476 606 C534 604 559 565 557 530 C557 530 556 526 556 526 C546 469 514 449 456 448 L272 448 C260 448 252 457 254 469 L268 585 C269 597 280 606 291 606 L291 606 Z M256 318 L471 318 C539 316 572 267 568 220 C557 150 514 120 445 119 L232 119 C220 119 212 128 213 140 L232 297 C234 309 244 318 256 318 L256 318 Z M697 521 C713 658 630 732 508 732 L160 732 C148 732 138 723 136 711 L52 21 C50 9 58 0 70 0 L461 0 C603 8 692 76 708 214 C716 278 690 334 640 376 C634 381 636 392 643 398 C670 423 690 467 697 521 L697 521 Z " />
<glyph glyph-name="C" unicode="C" horiz-adv-x="756" d="M69 368 C38 164 186 -5 390 0 C486 0 574 28 652 84 C663 92 666 105 658 114 L598 190 C592 198 579 200 570 194 C521 162 467 146 409 146 C275 146 200 235 215 369 C231 498 333 585 462 586 C520 586 570 571 612 539 C620 534 633 535 641 542 L720 619 C730 628 731 641 722 649 C657 705 576 732 480 732 C279 732 89 573 69 368 L69 368 Z " />
<glyph glyph-name="D" unicode="D" horiz-adv-x="781" d="M226 157 L278 575 C279 587 290 596 301 596 L415 596 C545 596 600 513 583 366 C564 220 489 137 359 136 L245 136 C233 136 225 145 226 157 L226 157 Z M342 0 C570 0 699 122 729 366 C759 611 660 733 432 733 L171 733 C159 733 149 724 147 712 L63 21 C61 9 69 0 81 0 L342 0 L342 0 Z " />
<glyph glyph-name="E" unicode="E" horiz-adv-x="684" d="M598 21 L609 116 C611 128 602 137 591 137 L243 137 C231 137 223 146 224 158 L240 282 C241 294 252 303 263 303 L514 303 C526 303 536 312 538 324 L549 418 C551 430 542 439 531 439 L280 439 C268 439 260 448 261 460 L276 575 C277 587 288 596 299 596 L648 596 C660 596 670 605 672 617 L683 711 C685 723 676 732 665 732 L169 732 C157 732 147 723 145 711 L61 21 C59 9 67 0 79 0 L574 0 C586 0 596 9 598 21 L598 21 Z " />
<glyph glyph-name="F" unicode="F" horiz-adv-x="621" d="M209 21 L241 282 C242 294 253 303 264 303 L494 303 C506 303 516 312 518 324 L529 418 C531 430 522 439 511 439 L281 439 C269 439 261 448 262 460 L277 575 C278 587 289 596 300 596 L627 596 C639 596 649 605 651 617 L662 711 C664 723 655 732 644 732 L171 732 C159 732 149 723 147 711 L63 21 C61 9 69 0 81 0 L185 0 C197 0 207 9 209 21 L209 21 Z " />
<glyph glyph-name="G" unicode="G" horiz-adv-x="743" d="M66 368 C34 164 183 -5 386 0 C488 0 580 31 661 93 C664 96 668 103 668 108 L705 409 C707 421 698 430 687 430 L485 430 C473 430 463 421 461 409 L450 319 C449 307 457 298 469 298 L525 298 C536 298 544 289 543 277 L532 189 C531 183 526 175 521 172 C492 155 453 146 405 146 C272 146 197 235 212 369 C228 498 329 585 458 586 C516 586 567 571 609 539 C617 533 630 535 638 542 L717 619 C726 628 727 641 718 649 C654 705 573 732 476 732 C276 732 86 573 66 368 L66 368 Z " />
<glyph glyph-name="H" unicode="H" horiz-adv-x="792" d="M210 21 L242 282 C243 294 254 303 265 303 L564 303 C576 303 584 294 583 282 L551 21 C549 9 557 0 569 0 L673 0 C685 0 695 9 697 21 L781 712 C783 724 775 733 763 733 L659 733 C647 733 637 724 635 712 L604 460 C603 448 592 439 581 439 L282 439 C270 439 262 448 263 460 L294 711 C296 723 287 732 276 732 L171 732 C159 732 149 723 147 711 L63 21 C61 9 69 0 81 0 L186 0 C198 0 208 9 210 21 L210 21 Z " />
<glyph glyph-name="I" unicode="I" horiz-adv-x="293" d="M81 0 L185 0 C197 0 207 9 209 21 L293 712 C295 724 287 733 275 733 L171 733 C159 733 149 724 147 712 L63 21 C61 9 69 0 81 0 L81 0 Z " />
<glyph glyph-name="J" unicode="J" horiz-adv-x="415" d="M38 116 L27 21 C25 9 33 0 45 0 L123 0 C238 0 327 79 341 195 L404 711 C406 723 397 732 386 732 L281 732 C269 732 259 723 257 711 L200 244 C191 175 155 140 89 137 L62 137 C50 137 40 128 38 116 L38 116 Z " />
<glyph glyph-name="K" unicode="K" horiz-adv-x="705" d="M83 0 L187 0 C199 0 209 9 211 21 L240 260 C242 281 267 289 278 274 L481 7 C483 4 492 0 495 0 L630 0 C650 0 661 21 650 35 L388 377 C383 385 384 397 391 405 L674 697 C688 712 681 732 662 732 L552 732 C548 732 538 728 535 724 L305 484 C289 468 267 477 269 497 L295 711 C297 723 288 732 277 732 L173 732 C161 732 151 723 149 711 L65 21 C63 9 71 0 83 0 L83 0 Z " />
<glyph glyph-name="L" unicode="L" horiz-adv-x="659" d="M149 711 L65 21 C63 9 71 0 83 0 L578 0 C590 0 600 9 602 21 L613 116 C615 128 606 137 595 137 L246 137 C234 137 226 146 227 158 L295 711 C297 723 288 732 277 732 L173 732 C161 732 151 723 149 711 L149 711 Z " />
<glyph glyph-name="M" unicode="M" horiz-adv-x="879" d="M691 363 L649 21 C647 9 655 0 667 0 L772 0 C784 0 794 9 796 21 L881 715 C882 724 875 732 866 732 L858 732 C854 732 845 728 842 726 L491 411 C482 403 469 403 462 411 L189 726 C187 728 179 732 175 732 L167 732 C157 732 149 724 148 715 L63 21 C61 9 69 0 81 0 L186 0 C198 0 208 9 210 21 L252 362 C254 382 277 391 289 378 L438 214 C445 206 458 206 467 214 L657 378 C673 391 693 382 691 363 L691 363 Z " />
<glyph glyph-name="N" unicode="N" horiz-adv-x="806" d="M210 21 L264 462 C266 482 290 491 302 476 L577 139 C579 137 582 128 581 125 L569 21 C567 9 575 0 587 0 L693 0 C705 0 715 9 717 21 L801 711 C803 723 794 732 783 732 L679 732 C667 732 657 723 655 711 L618 405 C615 386 592 377 580 391 L302 725 C300 728 291 732 288 732 L171 732 C159 732 149 723 147 711 L63 21 C61 9 69 0 81 0 L186 0 C198 0 208 9 210 21 L210 21 Z " />
<glyph glyph-name="O" unicode="O" horiz-adv-x="804" d="M68 366 C43 160 182 0 389 0 C596 0 775 159 800 366 C825 573 686 732 479 732 C272 732 93 573 68 366 L68 366 Z M407 137 C275 137 198 238 214 366 C230 494 331 596 462 596 C593 596 670 494 654 366 C638 239 537 137 407 137 L407 137 Z " />
<glyph glyph-name="P" unicode="P" horiz-adv-x="684" d="M210 21 L242 282 C243 294 254 303 265 303 L417 303 C587 303 682 375 700 521 C717 662 640 732 469 732 L171 732 C159 732 149 723 147 711 L63 21 C61 9 69 0 81 0 L186 0 C198 0 208 9 210 21 L210 21 Z M302 605 L487 605 C545 603 571 568 566 520 C558 467 524 431 465 430 L281 430 C269 430 261 439 262 451 L279 584 C280 596 291 605 302 605 L302 605 Z " />
<glyph glyph-name="Q" unicode="Q" horiz-adv-x="807" d="M629 -33 L720 30 C730 37 733 50 727 60 L694 110 C690 117 694 132 700 139 C758 203 792 278 803 366 C828 573 689 732 482 732 C275 732 95 573 70 366 C45 160 185 0 392 0 C445 0 495 10 543 28 C551 32 563 28 567 22 L601 -30 C607 -39 619 -40 629 -33 L629 -33 Z M407 137 C275 137 198 238 214 366 C230 494 331 596 462 596 C593 596 670 494 654 366 C638 239 537 137 407 137 L407 137 Z " />
<glyph glyph-name="R" unicode="R" horiz-adv-x="700" d="M302 605 L487 605 C545 603 571 568 566 520 C558 467 524 431 465 430 L281 430 C269 430 261 439 262 451 L279 584 C280 596 291 605 302 605 L302 605 Z M567 329 C644 362 688 427 700 521 C717 662 640 732 469 732 L171 732 C159 732 149 723 147 711 L63 21 C61 9 69 0 81 0 L186 0 C198 0 208 9 210 21 L242 282 C243 294 254 303 265 303 L365 303 C371 303 380 298 382 293 L511 10 C513 5 522 0 528 0 L648 0 C665 0 677 16 670 31 L550 297 C545 308 555 324 567 329 L567 329 Z " />
<glyph glyph-name="S" unicode="S" horiz-adv-x="642" d="M624 651 C558 714 502 732 388 732 C273 732 123 646 108 518 C90 374 201 331 316 312 C492 285 474 130 295 137 C230 142 182 159 152 189 C144 196 128 196 119 189 L45 122 C35 113 36 99 44 90 C112 26 190 0 302 0 C425 0 581 83 597 215 C616 363 508 420 381 439 C219 464 240 596 400 596 C449 596 488 582 516 553 C523 546 539 545 548 553 L623 619 C632 628 632 643 624 651 L624 651 Z " />
<glyph glyph-name="T" unicode="T" horiz-adv-x="707" d="M110 711 L99 617 C97 605 106 596 117 596 L319 596 C331 596 339 587 338 575 L270 21 C268 9 276 0 288 0 L393 0 C405 0 415 9 417 21 L485 575 C486 587 497 596 508 596 L710 596 C722 596 732 605 734 617 L745 711 C747 723 738 732 727 732 L134 732 C122 732 112 723 110 711 L110 711 Z " />
<glyph glyph-name="U" unicode="U" horiz-adv-x="782" d="M136 711 L82 269 C62 102 206 0 366 0 C527 0 697 102 717 269 L771 711 C773 723 764 732 753 732 L648 732 C636 732 626 723 624 711 L575 308 C562 200 485 146 384 146 C283 146 220 200 233 308 L282 711 C284 723 275 732 264 732 L160 732 C148 732 138 723 136 711 L136 711 Z " />
<glyph glyph-name="V" unicode="V" horiz-adv-x="809" d="M399 216 L264 719 C263 726 254 732 247 732 L136 732 C120 732 109 718 113 703 L305 13 C307 6 316 0 323 0 L441 0 C448 0 458 6 462 13 L823 703 C831 718 823 732 807 732 L695 732 C688 732 678 726 674 719 L414 216 C412 213 408 211 405 211 C403 211 399 213 399 216 L399 216 Z " />
<glyph glyph-name="W" unicode="W" horiz-adv-x="1042" d="M574 482 L650 15 C651 7 659 0 668 0 L782 0 C790 0 801 7 804 16 L1074 706 C1079 720 1071 732 1057 732 L943 732 C934 732 924 725 921 716 L756 291 C754 287 749 284 745 284 C741 284 737 287 737 291 L675 716 C674 725 665 732 657 732 L538 732 C529 732 519 725 516 717 L347 292 C345 288 340 284 335 284 C331 284 326 288 326 292 L265 716 C264 725 255 732 247 732 L134 732 C120 732 109 720 111 706 L210 16 C211 7 220 0 228 0 L343 0 C352 0 362 7 365 15 L555 482 C557 486 562 489 566 489 C570 489 574 486 574 482 L574 482 Z " />
<glyph glyph-name="X" unicode="X" horiz-adv-x="789" d="M62 0 L184 0 C189 0 199 5 202 9 L400 240 C411 252 427 252 434 240 L575 9 C577 5 586 0 591 0 L713 0 C731 0 743 19 734 33 L528 369 C524 375 526 387 531 393 L791 699 C804 714 797 732 779 732 L659 732 C655 732 645 727 642 723 L469 523 C459 511 443 511 435 523 L312 723 C310 727 301 732 296 732 L176 732 C158 732 146 714 155 699 L340 393 C344 387 343 375 337 369 L50 33 C37 19 44 0 62 0 L62 0 Z " />
<glyph glyph-name="Y" unicode="Y" horiz-adv-x="749" d="M330 359 L289 21 C287 9 295 0 307 0 L411 0 C423 0 433 9 435 21 L476 359 C476 361 480 370 482 372 L762 699 C775 713 768 732 749 732 L634 732 C629 732 619 727 616 723 L440 517 C429 504 413 504 406 517 L284 723 C282 727 273 732 268 732 L148 732 C130 732 118 713 127 699 L328 372 C329 370 330 361 330 359 L330 359 Z " />
<glyph glyph-name="Z" unicode="Z" horiz-adv-x="720" d="M630 137 L347 137 C329 137 322 154 333 169 L714 674 C715 675 718 683 718 685 L721 711 C723 723 714 732 703 732 L159 732 C147 732 137 723 135 711 L124 617 C122 605 131 596 142 596 L425 596 C443 596 450 579 439 564 L58 54 C57 53 53 45 53 43 L51 21 C49 9 57 0 69 0 L613 0 C625 0 635 9 637 21 L648 116 C650 128 641 137 630 137 L630 137 Z " />
<glyph glyph-name="bracketleft" unicode="&#x5b;" horiz-adv-x="370" d="M272 -174 L283 -84 C284 -72 276 -63 264 -63 L198 -63 C187 -63 178 -54 180 -42 L280 775 C282 787 292 796 304 796 L370 796 C381 796 392 805 393 817 L404 907 C406 919 397 928 386 928 L183 927 C171 927 161 918 159 906 L27 -174 C25 -186 33 -195 45 -195 L248 -195 C260 -195 270 -186 272 -174 L272 -174 Z " />
<glyph glyph-name="backslash" unicode="&#x5c;" horiz-adv-x="402" d="M296 -29 L346 -29 C362 -29 373 -15 370 -1 L203 691 C201 698 192 705 185 705 L135 705 C119 705 108 691 111 677 L278 -15 C280 -22 289 -29 296 -29 L296 -29 Z " />
<glyph glyph-name="bracketright" unicode="&#x5d;" horiz-adv-x="391" d="M272 -174 L404 906 C406 918 397 927 386 927 L184 928 C172 928 162 919 160 907 L148 817 C147 805 155 796 167 796 L234 796 C245 796 254 787 252 775 L152 -42 C150 -54 140 -63 128 -63 L62 -63 C51 -63 40 -72 39 -84 L28 -174 C26 -186 34 -195 46 -195 L248 -195 C260 -195 270 -186 272 -174 L272 -174 Z " />
<glyph glyph-name="asciicircum" unicode="&#x5e;" horiz-adv-x="488" d="M181 617 L293 719 C303 727 316 727 323 719 L412 617 C414 615 422 611 426 611 L442 611 C453 611 461 622 455 631 L340 831 C333 843 316 843 306 831 L141 631 C133 622 138 611 149 611 L165 611 C169 611 178 615 181 617 L181 617 Z " />
<glyph glyph-name="underscore" unicode="&#x5f;" horiz-adv-x="635" d="M58 -98 L516 -98 C528 -98 538 -89 540 -77 L540 -70 C542 -58 534 -49 522 -49 L64 -49 C52 -49 42 -58 40 -70 L40 -77 C38 -89 46 -98 58 -98 L58 -98 Z " />
<glyph glyph-name="grave" unicode="&#x60;" horiz-adv-x="202" d="M275 607 L186 749 C186 749 184 751 184 752 C164 770 135 760 115 742 C95 724 80 694 98 674 C98 672 101 670 231 562 C238 556 248 560 256 567 L269 579 C277 586 280 599 275 607 L275 607 Z " />
<glyph glyph-name="a" unicode="a" horiz-adv-x="583" d="M432 468 L432 464 C431 458 424 454 420 458 C400 475 368 485 328 488 C188 495 70 375 54 244 C37 107 127 0 268 0 C298 0 329 9 362 28 C370 33 378 28 377 20 C376 9 384 0 395 0 L486 0 C498 0 508 9 510 21 L564 466 C566 478 557 487 546 487 L455 488 C444 488 434 479 432 468 L432 468 Z M282 113 C206 113 164 170 173 243 C182 316 238 374 313 374 C388 374 432 316 423 243 C414 170 356 113 282 113 L282 113 Z " />
<glyph glyph-name="b" unicode="b" horiz-adv-x="582" d="M131 711 L47 21 C45 9 53 0 65 0 L162 0 C172 0 182 9 183 20 C184 28 194 33 201 28 C230 9 259 0 289 0 C430 0 546 107 563 244 C579 375 491 496 349 488 C308 486 275 476 251 460 C246 457 237 459 238 465 L268 711 C270 723 261 732 250 732 L155 732 C143 732 133 723 131 711 L131 711 Z M306 113 C231 113 188 170 197 243 C206 316 263 374 338 374 C413 374 456 316 447 243 C438 170 381 113 306 113 L306 113 Z " />
<glyph glyph-name="c" unicode="c" horiz-adv-x="496" d="M366 140 C343 123 315 113 283 113 C208 113 165 170 174 244 C183 316 240 375 315 375 C346 375 372 364 391 347 C397 342 409 341 415 347 L482 406 C492 415 495 426 486 434 C447 471 394 493 331 493 C189 493 68 385 51 244 C34 104 127 -5 269 -5 C332 -5 392 17 439 53 C449 61 449 72 441 81 L390 140 C385 146 372 145 366 140 L366 140 Z " />
<glyph glyph-name="d" unicode="d" horiz-adv-x="583" d="M462 711 L432 465 C431 459 425 455 420 459 C400 476 368 485 328 488 C187 496 70 375 54 244 C37 107 126 0 268 0 C298 0 329 9 362 28 C370 33 378 28 377 20 C376 9 384 0 395 0 L491 0 C503 0 513 9 515 21 L599 711 C601 723 592 732 581 732 L486 732 C474 732 464 723 462 711 L462 711 Z M280 113 C205 113 163 170 172 243 C181 316 237 374 312 374 C387 374 430 316 421 243 C412 170 355 113 280 113 L280 113 Z " />
<glyph glyph-name="e" unicode="e" horiz-adv-x="560" d="M53 244 C36 102 125 0 267 0 C344 0 407 19 459 59 C470 67 471 79 463 88 L419 138 C413 144 398 145 390 140 C356 121 319 112 281 112 C238 112 201 134 191 173 C188 188 196 195 212 195 L504 195 C516 195 526 204 528 216 L531 244 C548 385 471 488 327 488 C185 488 71 387 53 244 L53 244 Z M313 376 C355 376 398 354 402 312 C403 298 395 293 381 293 L225 293 C211 293 204 298 209 312 C223 354 271 376 313 376 L313 376 Z " />
<glyph glyph-name="f" unicode="f" horiz-adv-x="377" d="M212 21 L254 370 C256 382 266 391 278 391 L309 391 C321 391 331 400 333 412 L341 480 C342 492 334 501 323 501 L292 501 C280 501 272 510 273 522 L276 547 C283 599 309 618 344 618 C363 618 377 615 386 608 C388 606 393 606 395 608 L458 669 C467 678 468 690 459 697 C431 720 392 732 342 732 C239 732 154 670 141 566 L136 522 C135 510 124 501 113 501 L82 501 C70 501 59 492 58 480 L50 412 C48 400 56 391 68 391 L99 391 C111 391 119 382 117 370 L75 21 C73 9 81 0 93 0 L188 0 C200 0 210 9 212 21 L212 21 Z " />
<glyph glyph-name="g" unicode="g" horiz-adv-x="559" d="M430 467 L430 461 C429 455 422 451 417 455 C396 474 362 485 316 488 C167 492 68 385 51 244 C33 97 94 0 246 0 C290 0 331 13 369 38 C374 41 378 37 377 32 L375 20 C366 -54 313 -102 228 -98 C184 -95 148 -84 118 -65 C110 -60 95 -61 88 -69 L45 -112 C36 -121 37 -134 45 -142 C90 -185 155 -210 240 -208 C395 -205 497 -105 515 39 L567 467 C569 479 561 488 549 488 L454 488 C442 488 432 479 430 467 L430 467 Z M276 113 C201 113 159 170 168 243 C177 316 233 374 308 374 C383 374 426 316 417 243 C408 170 351 113 276 113 L276 113 Z " />
<glyph glyph-name="h" unicode="h" horiz-adv-x="537" d="M232 336 C254 358 277 371 304 373 C304 373 309 373 309 373 C372 369 397 331 389 269 L359 21 C357 9 365 0 377 0 L472 0 C484 0 494 9 496 21 L530 303 C543 411 476 488 363 488 C325 488 291 478 260 458 C252 453 242 458 243 466 L273 711 C275 723 266 732 255 732 L160 732 C148 732 138 723 136 711 L52 21 C50 9 58 0 70 0 L165 0 C177 0 187 9 189 21 L226 323 C226 326 230 334 232 336 L232 336 Z " />
<glyph glyph-name="i" unicode="i" horiz-adv-x="256" d="M189 21 L243 468 C245 480 237 489 225 489 L130 489 C118 489 108 480 106 468 L52 21 C50 9 58 0 70 0 L165 0 C177 0 187 9 189 21 L189 21 Z M118 605 C113 566 138 537 183 537 C228 537 259 566 264 605 C269 645 246 674 199 674 C155 674 123 645 118 605 L118 605 Z " />
<glyph glyph-name="j" unicode="j" horiz-adv-x="291" d="M-83 -119 L-91 -189 C-93 -201 -84 -210 -73 -210 L4 -210 C121 -210 199 -129 213 -15 L272 467 C274 479 266 488 254 488 L159 488 C147 488 137 479 135 467 L79 9 C71 -59 33 -95 -32 -98 L-59 -98 C-71 -98 -81 -107 -83 -119 L-83 -119 Z M147 605 C142 566 167 537 212 537 C257 537 288 566 293 605 C298 645 275 674 228 674 C184 674 152 645 147 605 L147 605 Z " />
<glyph glyph-name="k" unicode="k" horiz-adv-x="586" d="M83 0 L187 0 C199 0 209 9 211 21 L225 137 C227 158 252 166 264 151 L366 8 C368 4 377 0 381 0 L516 0 C535 0 547 20 536 35 L373 255 C368 263 369 275 376 283 L540 454 C554 468 547 488 528 488 L418 488 C414 488 404 484 401 480 L290 363 C275 347 252 356 254 377 L295 711 C297 723 288 732 277 732 L173 732 C161 732 151 723 149 711 L65 21 C63 9 71 0 83 0 L83 0 Z " />
<glyph glyph-name="l" unicode="l" horiz-adv-x="280" d="M189 21 L273 711 C275 723 266 732 255 732 L160 732 C148 732 138 723 136 711 L52 21 C50 9 58 0 70 0 L165 0 C177 0 187 9 189 21 L189 21 Z " />
<glyph glyph-name="m" unicode="m" horiz-adv-x="866" d="M226 318 C252 353 278 371 307 373 C307 373 312 373 312 373 C375 369 395 331 387 269 L357 21 C355 9 363 0 375 0 L470 0 C482 0 492 9 494 21 L526 288 C527 297 529 306 532 315 C532 315 534 321 535 322 C558 353 582 370 608 373 C608 373 614 373 615 373 C677 369 698 331 690 269 L660 21 C658 9 666 0 678 0 L773 0 C785 0 795 9 797 21 L831 303 C844 411 776 488 664 488 C603 488 553 475 514 448 C506 442 488 442 482 448 C454 475 414 488 361 488 C321 488 287 478 257 459 C250 454 240 458 241 466 L241 468 C243 480 235 489 223 489 L128 489 C116 489 106 480 104 468 L50 21 C48 9 56 0 68 0 L163 0 C175 0 185 9 187 21 L222 306 C222 308 225 316 226 318 L226 318 Z " />
<glyph glyph-name="n" unicode="n" horiz-adv-x="559" d="M227 317 C250 351 275 370 301 373 C301 373 308 373 308 373 C371 369 396 331 388 269 L358 21 C356 9 364 0 376 0 L471 0 C483 0 493 9 495 21 L529 303 C542 411 475 488 362 488 C324 488 290 478 259 458 C251 453 241 458 242 466 L242 468 C244 480 236 489 224 489 L129 489 C117 489 107 480 105 468 L51 21 C49 9 57 0 69 0 L164 0 C176 0 186 9 188 21 L223 306 C223 307 226 315 227 317 L227 317 Z " />
<glyph glyph-name="o" unicode="o" horiz-adv-x="562" d="M51 244 C34 104 127 -5 269 -5 C410 -5 532 103 549 244 C566 385 472 493 331 493 C189 493 68 385 51 244 L51 244 Z M283 113 C208 113 165 170 174 244 C183 316 240 375 315 375 C390 375 433 317 424 244 C415 170 358 113 283 113 L283 113 Z " />
<glyph glyph-name="p" unicode="p" horiz-adv-x="584" d="M161 -185 L187 24 C188 30 196 32 201 29 C222 13 252 3 291 0 C432 -7 549 113 565 245 C582 382 493 489 351 489 C321 489 290 480 257 461 C249 456 241 461 242 470 C243 480 235 489 225 489 L128 489 C116 489 106 480 104 468 L24 -184 C23 -196 31 -205 43 -205 L138 -206 C149 -206 160 -197 161 -185 L161 -185 Z M306 113 C231 113 189 170 198 243 C207 316 263 374 338 374 C413 374 456 316 447 243 C438 170 381 113 306 113 L306 113 Z " />
<glyph glyph-name="q" unicode="q" horiz-adv-x="572" d="M487 -184 L567 468 C569 480 561 489 549 489 L453 489 C442 489 432 480 431 470 C430 461 420 456 413 461 C384 480 355 489 326 489 C184 489 68 382 51 245 C35 113 123 -7 266 0 C306 3 339 13 363 29 C368 32 377 30 376 24 L350 -185 C349 -197 357 -206 369 -206 L464 -205 C475 -205 486 -196 487 -184 L487 -184 Z M276 113 C201 113 159 170 168 243 C177 316 233 374 308 374 C383 374 426 316 417 243 C408 170 351 113 276 113 L276 113 Z " />
<glyph glyph-name="r" unicode="r" horiz-adv-x="389" d="M218 488 L124 488 C112 488 102 479 100 467 L46 21 C44 9 52 0 64 0 L158 0 C170 0 180 9 182 21 L215 295 C215 297 218 303 219 305 C254 347 297 363 349 356 C360 354 376 362 380 374 L409 476 C410 481 409 485 405 485 C392 487 380 488 366 488 C325 487 287 475 254 452 C246 447 234 451 235 460 L236 467 C238 479 230 488 218 488 L218 488 Z " />
<glyph glyph-name="s" unicode="s" horiz-adv-x="453" d="M434 439 C391 480 354 491 278 491 C192 491 98 431 86 336 C73 232 140 197 227 187 C271 183 295 174 301 162 C320 125 261 102 217 107 C179 111 150 122 131 140 C125 145 113 146 107 140 L48 83 C39 74 38 63 46 55 C84 18 137 -5 219 -5 C308 -5 407 42 419 141 C433 254 373 291 274 303 C209 316 190 336 215 360 C228 373 251 379 284 379 C311 379 333 370 351 352 C357 346 368 346 375 352 L433 410 C442 419 442 432 434 439 L434 439 Z " />
<glyph glyph-name="t" unicode="t" horiz-adv-x="384" d="M270 0 C294 0 318 6 340 16 C348 20 352 29 350 37 L337 112 C337 117 332 120 327 119 C313 116 304 115 299 115 C264 115 242 133 249 186 L270 356 C271 368 282 377 293 377 L334 377 C346 377 356 386 358 398 L366 467 C368 479 360 488 348 488 L307 488 C295 488 287 497 288 509 L301 614 C303 626 295 635 283 635 L188 635 C176 635 166 626 164 614 L151 509 C150 497 140 488 128 488 L97 488 C85 488 75 479 73 467 L65 398 C63 386 72 377 83 377 L114 377 C126 377 134 368 133 356 L109 166 C97 62 167 0 270 0 L270 0 Z " />
<glyph glyph-name="u" unicode="u" horiz-adv-x="549" d="M361 168 C338 136 313 119 287 116 C287 116 280 116 280 116 C217 120 191 157 199 220 L229 468 C231 480 223 489 211 489 L117 489 C105 489 95 480 93 468 L59 186 C46 78 113 0 226 0 C263 0 298 10 329 30 C337 35 347 31 346 22 L346 21 C344 9 352 0 364 0 L459 0 C471 0 481 9 483 21 L537 468 C539 480 531 489 519 489 L424 489 C412 489 402 480 400 468 L365 178 C365 177 362 169 361 168 L361 168 Z " />
<glyph glyph-name="v" unicode="v" horiz-adv-x="558" d="M76 459 L201 13 C203 6 212 0 219 0 L308 0 C315 0 325 6 329 13 L563 459 C571 474 563 488 547 488 L453 488 C446 488 436 481 432 475 L311 235 C301 216 276 216 271 235 L210 474 C209 481 200 488 192 488 L99 488 C83 488 72 474 76 459 L76 459 Z " />
<glyph glyph-name="w" unicode="w" horiz-adv-x="713" d="M428 0 L518 0 C526 0 537 7 540 16 L714 463 C719 477 711 489 697 489 L612 489 C604 489 593 482 590 473 L515 277 C507 256 477 257 475 278 L453 473 C452 482 443 489 434 489 L366 489 C358 489 347 482 344 473 L270 279 C262 258 233 258 230 279 L203 473 C202 482 193 489 185 489 L99 489 C85 489 74 477 76 463 L141 16 C142 7 151 0 159 0 L249 0 C258 0 268 7 271 15 L340 178 C348 198 376 198 380 178 L409 15 C411 7 419 0 428 0 L428 0 Z " />
<glyph glyph-name="x" unicode="x" horiz-adv-x="535" d="M46 0 L135 0 C140 0 150 5 153 9 L248 127 C259 140 276 140 283 127 L349 9 C351 5 360 0 365 0 L454 0 C472 0 484 18 476 33 L358 242 C354 248 356 260 361 266 L512 454 C524 469 516 487 498 487 L410 487 C405 487 395 482 391 478 L314 382 C304 368 287 368 279 382 L226 478 C224 482 215 487 210 487 L121 487 C103 487 92 469 100 454 L205 266 C208 260 207 248 202 242 L33 33 C20 18 28 0 46 0 L46 0 Z " />
<glyph glyph-name="y" unicode="y" horiz-adv-x="551" d="M218 -197 L563 459 C571 474 563 488 547 488 L453 488 C446 488 436 481 432 475 L311 235 C301 216 276 216 271 235 L210 474 C209 481 200 488 192 488 L98 488 C82 488 71 475 74 460 L180 7 C181 5 180 -5 178 -7 L91 -182 C83 -196 91 -210 107 -210 L197 -210 C204 -210 215 -204 218 -197 L218 -197 Z " />
<glyph glyph-name="z" unicode="z" horiz-adv-x="495" d="M425 115 L279 115 C262 115 254 132 265 147 L484 447 C485 448 488 456 488 458 L490 470 C491 479 484 487 474 487 L123 487 C111 487 101 478 99 466 L90 393 C89 381 97 372 109 372 L254 372 C271 372 279 355 268 340 L50 38 C49 37 46 29 45 27 L44 17 C43 7 49 0 59 0 L411 0 C423 0 433 9 435 21 L444 94 C445 106 437 115 425 115 L425 115 Z " />
<glyph glyph-name="bar" unicode="&#x7c;" horiz-adv-x="378" d="M211 -174 L343 906 C345 918 336 927 325 927 L230 927 C218 927 208 918 206 906 L74 -174 C72 -186 80 -195 92 -195 L187 -195 C199 -195 209 -186 211 -174 L211 -174 Z " />
<glyph glyph-name="exclamdown" unicode="&#xa1;" horiz-adv-x="293" d="M152 502 L61 64 C55 18 66 0 117 0 C166 0 183 18 189 64 L220 501 C220 512 212 521 201 521 L175 521 C165 521 154 512 152 502 L152 502 Z M274 647 C279 687 255 716 210 716 C165 716 133 687 128 647 C124 608 147 579 194 579 C238 579 270 608 274 647 L274 647 Z " />
<glyph glyph-name="cent" unicode="&#xa2;" horiz-adv-x="496" d="M366 140 C343 123 315 113 283 113 C208 113 165 170 174 244 C183 316 240 375 315 375 C346 375 372 364 391 347 C397 342 409 341 415 347 L482 406 C492 415 493 428 484 436 C458 460 426 477 389 486 C381 488 375 498 376 507 L381 543 C382 555 374 564 362 564 L293 564 C282 564 271 555 270 543 L264 500 C263 492 254 482 246 479 C144 447 65 356 51 244 C37 133 94 42 188 8 C195 5 202 -5 201 -13 L195 -64 C194 -76 202 -85 214 -85 L283 -85 C294 -85 305 -76 306 -64 L312 -19 C313 -10 325 1 334 3 C371 11 406 28 436 51 C447 59 449 72 441 81 L390 140 C385 146 372 145 366 140 L366 140 Z " />
<glyph glyph-name="sterling" unicode="&#xa3;" horiz-adv-x="667" d="M89 369 L84 329 C83 317 91 308 103 308 L137 308 C145 308 152 304 154 297 C171 231 153 169 97 116 C95 114 92 107 92 104 L82 21 C80 9 88 0 100 0 L561 0 C573 0 583 9 585 21 L593 91 C595 103 586 112 575 112 L281 112 C267 112 258 124 263 137 C284 199 292 249 289 287 C288 297 298 308 309 308 L453 308 C464 308 475 317 476 329 L481 369 C483 381 474 390 463 390 L281 390 C275 390 271 393 270 399 C270 416 271 432 274 449 C288 540 327 583 421 591 C421 591 425 591 425 591 C471 587 507 572 534 546 C542 538 559 538 567 548 L634 625 C641 633 644 643 637 650 C574 713 524 732 419 732 C293 732 193 653 159 527 C148 487 142 450 140 413 C140 402 129 390 118 390 L113 390 C101 390 91 381 89 369 L89 369 Z " />
<glyph glyph-name="yen" unicode="&#xa5;" horiz-adv-x="749" d="M185 156 L284 156 C296 156 304 147 303 135 L289 21 C287 9 295 0 307 0 L411 0 C423 0 433 9 435 21 L449 135 C450 147 461 156 472 156 L582 156 C594 156 604 165 606 177 L612 232 C614 244 606 253 594 253 L484 253 C472 253 464 262 466 274 L473 331 C474 343 485 352 496 352 L606 352 C618 352 628 361 630 373 L637 428 C638 440 630 449 618 449 L590 449 C571 449 564 468 577 482 L762 699 C775 713 768 732 749 732 L634 732 C629 732 619 727 616 723 L440 517 C429 504 413 504 406 517 L284 723 C282 727 273 732 268 732 L148 732 C130 732 118 713 127 699 L260 481 C269 467 258 449 240 449 L221 449 C210 449 199 440 198 428 L191 373 C189 361 198 352 209 352 L308 352 C320 352 328 343 327 331 L320 274 C318 262 308 253 296 253 L197 253 C185 253 175 244 173 232 L167 177 C165 165 174 156 185 156 L185 156 Z " />
<glyph glyph-name="dieresis" unicode="&#xa8;" horiz-adv-x="527" d="M454 600 C493 600 526 628 532 673 C537 718 511 746 472 746 C433 746 400 719 395 672 C389 627 415 600 454 600 L454 600 Z M183 600 C222 600 254 628 260 673 C265 718 240 746 201 746 C162 746 128 719 123 672 C117 628 144 600 183 600 L183 600 Z " />
<glyph glyph-name="copyright" unicode="&#xa9;" horiz-adv-x="817" d="M498 714 C395 714 296 672 220 602 C145 533 101 444 89 351 C77 256 102 169 159 100 C219 28 306 -12 406 -12 C508 -12 603 27 681 99 C757 168 803 257 814 351 C820 396 817 441 805 485 C793 529 774 568 745 602 C686 672 598 714 498 714 L498 714 Z M248 583 C327 649 407 679 493 679 C576 679 651 647 707 588 C736 558 755 522 768 480 C781 438 784 395 779 351 C768 259 720 176 647 113 C577 54 496 23 410 23 C326 23 255 55 197 114 C140 177 113 257 124 351 C130 396 144 440 166 480 C189 521 216 555 248 583 L248 583 Z M215 349 C193 214 292 112 423 111 C481 111 535 127 584 159 C595 167 599 180 592 190 L561 228 C556 235 540 236 532 231 C502 214 470 206 434 206 C347 206 300 263 310 350 C320 432 385 490 469 490 C504 490 535 481 562 463 C569 458 583 460 590 467 L630 505 C640 514 643 526 634 533 C592 568 542 585 481 585 C351 585 227 481 215 349 L215 349 Z " />
<glyph glyph-name="guillemotleft" unicode="&#xab;" horiz-adv-x="482" d="M492 392 L275 251 C261 242 259 226 271 217 L453 77 C461 71 473 77 475 88 L477 104 C477 108 475 117 472 119 L384 220 C377 228 378 242 388 250 L501 350 C503 352 508 361 509 365 L511 381 C512 392 502 398 492 392 L492 392 Z M321 392 L104 251 C90 242 88 226 100 217 L282 77 C290 71 302 77 304 88 L306 104 C306 108 304 117 301 119 L213 220 C206 228 207 242 217 250 L330 350 C332 352 337 361 338 365 L340 381 C341 392 331 398 321 392 L321 392 Z " />
<glyph glyph-name="registered" unicode="&#xae;" horiz-adv-x="817" d="M498 714 C395 714 296 672 220 602 C145 533 101 444 89 351 C77 256 102 169 159 100 C219 28 306 -12 406 -12 C508 -12 603 27 681 99 C757 168 803 257 814 351 C820 396 817 441 805 485 C793 529 774 568 745 602 C686 672 598 714 498 714 L498 714 Z M248 583 C327 649 407 679 493 679 C576 679 651 647 707 588 C736 558 755 522 768 480 C781 438 784 395 779 351 C768 259 720 176 647 113 C577 54 496 23 410 23 C326 23 255 55 197 114 C140 177 113 257 124 351 C130 396 144 440 166 480 C189 521 216 555 248 583 L248 583 Z M402 488 L504 488 C539 486 555 472 552 443 C548 412 528 396 491 395 L390 395 C379 395 371 404 372 416 L378 467 C380 479 390 488 402 488 L402 488 Z M560 332 C601 353 625 390 632 444 C642 527 596 569 494 569 L325 569 C313 569 303 560 301 548 L253 154 C251 142 260 133 271 133 L316 133 C328 133 338 142 340 154 L357 292 C358 304 369 313 380 313 L426 313 C432 313 441 308 443 303 L517 143 C519 138 528 133 533 133 L585 133 C603 133 614 149 607 164 L547 301 C542 311 549 327 560 332 L560 332 Z " />
<glyph glyph-name="macron" unicode="&#xaf;" horiz-adv-x="312" d="M390 637 L395 673 C396 685 388 694 376 694 L106 694 C95 694 84 685 83 673 L78 637 C77 625 85 616 97 616 L367 616 C378 616 389 625 390 637 L390 637 Z " />
<glyph glyph-name="degree" unicode="&#xb0;" horiz-adv-x="377" d="M334 585 C328 537 284 500 238 500 C193 500 157 538 163 585 C169 633 214 670 259 670 C305 670 340 633 334 585 L334 585 Z M267 732 C184 732 111 665 101 584 C91 504 147 437 230 437 C311 437 386 505 396 584 C406 664 349 732 267 732 L267 732 Z " />
<glyph glyph-name="acute" unicode="&#xb4;" horiz-adv-x="202" d="M113 562 C269 670 273 672 274 674 C296 694 290 724 274 742 C259 760 232 770 208 752 C208 751 205 749 205 749 L80 607 C73 599 73 586 79 579 L90 567 C96 560 105 556 113 562 L113 562 Z " />
<glyph glyph-name="paragraph" unicode="&#xb6;" horiz-adv-x="956" d="M406 732 C236 732 141 662 124 521 C106 375 183 303 353 303 L505 303 C517 303 525 294 524 282 L492 21 C490 9 498 0 510 0 L615 0 C627 0 637 9 639 21 L706 574 C708 586 718 595 730 595 L795 595 C807 595 815 586 813 574 L746 21 C744 9 752 0 764 0 L868 0 C880 0 890 9 892 21 L976 712 C978 724 970 733 958 733 L406 732 L406 732 Z " />
<glyph glyph-name="cedilla" unicode="&#xb8;" horiz-adv-x="349" d="M218 -200 C274 -200 333 -153 341 -91 C345 -57 328 -32 293 -13 C281 -7 278 10 287 21 L296 31 C308 46 301 64 283 64 L241 64 C235 64 225 58 222 53 L172 -19 C164 -31 168 -45 181 -49 L231 -65 C250 -71 261 -80 260 -93 C258 -108 241 -120 228 -120 C215 -120 205 -111 197 -98 C194 -94 187 -92 182 -94 L141 -113 C129 -118 124 -129 129 -140 C144 -174 175 -200 218 -200 L218 -200 Z " />
<glyph glyph-name="guillemotright" unicode="&#xbb;" horiz-adv-x="482" d="M98 350 L187 250 C194 242 192 228 183 220 L70 119 C67 117 62 108 62 104 L60 88 C58 77 69 71 79 77 L295 217 C309 226 311 242 299 251 L118 392 C109 398 97 392 96 381 L94 365 C93 361 96 352 98 350 L98 350 Z M269 350 L358 250 C365 242 363 228 354 220 L241 119 C238 117 233 108 233 104 L231 88 C229 77 240 71 250 77 L466 217 C480 226 482 242 470 251 L289 392 C280 398 268 392 267 381 L265 365 C264 361 267 352 269 350 L269 350 Z " />
<glyph glyph-name="questiondown" unicode="&#xbf;" horiz-adv-x="610" d="M269 0 C383 0 443 18 524 82 C534 90 538 105 531 113 L473 179 C466 187 450 186 441 179 C406 151 364 137 315 137 C167 137 153 279 269 305 C382 330 420 411 437 512 C439 524 432 537 420 537 L325 537 C315 537 303 526 301 515 C286 454 257 417 214 405 C115 379 62 307 50 215 C34 85 159 0 269 0 L269 0 Z M457 664 C461 703 437 732 392 732 C347 732 315 703 311 664 C306 625 329 595 376 595 C421 595 452 625 457 664 L457 664 Z " />
<glyph glyph-name="Agrave" unicode="&#xc0;" horiz-adv-x="803" d="M185 13 L229 99 C232 106 243 112 250 112 L553 112 C561 112 570 106 571 99 L594 13 C596 6 605 0 612 0 L722 0 C738 0 749 14 745 29 L555 719 C553 726 544 732 537 732 L418 732 C411 732 401 726 397 719 L36 29 C28 14 36 0 52 0 L164 0 C171 0 181 6 185 13 L185 13 Z M501 259 L343 259 C327 259 319 273 327 288 L432 488 C442 506 466 506 471 488 L524 288 C528 273 517 259 501 259 L501 259 Z M603 851 L514 993 C514 993 512 995 511 996 C492 1014 462 1004 443 986 C423 968 408 938 426 918 C427 917 429 915 559 807 C566 800 576 804 584 811 L597 823 C605 830 608 843 603 851 L603 851 Z " />
<glyph glyph-name="Aacute" unicode="&#xc1;" horiz-adv-x="803" d="M185 13 L229 99 C232 106 243 112 250 112 L553 112 C561 112 570 106 571 99 L594 13 C596 6 605 0 612 0 L722 0 C738 0 749 14 745 29 L555 719 C553 726 544 732 537 732 L418 732 C411 732 401 726 397 719 L36 29 C28 14 36 0 52 0 L164 0 C171 0 181 6 185 13 L185 13 Z M501 259 L343 259 C327 259 319 273 327 288 L432 488 C442 506 466 506 471 488 L524 288 C528 273 517 259 501 259 L501 259 Z M441 807 C598 915 601 917 602 918 C624 938 618 968 601 986 C587 1004 560 1014 536 996 C536 995 533 993 533 993 L408 851 C401 843 401 830 407 823 L418 811 C424 804 433 800 441 807 L441 807 Z " />
<glyph glyph-name="Acircumflex" unicode="&#xc2;" horiz-adv-x="803" d="M185 13 L229 99 C232 106 243 112 250 112 L553 112 C561 112 570 106 571 99 L594 13 C596 6 605 0 612 0 L722 0 C738 0 749 14 745 29 L555 719 C553 726 544 732 537 732 L418 732 C411 732 401 726 397 719 L36 29 C28 14 36 0 52 0 L164 0 C171 0 181 6 185 13 L185 13 Z M501 259 L343 259 C327 259 319 273 327 288 L432 488 C442 506 466 506 471 488 L524 288 C528 273 517 259 501 259 L501 259 Z M360 817 L373 803 C379 797 391 796 399 801 L491 860 C497 864 509 864 515 860 L592 801 C599 796 611 797 618 803 L634 816 C644 824 647 837 640 846 L534 985 C526 995 512 995 502 985 L362 847 C353 838 352 825 360 817 L360 817 Z " />
<glyph glyph-name="Atilde" unicode="&#xc3;" horiz-adv-x="803" d="M185 13 L229 99 C232 106 243 112 250 112 L553 112 C561 112 570 106 571 99 L594 13 C596 6 605 0 612 0 L722 0 C738 0 749 14 745 29 L555 719 C553 726 544 732 537 732 L418 732 C411 732 401 726 397 719 L36 29 C28 14 36 0 52 0 L164 0 C171 0 181 6 185 13 L185 13 Z M501 259 L343 259 C327 259 319 273 327 288 L432 488 C442 506 466 506 471 488 L524 288 C528 273 517 259 501 259 L501 259 Z M379 850 C380 852 384 885 406 890 C421 894 442 882 474 854 C572 766 728 811 744 959 C746 970 738 983 727 983 L651 983 C643 983 635 976 634 968 L632 952 C627 920 595 918 546 958 C446 1038 305 1018 267 874 C264 861 271 850 284 850 L362 850 C371 850 378 841 379 850 L379 850 Z " />
<glyph glyph-name="Adieresis" unicode="&#xc4;" horiz-adv-x="803" d="M185 13 L229 99 C232 106 243 112 250 112 L553 112 C561 112 570 106 571 99 L594 13 C596 6 605 0 612 0 L722 0 C738 0 749 14 745 29 L555 719 C553 726 544 732 537 732 L418 732 C411 732 401 726 397 719 L36 29 C28 14 36 0 52 0 L164 0 C171 0 181 6 185 13 L185 13 Z M501 259 L343 259 C327 259 319 273 327 288 L432 488 C442 506 466 506 471 488 L524 288 C528 273 517 259 501 259 L501 259 Z M626 844 C666 844 698 872 704 917 C709 962 684 990 644 990 C605 990 572 963 566 916 C561 872 587 844 626 844 L626 844 Z M355 844 C394 844 426 872 432 917 C437 962 412 990 373 990 C334 990 300 963 295 917 C289 872 316 844 355 844 L355 844 Z " />
<glyph glyph-name="Aring" unicode="&#xc5;" horiz-adv-x="803" d="M185 13 L229 99 C232 106 243 112 250 112 L553 112 C561 112 570 106 571 99 L594 13 C596 6 605 0 612 0 L722 0 C738 0 749 14 745 29 L555 719 C553 726 544 732 537 732 L418 732 C411 732 401 726 397 719 L36 29 C28 14 36 0 52 0 L164 0 C171 0 181 6 185 13 L185 13 Z M501 259 L343 259 C327 259 319 273 327 288 L432 488 C442 506 466 506 471 488 L524 288 C528 273 517 259 501 259 L501 259 Z M497 804 C557 804 607 848 616 917 C624 986 584 1030 524 1030 C464 1030 413 988 404 916 C396 848 437 804 497 804 L497 804 Z M505 875 C482 875 468 891 472 917 C475 943 493 958 516 958 C538 958 553 943 550 917 C546 891 527 875 505 875 L505 875 Z " />
<glyph glyph-name="AE" unicode="&#xc6;" horiz-adv-x="998" d="M932 21 L943 116 C945 128 936 137 925 137 L576 137 C564 137 556 146 557 158 L573 282 C574 294 585 303 596 303 L848 303 C860 303 870 312 872 324 L883 418 C885 430 876 439 865 439 L613 439 C601 439 593 448 594 460 L609 575 C610 587 621 596 632 596 L982 596 C994 596 1004 605 1006 617 L1017 711 C1019 723 1010 732 999 732 L418 732 C411 732 401 726 397 719 L36 29 C28 14 36 0 52 0 L164 0 C171 0 181 6 185 13 L229 99 C232 106 243 112 250 112 L385 112 C396 112 405 103 403 91 L395 21 C393 9 401 0 413 0 L908 0 C920 0 930 9 932 21 L932 21 Z M403 259 L343 259 C327 259 319 273 327 288 L405 437 C416 457 447 451 445 429 L426 280 C425 268 414 259 403 259 L403 259 Z " />
<glyph glyph-name="Ccedilla" unicode="&#xc7;" horiz-adv-x="756" d="M347 -200 C403 -200 462 -153 470 -91 C474 -57 457 -31 422 -12 C418 -10 422 0 427 1 C509 7 585 36 653 84 C663 92 666 105 658 114 L598 190 C592 198 579 200 570 194 C521 162 467 146 409 146 C275 146 200 235 215 369 C231 498 333 585 462 586 C520 586 570 571 612 539 C620 534 633 535 641 542 L720 619 C730 628 731 641 722 649 C657 705 576 732 480 732 C279 732 89 573 69 368 C42 197 142 52 293 12 C306 8 310 -6 302 -18 L301 -19 C293 -32 297 -45 310 -49 L360 -65 C379 -71 390 -80 389 -93 C387 -108 370 -120 357 -120 C344 -120 334 -111 326 -98 C323 -94 316 -92 311 -94 L270 -113 C258 -118 253 -129 258 -140 C273 -174 304 -200 347 -200 L347 -200 Z " />
<glyph glyph-name="Egrave" unicode="&#xc8;" horiz-adv-x="684" d="M598 21 L609 116 C611 128 602 137 591 137 L243 137 C231 137 223 146 224 158 L240 282 C241 294 252 303 263 303 L514 303 C526 303 536 312 538 324 L549 418 C551 430 542 439 531 439 L280 439 C268 439 260 448 261 460 L276 575 C277 587 288 596 299 596 L648 596 C660 596 670 605 672 617 L683 711 C685 723 676 732 665 732 L169 732 C157 732 147 723 145 711 L61 21 C59 9 67 0 79 0 L574 0 C586 0 596 9 598 21 L598 21 Z M543 851 L454 993 C454 993 452 995 451 996 C432 1014 403 1004 383 986 C363 968 348 938 366 918 C367 917 369 915 500 807 C507 801 517 804 524 811 L538 823 C546 830 548 843 543 851 L543 851 Z " />
<glyph glyph-name="Eacute" unicode="&#xc9;" horiz-adv-x="684" d="M598 21 L609 116 C611 128 602 137 591 137 L243 137 C231 137 223 146 224 158 L240 282 C241 294 252 303 263 303 L514 303 C526 303 536 312 538 324 L549 418 C551 430 542 439 531 439 L280 439 C268 439 260 448 261 460 L276 575 C277 587 288 596 299 596 L648 596 C660 596 670 605 672 617 L683 711 C685 723 676 732 665 732 L169 732 C157 732 147 723 145 711 L61 21 C59 9 67 0 79 0 L574 0 C586 0 596 9 598 21 L598 21 Z M381 807 C539 915 542 917 543 918 C565 938 558 968 542 986 C527 1004 500 1014 476 996 C476 995 473 993 473 993 L348 851 C341 843 341 830 347 823 L358 811 C364 804 373 801 381 807 L381 807 Z " />
<glyph glyph-name="Ecircumflex" unicode="&#xca;" horiz-adv-x="684" d="M598 21 L609 116 C611 128 602 137 591 137 L243 137 C231 137 223 146 224 158 L240 282 C241 294 252 303 263 303 L514 303 C526 303 536 312 538 324 L549 418 C551 430 542 439 531 439 L280 439 C268 439 260 448 261 460 L276 575 C277 587 288 596 299 596 L648 596 C660 596 670 605 672 617 L683 711 C685 723 676 732 665 732 L169 732 C157 732 147 723 145 711 L61 21 C59 9 67 0 79 0 L574 0 C586 0 596 9 598 21 L598 21 Z M300 817 L313 803 C319 797 331 796 339 802 L431 860 C437 864 449 864 454 860 L533 801 C539 796 552 797 559 803 L575 816 C584 824 587 837 580 846 L474 985 C466 995 452 995 442 985 L302 846 C294 838 293 825 300 817 L300 817 Z " />
<glyph glyph-name="Edieresis" unicode="&#xcb;" horiz-adv-x="684" d="M598 21 L609 116 C611 128 602 137 591 137 L243 137 C231 137 223 146 224 158 L240 282 C241 294 252 303 263 303 L514 303 C526 303 536 312 538 324 L549 418 C551 430 542 439 531 439 L280 439 C268 439 260 448 261 460 L276 575 C277 587 288 596 299 596 L648 596 C660 596 670 605 672 617 L683 711 C685 723 676 732 665 732 L169 732 C157 732 147 723 145 711 L61 21 C59 9 67 0 79 0 L574 0 C586 0 596 9 598 21 L598 21 Z M582 844 C621 844 653 872 659 917 C664 962 639 990 600 990 C560 990 527 963 521 916 C516 872 542 844 582 844 L582 844 Z M310 844 C349 844 381 872 387 917 C392 962 367 990 328 990 C289 990 255 963 250 917 C244 872 271 844 310 844 L310 844 Z " />
<glyph glyph-name="Igrave" unicode="&#xcc;" horiz-adv-x="293" d="M81 0 L185 0 C197 0 207 9 209 21 L293 712 C295 724 287 733 275 733 L171 733 C159 733 149 724 147 712 L63 21 C61 9 69 0 81 0 L81 0 Z M348 851 L259 993 C259 993 257 995 256 996 C237 1014 207 1004 188 986 C168 968 153 938 171 918 C172 917 174 915 304 807 C311 800 321 804 329 811 L342 823 C350 830 353 843 348 851 L348 851 Z " />
<glyph glyph-name="Iacute" unicode="&#xcd;" horiz-adv-x="293" d="M81 0 L185 0 C197 0 207 9 209 21 L293 712 C295 724 287 733 275 733 L171 733 C159 733 149 724 147 712 L63 21 C61 9 69 0 81 0 L81 0 Z M186 807 C343 915 346 917 347 918 C369 938 363 968 347 986 C332 1004 305 1014 281 996 C281 995 278 993 278 993 L153 851 C146 843 146 830 152 823 L163 811 C169 804 178 800 186 807 L186 807 Z " />
<glyph glyph-name="Icircumflex" unicode="&#xce;" horiz-adv-x="293" d="M81 0 L185 0 C197 0 207 9 209 21 L293 712 C295 724 287 733 275 733 L171 733 C159 733 149 724 147 712 L63 21 C61 9 69 0 81 0 L81 0 Z M105 817 L118 803 C124 797 136 796 144 801 L236 860 C242 864 254 864 260 860 L337 801 C344 796 356 797 363 803 L379 816 C389 824 392 837 385 846 L279 985 C271 995 257 995 247 985 L107 847 C98 838 97 825 105 817 L105 817 Z " />
<glyph glyph-name="Idieresis" unicode="&#xcf;" horiz-adv-x="293" d="M81 0 L185 0 C197 0 207 9 209 21 L293 712 C295 724 287 733 275 733 L171 733 C159 733 149 724 147 712 L63 21 C61 9 69 0 81 0 L81 0 Z M377 844 C416 844 448 872 454 917 C459 962 434 990 395 990 C356 990 322 963 316 916 C311 872 338 844 377 844 L377 844 Z M105 844 C145 844 177 872 183 917 C188 962 163 990 123 990 C84 990 51 963 46 917 C40 872 66 844 105 844 L105 844 Z " />
<glyph glyph-name="Eth" unicode="&#xd0;" horiz-adv-x="781" d="M342 0 C570 0 699 122 729 366 C759 611 660 733 432 733 L171 733 C159 733 149 724 147 712 L113 432 C112 420 101 411 89 411 L50 411 C39 411 28 402 27 390 L20 335 C19 323 27 314 39 314 L78 314 C89 314 97 305 96 293 L63 21 C61 9 69 0 81 0 L342 0 L342 0 Z M228 167 L243 293 C244 305 255 314 267 314 L300 314 C311 314 322 323 323 335 L330 390 C331 402 323 411 311 411 L278 411 C267 411 259 420 260 432 L276 565 C278 577 288 586 300 586 L414 586 C544 586 600 513 583 366 C564 220 490 146 360 146 L246 146 C234 146 226 155 228 167 L228 167 Z " />
<glyph glyph-name="Ntilde" unicode="&#xd1;" horiz-adv-x="806" d="M210 21 L264 462 C266 482 290 491 302 476 L577 139 C579 137 582 128 581 125 L569 21 C567 9 575 0 587 0 L693 0 C705 0 715 9 717 21 L801 711 C803 723 794 732 783 732 L679 732 C667 732 657 723 655 711 L618 405 C615 386 592 377 580 391 L302 725 C300 728 291 732 288 732 L171 732 C159 732 149 723 147 711 L63 21 C61 9 69 0 81 0 L186 0 C198 0 208 9 210 21 L210 21 Z M376 850 C377 852 381 885 403 890 C418 894 440 882 471 854 C569 766 725 811 742 959 C743 970 736 983 725 983 L648 983 C640 983 632 976 631 968 L629 952 C624 920 592 918 543 958 C444 1038 302 1018 264 874 C261 861 268 850 281 850 L359 850 C368 850 375 841 376 850 L376 850 Z " />
<glyph glyph-name="Ograve" unicode="&#xd2;" horiz-adv-x="804" d="M68 366 C43 160 182 0 389 0 C596 0 775 159 800 366 C825 573 686 732 479 732 C272 732 93 573 68 366 L68 366 Z M407 137 C275 137 198 238 214 366 C230 494 331 596 462 596 C593 596 670 494 654 366 C638 239 537 137 407 137 L407 137 Z M604 851 L515 993 C515 993 513 995 512 996 C493 1014 463 1004 444 986 C424 968 409 938 427 918 C428 917 430 915 560 807 C567 800 577 804 585 811 L598 823 C606 830 609 843 604 851 L604 851 Z " />
<glyph glyph-name="Oacute" unicode="&#xd3;" horiz-adv-x="804" d="M68 366 C43 160 182 0 389 0 C596 0 775 159 800 366 C825 573 686 732 479 732 C272 732 93 573 68 366 L68 366 Z M407 137 C275 137 198 238 214 366 C230 494 331 596 462 596 C593 596 670 494 654 366 C638 239 537 137 407 137 L407 137 Z M442 807 C599 915 602 917 603 918 C625 938 619 968 602 986 C588 1004 561 1014 537 996 C537 995 534 993 534 993 L409 851 C402 843 402 830 408 823 L419 811 C425 804 434 800 442 807 L442 807 Z " />
<glyph glyph-name="Ocircumflex" unicode="&#xd4;" horiz-adv-x="804" d="M68 366 C43 160 182 0 389 0 C596 0 775 159 800 366 C825 573 686 732 479 732 C272 732 93 573 68 366 L68 366 Z M407 137 C275 137 198 238 214 366 C230 494 331 596 462 596 C593 596 670 494 654 366 C638 239 537 137 407 137 L407 137 Z M360 817 L373 803 C379 797 391 796 399 802 L491 860 C497 864 509 864 514 860 L593 801 C599 796 612 797 619 803 L635 816 C644 824 647 837 640 846 L534 985 C526 995 512 995 502 985 L362 846 C354 838 353 825 360 817 L360 817 Z " />
<glyph glyph-name="Otilde" unicode="&#xd5;" horiz-adv-x="804" d="M68 366 C43 160 182 0 389 0 C596 0 775 159 800 366 C825 573 686 732 479 732 C272 732 93 573 68 366 L68 366 Z M407 137 C275 137 198 238 214 366 C230 494 331 596 462 596 C593 596 670 494 654 366 C638 239 537 137 407 137 L407 137 Z M380 850 C381 852 385 885 407 890 C422 894 443 882 475 854 C573 766 729 811 745 959 C747 970 739 983 728 983 L652 983 C644 983 636 976 635 968 L633 952 C628 920 596 918 547 958 C447 1038 306 1018 268 874 C265 861 272 850 285 850 L363 850 C372 850 379 841 380 850 L380 850 Z " />
<glyph glyph-name="Odieresis" unicode="&#xd6;" horiz-adv-x="804" d="M68 366 C43 160 182 0 389 0 C596 0 775 159 800 366 C825 573 686 732 479 732 C272 732 93 573 68 366 L68 366 Z M407 137 C275 137 198 238 214 366 C230 494 331 596 462 596 C593 596 670 494 654 366 C638 239 537 137 407 137 L407 137 Z M627 844 C666 844 699 872 705 917 C710 962 684 990 645 990 C606 990 573 963 567 916 C562 872 588 844 627 844 L627 844 Z M356 844 C395 844 427 872 433 917 C438 962 413 990 374 990 C335 990 301 963 296 917 C290 872 317 844 356 844 L356 844 Z " />
<glyph glyph-name="multiply" unicode="&#xd7;" horiz-adv-x="541" d="M386 365 L505 471 C514 479 516 493 509 501 L487 527 C479 535 466 535 457 527 L337 420 C328 412 315 412 308 420 L214 527 C206 535 193 535 184 527 L155 501 C146 493 144 479 152 471 L245 365 C252 357 251 343 241 335 L122 229 C113 221 111 207 118 199 L141 174 C148 166 161 166 170 174 L291 280 C300 288 313 288 320 280 L413 174 C421 166 434 166 443 174 L472 199 C481 207 482 221 475 229 L382 335 C375 343 376 357 386 365 L386 365 Z " />
<glyph glyph-name="Oslash" unicode="&#xd8;" horiz-adv-x="804" d="M329 4 C348 1 368 0 389 0 C596 0 775 159 800 366 C817 501 763 616 666 679 C659 684 655 697 659 706 L683 756 C691 770 683 784 667 784 L603 784 C595 784 585 777 582 770 L565 736 C562 730 552 725 546 726 C524 730 502 732 479 732 C272 732 93 573 68 366 C51 228 108 111 209 48 C216 44 221 31 216 22 L193 -28 C186 -43 193 -56 209 -56 L273 -56 C280 -56 290 -49 294 -42 L312 -5 C315 1 323 5 329 4 L329 4 Z M462 596 C472 596 481 595 490 594 C493 593 494 591 492 588 L301 196 C294 181 280 177 269 187 C226 229 205 293 214 366 C230 494 331 596 462 596 L462 596 Z M407 137 C399 137 393 137 386 138 C384 138 383 140 384 142 L573 530 C580 545 593 550 604 539 C644 497 662 435 654 366 C638 239 537 137 407 137 L407 137 Z " />
<glyph glyph-name="Ugrave" unicode="&#xd9;" horiz-adv-x="782" d="M136 711 L82 269 C62 102 206 0 366 0 C527 0 697 102 717 269 L771 711 C773 723 764 732 753 732 L648 732 C636 732 626 723 624 711 L575 308 C562 200 485 146 384 146 C283 146 220 200 233 308 L282 711 C284 723 275 732 264 732 L160 732 C148 732 138 723 136 711 L136 711 Z M509 851 L420 993 C420 993 418 995 417 996 C398 1014 369 1004 350 986 C329 968 315 938 333 918 C334 917 336 915 466 807 C473 800 483 804 491 811 L504 823 C512 830 514 843 509 851 L509 851 Z " />
<glyph glyph-name="Uacute" unicode="&#xda;" horiz-adv-x="782" d="M136 711 L82 269 C62 102 206 0 366 0 C527 0 697 102 717 269 L771 711 C773 723 764 732 753 732 L648 732 C636 732 626 723 624 711 L575 308 C562 200 485 146 384 146 C283 146 220 200 233 308 L282 711 C284 723 275 732 264 732 L160 732 C148 732 138 723 136 711 L136 711 Z M509 807 C666 915 669 917 670 918 C692 938 685 968 669 986 C655 1004 627 1014 603 996 C603 995 600 993 600 993 L476 851 C469 843 469 830 475 823 L486 811 C492 804 501 800 509 807 L509 807 Z " />
<glyph glyph-name="Ucircumflex" unicode="&#xdb;" horiz-adv-x="782" d="M136 711 L82 269 C62 102 206 0 366 0 C527 0 697 102 717 269 L771 711 C773 723 764 732 753 732 L648 732 C636 732 626 723 624 711 L575 308 C562 200 485 146 384 146 C283 146 220 200 233 308 L282 711 C284 723 275 732 264 732 L160 732 C148 732 138 723 136 711 L136 711 Z M329 817 L342 803 C348 797 360 796 368 801 L461 860 C467 864 479 864 484 860 L562 801 C569 796 581 797 588 803 L604 816 C614 824 617 837 610 846 L504 985 C496 995 482 995 472 985 L332 846 C323 838 322 825 329 817 L329 817 Z " />
<glyph glyph-name="Udieresis" unicode="&#xdc;" horiz-adv-x="782" d="M136 711 L82 269 C62 102 206 0 366 0 C527 0 697 102 717 269 L771 711 C773 723 764 732 753 732 L648 732 C636 732 626 723 624 711 L575 308 C562 200 485 146 384 146 C283 146 220 200 233 308 L282 711 C284 723 275 732 264 732 L160 732 C148 732 138 723 136 711 L136 711 Z M606 844 C646 844 678 872 684 917 C689 962 664 990 624 990 C585 990 552 963 546 916 C541 872 567 844 606 844 L606 844 Z M335 844 C374 844 406 872 412 917 C417 962 392 990 353 990 C314 990 280 963 275 917 C269 872 296 844 335 844 L335 844 Z " />
<glyph glyph-name="Yacute" unicode="&#xdd;" horiz-adv-x="749" d="M330 359 L289 21 C287 9 295 0 307 0 L411 0 C423 0 433 9 435 21 L476 359 C476 361 480 370 482 372 L762 699 C775 713 768 732 749 732 L634 732 C629 732 619 727 616 723 L440 517 C429 504 413 504 406 517 L284 723 C282 727 273 732 268 732 L148 732 C130 732 118 713 127 699 L328 372 C329 370 330 361 330 359 L330 359 Z M497 807 C654 915 657 917 658 918 C680 938 674 968 658 986 C643 1004 616 1014 592 996 C592 995 589 993 589 993 L464 851 C457 843 457 830 463 823 L474 811 C480 804 489 801 497 807 L497 807 Z " />
<glyph glyph-name="germandbls" unicode="&#xdf;" horiz-adv-x="696" d="M640 516 C660 678 550 748 425 748 C301 748 171 673 151 516 L150 509 C150 504 146 501 142 501 L98 501 C86 501 75 492 74 480 L66 412 C64 400 72 391 84 391 L115 391 C127 391 135 382 133 370 L91 21 C89 9 97 0 109 0 L204 0 C216 0 226 9 228 21 L286 494 C294 563 324 628 410 628 C481 628 507 566 500 499 C500 497 496 489 494 487 C428 404 398 410 391 354 C379 255 517 240 510 178 C505 136 448 127 382 126 C370 126 358 116 357 105 L346 16 C345 10 348 4 354 3 C371 1 387 0 401 0 C514 0 633 50 648 167 C664 301 545 328 540 360 C536 383 628 439 640 516 L640 516 Z " />
<glyph glyph-name="agrave" unicode="&#xe0;" horiz-adv-x="583" d="M432 468 L432 464 C431 458 424 454 420 458 C400 475 368 485 328 488 C188 495 70 375 54 244 C37 107 127 0 268 0 C298 0 329 9 362 28 C370 33 378 28 377 20 C376 9 384 0 395 0 L486 0 C498 0 508 9 510 21 L564 466 C566 478 557 487 546 487 L455 488 C444 488 434 479 432 468 L432 468 Z M282 113 C206 113 164 170 173 243 C182 316 238 374 313 374 C388 374 432 316 423 243 C414 170 356 113 282 113 L282 113 Z M463 607 L374 749 C374 749 372 751 372 752 C352 770 323 760 303 742 C283 724 269 694 287 674 C287 672 290 670 420 562 C427 556 437 560 445 567 L458 579 C466 586 469 599 463 607 L463 607 Z " />
<glyph glyph-name="aacute" unicode="&#xe1;" horiz-adv-x="583" d="M432 468 L432 464 C431 458 424 454 420 458 C400 475 368 485 328 488 C188 495 70 375 54 244 C37 107 127 0 268 0 C298 0 329 9 362 28 C370 33 378 28 377 20 C376 9 384 0 395 0 L486 0 C498 0 508 9 510 21 L564 466 C566 478 557 487 546 487 L455 488 C444 488 434 479 432 468 L432 468 Z M282 113 C206 113 164 170 173 243 C182 316 238 374 313 374 C388 374 432 316 423 243 C414 170 356 113 282 113 L282 113 Z M302 562 C458 670 462 672 463 674 C485 694 478 724 462 742 C448 760 420 770 396 752 C396 751 393 749 393 749 L269 607 C262 599 262 586 268 579 L279 567 C285 560 294 556 302 562 L302 562 Z " />
<glyph glyph-name="acircumflex" unicode="&#xe2;" horiz-adv-x="583" d="M432 468 L432 464 C431 458 424 454 420 458 C400 475 368 485 328 488 C188 495 70 375 54 244 C37 107 127 0 268 0 C298 0 329 9 362 28 C370 33 378 28 377 20 C376 9 384 0 395 0 L486 0 C498 0 508 9 510 21 L564 466 C566 478 557 487 546 487 L455 488 C444 488 434 479 432 468 L432 468 Z M282 113 C206 113 164 170 173 243 C182 316 238 374 313 374 C388 374 432 316 423 243 C414 170 356 113 282 113 L282 113 Z M220 572 L233 559 C239 553 251 552 259 557 L351 616 C357 620 369 620 375 616 L452 557 C459 552 471 553 478 559 L495 572 C504 580 507 593 500 602 L394 741 C386 751 372 751 362 741 L222 602 C213 593 212 580 220 572 L220 572 Z " />
<glyph glyph-name="atilde" unicode="&#xe3;" horiz-adv-x="583" d="M432 468 L432 464 C431 458 424 454 420 458 C400 475 368 485 328 488 C188 495 70 375 54 244 C37 107 127 0 268 0 C298 0 329 9 362 28 C370 33 378 28 377 20 C376 9 384 0 395 0 L486 0 C498 0 508 9 510 21 L564 466 C566 478 557 487 546 487 L455 488 C444 488 434 479 432 468 L432 468 Z M282 113 C206 113 164 170 173 243 C182 316 238 374 313 374 C388 374 432 316 423 243 C414 170 356 113 282 113 L282 113 Z M240 605 C241 607 245 641 266 646 C281 649 303 638 335 609 C433 522 589 567 605 715 C607 726 599 739 588 739 L512 739 C504 739 496 732 495 724 L493 708 C487 676 456 674 406 714 C307 794 166 774 128 629 C125 616 132 605 145 605 L222 605 C232 605 239 595 240 605 L240 605 Z " />
<glyph glyph-name="adieresis" unicode="&#xe4;" horiz-adv-x="583" d="M432 468 L432 464 C431 458 424 454 420 458 C400 475 368 485 328 488 C188 495 70 375 54 244 C37 107 127 0 268 0 C298 0 329 9 362 28 C370 33 378 28 377 20 C376 9 384 0 395 0 L486 0 C498 0 508 9 510 21 L564 466 C566 478 557 487 546 487 L455 488 C444 488 434 479 432 468 L432 468 Z M282 113 C206 113 164 170 173 243 C182 316 238 374 313 374 C388 374 432 316 423 243 C414 170 356 113 282 113 L282 113 Z M487 600 C526 600 558 628 564 673 C569 718 544 746 505 746 C466 746 432 719 427 672 C421 627 448 600 487 600 L487 600 Z M216 600 C255 600 287 628 293 673 C298 718 273 746 234 746 C195 746 161 719 156 672 C150 628 177 600 216 600 L216 600 Z " />
<glyph glyph-name="aring" unicode="&#xe5;" horiz-adv-x="583" d="M432 468 L432 464 C431 458 424 454 420 458 C400 475 368 485 328 488 C188 495 70 375 54 244 C37 107 127 0 268 0 C298 0 329 9 362 28 C370 33 378 28 377 20 C376 9 384 0 395 0 L486 0 C498 0 508 9 510 21 L564 466 C566 478 557 487 546 487 L455 488 C444 488 434 479 432 468 L432 468 Z M282 113 C206 113 164 170 173 243 C182 316 238 374 313 374 C388 374 432 316 423 243 C414 170 356 113 282 113 L282 113 Z M361 560 C421 560 471 604 480 673 C488 742 449 786 389 786 C328 786 277 744 269 672 C260 604 300 560 361 560 L361 560 Z M369 631 C346 631 331 647 335 672 C338 699 357 714 380 714 C401 714 416 699 413 673 C409 647 390 631 369 631 L369 631 Z " />
<glyph glyph-name="ae" unicode="&#xe6;" horiz-adv-x="867" d="M176 361 C239 382 383 392 375 317 L374 310 C374 307 370 304 368 306 C331 322 290 327 259 327 C142 327 56 262 43 151 C31 54 89 0 219 0 C298 0 357 26 399 50 C406 54 419 52 424 47 C461 17 511 0 569 0 C646 0 710 19 762 59 C773 67 774 79 766 88 L721 138 C715 144 700 145 692 140 C658 121 622 112 583 112 C541 112 503 134 493 173 C490 188 498 195 514 195 L807 195 C819 195 829 204 831 216 L834 244 C851 385 773 488 629 488 C576 488 526 475 484 450 C477 445 460 445 455 450 C425 475 385 488 333 488 C259 488 193 477 132 446 C120 440 115 428 121 417 L146 370 C150 363 168 358 176 361 L176 361 Z M351 138 C333 115 293 103 247 103 C188 103 157 127 161 166 C166 205 204 234 263 234 C309 234 346 223 358 201 C359 199 360 194 360 192 L354 147 C354 145 352 140 351 138 L351 138 Z M615 376 C657 376 700 354 704 312 C705 298 697 293 683 293 L528 293 C514 293 507 298 512 312 C526 354 573 376 615 376 L615 376 Z " />
<glyph glyph-name="ccedilla" unicode="&#xe7;" horiz-adv-x="496" d="M232 -200 C288 -200 347 -153 355 -91 C359 -59 343 -33 310 -15 C306 -12 310 -2 315 -1 C360 7 402 25 437 52 C447 60 449 72 441 81 L390 140 C385 146 372 145 366 140 C343 123 315 113 283 113 C208 113 165 170 174 244 C183 316 240 375 315 375 C346 375 372 364 391 347 C397 342 409 341 415 347 L482 406 C492 415 495 426 486 434 C447 471 394 493 331 493 C189 493 68 385 51 244 C38 136 90 46 180 11 C192 7 194 -8 187 -19 L187 -19 C178 -31 182 -45 195 -50 L245 -65 C264 -71 276 -80 275 -93 C273 -108 256 -120 242 -120 C229 -120 219 -111 211 -98 C208 -94 201 -92 196 -94 L155 -113 C143 -118 138 -129 143 -140 C158 -174 189 -200 232 -200 L232 -200 Z " />
<glyph glyph-name="egrave" unicode="&#xe8;" horiz-adv-x="560" d="M53 244 C36 102 125 0 267 0 C344 0 407 19 459 59 C470 67 471 79 463 88 L419 138 C413 144 398 145 390 140 C356 121 319 112 281 112 C238 112 201 134 191 173 C188 188 196 195 212 195 L504 195 C516 195 526 204 528 216 L531 244 C548 385 471 488 327 488 C185 488 71 387 53 244 L53 244 Z M452 607 L363 749 C363 749 361 751 361 752 C341 770 311 760 292 742 C272 724 257 694 275 674 C275 672 278 670 408 562 C415 556 425 560 433 567 L446 579 C454 586 457 599 452 607 L452 607 Z M313 376 C355 376 398 354 402 312 C403 298 395 293 381 293 L225 293 C211 293 204 298 209 312 C223 354 271 376 313 376 L313 376 Z " />
<glyph glyph-name="eacute" unicode="&#xe9;" horiz-adv-x="560" d="M53 244 C36 102 125 0 267 0 C344 0 407 19 459 59 C470 67 471 79 463 88 L419 138 C413 144 398 145 390 140 C356 121 319 112 281 112 C238 112 201 134 191 173 C188 188 196 195 212 195 L504 195 C516 195 526 204 528 216 L531 244 C548 385 471 488 327 488 C185 488 71 387 53 244 L53 244 Z M290 562 C446 670 450 672 451 674 C473 694 466 724 450 742 C436 760 408 770 385 752 C385 751 382 749 382 749 L257 607 C250 599 250 586 256 579 L267 567 C273 560 282 556 290 562 L290 562 Z M313 376 C355 376 398 354 402 312 C403 298 395 293 381 293 L225 293 C211 293 204 298 209 312 C223 354 271 376 313 376 L313 376 Z " />
<glyph glyph-name="ecircumflex" unicode="&#xea;" horiz-adv-x="560" d="M53 244 C36 102 125 0 267 0 C344 0 407 19 459 59 C470 67 471 79 463 88 L419 138 C413 144 398 145 390 140 C356 121 319 112 281 112 C238 112 201 134 191 173 C188 188 196 195 212 195 L504 195 C516 195 526 204 528 216 L531 244 C548 385 471 488 327 488 C185 488 71 387 53 244 L53 244 Z M313 376 C355 376 398 354 402 312 C403 298 395 293 381 293 L225 293 C211 293 204 298 209 312 C223 354 271 376 313 376 L313 376 Z M209 572 L221 559 C227 553 239 552 247 557 L339 616 C345 620 357 620 363 616 L441 557 C447 552 460 553 467 559 L483 572 C492 580 495 593 488 602 L382 741 C374 751 360 751 350 741 L211 602 C202 593 201 580 209 572 L209 572 Z " />
<glyph glyph-name="edieresis" unicode="&#xeb;" horiz-adv-x="560" d="M53 244 C36 102 125 0 267 0 C344 0 407 19 459 59 C470 67 471 79 463 88 L419 138 C413 144 398 145 390 140 C356 121 319 112 281 112 C238 112 201 134 191 173 C188 188 196 195 212 195 L504 195 C516 195 526 204 528 216 L531 244 C548 385 471 488 327 488 C185 488 71 387 53 244 L53 244 Z M313 376 C355 376 398 354 402 312 C403 298 395 293 381 293 L225 293 C211 293 204 298 209 312 C223 354 271 376 313 376 L313 376 Z M490 600 C529 600 561 628 567 673 C572 718 547 746 508 746 C469 746 435 719 430 672 C424 627 451 600 490 600 L490 600 Z M219 600 C258 600 290 628 296 673 C301 718 276 746 237 746 C197 746 164 719 159 672 C153 628 179 600 219 600 L219 600 Z " />
<glyph glyph-name="igrave" unicode="&#xec;" horiz-adv-x="256" d="M189 21 L243 468 C245 480 237 489 225 489 L130 489 C118 489 108 480 106 468 L52 21 C50 9 58 0 70 0 L165 0 C177 0 187 9 189 21 L189 21 Z M299 607 L210 749 C210 749 208 751 208 752 C188 770 159 760 139 742 C119 724 105 694 123 674 C123 672 125 670 256 562 C263 557 273 560 280 567 L294 579 C302 586 305 599 299 607 L299 607 Z " />
<glyph glyph-name="iacute" unicode="&#xed;" horiz-adv-x="256" d="M189 21 L243 468 C245 480 237 489 225 489 L130 489 C118 489 108 480 106 468 L52 21 C50 9 58 0 70 0 L165 0 C177 0 187 9 189 21 L189 21 Z M138 562 C294 670 298 672 299 674 C321 694 314 724 298 742 C283 760 256 770 232 752 C232 751 229 749 229 749 L105 607 C98 599 98 586 104 579 L115 567 C121 560 130 556 138 562 L138 562 Z " />
<glyph glyph-name="icircumflex" unicode="&#xee;" horiz-adv-x="256" d="M189 21 L243 468 C245 480 237 489 225 489 L130 489 C118 489 108 480 106 468 L52 21 C50 9 58 0 70 0 L165 0 C177 0 187 9 189 21 L189 21 Z M57 572 L69 559 C75 553 87 552 95 557 L188 616 C194 620 206 620 211 616 L289 557 C295 552 308 553 315 559 L331 572 C340 580 343 593 336 602 L231 741 C223 751 209 751 199 741 L59 602 C50 593 49 580 57 572 L57 572 Z " />
<glyph glyph-name="idieresis" unicode="&#xef;" horiz-adv-x="256" d="M189 21 L243 468 C245 480 237 489 225 489 L130 489 C118 489 108 480 106 468 L52 21 C50 9 58 0 70 0 L165 0 C177 0 187 9 189 21 L189 21 Z M338 600 C377 600 410 628 416 673 C421 718 395 746 356 746 C317 746 283 719 278 672 C272 627 299 600 338 600 L338 600 Z M67 600 C106 600 138 628 144 673 C149 718 124 746 85 746 C46 746 12 719 7 672 C1 628 28 600 67 600 L67 600 Z " />
<glyph glyph-name="ntilde" unicode="&#xf1;" horiz-adv-x="559" d="M227 317 C250 351 275 370 301 373 C301 373 308 373 308 373 C371 369 396 331 388 269 L358 21 C356 9 364 0 376 0 L471 0 C483 0 493 9 495 21 L529 303 C542 411 475 488 362 488 C324 488 290 478 259 458 C251 453 241 458 242 466 L242 468 C244 480 236 489 224 489 L129 489 C117 489 107 480 105 468 L51 21 C49 9 57 0 69 0 L164 0 C176 0 186 9 188 21 L223 306 C223 307 226 315 227 317 L227 317 Z M228 605 C229 607 233 641 254 646 C269 649 291 638 323 609 C421 522 576 567 593 715 C595 726 587 739 576 739 L500 739 C492 739 484 732 483 724 L481 708 C475 676 444 674 394 714 C295 794 153 774 116 629 C113 616 120 605 133 605 L210 605 C220 605 227 595 228 605 L228 605 Z " />
<glyph glyph-name="ograve" unicode="&#xf2;" horiz-adv-x="562" d="M51 244 C34 104 127 -5 269 -5 C410 -5 532 103 549 244 C566 385 472 493 331 493 C189 493 68 385 51 244 L51 244 Z M283 113 C208 113 165 170 174 244 C183 316 240 375 315 375 C390 375 433 317 424 244 C415 170 358 113 283 113 L283 113 Z M453 607 L364 749 C364 749 362 751 362 752 C342 770 312 760 293 742 C273 724 258 694 276 674 C276 672 279 670 409 562 C416 556 426 560 434 567 L447 579 C455 586 458 599 453 607 L453 607 Z " />
<glyph glyph-name="oacute" unicode="&#xf3;" horiz-adv-x="562" d="M51 244 C34 104 127 -5 269 -5 C410 -5 532 103 549 244 C566 385 472 493 331 493 C189 493 68 385 51 244 L51 244 Z M283 113 C208 113 165 170 174 244 C183 316 240 375 315 375 C390 375 433 317 424 244 C415 170 358 113 283 113 L283 113 Z M291 562 C447 670 451 672 452 674 C474 694 467 724 451 742 C437 760 409 770 386 752 C386 751 383 749 383 749 L258 607 C251 599 251 586 257 579 L268 567 C274 560 283 556 291 562 L291 562 Z " />
<glyph glyph-name="ocircumflex" unicode="&#xf4;" horiz-adv-x="562" d="M51 244 C34 104 127 -5 269 -5 C410 -5 532 103 549 244 C566 385 472 493 331 493 C189 493 68 385 51 244 L51 244 Z M283 113 C208 113 165 170 174 244 C183 316 240 375 315 375 C390 375 433 317 424 244 C415 170 358 113 283 113 L283 113 Z M210 572 L223 559 C229 553 241 552 249 557 L341 616 C347 620 359 620 365 616 L442 557 C449 552 461 553 468 559 L485 572 C494 580 497 593 490 602 L384 741 C376 751 362 751 352 741 L212 602 C203 593 202 580 210 572 L210 572 Z " />
<glyph glyph-name="otilde" unicode="&#xf5;" horiz-adv-x="562" d="M51 244 C34 104 127 -5 269 -5 C410 -5 532 103 549 244 C566 385 472 493 331 493 C189 493 68 385 51 244 L51 244 Z M283 113 C208 113 165 170 174 244 C183 316 240 375 315 375 C390 375 433 317 424 244 C415 170 358 113 283 113 L283 113 Z M229 605 C230 607 234 641 256 646 C270 649 292 638 324 609 C422 522 578 567 594 715 C596 726 588 739 577 739 L501 739 C493 739 485 732 484 724 L482 708 C477 676 445 674 396 714 C296 794 155 774 117 629 C114 616 121 605 134 605 L211 605 C221 605 228 595 229 605 L229 605 Z " />
<glyph glyph-name="odieresis" unicode="&#xf6;" horiz-adv-x="562" d="M51 244 C34 104 127 -5 269 -5 C410 -5 532 103 549 244 C566 385 472 493 331 493 C189 493 68 385 51 244 L51 244 Z M283 113 C208 113 165 170 174 244 C183 316 240 375 315 375 C390 375 433 317 424 244 C415 170 358 113 283 113 L283 113 Z M491 600 C530 600 562 628 568 673 C573 718 548 746 509 746 C470 746 436 719 431 672 C425 627 452 600 491 600 L491 600 Z M220 600 C259 600 291 628 297 673 C302 718 277 746 238 746 C198 746 165 719 160 672 C154 628 180 600 220 600 L220 600 Z " />
<glyph glyph-name="divide" unicode="&#xf7;" horiz-adv-x="541" d="M543 332 L547 368 C549 380 540 389 529 389 L108 389 C96 389 86 380 84 368 L80 332 C78 320 87 311 98 311 L519 311 C531 311 541 320 543 332 L543 332 Z M258 517 C254 478 279 449 324 449 C368 449 401 478 405 517 C410 556 386 586 340 586 C295 586 263 556 258 517 L258 517 Z M216 175 C212 136 237 107 282 107 C326 107 359 136 363 175 C368 214 344 244 298 244 C253 244 221 214 216 175 L216 175 Z " />
<glyph glyph-name="oslash" unicode="&#xf8;" horiz-adv-x="562" d="M226 -1 C240 -4 254 -5 269 -5 C406 -5 531 100 549 244 C560 333 525 411 460 455 C453 460 448 474 453 482 L465 508 C472 522 464 536 449 536 L417 536 C409 536 399 529 395 522 L383 496 C381 492 374 489 370 490 C357 492 344 493 331 493 C193 493 69 389 51 244 C40 156 73 79 137 34 C144 29 149 15 145 7 L131 -22 C123 -36 131 -50 147 -50 L178 -50 C186 -50 196 -43 200 -36 L213 -8 C215 -4 221 -1 226 -1 L226 -1 Z M282 113 L278 114 C275 114 274 116 275 119 L378 331 C383 341 394 344 400 335 C419 312 428 279 424 244 C415 174 358 113 283 113 C283 113 282 113 282 113 L282 113 Z M316 375 L319 375 C321 374 322 372 321 370 L217 156 C212 146 202 144 196 152 C178 175 169 207 174 244 C182 312 240 375 315 375 C315 375 316 375 316 375 L316 375 Z " />
<glyph glyph-name="ugrave" unicode="&#xf9;" horiz-adv-x="549" d="M361 168 C338 136 313 119 287 116 C287 116 280 116 280 116 C217 120 191 157 199 220 L229 468 C231 480 223 489 211 489 L117 489 C105 489 95 480 93 468 L59 186 C46 78 113 0 226 0 C263 0 298 10 329 30 C337 35 347 31 346 22 L346 21 C344 9 352 0 364 0 L459 0 C471 0 481 9 483 21 L537 468 C539 480 531 489 519 489 L424 489 C412 489 402 480 400 468 L365 178 C365 177 362 169 361 168 L361 168 Z M446 607 L357 749 C357 749 355 751 355 752 C335 770 306 760 286 742 C266 724 252 694 270 674 C270 672 272 670 403 562 C410 557 420 560 427 567 L441 579 C449 586 452 599 446 607 L446 607 Z " />
<glyph glyph-name="uacute" unicode="&#xfa;" horiz-adv-x="549" d="M361 168 C338 136 313 119 287 116 C287 116 280 116 280 116 C217 120 191 157 199 220 L229 468 C231 480 223 489 211 489 L117 489 C105 489 95 480 93 468 L59 186 C46 78 113 0 226 0 C263 0 298 10 329 30 C337 35 347 31 346 22 L346 21 C344 9 352 0 364 0 L459 0 C471 0 481 9 483 21 L537 468 C539 480 531 489 519 489 L424 489 C412 489 402 480 400 468 L365 178 C365 177 362 169 361 168 L361 168 Z M285 562 C441 670 445 672 446 674 C468 694 461 724 445 742 C430 760 403 770 379 752 C379 751 376 749 376 749 L252 607 C245 599 245 586 251 579 L262 567 C268 560 277 556 285 562 L285 562 Z " />
<glyph glyph-name="ucircumflex" unicode="&#xfb;" horiz-adv-x="549" d="M361 168 C338 136 313 119 287 116 C287 116 280 116 280 116 C217 120 191 157 199 220 L229 468 C231 480 223 489 211 489 L117 489 C105 489 95 480 93 468 L59 186 C46 78 113 0 226 0 C263 0 298 10 329 30 C337 35 347 31 346 22 L346 21 C344 9 352 0 364 0 L459 0 C471 0 481 9 483 21 L537 468 C539 480 531 489 519 489 L424 489 C412 489 402 480 400 468 L365 178 C365 177 362 169 361 168 L361 168 Z M203 572 L216 559 C222 553 234 552 242 557 L334 616 C340 620 352 620 358 616 L435 557 C442 552 454 553 461 559 L478 572 C487 580 490 593 483 602 L377 741 C369 751 355 751 345 741 L205 602 C196 593 195 580 203 572 L203 572 Z " />
<glyph glyph-name="udieresis" unicode="&#xfc;" horiz-adv-x="549" d="M361 168 C338 136 313 119 287 116 C287 116 280 116 280 116 C217 120 191 157 199 220 L229 468 C231 480 223 489 211 489 L117 489 C105 489 95 480 93 468 L59 186 C46 78 113 0 226 0 C263 0 298 10 329 30 C337 35 347 31 346 22 L346 21 C344 9 352 0 364 0 L459 0 C471 0 481 9 483 21 L537 468 C539 480 531 489 519 489 L424 489 C412 489 402 480 400 468 L365 178 C365 177 362 169 361 168 L361 168 Z M485 600 C524 600 556 628 562 673 C567 718 542 746 503 746 C464 746 430 719 425 672 C419 627 446 600 485 600 L485 600 Z M213 600 C252 600 285 628 291 673 C296 718 270 746 231 746 C192 746 158 719 153 672 C147 628 174 600 213 600 L213 600 Z " />
<glyph glyph-name="yacute" unicode="&#xfd;" horiz-adv-x="551" d="M218 -197 L563 459 C571 474 563 488 547 488 L453 488 C446 488 436 481 432 475 L311 235 C301 216 276 216 271 235 L210 474 C209 481 200 488 192 488 L98 488 C82 488 71 475 74 460 L180 7 C181 5 180 -5 178 -7 L91 -182 C83 -196 91 -210 107 -210 L197 -210 C204 -210 215 -204 218 -197 L218 -197 Z M285 562 C441 670 445 672 446 674 C468 694 462 724 445 742 C431 760 404 770 380 752 C380 751 377 749 377 749 L252 607 C245 599 245 586 251 579 L262 567 C268 560 277 556 285 562 L285 562 Z " />
<glyph glyph-name="ydieresis" unicode="&#xff;" horiz-adv-x="551" d="M218 -197 L563 459 C571 474 563 488 547 488 L453 488 C446 488 436 481 432 475 L311 235 C301 216 276 216 271 235 L210 474 C209 481 200 488 192 488 L98 488 C82 488 71 475 74 460 L180 7 C181 5 180 -5 178 -7 L91 -182 C83 -196 91 -210 107 -210 L197 -210 C204 -210 215 -204 218 -197 L218 -197 Z M485 600 C524 600 556 628 562 673 C567 718 542 746 503 746 C464 746 430 719 425 672 C419 627 446 600 485 600 L485 600 Z M214 600 C253 600 285 628 291 673 C296 718 271 746 232 746 C193 746 159 719 154 672 C148 628 175 600 214 600 L214 600 Z " />
<glyph glyph-name="Amacron" unicode="&#x100;" horiz-adv-x="803" d="M185 13 L229 99 C232 106 243 112 250 112 L553 112 C561 112 570 106 571 99 L594 13 C596 6 605 0 612 0 L722 0 C738 0 749 14 745 29 L555 719 C553 726 544 732 537 732 L418 732 C411 732 401 726 397 719 L36 29 C28 14 36 0 52 0 L164 0 C171 0 181 6 185 13 L185 13 Z M501 259 L343 259 C327 259 319 273 327 288 L432 488 C442 506 466 506 471 488 L524 288 C528 273 517 259 501 259 L501 259 Z M666 881 L671 917 C672 929 664 938 652 938 L381 938 C370 938 359 929 358 917 L353 881 C352 869 360 860 372 860 L643 860 C654 860 665 869 666 881 L666 881 Z " />
<glyph glyph-name="amacron" unicode="&#x101;" horiz-adv-x="583" d="M432 468 L432 464 C431 458 424 454 420 458 C400 475 368 485 328 488 C188 495 70 375 54 244 C37 107 127 0 268 0 C298 0 329 9 362 28 C370 33 378 28 377 20 C376 9 384 0 395 0 L486 0 C498 0 508 9 510 21 L564 466 C566 478 557 487 546 487 L455 488 C444 488 434 479 432 468 L432 468 Z M282 113 C206 113 164 170 173 243 C182 316 238 374 313 374 C388 374 432 316 423 243 C414 170 356 113 282 113 L282 113 Z M526 637 L531 673 C532 685 524 694 512 694 L241 694 C230 694 219 685 218 673 L213 637 C212 625 220 616 232 616 L503 616 C514 616 525 625 526 637 L526 637 Z " />
<glyph glyph-name="Abreve" unicode="&#x102;" horiz-adv-x="803" d="M185 13 L229 99 C232 106 243 112 250 112 L553 112 C561 112 570 106 571 99 L594 13 C596 6 605 0 612 0 L722 0 C738 0 749 14 745 29 L555 719 C553 726 544 732 537 732 L418 732 C411 732 401 726 397 719 L36 29 C28 14 36 0 52 0 L164 0 C171 0 181 6 185 13 L185 13 Z M501 259 L343 259 C327 259 319 273 327 288 L432 488 C442 506 466 506 471 488 L524 288 C528 273 517 259 501 259 L501 259 Z M585 943 C573 912 545 890 510 890 C475 890 452 912 448 943 C447 952 436 964 428 964 L399 964 C386 964 377 954 377 941 C380 873 430 823 502 823 C574 823 637 873 656 941 C659 954 653 964 639 964 L611 964 C602 964 588 952 585 943 L585 943 Z " />
<glyph glyph-name="abreve" unicode="&#x103;" horiz-adv-x="583" d="M432 468 L432 464 C431 458 424 454 420 458 C400 475 368 485 328 488 C188 495 70 375 54 244 C37 107 127 0 268 0 C298 0 329 9 362 28 C370 33 378 28 377 20 C376 9 384 0 395 0 L486 0 C498 0 508 9 510 21 L564 466 C566 478 557 487 546 487 L455 488 C444 488 434 479 432 468 L432 468 Z M282 113 C206 113 164 170 173 243 C182 316 238 374 313 374 C388 374 432 316 423 243 C414 170 356 113 282 113 L282 113 Z M445 699 C434 668 406 646 371 646 C336 646 313 668 309 699 C308 708 297 720 289 720 L259 720 C246 720 237 710 237 697 C240 629 291 579 363 579 C435 579 498 629 517 697 C520 710 514 720 500 720 L471 720 C462 720 448 708 445 699 L445 699 Z " />
<glyph glyph-name="Aogonek" unicode="&#x104;" horiz-adv-x="803" d="M185 13 L229 99 C232 106 243 112 250 112 L553 112 C561 112 569 105 571 99 L585 48 C586 43 582 31 579 27 C560 3 545 -27 540 -66 C529 -153 585 -209 671 -209 C733 -209 778 -184 814 -145 C822 -136 822 -123 813 -116 L774 -86 C768 -81 754 -84 748 -90 C728 -109 704 -119 676 -119 C646 -119 622 -99 628 -49 C630 -34 635 -21 642 -8 C644 -4 651 0 656 0 L722 0 C738 0 749 14 745 29 L555 719 C553 726 544 732 537 732 L418 732 C411 732 401 726 397 719 L36 29 C28 14 36 0 52 0 L164 0 C171 0 181 6 185 13 L185 13 Z M501 259 L343 259 C327 259 319 273 327 288 L432 488 C442 506 466 506 471 488 L524 288 C528 273 517 259 501 259 L501 259 Z " />
<glyph glyph-name="aogonek" unicode="&#x105;" horiz-adv-x="583" d="M432 468 L432 464 C431 458 424 454 420 458 C400 475 368 485 328 488 C188 495 70 375 54 244 C37 107 127 0 268 0 C300 0 333 11 368 32 C373 34 379 32 378 27 L377 20 C377 19 374 11 373 10 C360 -11 351 -37 347 -66 C336 -153 392 -209 478 -209 C540 -209 585 -184 621 -145 C629 -136 629 -123 620 -116 L581 -86 C575 -81 561 -84 555 -90 C535 -109 511 -119 483 -119 C453 -119 429 -99 435 -49 C437 -34 442 -21 449 -8 C451 -4 458 0 463 0 L486 0 C498 0 508 9 510 21 L564 466 C566 478 557 487 546 487 L455 488 C444 488 434 479 432 468 L432 468 Z M282 113 C206 113 164 170 173 243 C182 316 238 374 313 374 C388 374 432 316 423 243 C414 170 356 113 282 113 L282 113 Z " />
<glyph glyph-name="Cacute" unicode="&#x106;" horiz-adv-x="756" d="M69 368 C38 164 186 -5 390 0 C486 0 574 28 652 84 C663 92 666 105 658 114 L598 190 C592 198 579 200 570 194 C521 162 467 146 409 146 C275 146 200 235 215 369 C231 498 333 585 462 586 C520 586 570 571 612 539 C620 534 633 535 641 542 L720 619 C730 628 731 641 722 649 C657 705 576 732 480 732 C279 732 89 573 69 368 L69 368 Z M418 807 C575 915 578 917 579 918 C601 938 595 968 579 986 C564 1004 537 1014 513 996 C513 995 510 993 510 993 L385 851 C378 843 378 830 384 823 L395 811 C401 804 410 800 418 807 L418 807 Z " />
<glyph glyph-name="cacute" unicode="&#x107;" horiz-adv-x="496" d="M366 140 C343 123 315 113 283 113 C208 113 165 170 174 244 C183 316 240 375 315 375 C346 375 372 364 391 347 C397 342 409 341 415 347 L482 406 C492 415 495 426 486 434 C447 471 394 493 331 493 C189 493 68 385 51 244 C34 104 127 -5 269 -5 C332 -5 392 17 439 53 C449 61 449 72 441 81 L390 140 C385 146 372 145 366 140 L366 140 Z M258 562 C414 670 418 672 419 674 C441 694 434 724 418 742 C404 760 376 770 352 752 C352 751 349 749 349 749 L225 607 C218 599 218 586 224 579 L235 567 C241 560 250 556 258 562 L258 562 Z " />
<glyph glyph-name="Ccircumflex" unicode="&#x108;" horiz-adv-x="756" d="M69 368 C38 164 186 -5 390 0 C486 0 574 28 652 84 C663 92 666 105 658 114 L598 190 C592 198 579 200 570 194 C521 162 467 146 409 146 C275 146 200 235 215 369 C231 498 333 585 462 586 C520 586 570 571 612 539 C620 534 633 535 641 542 L720 619 C730 628 731 641 722 649 C657 705 576 732 480 732 C279 732 89 573 69 368 L69 368 Z M336 817 L349 803 C355 797 367 796 375 801 L468 860 C474 864 486 864 491 860 L569 801 C575 796 588 797 595 803 L611 816 C620 824 623 837 616 846 L511 985 C503 995 489 995 479 985 L339 846 C330 838 329 825 336 817 L336 817 Z " />
<glyph glyph-name="ccircumflex" unicode="&#x109;" horiz-adv-x="496" d="M366 140 C343 123 315 113 283 113 C208 113 165 170 174 244 C183 316 240 375 315 375 C346 375 372 364 391 347 C397 342 409 341 415 347 L482 406 C492 415 495 426 486 434 C447 471 394 493 331 493 C189 493 68 385 51 244 C34 104 127 -5 269 -5 C332 -5 392 17 439 53 C449 61 449 72 441 81 L390 140 C385 146 372 145 366 140 L366 140 Z M176 572 L189 559 C195 553 207 552 215 557 L307 616 C313 620 325 620 331 616 L409 557 C415 552 428 553 435 559 L451 572 C460 580 463 593 456 602 L350 741 C342 751 328 751 318 741 L178 602 C169 593 168 580 176 572 L176 572 Z " />
<glyph glyph-name="Cdotaccent" unicode="&#x10a;" horiz-adv-x="756" d="M69 368 C38 164 186 -5 390 0 C486 0 574 28 652 84 C663 92 666 105 658 114 L598 190 C592 198 579 200 570 194 C521 162 467 146 409 146 C275 146 200 235 215 369 C231 498 333 585 462 586 C520 586 570 571 612 539 C620 534 633 535 641 542 L720 619 C730 628 731 641 722 649 C657 705 576 732 480 732 C279 732 89 573 69 368 L69 368 Z M482 844 C521 844 554 872 560 917 C565 962 539 990 500 990 C461 990 428 963 423 917 C417 872 443 844 482 844 L482 844 Z " />
<glyph glyph-name="cdotaccent" unicode="&#x10b;" horiz-adv-x="496" d="M366 140 C343 123 315 113 283 113 C208 113 165 170 174 244 C183 316 240 375 315 375 C346 375 372 364 391 347 C397 342 409 341 415 347 L482 406 C492 415 495 426 486 434 C447 471 394 493 331 493 C189 493 68 385 51 244 C34 104 127 -5 269 -5 C332 -5 392 17 439 53 C449 61 449 72 441 81 L390 140 C385 146 372 145 366 140 L366 140 Z M322 600 C361 600 393 628 399 673 C404 718 379 746 340 746 C301 746 267 719 262 672 C256 628 283 600 322 600 L322 600 Z " />
<glyph glyph-name="Ccaron" unicode="&#x10c;" horiz-adv-x="756" d="M69 368 C38 164 186 -5 390 0 C486 0 574 28 652 84 C663 92 666 105 658 114 L598 190 C592 198 579 200 570 194 C521 162 467 146 409 146 C275 146 200 235 215 369 C231 498 333 585 462 586 C520 586 570 571 612 539 C620 534 633 535 641 542 L720 619 C730 628 731 641 722 649 C657 705 576 732 480 732 C279 732 89 573 69 368 L69 368 Z M489 810 L629 949 C638 958 638 971 631 979 L618 992 C612 998 600 999 592 994 L501 935 C494 931 483 931 477 935 L399 994 C392 999 380 998 373 992 L357 979 C347 971 345 958 351 949 L458 810 C465 800 479 800 489 810 L489 810 Z " />
<glyph glyph-name="ccaron" unicode="&#x10d;" horiz-adv-x="496" d="M366 140 C343 123 315 113 283 113 C208 113 165 170 174 244 C183 316 240 375 315 375 C346 375 372 364 391 347 C397 342 409 341 415 347 L482 406 C492 415 495 426 486 434 C447 471 394 493 331 493 C189 493 68 385 51 244 C34 104 127 -5 269 -5 C332 -5 392 17 439 53 C449 61 449 72 441 81 L390 140 C385 146 372 145 366 140 L366 140 Z M328 566 L469 705 C478 714 478 727 471 735 L458 748 C452 754 440 755 432 750 L340 691 C333 687 322 687 316 691 L239 750 C232 755 220 754 213 748 L196 735 C186 727 184 714 191 705 L297 566 C304 556 318 556 328 566 L328 566 Z " />
<glyph glyph-name="Dcaron" unicode="&#x10e;" horiz-adv-x="781" d="M226 157 L278 575 C279 587 290 596 301 596 L415 596 C545 596 600 513 583 366 C564 220 489 137 359 136 L245 136 C233 136 225 145 226 157 L226 157 Z M342 0 C570 0 699 122 729 366 C759 611 660 733 432 733 L171 733 C159 733 149 724 147 712 L63 21 C61 9 69 0 81 0 L342 0 L342 0 Z M501 810 L642 949 C650 958 651 971 644 979 L631 992 C625 998 613 999 605 994 L513 935 C506 931 495 931 489 935 L412 994 C405 999 393 998 385 992 L369 979 C359 971 357 958 363 949 L470 810 C477 800 491 800 501 810 L501 810 Z " />
<glyph glyph-name="dcaron" unicode="&#x10f;" horiz-adv-x="889" d="M462 711 L432 465 C431 459 425 455 420 459 C400 476 368 485 328 488 C187 496 70 375 54 244 C37 107 126 0 268 0 C298 0 329 9 362 28 C370 33 378 28 377 20 C376 9 384 0 395 0 L491 0 C503 0 513 9 515 21 L599 711 C601 723 592 732 581 732 L486 732 C474 732 464 723 462 711 L462 711 Z M280 113 C205 113 163 170 172 243 C181 316 237 374 312 374 C387 374 430 316 421 243 C412 170 355 113 280 113 L280 113 Z M763 548 C820 582 853 635 862 707 C867 746 843 777 796 777 C751 777 720 747 715 708 C710 669 736 640 781 640 L786 640 C774 616 758 598 737 587 C731 583 727 575 730 569 L735 555 C740 544 751 541 763 548 L763 548 Z " />
<glyph glyph-name="Dcroat" unicode="&#x110;" horiz-adv-x="781" d="M342 0 C570 0 699 122 729 366 C759 611 660 733 432 733 L171 733 C159 733 149 724 147 712 L111 418 C110 406 99 397 88 397 L55 397 C43 397 33 388 31 376 L27 340 C25 328 34 319 45 319 L78 319 C90 319 98 310 97 298 L63 21 C61 9 69 0 81 0 L342 0 L342 0 Z M228 167 L244 298 C245 310 256 319 267 319 L315 319 C327 319 337 328 339 340 L343 376 C345 388 336 397 325 397 L277 397 C265 397 257 406 258 418 L276 565 C278 577 288 586 300 586 L414 586 C544 586 600 513 583 366 C564 220 490 146 360 146 L246 146 C234 146 226 155 228 167 L228 167 Z " />
<glyph glyph-name="dcroat" unicode="&#x111;" horiz-adv-x="583" d="M439 524 L432 465 C431 459 425 455 420 459 C400 476 368 485 328 488 C187 496 70 375 54 244 C37 107 126 0 268 0 C298 0 329 9 362 28 C370 33 378 28 377 20 C376 9 384 0 395 0 L491 0 C503 0 513 9 515 21 L576 524 C578 536 588 545 600 545 L636 545 C648 545 658 554 659 566 L666 622 C668 634 660 643 648 643 L612 643 C600 643 592 652 594 664 L599 711 C601 723 592 732 581 732 L486 732 C474 732 464 723 462 711 L457 664 C455 652 445 643 433 643 L388 643 C376 643 366 634 364 622 L357 566 C356 554 364 545 376 545 L421 545 C433 545 441 536 439 524 L439 524 Z M280 113 C205 113 163 170 172 243 C181 316 237 374 312 374 C387 374 430 316 421 243 C412 170 355 113 280 113 L280 113 Z " />
<glyph glyph-name="Emacron" unicode="&#x112;" horiz-adv-x="684" d="M598 21 L609 116 C611 128 602 137 591 137 L243 137 C231 137 223 146 224 158 L240 282 C241 294 252 303 263 303 L514 303 C526 303 536 312 538 324 L549 418 C551 430 542 439 531 439 L280 439 C268 439 260 448 261 460 L276 575 C277 587 288 596 299 596 L648 596 C660 596 670 605 672 617 L683 711 C685 723 676 732 665 732 L169 732 C157 732 147 723 145 711 L61 21 C59 9 67 0 79 0 L574 0 C586 0 596 9 598 21 L598 21 Z M606 881 L611 917 C612 929 604 938 592 938 L322 938 C311 938 300 929 299 917 L294 881 C293 869 301 860 313 860 L583 860 C594 860 605 869 606 881 L606 881 Z " />
<glyph glyph-name="emacron" unicode="&#x113;" horiz-adv-x="560" d="M53 244 C36 102 125 0 267 0 C344 0 407 19 459 59 C470 67 471 79 463 88 L419 138 C413 144 398 145 390 140 C356 121 319 112 281 112 C238 112 201 134 191 173 C188 188 196 195 212 195 L504 195 C516 195 526 204 528 216 L531 244 C548 385 471 488 327 488 C185 488 71 387 53 244 L53 244 Z M313 376 C355 376 398 354 402 312 C403 298 395 293 381 293 L225 293 C211 293 204 298 209 312 C223 354 271 376 313 376 L313 376 Z M514 637 L519 673 C520 685 512 694 500 694 L230 694 C219 694 208 685 207 673 L202 637 C201 625 209 616 221 616 L491 616 C502 616 513 625 514 637 L514 637 Z " />
<glyph glyph-name="Ebreve" unicode="&#x114;" horiz-adv-x="684" d="M598 21 L609 116 C611 128 602 137 591 137 L243 137 C231 137 223 146 224 158 L240 282 C241 294 252 303 263 303 L514 303 C526 303 536 312 538 324 L549 418 C551 430 542 439 531 439 L280 439 C268 439 260 448 261 460 L276 575 C277 587 288 596 299 596 L648 596 C660 596 670 605 672 617 L683 711 C685 723 676 732 665 732 L169 732 C157 732 147 723 145 711 L61 21 C59 9 67 0 79 0 L574 0 C586 0 596 9 598 21 L598 21 Z M525 943 C514 912 486 890 450 890 C416 890 393 912 389 943 C388 952 377 964 369 964 L339 964 C326 964 317 954 317 941 C320 873 371 823 442 823 C514 823 578 873 597 941 C600 954 594 964 580 964 L551 964 C542 964 528 952 525 943 L525 943 Z " />
<glyph glyph-name="ebreve" unicode="&#x115;" horiz-adv-x="560" d="M53 244 C36 102 125 0 267 0 C344 0 407 19 459 59 C470 67 471 79 463 88 L419 138 C413 144 398 145 390 140 C356 121 319 112 281 112 C238 112 201 134 191 173 C188 188 196 195 212 195 L504 195 C516 195 526 204 528 216 L531 244 C548 385 471 488 327 488 C185 488 71 387 53 244 L53 244 Z M313 376 C355 376 398 354 402 312 C403 298 395 293 381 293 L225 293 C211 293 204 298 209 312 C223 354 271 376 313 376 L313 376 Z M434 699 C423 668 394 646 359 646 C324 646 301 668 297 699 C296 708 285 720 277 720 L248 720 C235 720 226 710 226 697 C229 629 279 579 351 579 C423 579 486 629 505 697 C508 710 502 720 488 720 L460 720 C451 720 437 708 434 699 L434 699 Z " />
<glyph glyph-name="Edotaccent" unicode="&#x116;" horiz-adv-x="684" d="M598 21 L609 116 C611 128 602 137 591 137 L243 137 C231 137 223 146 224 158 L240 282 C241 294 252 303 263 303 L514 303 C526 303 536 312 538 324 L549 418 C551 430 542 439 531 439 L280 439 C268 439 260 448 261 460 L276 575 C277 587 288 596 299 596 L648 596 C660 596 670 605 672 617 L683 711 C685 723 676 732 665 732 L169 732 C157 732 147 723 145 711 L61 21 C59 9 67 0 79 0 L574 0 C586 0 596 9 598 21 L598 21 Z M446 844 C485 844 517 872 523 917 C528 962 503 990 464 990 C425 990 391 963 386 917 C380 872 407 844 446 844 L446 844 Z " />
<glyph glyph-name="edotaccent" unicode="&#x117;" horiz-adv-x="560" d="M53 244 C36 102 125 0 267 0 C344 0 407 19 459 59 C470 67 471 79 463 88 L419 138 C413 144 398 145 390 140 C356 121 319 112 281 112 C238 112 201 134 191 173 C188 188 196 195 212 195 L504 195 C516 195 526 204 528 216 L531 244 C548 385 471 488 327 488 C185 488 71 387 53 244 L53 244 Z M313 376 C355 376 398 354 402 312 C403 298 395 293 381 293 L225 293 C211 293 204 298 209 312 C223 354 271 376 313 376 L313 376 Z M354 600 C393 600 426 628 432 673 C437 718 411 746 372 746 C333 746 299 719 294 672 C288 628 315 600 354 600 L354 600 Z " />
<glyph glyph-name="Eogonek" unicode="&#x118;" horiz-adv-x="684" d="M308 -10 C300 -26 294 -45 292 -66 C281 -153 338 -209 423 -209 C486 -209 530 -184 566 -145 C574 -136 574 -123 565 -116 L526 -86 C520 -81 507 -84 500 -90 C480 -109 457 -119 428 -119 C399 -119 375 -99 381 -49 C383 -34 387 -21 394 -8 C396 -4 403 0 408 0 L574 0 C586 0 596 9 598 21 L609 116 C611 128 602 137 591 137 L243 137 C231 137 223 146 224 158 L240 282 C241 294 252 303 263 303 L514 303 C526 303 536 312 538 324 L549 418 C551 430 542 439 531 439 L280 439 C268 439 260 448 261 460 L276 575 C277 587 288 596 299 596 L648 596 C660 596 670 605 672 617 L683 711 C685 723 676 732 665 732 L169 732 C157 732 147 723 145 711 L61 21 C59 9 67 0 79 0 L303 0 C308 0 310 -5 308 -10 L308 -10 Z " />
<glyph glyph-name="eogonek" unicode="&#x119;" horiz-adv-x="560" d="M53 244 C38 121 102 28 212 6 C217 5 218 -1 215 -6 C207 -23 201 -43 198 -66 C187 -153 243 -209 328 -209 C391 -209 436 -184 471 -145 C480 -136 479 -123 470 -116 L431 -86 C425 -81 412 -84 405 -90 C385 -109 362 -119 334 -119 C304 -119 280 -99 286 -49 C288 -34 293 -19 301 -6 C303 -2 312 3 316 3 C370 9 418 28 458 58 C469 67 471 79 463 88 L419 138 C413 144 398 145 390 140 C356 121 319 112 281 112 C238 112 201 134 191 173 C188 188 196 195 212 195 L504 195 C516 195 526 204 528 216 L531 244 C548 385 471 488 327 488 C185 488 71 387 53 244 L53 244 Z M313 376 C355 376 398 354 402 312 C403 298 395 293 381 293 L225 293 C211 293 204 298 209 312 C223 354 271 376 313 376 L313 376 Z " />
<glyph glyph-name="Ecaron" unicode="&#x11a;" horiz-adv-x="684" d="M598 21 L609 116 C611 128 602 137 591 137 L243 137 C231 137 223 146 224 158 L240 282 C241 294 252 303 263 303 L514 303 C526 303 536 312 538 324 L549 418 C551 430 542 439 531 439 L280 439 C268 439 260 448 261 460 L276 575 C277 587 288 596 299 596 L648 596 C660 596 670 605 672 617 L683 711 C685 723 676 732 665 732 L169 732 C157 732 147 723 145 711 L61 21 C59 9 67 0 79 0 L574 0 C586 0 596 9 598 21 L598 21 Z M452 810 L593 949 C601 958 602 971 595 979 L582 992 C576 998 564 999 556 994 L464 935 C457 931 446 931 440 935 L363 994 C356 999 344 998 336 992 L321 979 C311 971 309 958 315 949 L421 810 C428 800 442 800 452 810 L452 810 Z " />
<glyph glyph-name="ecaron" unicode="&#x11b;" horiz-adv-x="560" d="M53 244 C36 102 125 0 267 0 C344 0 407 19 459 59 C470 67 471 79 463 88 L419 138 C413 144 398 145 390 140 C356 121 319 112 281 112 C238 112 201 134 191 173 C188 188 196 195 212 195 L504 195 C516 195 526 204 528 216 L531 244 C548 385 471 488 327 488 C185 488 71 387 53 244 L53 244 Z M313 376 C355 376 398 354 402 312 C403 298 395 293 381 293 L225 293 C211 293 204 298 209 312 C223 354 271 376 313 376 L313 376 Z M360 566 L501 705 C510 714 510 727 503 735 L490 748 C484 754 472 755 464 750 L372 691 C365 687 354 687 348 691 L271 750 C264 755 252 754 244 748 L229 735 C219 727 217 714 223 705 L329 566 C336 556 350 556 360 566 L360 566 Z " />
<glyph glyph-name="Gcircumflex" unicode="&#x11c;" horiz-adv-x="743" d="M66 368 C34 164 183 -5 386 0 C488 0 580 31 661 93 C664 96 668 103 668 108 L705 409 C707 421 698 430 687 430 L485 430 C473 430 463 421 461 409 L450 319 C449 307 457 298 469 298 L525 298 C536 298 544 289 543 277 L532 189 C531 183 526 175 521 172 C492 155 453 146 405 146 C272 146 197 235 212 369 C228 498 329 585 458 586 C516 586 567 571 609 539 C617 533 630 535 638 542 L717 619 C726 628 727 641 718 649 C654 705 573 732 476 732 C276 732 86 573 66 368 L66 368 Z M329 817 L342 803 C348 797 360 796 368 801 L461 860 C467 864 479 864 484 860 L562 801 C569 796 581 797 588 803 L604 816 C614 824 617 837 610 846 L504 985 C496 995 482 995 472 985 L332 846 C323 838 322 825 329 817 L329 817 Z " />
<glyph glyph-name="gcircumflex" unicode="&#x11d;" horiz-adv-x="559" d="M430 467 L430 461 C429 455 422 451 417 455 C396 474 362 485 316 488 C167 492 68 385 51 244 C33 97 94 0 246 0 C290 0 331 13 369 38 C374 41 378 37 377 32 L375 20 C366 -54 313 -102 228 -98 C184 -95 148 -84 118 -65 C110 -60 95 -61 88 -69 L45 -112 C36 -121 37 -134 45 -142 C90 -185 155 -210 240 -208 C395 -205 497 -105 515 39 L567 467 C569 479 561 488 549 488 L454 488 C442 488 432 479 430 467 L430 467 Z M276 113 C201 113 159 170 168 243 C177 316 233 374 308 374 C383 374 426 316 417 243 C408 170 351 113 276 113 L276 113 Z M208 572 L221 559 C227 553 239 552 247 557 L339 616 C345 620 357 620 363 616 L440 557 C447 552 459 553 466 559 L483 572 C492 580 495 593 488 602 L382 741 C374 751 360 751 350 741 L210 602 C201 593 200 580 208 572 L208 572 Z " />
<glyph glyph-name="Gbreve" unicode="&#x11e;" horiz-adv-x="743" d="M66 368 C34 164 183 -5 386 0 C488 0 580 31 661 93 C664 96 668 103 668 108 L705 409 C707 421 698 430 687 430 L485 430 C473 430 463 421 461 409 L450 319 C449 307 457 298 469 298 L525 298 C536 298 544 289 543 277 L532 189 C531 183 526 175 521 172 C492 155 453 146 405 146 C272 146 197 235 212 369 C228 498 329 585 458 586 C516 586 567 571 609 539 C617 533 630 535 638 542 L717 619 C726 628 727 641 718 649 C654 705 573 732 476 732 C276 732 86 573 66 368 L66 368 Z M555 943 C544 912 516 890 480 890 C446 890 423 912 418 943 C417 952 406 964 398 964 L369 964 C356 964 347 954 347 941 C350 873 401 823 472 823 C544 823 608 873 627 941 C630 954 624 964 610 964 L581 964 C572 964 558 952 555 943 L555 943 Z " />
<glyph glyph-name="gbreve" unicode="&#x11f;" horiz-adv-x="559" d="M430 467 L430 461 C429 455 422 451 417 455 C396 474 362 485 316 488 C167 492 68 385 51 244 C33 97 94 0 246 0 C290 0 331 13 369 38 C374 41 378 37 377 32 L375 20 C366 -54 313 -102 228 -98 C184 -95 148 -84 118 -65 C110 -60 95 -61 88 -69 L45 -112 C36 -121 37 -134 45 -142 C90 -185 155 -210 240 -208 C395 -205 497 -105 515 39 L567 467 C569 479 561 488 549 488 L454 488 C442 488 432 479 430 467 L430 467 Z M276 113 C201 113 159 170 168 243 C177 316 233 374 308 374 C383 374 426 316 417 243 C408 170 351 113 276 113 L276 113 Z M433 699 C422 668 393 646 358 646 C323 646 300 668 296 699 C295 708 284 720 276 720 L247 720 C234 720 225 710 225 697 C228 629 278 579 350 579 C422 579 485 629 504 697 C507 710 501 720 487 720 L459 720 C450 720 436 708 433 699 L433 699 Z " />
<glyph glyph-name="Gdotaccent" unicode="&#x120;" horiz-adv-x="743" d="M66 368 C34 164 183 -5 386 0 C488 0 580 31 661 93 C664 96 668 103 668 108 L705 409 C707 421 698 430 687 430 L485 430 C473 430 463 421 461 409 L450 319 C449 307 457 298 469 298 L525 298 C536 298 544 289 543 277 L532 189 C531 183 526 175 521 172 C492 155 453 146 405 146 C272 146 197 235 212 369 C228 498 329 585 458 586 C516 586 567 571 609 539 C617 533 630 535 638 542 L717 619 C726 628 727 641 718 649 C654 705 573 732 476 732 C276 732 86 573 66 368 L66 368 Z M476 844 C515 844 547 872 553 917 C558 962 533 990 494 990 C455 990 421 963 416 917 C410 872 437 844 476 844 L476 844 Z " />
<glyph glyph-name="gdotaccent" unicode="&#x121;" horiz-adv-x="559" d="M430 467 L430 461 C429 455 422 451 417 455 C396 474 362 485 316 488 C167 492 68 385 51 244 C33 97 94 0 246 0 C290 0 331 13 369 38 C374 41 378 37 377 32 L375 20 C366 -54 313 -102 228 -98 C184 -95 148 -84 118 -65 C110 -60 95 -61 88 -69 L45 -112 C36 -121 37 -134 45 -142 C90 -185 155 -210 240 -208 C395 -205 497 -105 515 39 L567 467 C569 479 561 488 549 488 L454 488 C442 488 432 479 430 467 L430 467 Z M276 113 C201 113 159 170 168 243 C177 316 233 374 308 374 C383 374 426 316 417 243 C408 170 351 113 276 113 L276 113 Z M353 600 C392 600 425 628 431 673 C436 718 410 746 371 746 C332 746 298 719 293 672 C287 628 314 600 353 600 L353 600 Z " />
<glyph glyph-name="Gcommaaccent" unicode="&#x122;" horiz-adv-x="743" d="M66 368 C34 164 183 -5 386 0 C488 0 580 31 661 93 C664 96 668 103 668 108 L705 409 C707 421 698 430 687 430 L485 430 C473 430 463 421 461 409 L450 319 C449 307 457 298 469 298 L525 298 C536 298 544 289 543 277 L532 189 C531 183 526 175 521 172 C492 155 453 146 405 146 C272 146 197 235 212 369 C228 498 329 585 458 586 C516 586 567 571 609 539 C617 533 630 535 638 542 L717 619 C726 628 727 641 718 649 C654 705 573 732 476 732 C276 732 86 573 66 368 L66 368 Z M323 -344 C380 -310 412 -257 421 -186 C426 -147 403 -115 356 -115 C312 -115 280 -145 275 -184 C271 -223 295 -252 340 -252 L345 -252 C335 -276 319 -294 297 -305 C290 -308 287 -317 290 -324 L296 -337 C301 -347 312 -350 323 -344 L323 -344 Z " />
<glyph glyph-name="gcommaaccent" unicode="&#x123;" horiz-adv-x="559" d="M430 467 L430 461 C429 455 422 451 417 455 C396 474 362 485 316 488 C167 492 68 385 51 244 C33 97 94 0 246 0 C290 0 331 13 369 38 C374 41 378 37 377 32 L375 20 C366 -54 313 -102 228 -98 C184 -95 148 -84 118 -65 C110 -60 95 -61 88 -69 L45 -112 C36 -121 37 -134 45 -142 C90 -185 155 -210 240 -208 C395 -205 497 -105 515 39 L567 467 C569 479 561 488 549 488 L454 488 C442 488 432 479 430 467 L430 467 Z M276 113 C201 113 159 170 168 243 C177 316 233 374 308 374 C383 374 426 316 417 243 C408 170 351 113 276 113 L276 113 Z M385 811 C328 777 295 722 286 652 C281 613 304 582 351 582 C396 582 428 611 433 650 C438 689 412 719 367 719 L362 719 C374 743 390 761 411 771 C417 775 421 783 418 789 L412 803 C408 814 396 817 385 811 L385 811 Z " />
<glyph glyph-name="Hcircumflex" unicode="&#x124;" horiz-adv-x="792" d="M210 21 L242 282 C243 294 254 303 265 303 L564 303 C576 303 584 294 583 282 L551 21 C549 9 557 0 569 0 L673 0 C685 0 695 9 697 21 L781 712 C783 724 775 733 763 733 L659 733 C647 733 637 724 635 712 L604 460 C603 448 592 439 581 439 L282 439 C270 439 262 448 263 460 L294 711 C296 723 287 732 276 732 L171 732 C159 732 149 723 147 711 L63 21 C61 9 69 0 81 0 L186 0 C198 0 208 9 210 21 L210 21 Z M354 817 L367 803 C373 797 385 796 393 801 L486 860 C492 864 504 864 509 860 L587 801 C593 796 606 797 613 803 L629 816 C638 824 641 837 634 846 L529 985 C521 995 507 995 497 985 L357 846 C348 838 347 825 354 817 L354 817 Z " />
<glyph glyph-name="hcircumflex" unicode="&#x125;" horiz-adv-x="537" d="M232 336 C254 358 277 371 304 373 C304 373 309 373 309 373 C372 369 397 331 389 269 L359 21 C357 9 365 0 377 0 L472 0 C484 0 494 9 496 21 L530 303 C543 411 476 488 363 488 C325 488 291 478 260 458 C252 453 242 458 243 466 L273 711 C275 723 266 732 255 732 L160 732 C148 732 138 723 136 711 L52 21 C50 9 58 0 70 0 L165 0 C177 0 187 9 189 21 L226 323 C226 326 230 334 232 336 L232 336 Z M227 817 L240 803 C246 797 258 796 266 801 L358 860 C364 864 376 864 381 860 L460 801 C466 796 479 797 486 803 L502 816 C511 824 514 837 507 846 L401 985 C393 995 379 995 369 985 L229 847 C220 838 219 825 227 817 L227 817 Z " />
<glyph glyph-name="Hbar" unicode="&#x126;" horiz-adv-x="792" d="M210 21 L242 282 C243 294 254 303 265 303 L564 303 C576 303 584 294 583 282 L551 21 C549 9 557 0 569 0 L673 0 C685 0 695 9 697 21 L781 712 C783 724 775 733 763 733 L659 733 C647 733 637 724 635 712 L604 460 C603 448 592 439 581 439 L282 439 C270 439 262 448 263 460 L294 711 C296 723 287 732 276 732 L171 732 C159 732 149 723 147 711 L63 21 C61 9 69 0 81 0 L186 0 C198 0 208 9 210 21 L210 21 Z M660 881 L665 917 C666 929 658 938 646 938 L376 938 C365 938 354 929 353 917 L348 881 C347 869 355 860 367 860 L637 860 C648 860 659 869 660 881 L660 881 Z " />
<glyph glyph-name="hbar" unicode="&#x127;" horiz-adv-x="537" d="M115 538 L52 21 C50 9 58 0 70 0 L165 0 C177 0 187 9 189 21 L226 323 C226 326 230 334 232 336 C254 358 277 371 304 373 C304 373 309 373 309 373 C372 369 397 331 389 269 L359 21 C357 9 365 0 377 0 L472 0 C484 0 494 9 496 21 L530 303 C543 411 476 488 363 488 C325 488 291 478 260 458 C252 453 242 458 243 466 L252 538 C253 550 264 559 276 559 L323 559 C334 559 345 568 346 580 L351 616 C352 628 344 637 332 637 L285 637 C274 637 265 646 267 658 L273 711 C275 723 266 732 255 732 L160 732 C148 732 138 723 136 711 L130 658 C128 646 118 637 106 637 L62 637 C51 637 40 628 39 616 L34 580 C33 568 41 559 53 559 L97 559 C108 559 116 550 115 538 L115 538 Z " />
<glyph glyph-name="Itilde" unicode="&#x128;" horiz-adv-x="293" d="M81 0 L185 0 C197 0 207 9 209 21 L293 712 C295 724 287 733 275 733 L171 733 C159 733 149 724 147 712 L63 21 C61 9 69 0 81 0 L81 0 Z M125 850 C126 852 130 885 151 890 C166 894 188 882 220 854 C318 766 474 811 490 959 C492 970 484 983 473 983 L397 983 C389 983 381 976 380 968 L378 952 C372 920 341 918 291 958 C192 1038 51 1018 13 874 C10 861 17 850 30 850 L108 850 C117 850 124 841 125 850 L125 850 Z " />
<glyph glyph-name="itilde" unicode="&#x129;" horiz-adv-x="256" d="M189 21 L243 468 C245 480 237 489 225 489 L130 489 C118 489 108 480 106 468 L52 21 C50 9 58 0 70 0 L165 0 C177 0 187 9 189 21 L189 21 Z M76 605 C77 607 81 641 103 646 C118 649 140 638 171 609 C269 522 425 567 442 715 C444 726 436 739 425 739 L348 739 C340 739 332 732 331 724 L329 708 C324 676 292 674 243 714 C144 794 2 774 -36 629 C-39 616 -32 605 -19 605 L58 605 C68 605 75 595 76 605 L76 605 Z " />
<glyph glyph-name="Imacron" unicode="&#x12a;" horiz-adv-x="293" d="M81 0 L185 0 C197 0 207 9 209 21 L293 712 C295 724 287 733 275 733 L171 733 C159 733 149 724 147 712 L63 21 C61 9 69 0 81 0 L81 0 Z M411 881 L416 917 C417 929 409 938 397 938 L126 938 C115 938 104 929 103 917 L98 881 C97 869 105 860 117 860 L388 860 C399 860 410 869 411 881 L411 881 Z " />
<glyph glyph-name="imacron" unicode="&#x12b;" horiz-adv-x="256" d="M189 21 L243 468 C245 480 237 489 225 489 L130 489 C118 489 108 480 106 468 L52 21 C50 9 58 0 70 0 L165 0 C177 0 187 9 189 21 L189 21 Z M362 637 L367 673 C368 685 360 694 348 694 L78 694 C67 694 56 685 55 673 L50 637 C49 625 57 616 69 616 L339 616 C350 616 361 625 362 637 L362 637 Z " />
<glyph glyph-name="Ibreve" unicode="&#x12c;" horiz-adv-x="293" d="M81 0 L185 0 C197 0 207 9 209 21 L293 712 C295 724 287 733 275 733 L171 733 C159 733 149 724 147 712 L63 21 C61 9 69 0 81 0 L81 0 Z M330 943 C318 912 290 890 255 890 C221 890 198 912 193 943 C192 952 181 964 173 964 L144 964 C131 964 122 954 122 941 C125 873 175 823 247 823 C319 823 383 873 402 941 C405 954 399 964 385 964 L356 964 C347 964 333 952 330 943 L330 943 Z " />
<glyph glyph-name="ibreve" unicode="&#x12d;" horiz-adv-x="256" d="M189 21 L243 468 C245 480 237 489 225 489 L130 489 C118 489 108 480 106 468 L52 21 C50 9 58 0 70 0 L165 0 C177 0 187 9 189 21 L189 21 Z M282 699 C271 668 242 646 207 646 C172 646 149 668 145 699 C144 708 133 720 125 720 L96 720 C83 720 74 710 74 697 C77 629 127 579 199 579 C271 579 335 629 354 697 C357 710 351 720 337 720 L308 720 C299 720 285 708 282 699 L282 699 Z " />
<glyph glyph-name="Iogonek" unicode="&#x12e;" horiz-adv-x="293" d="M56 -4 C43 -25 33 -50 29 -81 C18 -168 74 -224 159 -224 C222 -224 267 -198 302 -160 C311 -150 310 -138 301 -131 L262 -100 C256 -95 243 -98 236 -104 C216 -124 194 -134 166 -134 C136 -134 111 -114 117 -64 C120 -44 127 -26 139 -10 C142 -5 151 0 157 0 L185 0 C197 0 207 9 209 21 L293 712 C295 724 287 733 275 733 L171 733 C159 733 149 724 147 712 L61 7 C61 5 57 -3 56 -4 L56 -4 Z " />
<glyph glyph-name="iogonek" unicode="&#x12f;" horiz-adv-x="256" d="M48 19 C31 -4 18 -32 14 -66 C3 -153 60 -209 145 -209 C208 -209 253 -184 288 -145 C297 -136 296 -123 287 -116 L248 -86 C242 -81 229 -84 222 -90 C202 -109 179 -119 151 -119 C121 -119 97 -99 103 -49 C105 -34 109 -21 117 -8 C119 -4 126 0 131 0 L165 0 C177 0 187 9 189 21 L243 468 C245 480 237 489 225 489 L130 489 C118 489 108 480 106 468 L53 30 C53 29 49 20 48 19 L48 19 Z M118 605 C113 566 138 537 183 537 C228 537 259 566 264 605 C269 645 246 674 199 674 C155 674 123 645 118 605 L118 605 Z " />
<glyph glyph-name="Idotaccent" unicode="&#x130;" horiz-adv-x="293" d="M81 0 L185 0 C197 0 207 9 209 21 L293 712 C295 724 287 733 275 733 L171 733 C159 733 149 724 147 712 L63 21 C61 9 69 0 81 0 L81 0 Z M250 844 C290 844 322 872 328 917 C333 962 308 990 268 990 C229 990 196 963 191 917 C185 872 211 844 250 844 L250 844 Z " />
<glyph glyph-name="dotlessi" unicode="&#x131;" horiz-adv-x="256" d="M189 21 L243 468 C245 480 237 489 225 489 L130 489 C118 489 108 480 106 468 L52 21 C50 9 58 0 70 0 L165 0 C177 0 187 9 189 21 L189 21 Z " />
<glyph glyph-name="IJ" unicode="&#x132;" horiz-adv-x="708" d="M81 0 L185 0 C197 0 207 9 209 21 L293 712 C295 724 287 733 275 733 L171 733 C159 733 149 724 147 712 L63 21 C61 9 69 0 81 0 L81 0 Z M331 116 L320 21 C318 9 326 0 338 0 L416 0 C531 0 620 79 634 195 L697 711 C699 723 690 732 679 732 L574 732 C562 732 552 723 550 711 L493 244 C484 175 448 140 382 137 L355 137 C343 137 333 128 331 116 L331 116 Z " />
<glyph glyph-name="ij" unicode="&#x133;" horiz-adv-x="546" d="M189 21 L243 468 C245 480 237 489 225 489 L130 489 C118 489 108 480 106 468 L52 21 C50 9 58 0 70 0 L165 0 C177 0 187 9 189 21 L189 21 Z M118 605 C113 566 138 537 183 537 C228 537 259 566 264 605 C269 645 246 674 199 674 C155 674 123 645 118 605 L118 605 Z M172 -119 L164 -189 C162 -201 171 -210 182 -210 L260 -210 C377 -210 455 -129 469 -15 L528 467 C530 479 522 488 510 488 L415 488 C403 488 393 479 391 467 L335 9 C327 -59 289 -95 224 -98 L196 -98 C184 -98 174 -107 172 -119 L172 -119 Z M403 605 C398 566 423 537 468 537 C513 537 544 566 549 605 C554 645 531 674 484 674 C439 674 408 645 403 605 L403 605 Z " />
<glyph glyph-name="Jcircumflex" unicode="&#x134;" horiz-adv-x="415" d="M38 116 L27 21 C25 9 33 0 45 0 L123 0 C238 0 327 79 341 195 L404 711 C406 723 397 732 386 732 L281 732 C269 732 259 723 257 711 L200 244 C191 175 155 140 89 137 L62 137 C50 137 40 128 38 116 L38 116 Z M204 817 L217 803 C223 797 235 796 243 801 L336 860 C342 864 354 864 359 860 L437 801 C444 796 456 797 463 803 L479 816 C489 824 492 837 485 846 L379 985 C371 995 357 995 347 985 L207 846 C198 838 197 825 204 817 L204 817 Z " />
<glyph glyph-name="jcircumflex" unicode="&#x135;" horiz-adv-x="291" d="M-83 -119 L-91 -189 C-93 -201 -84 -210 -73 -210 L4 -210 C121 -210 199 -129 213 -15 L272 467 C274 479 266 488 254 488 L159 488 C147 488 137 479 135 467 L79 9 C71 -59 33 -95 -32 -98 L-59 -98 C-71 -98 -81 -107 -83 -119 L-83 -119 Z M80 572 L92 559 C98 553 110 552 118 557 L210 616 C216 620 228 620 234 616 L312 557 C318 552 331 553 338 559 L354 572 C363 580 366 593 359 602 L253 741 C245 751 231 751 221 741 L82 602 C73 593 72 580 80 572 L80 572 Z " />
<glyph glyph-name="Kcommaaccent" unicode="&#x136;" horiz-adv-x="705" d="M83 0 L187 0 C199 0 209 9 211 21 L240 260 C242 281 267 289 278 274 L481 7 C483 4 492 0 495 0 L630 0 C650 0 661 21 650 35 L388 377 C383 385 384 397 391 405 L674 697 C688 712 681 732 662 732 L552 732 C548 732 538 728 535 724 L305 484 C289 468 267 477 269 497 L295 711 C297 723 288 732 277 732 L173 732 C161 732 151 723 149 711 L65 21 C63 9 71 0 83 0 L83 0 Z M304 -344 C361 -310 394 -257 403 -186 C408 -147 384 -115 338 -115 C293 -115 261 -145 256 -184 C252 -223 277 -252 322 -252 L327 -252 C316 -276 300 -294 279 -305 C272 -308 269 -317 271 -323 L277 -337 C282 -347 293 -350 304 -344 L304 -344 Z " />
<glyph glyph-name="kcommaaccent" unicode="&#x137;" horiz-adv-x="586" d="M83 0 L187 0 C199 0 209 9 211 21 L225 137 C227 158 252 166 264 151 L366 8 C368 4 377 0 381 0 L516 0 C535 0 547 20 536 35 L373 255 C368 263 369 275 376 283 L540 454 C554 468 547 488 528 488 L418 488 C414 488 404 484 401 480 L290 363 C275 347 252 356 254 377 L295 711 C297 723 288 732 277 732 L173 732 C161 732 151 723 149 711 L65 21 C63 9 71 0 83 0 L83 0 Z M245 -344 C301 -310 334 -257 343 -186 C348 -147 325 -115 278 -115 C234 -115 202 -145 197 -184 C193 -223 217 -252 262 -252 L267 -252 C257 -276 241 -294 219 -305 C212 -308 209 -317 212 -324 L218 -337 C223 -347 234 -350 245 -344 L245 -344 Z " />
<glyph glyph-name="Lacute" unicode="&#x139;" horiz-adv-x="659" d="M149 711 L65 21 C63 9 71 0 83 0 L578 0 C590 0 600 9 602 21 L613 116 C615 128 606 137 595 137 L246 137 C234 137 226 146 227 158 L295 711 C297 723 288 732 277 732 L173 732 C161 732 151 723 149 711 L149 711 Z M369 807 C527 915 530 917 530 918 C552 938 546 968 530 986 C515 1004 488 1014 464 996 C464 995 461 993 461 993 L336 851 C329 843 329 830 335 823 L346 811 C352 804 361 801 369 807 L369 807 Z " />
<glyph glyph-name="lacute" unicode="&#x13a;" horiz-adv-x="280" d="M189 21 L273 711 C275 723 266 732 255 732 L160 732 C148 732 138 723 136 711 L52 21 C50 9 58 0 70 0 L165 0 C177 0 187 9 189 21 L189 21 Z M184 807 C341 915 344 917 345 918 C367 938 361 968 345 986 C330 1004 303 1014 279 996 C279 995 276 993 276 993 L151 851 C144 843 144 830 150 823 L161 811 C167 804 176 801 184 807 L184 807 Z " />
<glyph glyph-name="Lcommaaccent" unicode="&#x13b;" horiz-adv-x="659" d="M149 711 L65 21 C63 9 71 0 83 0 L578 0 C590 0 600 9 602 21 L613 116 C615 128 606 137 595 137 L246 137 C234 137 226 146 227 158 L295 711 C297 723 288 732 277 732 L173 732 C161 732 151 723 149 711 L149 711 Z M281 -344 C338 -310 371 -257 380 -186 C385 -147 361 -115 315 -115 C270 -115 238 -145 233 -184 C229 -223 254 -252 299 -252 L304 -252 C293 -276 277 -294 256 -305 C249 -308 246 -317 248 -323 L254 -337 C259 -347 270 -350 281 -344 L281 -344 Z " />
<glyph glyph-name="lcommaaccent" unicode="&#x13c;" horiz-adv-x="280" d="M189 21 L273 711 C275 723 266 732 255 732 L160 732 C148 732 138 723 136 711 L52 21 C50 9 58 0 70 0 L165 0 C177 0 187 9 189 21 L189 21 Z M92 -344 C149 -310 181 -257 190 -186 C195 -147 172 -115 125 -115 C81 -115 49 -145 44 -184 C40 -223 64 -252 109 -252 L112 -252 C114 -252 115 -253 114 -254 C103 -277 87 -294 66 -305 C59 -308 56 -317 59 -324 L65 -337 C70 -347 81 -350 92 -344 L92 -344 Z " />
<glyph glyph-name="Lcaron" unicode="&#x13d;" horiz-adv-x="659" d="M149 711 L65 21 C63 9 71 0 83 0 L578 0 C590 0 600 9 602 21 L613 116 C615 128 606 137 595 137 L246 137 C234 137 226 146 227 158 L295 711 C297 723 288 732 277 732 L173 732 C161 732 151 723 149 711 L149 711 Z M533 548 C590 582 622 635 631 707 C636 746 612 777 565 777 C521 777 490 747 485 708 C480 669 505 640 550 640 L553 640 C554 640 555 639 554 638 C543 615 527 597 506 587 C500 583 496 574 499 568 L505 554 C510 544 522 541 533 548 L533 548 Z " />
<glyph glyph-name="lcaron" unicode="&#x13e;" horiz-adv-x="585" d="M189 21 L273 711 C275 723 266 732 255 732 L160 732 C148 732 138 723 136 711 L52 21 C50 9 58 0 70 0 L165 0 C177 0 187 9 189 21 L189 21 Z M460 548 C516 582 549 635 558 707 C563 746 539 777 492 777 C448 777 417 747 412 708 C407 669 432 640 477 640 L482 640 C471 616 454 598 433 587 C427 583 423 575 426 569 L432 555 C437 544 448 541 460 548 L460 548 Z " />
<glyph glyph-name="Ldot" unicode="&#x13f;" horiz-adv-x="659" d="M149 711 L65 21 C63 9 71 0 83 0 L578 0 C590 0 600 9 602 21 L613 116 C615 128 606 137 595 137 L246 137 C234 137 226 146 227 158 L295 711 C297 723 288 732 277 732 L173 732 C161 732 151 723 149 711 L149 711 Z M484 555 C523 555 556 583 561 628 C567 673 541 701 502 701 C462 701 430 674 424 627 C419 583 444 555 484 555 L484 555 Z " />
<glyph glyph-name="ldot" unicode="&#x140;" horiz-adv-x="510" d="M189 21 L273 711 C275 723 266 732 255 732 L160 732 C148 732 138 723 136 711 L52 21 C50 9 58 0 70 0 L165 0 C177 0 187 9 189 21 L189 21 Z M418 555 C457 555 490 583 495 628 C501 673 475 701 436 701 C397 701 364 674 358 627 C353 583 379 555 418 555 L418 555 Z " />
<glyph glyph-name="Lslash" unicode="&#x141;" horiz-adv-x="659" d="M149 711 L111 399 C110 393 104 384 98 381 L5 331 C-6 325 -11 312 -6 302 L8 271 C12 261 25 258 35 263 L65 279 C81 288 96 278 94 261 L65 21 C63 9 71 0 83 0 L578 0 C590 0 600 9 602 21 L613 116 C615 128 606 137 595 137 L246 137 C234 137 226 146 227 158 L253 370 C254 376 261 385 266 388 L366 442 C377 447 382 460 377 470 L363 502 C359 512 346 515 335 509 L300 490 C284 482 268 491 270 508 L295 711 C297 723 288 732 277 732 L173 732 C161 732 151 723 149 711 L149 711 Z " />
<glyph glyph-name="lslash" unicode="&#x142;" horiz-adv-x="280" d="M189 21 L231 368 C232 374 239 383 244 386 L346 442 C357 447 362 460 357 470 L343 502 C339 512 326 515 315 509 L278 489 C261 480 246 489 248 507 L273 711 C275 723 266 732 255 732 L160 732 C148 732 138 723 136 711 L98 403 C98 397 91 388 86 385 L-15 331 C-26 325 -31 312 -26 302 L-12 271 C-8 261 5 258 15 263 L52 283 C68 292 84 282 82 265 L52 21 C50 9 58 0 70 0 L165 0 C177 0 187 9 189 21 L189 21 Z " />
<glyph glyph-name="Nacute" unicode="&#x143;" horiz-adv-x="806" d="M210 21 L264 462 C266 482 290 491 302 476 L577 139 C579 137 582 128 581 125 L569 21 C567 9 575 0 587 0 L693 0 C705 0 715 9 717 21 L801 711 C803 723 794 732 783 732 L679 732 C667 732 657 723 655 711 L618 405 C615 386 592 377 580 391 L302 725 C300 728 291 732 288 732 L171 732 C159 732 149 723 147 711 L63 21 C61 9 69 0 81 0 L186 0 C198 0 208 9 210 21 L210 21 Z M443 807 C600 915 603 917 604 918 C626 938 619 968 603 986 C589 1004 562 1014 538 996 C538 995 535 993 535 993 L410 851 C403 843 403 830 409 823 L420 811 C426 804 435 800 443 807 L443 807 Z " />
<glyph glyph-name="nacute" unicode="&#x144;" horiz-adv-x="559" d="M227 317 C250 351 275 370 301 373 C301 373 308 373 308 373 C371 369 396 331 388 269 L358 21 C356 9 364 0 376 0 L471 0 C483 0 493 9 495 21 L529 303 C542 411 475 488 362 488 C324 488 290 478 259 458 C251 453 241 458 242 466 L242 468 C244 480 236 489 224 489 L129 489 C117 489 107 480 105 468 L51 21 C49 9 57 0 69 0 L164 0 C176 0 186 9 188 21 L223 306 C223 307 226 315 227 317 L227 317 Z M289 562 C446 670 450 672 451 674 C473 694 466 724 450 742 C435 760 408 770 384 752 C384 751 381 749 381 749 L256 607 C249 599 249 586 255 579 L266 567 C272 560 281 557 289 562 L289 562 Z " />
<glyph glyph-name="Ncommaaccent" unicode="&#x145;" horiz-adv-x="806" d="M210 21 L264 462 C266 482 290 491 302 476 L577 139 C579 137 582 128 581 125 L569 21 C567 9 575 0 587 0 L693 0 C705 0 715 9 717 21 L801 711 C803 723 794 732 783 732 L679 732 C667 732 657 723 655 711 L618 405 C615 386 592 377 580 391 L302 725 C300 728 291 732 288 732 L171 732 C159 732 149 723 147 711 L63 21 C61 9 69 0 81 0 L186 0 C198 0 208 9 210 21 L210 21 Z M354 -344 C411 -310 444 -257 453 -186 C458 -147 435 -115 388 -115 C343 -115 312 -145 307 -184 C303 -223 327 -252 372 -252 L377 -252 C366 -276 350 -294 329 -305 C322 -308 319 -317 321 -323 L327 -337 C332 -347 343 -350 354 -344 L354 -344 Z " />
<glyph glyph-name="ncommaaccent" unicode="&#x146;" horiz-adv-x="559" d="M227 317 C250 351 275 370 301 373 C301 373 308 373 308 373 C371 369 396 331 388 269 L358 21 C356 9 364 0 376 0 L471 0 C483 0 493 9 495 21 L529 303 C542 411 475 488 362 488 C324 488 290 478 259 458 C251 453 241 458 242 466 L242 468 C244 480 236 489 224 489 L129 489 C117 489 107 480 105 468 L51 21 C49 9 57 0 69 0 L164 0 C176 0 186 9 188 21 L223 306 C223 307 226 315 227 317 L227 317 Z M231 -344 C288 -310 321 -257 330 -186 C335 -147 311 -115 264 -115 C220 -115 188 -145 183 -184 C179 -223 203 -252 248 -252 L251 -252 C253 -252 254 -253 253 -254 C242 -277 226 -294 205 -305 C198 -308 195 -317 198 -324 L204 -337 C209 -347 220 -350 231 -344 L231 -344 Z " />
<glyph glyph-name="Ncaron" unicode="&#x147;" horiz-adv-x="806" d="M210 21 L264 462 C266 482 290 491 302 476 L577 139 C579 137 582 128 581 125 L569 21 C567 9 575 0 587 0 L693 0 C705 0 715 9 717 21 L801 711 C803 723 794 732 783 732 L679 732 C667 732 657 723 655 711 L618 405 C615 386 592 377 580 391 L302 725 C300 728 291 732 288 732 L171 732 C159 732 149 723 147 711 L63 21 C61 9 69 0 81 0 L186 0 C198 0 208 9 210 21 L210 21 Z M513 810 L654 949 C662 958 663 971 656 979 L643 992 C637 998 625 999 617 994 L525 935 C518 931 507 931 501 935 L424 994 C417 999 405 998 397 992 L382 979 C372 971 370 958 376 949 L482 810 C489 800 503 800 513 810 L513 810 Z " />
<glyph glyph-name="ncaron" unicode="&#x148;" horiz-adv-x="559" d="M227 317 C250 351 275 370 301 373 C301 373 308 373 308 373 C371 369 396 331 388 269 L358 21 C356 9 364 0 376 0 L471 0 C483 0 493 9 495 21 L529 303 C542 411 475 488 362 488 C324 488 290 478 259 458 C251 453 241 458 242 466 L242 468 C244 480 236 489 224 489 L129 489 C117 489 107 480 105 468 L51 21 C49 9 57 0 69 0 L164 0 C176 0 186 9 188 21 L223 306 C223 307 226 315 227 317 L227 317 Z M360 566 L501 705 C509 714 510 727 502 735 L489 748 C483 754 471 755 464 750 L372 691 C365 687 354 687 348 691 L271 750 C264 755 252 754 245 748 L228 735 C218 727 216 714 223 705 L329 566 C336 556 350 556 360 566 L360 566 Z " />
<glyph glyph-name="napostrophe" unicode="&#x149;" horiz-adv-x="772" d="M439 317 C463 352 488 371 516 373 C516 373 521 373 521 373 C584 369 609 331 601 269 L571 21 C569 9 577 0 589 0 L684 0 C696 0 706 9 708 21 L742 303 C755 411 687 488 575 488 C537 488 503 478 471 458 C464 453 453 458 454 466 L454 468 C456 480 448 489 436 489 L342 489 C330 489 320 480 318 468 L264 21 C262 9 270 0 282 0 L376 0 C388 0 398 9 400 21 L435 306 C435 307 438 315 439 317 L439 317 Z M162 376 C218 410 251 463 260 535 C264 574 241 605 194 605 C150 605 119 575 114 536 C109 497 133 468 178 468 L183 468 C173 444 157 426 135 415 C129 411 125 402 128 396 L134 382 C139 372 151 369 162 376 L162 376 Z " />
<glyph glyph-name="Eng" unicode="&#x14a;" horiz-adv-x="806" d="M406 -126 L394 -221 C392 -233 401 -242 412 -242 L490 -242 C605 -242 694 -163 708 -47 L801 711 C803 723 794 732 783 732 L679 732 C667 732 657 723 655 711 L608 327 C606 307 582 298 570 313 L243 725 C241 728 232 732 229 732 L171 732 C159 732 149 723 147 711 L63 21 C61 9 69 0 81 0 L186 0 C198 0 208 9 210 21 L256 400 C259 420 283 429 294 414 L570 65 C572 63 575 54 574 51 L568 2 C560 -66 522 -102 456 -105 L429 -105 C418 -105 407 -114 406 -126 L406 -126 Z " />
<glyph glyph-name="eng" unicode="&#x14b;" horiz-adv-x="559" d="M189 -163 L180 -233 C179 -245 187 -254 199 -254 L277 -254 C394 -254 471 -174 485 -60 L529 303 C542 411 475 488 362 488 C324 488 290 478 259 458 C251 453 241 458 242 466 L242 468 C244 480 236 489 224 489 L129 489 C117 489 107 480 105 468 L51 21 C49 9 57 0 69 0 L164 0 C176 0 186 9 188 21 L223 306 C223 307 226 315 227 317 C250 351 275 370 301 373 C301 373 308 373 308 373 C371 369 396 331 388 269 L351 -35 C342 -104 306 -139 240 -142 L213 -142 C201 -142 190 -151 189 -163 L189 -163 Z " />
<glyph glyph-name="Omacron" unicode="&#x14c;" horiz-adv-x="804" d="M68 366 C43 160 182 0 389 0 C596 0 775 159 800 366 C825 573 686 732 479 732 C272 732 93 573 68 366 L68 366 Z M407 137 C275 137 198 238 214 366 C230 494 331 596 462 596 C593 596 670 494 654 366 C638 239 537 137 407 137 L407 137 Z M666 881 L671 917 C672 929 664 938 652 938 L382 938 C371 938 360 929 359 917 L354 881 C353 869 361 860 373 860 L643 860 C654 860 665 869 666 881 L666 881 Z " />
<glyph glyph-name="omacron" unicode="&#x14d;" horiz-adv-x="562" d="M51 244 C34 104 127 -5 269 -5 C410 -5 532 103 549 244 C566 385 472 493 331 493 C189 493 68 385 51 244 L51 244 Z M283 113 C208 113 165 170 174 244 C183 316 240 375 315 375 C390 375 433 317 424 244 C415 170 358 113 283 113 L283 113 Z M515 637 L520 673 C521 685 513 694 501 694 L231 694 C220 694 209 685 208 673 L203 637 C202 625 210 616 222 616 L492 616 C503 616 514 625 515 637 L515 637 Z " />
<glyph glyph-name="Obreve" unicode="&#x14e;" horiz-adv-x="804" d="M68 366 C43 160 182 0 389 0 C596 0 775 159 800 366 C825 573 686 732 479 732 C272 732 93 573 68 366 L68 366 Z M407 137 C275 137 198 238 214 366 C230 494 331 596 462 596 C593 596 670 494 654 366 C638 239 537 137 407 137 L407 137 Z M586 943 C574 912 546 890 511 890 C476 890 453 912 449 943 C448 952 437 964 429 964 L400 964 C387 964 378 954 378 941 C381 873 431 823 503 823 C575 823 638 873 657 941 C660 954 654 964 640 964 L612 964 C603 964 589 952 586 943 L586 943 Z " />
<glyph glyph-name="obreve" unicode="&#x14f;" horiz-adv-x="562" d="M51 244 C34 104 127 -5 269 -5 C410 -5 532 103 549 244 C566 385 472 493 331 493 C189 493 68 385 51 244 L51 244 Z M283 113 C208 113 165 170 174 244 C183 316 240 375 315 375 C390 375 433 317 424 244 C415 170 358 113 283 113 L283 113 Z M435 699 C424 668 395 646 360 646 C325 646 302 668 298 699 C297 708 286 720 278 720 L249 720 C236 720 227 710 227 697 C230 629 280 579 352 579 C424 579 487 629 506 697 C509 710 503 720 489 720 L461 720 C452 720 438 708 435 699 L435 699 Z " />
<glyph glyph-name="Ohungarumlaut" unicode="&#x150;" horiz-adv-x="804" d="M68 366 C43 160 182 0 389 0 C596 0 775 159 800 366 C825 573 686 732 479 732 C272 732 93 573 68 366 L68 366 Z M407 137 C275 137 198 238 214 366 C230 494 331 596 462 596 C593 596 670 494 654 366 C638 239 537 137 407 137 L407 137 Z M341 807 C498 915 501 917 502 918 C524 938 517 968 501 986 C487 1004 459 1014 436 996 C436 995 433 993 433 993 L308 851 C301 843 301 830 307 823 L318 811 C324 804 333 800 341 807 L341 807 Z M543 807 C700 915 703 917 704 918 C726 938 720 968 704 986 C689 1004 662 1014 638 996 C638 995 635 993 635 993 L510 851 C503 843 503 830 509 823 L520 811 C526 804 535 800 543 807 L543 807 Z " />
<glyph glyph-name="ohungarumlaut" unicode="&#x151;" horiz-adv-x="562" d="M51 244 C34 104 127 -5 269 -5 C410 -5 532 103 549 244 C566 385 472 493 331 493 C189 493 68 385 51 244 L51 244 Z M283 113 C208 113 165 170 174 244 C183 316 240 375 315 375 C390 375 433 317 424 244 C415 170 358 113 283 113 L283 113 Z M190 562 C346 670 350 672 351 674 C373 694 366 724 350 742 C336 760 308 770 284 752 C284 751 281 749 281 749 L157 607 C150 599 150 586 156 579 L167 567 C173 560 182 556 190 562 L190 562 Z M392 562 C548 670 552 672 553 674 C575 694 568 724 552 742 C538 760 511 770 487 752 C487 751 484 749 484 749 L359 607 C352 599 352 586 358 579 L369 567 C375 560 384 556 392 562 L392 562 Z " />
<glyph glyph-name="OE" unicode="&#x152;" horiz-adv-x="968" d="M921 21 L932 116 C934 128 925 137 914 137 L565 137 C553 137 545 146 546 158 L562 282 C563 294 574 303 585 303 L837 303 C849 303 859 312 861 324 L872 418 C874 430 865 439 854 439 L602 439 C590 439 582 448 583 460 L598 575 C599 587 610 596 621 596 L971 596 C983 596 993 605 995 617 L1006 711 C1008 723 999 732 988 732 L479 732 C273 739 93 568 68 366 C43 166 177 0 389 0 L897 0 C909 0 919 9 921 21 L921 21 Z M214 366 C228 483 314 578 435 593 C448 595 453 586 451 573 L401 159 C399 146 392 137 380 138 C267 152 199 244 214 366 L214 366 Z " />
<glyph glyph-name="oe" unicode="&#x153;" horiz-adv-x="924" d="M51 244 C34 104 127 -5 269 -5 C332 -5 390 14 447 61 C456 68 475 66 482 59 C520 19 578 0 641 0 C717 0 781 19 833 59 C844 67 845 79 837 88 L793 138 C787 145 775 146 767 142 C732 122 694 112 655 112 C612 112 574 134 564 173 C561 188 569 195 585 195 L878 195 C890 195 900 204 902 216 L905 244 C922 385 845 488 701 488 C636 488 580 469 526 427 C517 420 499 422 492 428 C446 474 394 493 331 493 C189 493 68 385 51 244 L51 244 Z M283 113 C208 113 165 170 174 244 C183 316 240 375 315 375 C390 375 433 317 424 244 C415 170 358 113 283 113 L283 113 Z M687 376 C728 376 771 354 775 312 C776 298 768 293 754 293 L599 293 C585 293 578 298 583 312 C597 354 645 376 687 376 L687 376 Z " />
<glyph glyph-name="Racute" unicode="&#x154;" horiz-adv-x="700" d="M567 329 C644 362 688 427 700 521 C717 662 640 732 469 732 L171 732 C159 732 149 723 147 711 L63 21 C61 9 69 0 81 0 L186 0 C198 0 208 9 210 21 L242 282 C243 294 254 303 265 303 L365 303 C371 303 380 298 382 293 L511 10 C513 5 522 0 528 0 L648 0 C665 0 677 16 670 31 L550 297 C545 308 555 324 567 329 L567 329 Z M302 605 L487 605 C545 603 571 568 566 520 C558 467 524 431 465 430 L281 430 C269 430 261 439 262 451 L279 584 C280 596 291 605 302 605 L302 605 Z M390 807 C547 915 550 917 551 918 C573 938 566 968 550 986 C536 1004 508 1014 484 996 C484 995 481 993 481 993 L357 851 C350 843 350 830 356 823 L367 811 C373 804 382 800 390 807 L390 807 Z " />
<glyph glyph-name="racute" unicode="&#x155;" horiz-adv-x="389" d="M232 488 L138 488 C126 488 116 479 114 467 L60 21 C58 9 66 0 78 0 L172 0 C184 0 194 9 196 21 L229 294 C229 297 232 303 233 305 C269 347 312 363 364 356 C375 354 390 362 394 374 L423 476 C424 481 423 485 419 485 C406 487 394 488 380 488 C339 487 301 475 268 452 C260 447 248 451 249 460 L250 467 C252 479 244 488 232 488 L232 488 Z M204 562 C360 670 364 672 365 674 C387 694 381 724 364 742 C350 760 323 770 299 752 C299 751 296 749 296 749 L171 607 C164 599 164 586 170 579 L181 567 C187 560 196 556 204 562 L204 562 Z " />
<glyph glyph-name="Rcommaaccent" unicode="&#x156;" horiz-adv-x="700" d="M567 329 C644 362 688 427 700 521 C717 662 640 732 469 732 L171 732 C159 732 149 723 147 711 L63 21 C61 9 69 0 81 0 L186 0 C198 0 208 9 210 21 L242 282 C243 294 254 303 265 303 L365 303 C371 303 380 298 382 293 L511 10 C513 5 522 0 528 0 L648 0 C665 0 677 16 670 31 L550 297 C545 308 555 324 567 329 L567 329 Z M302 605 L487 605 C545 603 571 568 566 520 C558 467 524 431 465 430 L281 430 C269 430 261 439 262 451 L279 584 C280 596 291 605 302 605 L302 605 Z M301 -344 C358 -310 391 -257 400 -186 C405 -147 382 -115 335 -115 C290 -115 258 -145 253 -184 C249 -223 274 -252 319 -252 L324 -252 C313 -276 297 -294 276 -305 C269 -308 266 -317 268 -323 L274 -337 C279 -347 290 -350 301 -344 L301 -344 Z " />
<glyph glyph-name="rcommaaccent" unicode="&#x157;" horiz-adv-x="389" d="M232 488 L138 488 C126 488 116 479 114 467 L60 21 C58 9 66 0 78 0 L172 0 C184 0 194 9 196 21 L229 294 C229 297 232 303 233 305 C269 347 312 363 364 356 C375 354 390 362 394 374 L423 476 C424 481 423 485 419 485 C406 487 394 488 380 488 C339 487 301 475 268 452 C260 447 248 451 249 460 L250 467 C252 479 244 488 232 488 L232 488 Z M146 -344 C203 -310 236 -257 245 -186 C250 -147 226 -115 179 -115 C135 -115 103 -145 98 -184 C94 -223 118 -252 163 -252 L166 -252 C168 -252 169 -253 168 -254 C157 -277 141 -294 121 -305 C114 -308 111 -317 113 -323 L119 -337 C124 -347 135 -350 146 -344 L146 -344 Z " />
<glyph glyph-name="Rcaron" unicode="&#x158;" horiz-adv-x="700" d="M302 605 L487 605 C545 603 571 568 566 520 C558 467 524 431 465 430 L281 430 C269 430 261 439 262 451 L279 584 C280 596 291 605 302 605 L302 605 Z M567 329 C644 362 688 427 700 521 C717 662 640 732 469 732 L171 732 C159 732 149 723 147 711 L63 21 C61 9 69 0 81 0 L186 0 C198 0 208 9 210 21 L242 282 C243 294 254 303 265 303 L365 303 C371 303 380 298 382 293 L511 10 C513 5 522 0 528 0 L648 0 C665 0 677 16 670 31 L550 297 C545 308 555 324 567 329 L567 329 Z M460 810 L601 949 C609 958 610 971 603 979 L590 992 C584 998 572 999 564 994 L472 935 C465 931 454 931 448 935 L371 994 C364 999 352 998 344 992 L328 979 C318 971 316 958 322 949 L429 810 C436 800 450 800 460 810 L460 810 Z " />
<glyph glyph-name="rcaron" unicode="&#x159;" horiz-adv-x="389" d="M232 488 L138 488 C126 488 116 479 114 467 L60 21 C58 9 66 0 78 0 L172 0 C184 0 194 9 196 21 L229 294 C229 297 232 303 233 305 C269 347 312 363 364 356 C375 354 390 362 394 374 L423 476 C424 481 423 485 419 485 C406 487 394 488 380 488 C339 487 301 475 268 452 C260 447 248 451 249 460 L250 467 C252 479 244 488 232 488 L232 488 Z M275 566 L416 705 C424 714 425 727 417 735 L404 748 C398 754 386 755 379 750 L287 691 C280 687 269 687 263 691 L186 750 C179 755 167 754 160 748 L143 735 C133 727 131 714 138 705 L244 566 C251 556 265 556 275 566 L275 566 Z " />
<glyph glyph-name="Sacute" unicode="&#x15a;" horiz-adv-x="642" d="M624 651 C558 714 502 732 388 732 C273 732 123 646 108 518 C90 374 201 331 316 312 C492 285 474 130 295 137 C230 142 182 159 152 189 C144 196 128 196 119 189 L45 122 C35 113 36 99 44 90 C112 26 190 0 302 0 C425 0 581 83 597 215 C616 363 508 420 381 439 C219 464 240 596 400 596 C449 596 488 582 516 553 C523 546 539 545 548 553 L623 619 C632 628 632 643 624 651 L624 651 Z M361 807 C518 915 521 917 522 918 C544 938 537 968 521 986 C507 1004 480 1014 456 996 C456 995 453 993 453 993 L328 851 C321 843 321 830 327 823 L338 811 C344 804 353 800 361 807 L361 807 Z " />
<glyph glyph-name="sacute" unicode="&#x15b;" horiz-adv-x="453" d="M434 439 C391 480 354 491 278 491 C192 491 98 431 86 336 C73 232 140 197 227 187 C271 183 295 174 301 162 C320 125 261 102 217 107 C179 111 150 122 131 140 C125 145 113 146 107 140 L48 83 C39 74 38 63 46 55 C84 18 137 -5 219 -5 C308 -5 407 42 419 141 C433 254 373 291 274 303 C209 316 190 336 215 360 C228 373 251 379 284 379 C311 379 333 370 351 352 C357 346 368 346 375 352 L433 410 C442 419 442 432 434 439 L434 439 Z M236 562 C393 670 396 672 397 674 C419 694 413 724 397 742 C382 760 355 770 331 752 C331 751 328 749 328 749 L203 607 C196 599 196 586 202 579 L213 567 C219 560 228 557 236 562 L236 562 Z " />
<glyph glyph-name="Scircumflex" unicode="&#x15c;" horiz-adv-x="642" d="M624 651 C558 714 502 732 388 732 C273 732 123 646 108 518 C90 374 201 331 316 312 C492 285 474 130 295 137 C230 142 182 159 152 189 C144 196 128 196 119 189 L45 122 C35 113 36 99 44 90 C112 26 190 0 302 0 C425 0 581 83 597 215 C616 363 508 420 381 439 C219 464 240 596 400 596 C449 596 488 582 516 553 C523 546 539 545 548 553 L623 619 C632 628 632 643 624 651 L624 651 Z M279 817 L292 803 C298 797 310 796 318 802 L410 860 C416 864 428 864 433 860 L512 801 C518 796 531 797 538 803 L554 816 C563 824 566 837 559 846 L453 985 C445 995 431 995 421 985 L281 846 C273 838 272 825 279 817 L279 817 Z " />
<glyph glyph-name="scircumflex" unicode="&#x15d;" horiz-adv-x="453" d="M434 439 C391 480 354 491 278 491 C192 491 98 431 86 336 C73 232 140 197 227 187 C271 183 295 174 301 162 C320 125 261 102 217 107 C179 111 150 122 131 140 C125 145 113 146 107 140 L48 83 C39 74 38 63 46 55 C84 18 137 -5 219 -5 C308 -5 407 42 419 141 C433 254 373 291 274 303 C209 316 190 336 215 360 C228 373 251 379 284 379 C311 379 333 370 351 352 C357 346 368 346 375 352 L433 410 C442 419 442 432 434 439 L434 439 Z M155 572 L168 559 C174 553 186 552 194 557 L286 616 C292 620 304 620 310 616 L388 557 C394 552 407 553 414 559 L430 572 C439 580 442 593 435 602 L329 741 C321 751 307 751 297 741 L157 602 C148 593 147 580 155 572 L155 572 Z " />
<glyph glyph-name="Scedilla" unicode="&#x15e;" horiz-adv-x="642" d="M289 -200 C346 -200 405 -153 413 -91 C418 -51 393 -22 344 -3 C342 -3 341 -1 342 1 C343 1 352 4 353 4 C464 23 583 101 597 215 C616 363 508 420 381 439 C219 464 240 596 400 596 C449 596 488 582 516 553 C523 546 539 545 548 553 L623 619 C632 628 632 643 624 651 C558 714 502 732 388 732 C273 732 123 646 108 518 C90 374 201 331 316 312 C492 285 474 130 295 137 C230 142 182 159 152 189 C144 196 128 196 119 189 L45 122 C35 113 34 101 42 93 C96 40 157 12 237 3 C248 2 251 -10 243 -21 C236 -32 239 -45 252 -49 L303 -65 C322 -71 333 -80 332 -93 C330 -108 313 -120 299 -120 C287 -120 277 -111 268 -98 C265 -94 258 -92 253 -94 L213 -113 C201 -118 196 -129 201 -140 C216 -174 247 -200 289 -200 L289 -200 Z " />
<glyph glyph-name="scedilla" unicode="&#x15f;" horiz-adv-x="453" d="M195 -200 C251 -200 311 -153 319 -91 C323 -58 306 -32 272 -14 C267 -11 272 1 278 2 C348 18 410 64 419 141 C433 254 373 291 274 303 C209 316 190 336 215 360 C228 373 251 379 284 379 C311 379 333 370 351 352 C357 346 368 346 375 352 L433 410 C442 419 442 432 434 439 C391 480 354 491 278 491 C192 491 98 431 86 336 C73 232 140 197 227 187 C271 183 295 174 301 162 C320 125 261 102 217 107 C179 111 150 122 131 140 C125 145 113 146 107 140 L48 83 C40 74 37 63 45 55 C70 31 100 14 141 4 C152 1 155 -11 148 -21 C141 -32 145 -45 157 -49 L209 -65 C227 -71 239 -80 238 -93 C236 -108 219 -120 205 -120 C193 -120 182 -111 174 -98 C171 -94 164 -92 159 -94 L118 -113 C107 -118 101 -126 105 -137 C119 -172 151 -200 195 -200 L195 -200 Z " />
<glyph glyph-name="Scaron" unicode="&#x160;" horiz-adv-x="642" d="M624 651 C558 714 502 732 388 732 C273 732 123 646 108 518 C90 374 201 331 316 312 C492 285 474 130 295 137 C230 142 182 159 152 189 C144 196 128 196 119 189 L45 122 C35 113 36 99 44 90 C112 26 190 0 302 0 C425 0 581 83 597 215 C616 363 508 420 381 439 C219 464 240 596 400 596 C449 596 488 582 516 553 C523 546 539 545 548 553 L623 619 C632 628 632 643 624 651 L624 651 Z M431 810 L572 949 C580 958 581 971 574 979 L561 992 C555 998 543 999 535 994 L443 935 C436 931 425 931 419 935 L342 994 C335 999 323 998 315 992 L300 979 C290 971 288 958 294 949 L400 810 C407 800 421 800 431 810 L431 810 Z " />
<glyph glyph-name="scaron" unicode="&#x161;" horiz-adv-x="453" d="M434 439 C391 480 354 491 278 491 C192 491 98 431 86 336 C73 232 140 197 227 187 C271 183 295 174 301 162 C320 125 261 102 217 107 C179 111 150 122 131 140 C125 145 113 146 107 140 L48 83 C39 74 38 63 46 55 C84 18 137 -5 219 -5 C308 -5 407 42 419 141 C433 254 373 291 274 303 C209 316 190 336 215 360 C228 373 251 379 284 379 C311 379 333 370 351 352 C357 346 368 346 375 352 L433 410 C442 419 442 432 434 439 L434 439 Z M307 566 L448 705 C457 714 457 727 450 735 L437 748 C431 754 419 755 411 750 L319 691 C312 687 301 687 295 691 L218 750 C211 755 199 754 192 748 L175 735 C165 727 163 714 170 705 L276 566 C283 556 297 556 307 566 L307 566 Z " />
<glyph glyph-name="Tcommaaccent" unicode="&#x162;" horiz-adv-x="707" d="M110 711 L99 617 C97 605 106 596 117 596 L319 596 C331 596 339 587 338 575 L270 21 C268 9 276 0 288 0 L393 0 C405 0 415 9 417 21 L485 575 C486 587 497 596 508 596 L710 596 C722 596 732 605 734 617 L745 711 C747 723 738 732 727 732 L134 732 C122 732 112 723 110 711 L110 711 Z M305 -344 C362 -310 394 -257 403 -186 C408 -147 385 -115 338 -115 C294 -115 262 -145 257 -184 C253 -223 277 -252 322 -252 L327 -252 C317 -276 301 -294 279 -305 C272 -308 269 -317 272 -324 L278 -337 C283 -347 294 -350 305 -344 L305 -344 Z " />
<glyph glyph-name="tcommaaccent" unicode="&#x163;" horiz-adv-x="384" d="M270 0 C294 0 318 6 340 16 C348 20 352 29 350 37 L337 112 C337 117 332 120 327 119 C313 116 304 115 299 115 C264 115 242 133 249 186 L270 356 C271 368 282 377 293 377 L334 377 C346 377 356 386 358 398 L366 467 C368 479 360 488 348 488 L307 488 C295 488 287 497 288 509 L301 614 C303 626 295 635 283 635 L188 635 C176 635 166 626 164 614 L151 509 C150 497 140 488 128 488 L97 488 C85 488 75 479 73 467 L65 398 C63 386 72 377 83 377 L114 377 C126 377 134 368 133 356 L109 166 C97 62 167 0 270 0 L270 0 Z M143 -344 C200 -310 233 -257 242 -186 C247 -147 224 -115 177 -115 C132 -115 101 -145 96 -184 C92 -223 116 -252 161 -252 L166 -252 C155 -276 139 -294 118 -305 C111 -308 108 -317 110 -323 L116 -337 C121 -347 132 -350 143 -344 L143 -344 Z " />
<glyph glyph-name="Tcaron" unicode="&#x164;" horiz-adv-x="707" d="M110 711 L99 617 C97 605 106 596 117 596 L319 596 C331 596 339 587 338 575 L270 21 C268 9 276 0 288 0 L393 0 C405 0 415 9 417 21 L485 575 C486 587 497 596 508 596 L710 596 C722 596 732 605 734 617 L745 711 C747 723 738 732 727 732 L134 732 C122 732 112 723 110 711 L110 711 Z M464 810 L604 949 C613 958 613 971 606 979 L593 992 C587 998 575 999 567 994 L476 935 C469 931 458 931 452 935 L374 994 C367 999 355 998 348 992 L332 979 C322 971 320 958 326 949 L433 810 C440 800 454 800 464 810 L464 810 Z " />
<glyph glyph-name="tcaron" unicode="&#x165;" horiz-adv-x="689" d="M270 0 C294 0 318 6 340 16 C348 20 352 29 350 37 L337 112 C337 117 332 120 327 119 C313 116 304 115 299 115 C264 115 242 133 249 186 L270 356 C271 368 282 377 293 377 L334 377 C346 377 356 386 358 398 L366 467 C368 479 360 488 348 488 L307 488 C295 488 287 497 288 509 L301 614 C303 626 295 635 283 635 L188 635 C176 635 166 626 164 614 L151 509 C150 497 140 488 128 488 L97 488 C85 488 75 479 73 467 L65 398 C63 386 72 377 83 377 L114 377 C126 377 134 368 133 356 L109 166 C97 62 167 0 270 0 L270 0 Z M564 548 C621 582 654 635 663 707 C668 746 643 777 596 777 C552 777 521 747 516 708 C511 669 537 640 581 640 L584 640 C585 640 586 639 585 638 C574 615 558 597 538 587 C532 583 528 575 531 569 L536 555 C541 544 552 541 564 548 L564 548 Z " />
<glyph glyph-name="Tbar" unicode="&#x166;" horiz-adv-x="707" d="M305 312 L270 21 C268 9 276 0 288 0 L393 0 C405 0 415 9 417 21 L452 312 C454 324 464 333 476 333 L515 333 C526 333 537 342 538 354 L543 390 C544 402 536 411 524 411 L485 411 C474 411 466 420 467 432 L485 575 C486 587 497 596 508 596 L710 596 C722 596 732 605 734 617 L745 711 C747 723 738 732 727 732 L134 732 C122 732 112 723 110 711 L99 617 C97 605 106 596 117 596 L319 596 C331 596 339 587 338 575 L320 432 C319 420 308 411 296 411 L254 411 C243 411 232 402 231 390 L226 354 C225 342 233 333 245 333 L287 333 C298 333 307 324 305 312 L305 312 Z " />
<glyph glyph-name="tbar" unicode="&#x167;" horiz-adv-x="384" d="M113 196 L109 166 C97 62 167 0 270 0 C294 0 318 6 340 16 C348 20 352 29 350 37 L337 112 C337 117 332 120 327 119 C313 116 304 115 299 115 C264 115 242 133 249 186 L251 202 C252 210 260 217 268 217 L320 217 C331 217 342 226 343 238 L348 274 C349 286 341 295 329 295 L283 295 C272 295 263 304 265 316 L270 356 C271 368 282 377 293 377 L334 377 C346 377 356 386 358 398 L366 467 C368 479 360 488 348 488 L307 488 C295 488 287 497 288 509 L301 614 C303 626 295 635 283 635 L188 635 C176 635 166 626 164 614 L151 509 C150 497 140 488 128 488 L97 488 C85 488 75 479 73 467 L65 398 C63 386 72 377 83 377 L114 377 C126 377 134 368 133 356 L128 316 C126 304 116 295 104 295 L58 295 C47 295 36 286 35 274 L30 238 C29 226 37 217 49 217 L95 217 C106 217 114 208 113 196 L113 196 Z " />
<glyph glyph-name="Utilde" unicode="&#x168;" horiz-adv-x="782" d="M136 711 L82 269 C62 102 206 0 366 0 C527 0 697 102 717 269 L771 711 C773 723 764 732 753 732 L648 732 C636 732 626 723 624 711 L575 308 C562 200 485 146 384 146 C283 146 220 200 233 308 L282 711 C284 723 275 732 264 732 L160 732 C148 732 138 723 136 711 L136 711 Z M369 850 C370 852 374 885 396 890 C410 894 432 882 464 854 C562 766 718 811 734 959 C736 970 728 983 717 983 L641 983 C633 983 625 976 624 968 L622 952 C616 920 585 918 535 958 C436 1038 295 1018 257 874 C254 861 261 850 274 850 L352 850 C361 850 368 841 369 850 L369 850 Z " />
<glyph glyph-name="utilde" unicode="&#x169;" horiz-adv-x="549" d="M361 168 C338 136 313 119 287 116 C287 116 280 116 280 116 C217 120 191 157 199 220 L229 468 C231 480 223 489 211 489 L117 489 C105 489 95 480 93 468 L59 186 C46 78 113 0 226 0 C263 0 298 10 329 30 C337 35 347 31 346 22 L346 21 C344 9 352 0 364 0 L459 0 C471 0 481 9 483 21 L537 468 C539 480 531 489 519 489 L424 489 C412 489 402 480 400 468 L365 178 C365 177 362 169 361 168 L361 168 Z M223 605 C224 607 228 641 249 646 C264 649 286 638 318 609 C416 522 572 567 588 715 C590 726 582 739 571 739 L495 739 C487 739 479 732 478 724 L476 708 C470 676 439 674 389 714 C290 794 149 774 111 629 C108 616 115 605 128 605 L205 605 C215 605 222 595 223 605 L223 605 Z " />
<glyph glyph-name="Umacron" unicode="&#x16a;" horiz-adv-x="782" d="M136 711 L82 269 C62 102 206 0 366 0 C527 0 697 102 717 269 L771 711 C773 723 764 732 753 732 L648 732 C636 732 626 723 624 711 L575 308 C562 200 485 146 384 146 C283 146 220 200 233 308 L282 711 C284 723 275 732 264 732 L160 732 C148 732 138 723 136 711 L136 711 Z M655 881 L660 917 C661 929 653 938 641 938 L370 938 C359 938 348 929 347 917 L342 881 C341 869 349 860 361 860 L632 860 C643 860 654 869 655 881 L655 881 Z " />
<glyph glyph-name="umacron" unicode="&#x16b;" horiz-adv-x="549" d="M361 168 C338 136 313 119 287 116 C287 116 280 116 280 116 C217 120 191 157 199 220 L229 468 C231 480 223 489 211 489 L117 489 C105 489 95 480 93 468 L59 186 C46 78 113 0 226 0 C263 0 298 10 329 30 C337 35 347 31 346 22 L346 21 C344 9 352 0 364 0 L459 0 C471 0 481 9 483 21 L537 468 C539 480 531 489 519 489 L424 489 C412 489 402 480 400 468 L365 178 C365 177 362 169 361 168 L361 168 Z M509 637 L514 673 C515 685 507 694 495 694 L224 694 C213 694 202 685 201 673 L196 637 C195 625 203 616 215 616 L486 616 C497 616 508 625 509 637 L509 637 Z " />
<glyph glyph-name="Ubreve" unicode="&#x16c;" horiz-adv-x="782" d="M136 711 L82 269 C62 102 206 0 366 0 C527 0 697 102 717 269 L771 711 C773 723 764 732 753 732 L648 732 C636 732 626 723 624 711 L575 308 C562 200 485 146 384 146 C283 146 220 200 233 308 L282 711 C284 723 275 732 264 732 L160 732 C148 732 138 723 136 711 L136 711 Z M574 943 C563 912 535 890 500 890 C465 890 442 912 438 943 C437 952 426 964 418 964 L389 964 C376 964 367 954 367 941 C370 873 420 823 492 823 C564 823 627 873 646 941 C649 954 643 964 629 964 L600 964 C591 964 577 952 574 943 L574 943 Z " />
<glyph glyph-name="ubreve" unicode="&#x16d;" horiz-adv-x="549" d="M361 168 C338 136 313 119 287 116 C287 116 280 116 280 116 C217 120 191 157 199 220 L229 468 C231 480 223 489 211 489 L117 489 C105 489 95 480 93 468 L59 186 C46 78 113 0 226 0 C263 0 298 10 329 30 C337 35 347 31 346 22 L346 21 C344 9 352 0 364 0 L459 0 C471 0 481 9 483 21 L537 468 C539 480 531 489 519 489 L424 489 C412 489 402 480 400 468 L365 178 C365 177 362 169 361 168 L361 168 Z M428 699 C417 668 389 646 353 646 C319 646 296 668 292 699 C291 708 280 720 272 720 L242 720 C229 720 220 710 220 697 C223 629 274 579 345 579 C417 579 481 629 500 697 C503 710 497 720 483 720 L454 720 C445 720 431 708 428 699 L428 699 Z " />
<glyph glyph-name="Uring" unicode="&#x16e;" horiz-adv-x="782" d="M136 711 L82 269 C62 102 206 0 366 0 C527 0 697 102 717 269 L771 711 C773 723 764 732 753 732 L648 732 C636 732 626 723 624 711 L575 308 C562 200 485 146 384 146 C283 146 220 200 233 308 L282 711 C284 723 275 732 264 732 L160 732 C148 732 138 723 136 711 L136 711 Z M490 804 C550 804 600 848 609 917 C617 986 577 1030 517 1030 C457 1030 406 988 397 916 C389 848 430 804 490 804 L490 804 Z M498 875 C475 875 461 891 465 917 C468 943 486 958 509 958 C531 958 545 943 542 917 C538 891 520 875 498 875 L498 875 Z " />
<glyph glyph-name="uring" unicode="&#x16f;" horiz-adv-x="549" d="M361 168 C338 136 313 119 287 116 C287 116 280 116 280 116 C217 120 191 157 199 220 L229 468 C231 480 223 489 211 489 L117 489 C105 489 95 480 93 468 L59 186 C46 78 113 0 226 0 C263 0 298 10 329 30 C337 35 347 31 346 22 L346 21 C344 9 352 0 364 0 L459 0 C471 0 481 9 483 21 L537 468 C539 480 531 489 519 489 L424 489 C412 489 402 480 400 468 L365 178 C365 177 362 169 361 168 L361 168 Z M344 560 C404 560 454 604 463 673 C471 742 432 786 372 786 C311 786 260 744 252 672 C243 604 283 560 344 560 L344 560 Z M351 631 C329 631 314 647 318 672 C321 699 340 714 362 714 C384 714 399 699 396 673 C392 647 373 631 351 631 L351 631 Z " />
<glyph glyph-name="Uhungarumlaut" unicode="&#x170;" horiz-adv-x="782" d="M136 711 L82 269 C62 102 206 0 366 0 C527 0 697 102 717 269 L771 711 C773 723 764 732 753 732 L648 732 C636 732 626 723 624 711 L575 308 C562 200 485 146 384 146 C283 146 220 200 233 308 L282 711 C284 723 275 732 264 732 L160 732 C148 732 138 723 136 711 L136 711 Z M532 807 C689 915 692 917 693 918 C715 938 708 968 692 986 C678 1004 650 1014 626 996 C626 995 623 993 623 993 L499 851 C492 843 492 830 498 823 L509 811 C515 804 524 800 532 807 L532 807 Z M330 807 C487 915 490 917 491 918 C513 938 506 968 490 986 C476 1004 448 1014 424 996 C424 995 421 993 421 993 L297 851 C290 843 290 830 296 823 L307 811 C313 804 322 800 330 807 L330 807 Z " />
<glyph glyph-name="uhungarumlaut" unicode="&#x171;" horiz-adv-x="549" d="M361 168 C338 136 313 119 287 116 C287 116 280 116 280 116 C217 120 191 157 199 220 L229 468 C231 480 223 489 211 489 L117 489 C105 489 95 480 93 468 L59 186 C46 78 113 0 226 0 C263 0 298 10 329 30 C337 35 347 31 346 22 L346 21 C344 9 352 0 364 0 L459 0 C471 0 481 9 483 21 L537 468 C539 480 531 489 519 489 L424 489 C412 489 402 480 400 468 L365 178 C365 177 362 169 361 168 L361 168 Z M386 562 C542 670 546 672 547 674 C569 694 562 724 546 742 C531 760 504 770 480 752 C480 751 477 749 477 749 L353 607 C346 599 346 586 352 579 L363 567 C369 560 378 556 386 562 L386 562 Z M184 562 C340 670 344 672 345 674 C367 694 360 724 344 742 C329 760 302 770 278 752 C278 751 275 749 275 749 L151 607 C144 599 143 586 149 579 L161 567 C167 560 176 557 184 562 L184 562 Z " />
<glyph glyph-name="Uogonek" unicode="&#x172;" horiz-adv-x="782" d="M136 711 L82 269 C62 102 206 0 366 0 C376 0 387 0 397 1 C399 1 399 -2 398 -5 C389 -22 383 -43 380 -66 C369 -153 425 -209 511 -209 C573 -209 618 -184 654 -145 C663 -136 662 -123 653 -116 L613 -86 C607 -81 594 -84 587 -90 C567 -109 544 -119 516 -119 C486 -119 462 -99 468 -49 C471 -22 486 2 505 23 C506 24 515 29 516 29 C619 71 703 155 717 269 L771 711 C773 723 764 732 753 732 L648 732 C636 732 626 723 624 711 L575 308 C562 200 485 146 384 146 C283 146 220 200 233 308 L282 711 C284 723 275 732 264 732 L160 732 C148 732 138 723 136 711 L136 711 Z " />
<glyph glyph-name="uogonek" unicode="&#x173;" horiz-adv-x="549" d="M361 168 C338 136 313 119 287 116 C287 116 280 116 280 116 C217 120 191 157 199 220 L229 468 C231 480 223 489 211 489 L117 489 C105 489 95 480 93 468 L59 186 C47 89 100 18 191 3 C196 2 195 -3 193 -8 C185 -24 179 -44 176 -66 C165 -153 222 -209 307 -209 C369 -209 414 -184 450 -145 C458 -136 458 -123 449 -116 L410 -86 C404 -81 390 -84 384 -90 C364 -109 340 -119 312 -119 C282 -119 259 -99 265 -49 C268 -28 275 -10 287 6 C289 8 296 14 298 14 C313 20 326 27 338 37 C342 39 348 38 347 33 L346 21 C344 9 352 0 364 0 L459 0 C471 0 481 9 483 21 L537 468 C539 480 531 489 519 489 L424 489 C412 489 402 480 400 468 L365 178 C365 177 362 169 361 168 L361 168 Z " />
<glyph glyph-name="Wcircumflex" unicode="&#x174;" horiz-adv-x="1042" d="M574 482 L650 15 C651 7 659 0 668 0 L782 0 C790 0 801 7 804 16 L1074 706 C1079 720 1071 732 1057 732 L943 732 C934 732 924 725 921 716 L756 291 C754 287 749 284 745 284 C741 284 737 287 737 291 L675 716 C674 725 665 732 657 732 L538 732 C529 732 519 725 516 717 L347 292 C345 288 340 284 335 284 C331 284 326 288 326 292 L265 716 C264 725 255 732 247 732 L134 732 C120 732 109 720 111 706 L210 16 C211 7 220 0 228 0 L343 0 C352 0 362 7 365 15 L555 482 C557 486 562 489 566 489 C570 489 574 486 574 482 L574 482 Z M479 817 L492 803 C498 797 510 796 518 801 L611 860 C617 864 629 864 634 860 L712 801 C718 796 731 797 738 803 L754 816 C763 824 766 837 759 846 L654 985 C646 995 632 995 622 985 L482 846 C473 838 472 825 479 817 L479 817 Z " />
<glyph glyph-name="wcircumflex" unicode="&#x175;" horiz-adv-x="713" d="M428 0 L518 0 C526 0 537 7 540 16 L714 463 C719 477 711 489 697 489 L612 489 C604 489 593 482 590 473 L515 277 C507 256 477 257 475 278 L453 473 C452 482 443 489 434 489 L366 489 C358 489 347 482 344 473 L270 279 C262 258 233 258 230 279 L203 473 C202 482 193 489 185 489 L99 489 C85 489 74 477 76 463 L141 16 C142 7 151 0 159 0 L249 0 C258 0 268 7 271 15 L340 178 C348 198 376 198 380 178 L409 15 C411 7 419 0 428 0 L428 0 Z M285 572 L298 559 C304 553 316 552 324 557 L416 616 C422 620 434 620 440 616 L517 557 C524 552 536 553 543 559 L560 572 C569 580 572 593 565 602 L459 741 C451 751 437 751 427 741 L287 602 C278 593 277 580 285 572 L285 572 Z " />
<glyph glyph-name="Ycircumflex" unicode="&#x176;" horiz-adv-x="749" d="M330 359 L289 21 C287 9 295 0 307 0 L411 0 C423 0 433 9 435 21 L476 359 C476 361 480 370 482 372 L762 699 C775 713 768 732 749 732 L634 732 C629 732 619 727 616 723 L440 517 C429 504 413 504 406 517 L284 723 C282 727 273 732 268 732 L148 732 C130 732 118 713 127 699 L328 372 C329 370 330 361 330 359 L330 359 Z M333 817 L346 803 C352 797 364 796 372 801 L464 860 C470 864 482 864 488 860 L565 801 C572 796 584 797 591 803 L607 816 C617 824 620 837 613 846 L507 985 C499 995 485 995 475 985 L335 847 C326 838 325 825 333 817 L333 817 Z " />
<glyph glyph-name="ycircumflex" unicode="&#x177;" horiz-adv-x="551" d="M218 -197 L563 459 C571 474 563 488 547 488 L453 488 C446 488 436 481 432 475 L311 235 C301 216 276 216 271 235 L210 474 C209 481 200 488 192 488 L98 488 C82 488 71 475 74 460 L180 7 C181 5 180 -5 178 -7 L91 -182 C83 -196 91 -210 107 -210 L197 -210 C204 -210 215 -204 218 -197 L218 -197 Z M204 572 L217 559 C223 553 235 552 243 557 L335 616 C341 620 353 620 359 616 L436 557 C443 552 455 553 462 559 L479 572 C488 580 491 593 484 602 L378 741 C370 751 356 751 346 741 L206 602 C197 593 196 580 204 572 L204 572 Z " />
<glyph glyph-name="Ydieresis" unicode="&#x178;" horiz-adv-x="749" d="M330 359 L289 21 C287 9 295 0 307 0 L411 0 C423 0 433 9 435 21 L476 359 C476 361 480 370 482 372 L762 699 C775 713 768 732 749 732 L634 732 C629 732 619 727 616 723 L440 517 C429 504 413 504 406 517 L284 723 C282 727 273 732 268 732 L148 732 C130 732 118 713 127 699 L328 372 C329 370 330 361 330 359 L330 359 Z M614 844 C653 844 686 872 692 917 C697 962 671 990 632 990 C593 990 559 963 553 916 C548 872 575 844 614 844 L614 844 Z M343 844 C382 844 414 872 420 917 C425 962 400 990 361 990 C322 990 288 963 283 917 C277 872 304 844 343 844 L343 844 Z " />
<glyph glyph-name="Zacute" unicode="&#x179;" horiz-adv-x="720" d="M630 137 L347 137 C329 137 322 154 333 169 L714 674 C715 675 718 683 718 685 L721 711 C723 723 714 732 703 732 L159 732 C147 732 137 723 135 711 L124 617 C122 605 131 596 142 596 L425 596 C443 596 450 579 439 564 L58 54 C57 53 53 45 53 43 L51 21 C49 9 57 0 69 0 L613 0 C625 0 635 9 637 21 L648 116 C650 128 641 137 630 137 L630 137 Z M400 807 C557 915 560 917 561 918 C583 938 577 968 560 986 C546 1004 519 1014 495 996 C495 995 492 993 492 993 L367 851 C360 843 360 830 366 823 L377 811 C383 804 392 800 400 807 L400 807 Z " />
<glyph glyph-name="zacute" unicode="&#x17a;" horiz-adv-x="495" d="M425 115 L279 115 C262 115 254 132 265 147 L484 447 C485 448 488 456 488 458 L490 470 C491 479 484 487 474 487 L123 487 C111 487 101 478 99 466 L90 393 C89 381 97 372 109 372 L254 372 C271 372 279 355 268 340 L50 38 C49 37 46 29 45 27 L44 17 C43 7 49 0 59 0 L411 0 C423 0 433 9 435 21 L444 94 C445 106 437 115 425 115 L425 115 Z M257 562 C414 670 417 672 418 674 C440 694 434 724 418 742 C403 760 376 770 352 752 C352 751 349 749 349 749 L224 607 C217 599 217 586 223 579 L234 567 C240 560 249 557 257 562 L257 562 Z " />
<glyph glyph-name="Zdotaccent" unicode="&#x17b;" horiz-adv-x="720" d="M630 137 L347 137 C329 137 322 154 333 169 L714 674 C715 675 718 683 718 685 L721 711 C723 723 714 732 703 732 L159 732 C147 732 137 723 135 711 L124 617 C122 605 131 596 142 596 L425 596 C443 596 450 579 439 564 L58 54 C57 53 53 45 53 43 L51 21 C49 9 57 0 69 0 L613 0 C625 0 635 9 637 21 L648 116 C650 128 641 137 630 137 L630 137 Z M464 844 C503 844 536 872 542 917 C547 962 521 990 482 990 C443 990 410 963 405 917 C399 872 425 844 464 844 L464 844 Z " />
<glyph glyph-name="zdotaccent" unicode="&#x17c;" horiz-adv-x="495" d="M425 115 L279 115 C262 115 254 132 265 147 L484 447 C485 448 488 456 488 458 L490 470 C491 479 484 487 474 487 L123 487 C111 487 101 478 99 466 L90 393 C89 381 97 372 109 372 L254 372 C271 372 279 355 268 340 L50 38 C49 37 46 29 45 27 L44 17 C43 7 49 0 59 0 L411 0 C423 0 433 9 435 21 L444 94 C445 106 437 115 425 115 L425 115 Z M322 600 C361 600 393 628 399 673 C404 718 379 746 340 746 C300 746 267 719 262 672 C256 628 282 600 322 600 L322 600 Z " />
<glyph glyph-name="Zcaron" unicode="&#x17d;" horiz-adv-x="720" d="M630 137 L347 137 C329 137 322 154 333 169 L714 674 C715 675 718 683 718 685 L721 711 C723 723 714 732 703 732 L159 732 C147 732 137 723 135 711 L124 617 C122 605 131 596 142 596 L425 596 C443 596 450 579 439 564 L58 54 C57 53 53 45 53 43 L51 21 C49 9 57 0 69 0 L613 0 C625 0 635 9 637 21 L648 116 C650 128 641 137 630 137 L630 137 Z M470 810 L611 949 C619 958 620 971 613 979 L600 992 C594 998 582 999 574 994 L482 935 C475 931 464 931 458 935 L381 994 C374 999 362 998 354 992 L339 979 C329 971 327 958 333 949 L439 810 C446 800 460 800 470 810 L470 810 Z " />
<glyph glyph-name="zcaron" unicode="&#x17e;" horiz-adv-x="495" d="M425 115 L279 115 C262 115 254 132 265 147 L484 447 C485 448 488 456 488 458 L490 470 C491 479 484 487 474 487 L123 487 C111 487 101 478 99 466 L90 393 C89 381 97 372 109 372 L254 372 C271 372 279 355 268 340 L50 38 C49 37 46 29 45 27 L44 17 C43 7 49 0 59 0 L411 0 C423 0 433 9 435 21 L444 94 C445 106 437 115 425 115 L425 115 Z M328 566 L469 705 C477 714 478 727 470 735 L457 748 C451 754 439 755 432 750 L340 691 C333 687 322 687 316 691 L238 750 C231 755 219 754 212 748 L196 735 C186 727 184 714 190 705 L297 566 C304 556 318 556 328 566 L328 566 Z " />
<glyph glyph-name="longs" unicode="&#x17f;" horiz-adv-x="377" d="M212 21 L276 547 C283 599 309 618 344 618 C363 618 377 615 386 608 C388 606 393 606 395 608 L458 669 C467 678 468 690 459 697 C431 720 392 732 342 732 C239 732 154 670 141 566 L136 522 C135 510 124 501 113 501 L82 501 C70 501 59 492 58 480 L50 412 C48 400 56 391 68 391 L99 391 C111 391 119 382 117 370 L75 21 C73 9 81 0 93 0 L188 0 C200 0 210 9 212 21 L212 21 Z " />
<glyph glyph-name="AEacute" unicode="&#x1fc;" horiz-adv-x="998" d="M932 21 L943 116 C945 128 936 137 925 137 L576 137 C564 137 556 146 557 158 L573 282 C574 294 585 303 596 303 L848 303 C860 303 870 312 872 324 L883 418 C885 430 876 439 865 439 L613 439 C601 439 593 448 594 460 L609 575 C610 587 621 596 632 596 L982 596 C994 596 1004 605 1006 617 L1017 711 C1019 723 1010 732 999 732 L418 732 C411 732 401 726 397 719 L36 29 C28 14 36 0 52 0 L164 0 C171 0 181 6 185 13 L229 99 C232 106 243 112 250 112 L385 112 C396 112 405 103 403 91 L395 21 C393 9 401 0 413 0 L908 0 C920 0 930 9 932 21 L932 21 Z M539 807 C696 915 699 917 700 918 C722 938 715 968 699 986 C685 1004 657 1014 633 996 C633 995 630 993 630 993 L506 851 C499 843 499 830 505 823 L516 811 C522 804 531 800 539 807 L539 807 Z M403 259 L343 259 C327 259 319 273 327 288 L405 437 C416 457 447 451 445 429 L426 280 C425 268 414 259 403 259 L403 259 Z " />
<glyph glyph-name="Oslashacute" unicode="&#x1fe;" horiz-adv-x="804" d="M329 4 C348 1 368 0 389 0 C596 0 775 159 800 366 C817 501 763 616 666 679 C659 684 655 697 659 706 L683 756 C691 770 683 784 667 784 L603 784 C595 784 585 777 582 770 L565 736 C562 730 552 725 546 726 C524 730 502 732 479 732 C272 732 93 573 68 366 C51 228 108 111 209 48 C216 44 221 31 216 22 L193 -28 C186 -43 193 -56 209 -56 L273 -56 C280 -56 290 -49 294 -42 L312 -5 C315 1 323 5 329 4 L329 4 Z M462 596 C472 596 481 595 490 594 C493 593 494 591 492 588 L301 196 C294 181 280 177 269 187 C226 229 205 293 214 366 C230 494 331 596 462 596 L462 596 Z M407 137 C399 137 393 137 386 138 C384 138 383 140 384 142 L573 530 C580 545 593 550 604 539 C644 497 662 435 654 366 C638 239 537 137 407 137 L407 137 Z M442 807 C599 915 602 917 603 918 C625 938 619 968 602 986 C588 1004 561 1014 537 996 C537 995 534 993 534 993 L409 851 C402 843 402 830 408 823 L419 811 C425 804 434 800 442 807 L442 807 Z " />
<glyph glyph-name="oslashacute" unicode="&#x1ff;" horiz-adv-x="562" d="M226 -1 C240 -4 254 -5 269 -5 C406 -5 531 100 549 244 C560 333 525 411 460 455 C453 460 448 474 453 482 L465 508 C472 522 464 536 449 536 L417 536 C409 536 399 529 395 522 L383 496 C381 492 374 489 370 490 C357 492 344 493 331 493 C193 493 69 389 51 244 C40 156 73 79 137 34 C144 29 149 15 145 7 L131 -22 C123 -36 131 -50 147 -50 L178 -50 C186 -50 196 -43 200 -36 L213 -8 C215 -4 221 -1 226 -1 L226 -1 Z M291 562 C447 670 451 672 452 674 C474 694 467 724 451 742 C437 760 409 770 386 752 C386 751 383 749 383 749 L258 607 C251 599 251 586 257 579 L268 567 C274 560 283 556 291 562 L291 562 Z M282 113 L278 114 C275 114 274 116 275 119 L378 331 C383 341 394 344 400 335 C419 312 428 279 424 244 C415 174 358 113 283 113 C283 113 282 113 282 113 L282 113 Z M316 375 L319 375 C321 374 322 372 321 370 L217 156 C212 146 202 144 196 152 C178 175 169 207 174 244 C182 312 240 375 315 375 C315 375 316 375 316 375 L316 375 Z " />
<glyph glyph-name="Scommaaccent" unicode="&#x218;" horiz-adv-x="642" d="M624 651 C558 714 502 732 388 732 C273 732 123 646 108 518 C90 374 201 331 316 312 C492 285 474 130 295 137 C230 142 182 159 152 189 C144 196 128 196 119 189 L45 122 C35 113 36 99 44 90 C112 26 190 0 302 0 C425 0 581 83 597 215 C616 363 508 420 381 439 C219 464 240 596 400 596 C449 596 488 582 516 553 C523 546 539 545 548 553 L623 619 C632 628 632 643 624 651 L624 651 Z M272 -344 C329 -310 362 -257 371 -186 C376 -147 353 -115 306 -115 C261 -115 230 -145 225 -184 C221 -223 245 -252 290 -252 L295 -252 C284 -276 268 -294 247 -305 C240 -308 237 -317 239 -323 L245 -337 C250 -347 261 -350 272 -344 L272 -344 Z " />
<glyph glyph-name="scommaaccent" unicode="&#x219;" horiz-adv-x="453" d="M434 439 C391 480 354 491 278 491 C192 491 98 431 86 336 C73 232 140 197 227 187 C271 183 295 174 301 162 C320 125 261 102 217 107 C179 111 150 122 131 140 C125 145 113 146 107 140 L48 83 C39 74 38 63 46 55 C84 18 137 -5 219 -5 C308 -5 407 42 419 141 C433 254 373 291 274 303 C209 316 190 336 215 360 C228 373 251 379 284 379 C311 379 333 370 351 352 C357 346 368 346 375 352 L433 410 C442 419 442 432 434 439 L434 439 Z M178 -344 C235 -310 268 -257 277 -186 C282 -147 258 -115 212 -115 C167 -115 135 -145 130 -184 C126 -223 151 -252 196 -252 L201 -252 C190 -276 174 -294 153 -305 C146 -308 143 -317 145 -323 L151 -337 C156 -347 167 -350 178 -344 L178 -344 Z " />
<glyph glyph-name="circumflex" unicode="&#x2c6;" horiz-adv-x="306" d="M81 572 L94 559 C100 553 112 552 120 557 L212 616 C218 620 230 620 236 616 L313 557 C320 552 332 553 339 559 L356 572 C365 580 368 593 361 602 L255 741 C247 751 233 751 223 741 L83 602 C74 593 73 580 81 572 L81 572 Z " />
<glyph glyph-name="caron" unicode="&#x2c7;" horiz-adv-x="306" d="M233 566 L374 705 C382 714 383 727 375 735 L362 748 C356 754 344 755 337 750 L245 691 C238 687 227 687 221 691 L144 750 C137 755 125 754 118 748 L101 735 C91 727 89 714 96 705 L202 566 C209 556 223 556 233 566 L233 566 Z " />
<glyph glyph-name="breve" unicode="&#x2d8;" horiz-adv-x="286" d="M298 699 C287 668 259 646 223 646 C189 646 166 668 161 699 C160 708 149 720 141 720 L112 720 C99 720 90 710 90 697 C93 629 143 579 215 579 C287 579 351 629 370 697 C373 710 367 720 353 720 L324 720 C315 720 301 708 298 699 L298 699 Z " />
<glyph glyph-name="dotaccent" unicode="&#x2d9;" horiz-adv-x="137" d="M143 600 C182 600 214 628 220 673 C225 718 200 746 161 746 C122 746 88 719 83 672 C77 628 104 600 143 600 L143 600 Z " />
<glyph glyph-name="ring" unicode="&#x2da;" horiz-adv-x="211" d="M175 560 C235 560 285 604 294 673 C302 742 263 786 203 786 C142 786 91 744 83 672 C74 604 114 560 175 560 L175 560 Z M182 631 C160 631 145 647 149 672 C152 699 171 714 193 714 C215 714 230 699 227 673 C223 647 204 631 182 631 L182 631 Z " />
<glyph glyph-name="ogonek" unicode="&#x2db;" horiz-adv-x="288" d="M96 85 C51 60 -6 16 -16 -66 C-27 -153 30 -209 115 -209 C177 -209 222 -184 258 -145 C266 -136 266 -123 257 -116 L218 -86 C212 -81 198 -84 192 -90 C172 -109 148 -119 120 -119 C90 -119 67 -99 73 -49 C77 -14 99 16 127 40 C136 47 139 61 132 69 L120 82 C115 88 104 90 96 85 L96 85 Z " />
<glyph glyph-name="tilde" unicode="&#x2dc;" horiz-adv-x="478" d="M202 605 C203 607 207 641 228 646 C243 649 265 638 297 609 C395 522 551 567 567 715 C569 726 561 739 550 739 L474 739 C466 739 458 732 457 724 L455 708 C449 676 418 674 368 714 C269 794 128 774 90 629 C87 616 94 605 107 605 L184 605 C194 605 201 595 202 605 L202 605 Z " />
<glyph glyph-name="hungarumlaut" unicode="&#x2dd;" horiz-adv-x="404" d="M113 562 C269 670 273 672 274 674 C296 694 290 724 274 742 C259 760 232 770 208 752 C208 751 205 749 205 749 L80 607 C73 599 73 586 79 579 L90 567 C96 560 105 556 113 562 L113 562 Z M315 562 C472 670 476 672 477 674 C499 694 492 724 476 742 C461 760 434 770 410 752 C410 751 407 749 407 749 L282 607 C275 599 275 586 281 579 L292 567 C298 560 307 557 315 562 L315 562 Z " />
<glyph glyph-name="Wgrave" unicode="&#x1e80;" horiz-adv-x="1042" d="M574 482 L650 15 C651 7 659 0 668 0 L782 0 C790 0 801 7 804 16 L1074 706 C1079 720 1071 732 1057 732 L943 732 C934 732 924 725 921 716 L756 291 C754 287 749 284 745 284 C741 284 737 287 737 291 L675 716 C674 725 665 732 657 732 L538 732 C529 732 519 725 516 717 L347 292 C345 288 340 284 335 284 C331 284 326 288 326 292 L265 716 C264 725 255 732 247 732 L134 732 C120 732 109 720 111 706 L210 16 C211 7 220 0 228 0 L343 0 C352 0 362 7 365 15 L555 482 C557 486 562 489 566 489 C570 489 574 486 574 482 L574 482 Z M722 851 L633 993 C633 993 631 995 630 996 C611 1014 582 1004 562 986 C542 968 528 938 546 918 C547 917 549 915 679 807 C686 800 696 804 704 811 L717 823 C725 830 727 843 722 851 L722 851 Z " />
<glyph glyph-name="wgrave" unicode="&#x1e81;" horiz-adv-x="713" d="M428 0 L518 0 C526 0 537 7 540 16 L714 463 C719 477 711 489 697 489 L612 489 C604 489 593 482 590 473 L515 277 C507 256 477 257 475 278 L453 473 C452 482 443 489 434 489 L366 489 C358 489 347 482 344 473 L270 279 C262 258 233 258 230 279 L203 473 C202 482 193 489 185 489 L99 489 C85 489 74 477 76 463 L141 16 C142 7 151 0 159 0 L249 0 C258 0 268 7 271 15 L340 178 C348 198 376 198 380 178 L409 15 C411 7 419 0 428 0 L428 0 Z M528 607 L439 749 C439 749 437 751 437 752 C417 770 387 760 368 742 C348 724 333 694 351 674 C351 672 354 670 484 562 C491 556 501 560 509 567 L522 579 C530 586 533 599 528 607 L528 607 Z " />
<glyph glyph-name="Wacute" unicode="&#x1e82;" horiz-adv-x="1042" d="M574 482 L650 15 C651 7 659 0 668 0 L782 0 C790 0 801 7 804 16 L1074 706 C1079 720 1071 732 1057 732 L943 732 C934 732 924 725 921 716 L756 291 C754 287 749 284 745 284 C741 284 737 287 737 291 L675 716 C674 725 665 732 657 732 L538 732 C529 732 519 725 516 717 L347 292 C345 288 340 284 335 284 C331 284 326 288 326 292 L265 716 C264 725 255 732 247 732 L134 732 C120 732 109 720 111 706 L210 16 C211 7 220 0 228 0 L343 0 C352 0 362 7 365 15 L555 482 C557 486 562 489 566 489 C570 489 574 486 574 482 L574 482 Z M561 807 C718 915 721 917 722 918 C744 938 737 968 721 986 C707 1004 679 1014 655 996 C655 995 652 993 652 993 L528 851 C521 843 521 830 527 823 L538 811 C544 804 553 800 561 807 L561 807 Z " />
<glyph glyph-name="wacute" unicode="&#x1e83;" horiz-adv-x="713" d="M428 0 L518 0 C526 0 537 7 540 16 L714 463 C719 477 711 489 697 489 L612 489 C604 489 593 482 590 473 L515 277 C507 256 477 257 475 278 L453 473 C452 482 443 489 434 489 L366 489 C358 489 347 482 344 473 L270 279 C262 258 233 258 230 279 L203 473 C202 482 193 489 185 489 L99 489 C85 489 74 477 76 463 L141 16 C142 7 151 0 159 0 L249 0 C258 0 268 7 271 15 L340 178 C348 198 376 198 380 178 L409 15 C411 7 419 0 428 0 L428 0 Z M366 562 C522 670 526 672 527 674 C549 694 543 724 527 742 C512 760 485 770 461 752 C461 751 458 749 458 749 L333 607 C326 599 326 586 332 579 L343 567 C349 560 358 556 366 562 L366 562 Z " />
<glyph glyph-name="Wdieresis" unicode="&#x1e84;" horiz-adv-x="1042" d="M574 482 L650 15 C651 7 659 0 668 0 L782 0 C790 0 801 7 804 16 L1074 706 C1079 720 1071 732 1057 732 L943 732 C934 732 924 725 921 716 L756 291 C754 287 749 284 745 284 C741 284 737 287 737 291 L675 716 C674 725 665 732 657 732 L538 732 C529 732 519 725 516 717 L347 292 C345 288 340 284 335 284 C331 284 326 288 326 292 L265 716 C264 725 255 732 247 732 L134 732 C120 732 109 720 111 706 L210 16 C211 7 220 0 228 0 L343 0 C352 0 362 7 365 15 L555 482 C557 486 562 489 566 489 C570 489 574 486 574 482 L574 482 Z M761 844 C800 844 832 872 838 917 C843 962 818 990 779 990 C740 990 706 963 700 916 C695 872 722 844 761 844 L761 844 Z M489 844 C528 844 561 872 567 917 C572 962 546 990 507 990 C468 990 434 963 429 917 C423 872 450 844 489 844 L489 844 Z " />
<glyph glyph-name="wdieresis" unicode="&#x1e85;" horiz-adv-x="713" d="M428 0 L518 0 C526 0 537 7 540 16 L714 463 C719 477 711 489 697 489 L612 489 C604 489 593 482 590 473 L515 277 C507 256 477 257 475 278 L453 473 C452 482 443 489 434 489 L366 489 C358 489 347 482 344 473 L270 279 C262 258 233 258 230 279 L203 473 C202 482 193 489 185 489 L99 489 C85 489 74 477 76 463 L141 16 C142 7 151 0 159 0 L249 0 C258 0 268 7 271 15 L340 178 C348 198 376 198 380 178 L409 15 C411 7 419 0 428 0 L428 0 Z M566 600 C605 600 638 628 644 673 C649 718 623 746 584 746 C545 746 511 719 506 672 C500 627 527 600 566 600 L566 600 Z M295 600 C334 600 366 628 372 673 C377 718 352 746 313 746 C274 746 240 719 235 672 C229 628 256 600 295 600 L295 600 Z " />
<glyph glyph-name="Ygrave" unicode="&#x1ef2;" horiz-adv-x="749" d="M330 359 L289 21 C287 9 295 0 307 0 L411 0 C423 0 433 9 435 21 L476 359 C476 361 480 370 482 372 L762 699 C775 713 768 732 749 732 L634 732 C629 732 619 727 616 723 L440 517 C429 504 413 504 406 517 L284 723 C282 727 273 732 268 732 L148 732 C130 732 118 713 127 699 L328 372 C329 370 330 361 330 359 L330 359 Z M576 851 L487 993 C487 993 485 995 484 996 C465 1014 435 1004 416 986 C396 968 381 938 399 918 C400 917 402 915 532 807 C539 800 549 804 557 811 L570 823 C578 830 581 843 576 851 L576 851 Z " />
<glyph glyph-name="ygrave" unicode="&#x1ef3;" horiz-adv-x="551" d="M218 -197 L563 459 C571 474 563 488 547 488 L453 488 C446 488 436 481 432 475 L311 235 C301 216 276 216 271 235 L210 474 C209 481 200 488 192 488 L98 488 C82 488 71 475 74 460 L180 7 C181 5 180 -5 178 -7 L91 -182 C83 -196 91 -210 107 -210 L197 -210 C204 -210 215 -204 218 -197 L218 -197 Z M447 607 L358 749 C358 749 356 751 356 752 C336 770 306 760 287 742 C267 724 252 694 270 674 C270 672 273 670 403 562 C410 556 420 560 428 567 L441 579 C449 586 452 599 447 607 L447 607 Z " />
<glyph glyph-name="endash" unicode="&#x2013;" horiz-adv-x="541" d="M541 216 L545 252 C546 264 538 273 527 273 L82 273 C70 273 59 264 58 252 L54 216 C52 204 60 195 72 195 L517 195 C529 195 539 204 541 216 L541 216 Z " />
<glyph glyph-name="emdash" unicode="&#x2014;" horiz-adv-x="1000" d="M1027 216 L1031 252 C1032 264 1024 273 1013 273 L55 273 C43 273 32 264 31 252 L27 216 C25 204 33 195 45 195 L1003 195 C1015 195 1025 204 1027 216 L1027 216 Z " />
<glyph glyph-name="quoteleft" unicode="&#x2018;" horiz-adv-x="305" d="M285 766 C229 732 195 679 187 608 C182 569 205 537 252 537 C296 537 328 567 332 606 C337 645 313 674 268 674 L263 674 C273 698 290 716 311 727 C317 731 321 739 319 745 L312 759 C307 770 296 773 285 766 L285 766 Z " />
<glyph glyph-name="quoteright" unicode="&#x2019;" horiz-adv-x="305" d="M180 548 C237 582 269 635 278 707 C283 746 259 777 212 777 C168 777 137 747 132 708 C127 669 152 640 197 640 L200 640 C201 640 202 639 201 638 C190 615 174 597 153 587 C147 583 143 574 146 568 L152 554 C157 544 169 541 180 548 L180 548 Z " />
<glyph glyph-name="quotesinglbase" unicode="&#x201a;" horiz-adv-x="305" d="M159 -92 C216 -58 249 -5 258 67 C263 106 240 137 193 137 C148 137 117 107 112 68 C108 29 132 0 177 0 L182 0 C171 -24 155 -42 134 -53 C127 -56 123 -65 126 -71 L132 -85 C136 -96 148 -99 159 -92 L159 -92 Z " />
<glyph glyph-name="quotedblleft" unicode="&#x201c;" horiz-adv-x="481" d="M285 766 C229 732 195 679 187 608 C182 569 205 537 252 537 C296 537 328 567 332 606 C337 645 313 674 268 674 L263 674 C273 698 290 716 311 727 C317 731 321 739 319 745 L312 759 C307 770 296 773 285 766 L285 766 Z M467 766 C410 732 376 679 368 608 C363 569 386 537 433 537 C478 537 509 567 513 606 C518 645 494 674 449 674 L444 674 C455 698 471 716 492 727 C498 731 502 739 500 745 L494 759 C489 770 478 773 467 766 L467 766 Z " />
<glyph glyph-name="quotedblright" unicode="&#x201d;" horiz-adv-x="481" d="M359 548 C416 582 449 635 458 707 C463 746 439 777 392 777 C347 777 317 747 312 708 C307 669 332 640 377 640 L382 640 C370 616 354 598 333 587 C327 583 323 575 326 569 L331 555 C336 544 347 541 359 548 L359 548 Z M178 548 C235 582 268 635 277 707 C282 746 258 777 211 777 C166 777 135 747 130 708 C125 669 151 640 196 640 L201 640 C189 616 173 598 152 587 C146 583 142 575 145 569 L150 555 C155 544 166 541 178 548 L178 548 Z " />
<glyph glyph-name="quotedblbase" unicode="&#x201e;" horiz-adv-x="481" d="M334 -102 C391 -68 423 -15 432 57 C437 96 414 127 367 127 C323 127 291 97 286 58 C281 19 306 -10 351 -10 L356 -10 C345 -34 329 -52 308 -63 C301 -67 297 -76 300 -82 L306 -96 C311 -106 323 -109 334 -102 L334 -102 Z M152 -102 C209 -68 242 -15 251 57 C256 96 233 127 186 127 C141 127 110 97 105 58 C100 19 125 -10 170 -10 L175 -10 C164 -34 147 -52 126 -63 C120 -67 116 -75 119 -81 L125 -95 C129 -106 141 -109 152 -102 L152 -102 Z " />
<glyph glyph-name="bullet" unicode="&#x2022;" horiz-adv-x="284" d="M89 364 C83 316 114 281 169 281 C223 281 262 316 268 364 C274 412 245 448 188 448 C134 448 95 412 89 364 L89 364 Z " />
<glyph glyph-name="ellipsis" unicode="&#x2026;" horiz-adv-x="1000" d="M106 68 C102 29 126 0 171 0 C216 0 248 29 252 68 C257 107 234 137 187 137 C142 137 111 107 106 68 L106 68 Z M447 68 C443 29 467 0 512 0 C557 0 589 29 593 68 C598 107 575 137 528 137 C484 137 452 107 447 68 L447 68 Z M790 68 C786 29 810 0 855 0 C900 0 932 29 936 68 C941 107 918 137 871 137 C827 137 795 107 790 68 L790 68 Z " />
<glyph glyph-name="perthousand" unicode="&#x2030;" horiz-adv-x="1360" d="M299 11 L774 701 C785 716 777 732 760 732 L689 732 C683 732 673 726 670 721 L194 31 C183 16 191 0 208 0 L280 0 C286 0 296 6 299 11 L299 11 Z M97 554 C84 451 155 371 258 371 C362 371 451 451 464 554 C477 658 407 738 303 738 C200 738 110 658 97 554 L97 554 Z M267 458 C212 458 180 501 186 555 C193 609 236 651 290 651 C346 651 379 609 372 555 C366 501 322 458 267 458 L267 458 Z M505 178 C492 75 562 -4 666 -4 C769 -4 857 75 870 178 C883 281 813 360 710 360 C606 360 518 281 505 178 L505 178 Z M673 84 C619 84 587 125 594 179 C600 230 644 273 697 273 C750 273 782 231 776 179 C769 125 727 84 673 84 L673 84 Z M950 178 C937 75 1007 -4 1110 -4 C1213 -4 1301 75 1314 178 C1327 281 1257 360 1154 360 C1051 360 963 281 950 178 L950 178 Z M1117 84 C1063 84 1032 125 1039 179 C1045 230 1088 273 1141 273 C1195 273 1226 231 1220 179 C1213 125 1172 84 1117 84 L1117 84 Z " />
<glyph glyph-name="guilsinglleft" unicode="&#x2039;" horiz-adv-x="330" d="M275 81 L279 81 C286 81 292 86 292 93 L293 97 C293 99 291 108 290 110 L218 221 C214 228 215 240 221 247 L321 358 C322 360 326 369 327 371 L327 376 C328 382 323 387 317 387 L313 387 C310 387 300 384 298 382 L133 250 C123 241 121 227 129 218 L262 86 C264 84 272 81 275 81 L275 81 Z " />
<glyph glyph-name="guilsinglright" unicode="&#x203a;" horiz-adv-x="330" d="M258 250 L126 382 C124 384 115 387 113 387 L108 387 C102 387 96 382 95 376 L95 371 C94 369 96 360 97 358 L169 247 C174 240 172 228 166 221 L67 110 C65 108 61 99 61 97 L60 93 C60 86 64 81 70 81 L75 81 C78 81 87 84 90 86 L254 218 C265 227 267 241 258 250 L258 250 Z " />
<glyph glyph-name="&amp;#x2044;" unicode="&#x2044;" horiz-adv-x="167" d="M-46 3 L337 691 C342 701 337 710 327 710 L320 710 C313 710 303 704 299 697 L-84 9 C-90 0 -85 -10 -74 -10 L-67 -10 C-60 -10 -50 -4 -46 3 L-46 3 Z " />
<glyph glyph-name="&amp;#x2215;" unicode="&#x2215;" horiz-adv-x="167" d="M-46 3 L337 691 C342 701 337 710 327 710 L320 710 C313 710 303 704 299 697 L-84 9 C-90 0 -85 -10 -74 -10 L-67 -10 C-60 -10 -50 -4 -46 3 L-46 3 Z " />
<glyph glyph-name="Euro" unicode="&#x20ac;" horiz-adv-x="732" d="M54 438 L51 412 C49 400 57 391 69 391 L86 391 C92 391 96 386 96 380 L94 368 L93 355 C92 348 85 342 78 342 L63 342 C51 342 41 333 39 321 L36 295 C35 283 43 274 55 274 L76 274 C84 274 93 268 95 260 C104 201 128 149 167 105 C228 36 311 0 415 0 C511 0 599 28 677 84 C688 92 691 105 683 114 L623 190 C617 198 604 200 595 194 C546 162 492 146 434 146 C368 146 318 167 281 207 C268 223 257 241 250 261 C247 268 252 274 260 274 L501 274 C512 274 523 283 524 295 L527 321 C529 333 521 342 509 342 L242 342 C240 342 238 344 238 346 C239 354 239 361 240 369 C241 375 242 380 243 386 C244 388 246 391 248 391 L515 391 C527 391 537 400 539 412 L542 438 C543 450 535 459 523 459 L281 459 C274 459 272 465 275 471 C287 490 303 508 320 525 C365 565 421 586 487 586 C545 586 595 571 637 539 C645 534 658 535 666 542 L745 619 C755 628 756 641 747 649 C682 705 601 732 505 732 C401 732 310 697 231 627 C181 583 144 531 121 473 C117 465 107 459 99 459 L77 459 C66 459 55 450 54 438 L54 438 Z " />
<glyph glyph-name="estimated" unicode="&#x212e;" horiz-adv-x="560" d="M53 244 C36 102 125 0 267 0 C344 0 407 19 459 59 C470 67 471 79 463 88 L419 138 C413 144 398 145 390 140 C356 121 319 112 281 112 C267 112 254 114 242 119 C238 120 236 124 237 129 L242 174 C244 186 254 195 266 195 L504 195 C516 195 526 204 528 216 L531 244 C548 385 471 488 327 488 C185 488 71 387 53 244 L53 244 Z M313 376 C327 376 341 374 353 369 C357 367 360 361 360 357 L355 314 C353 302 343 293 331 293 L278 293 C266 293 258 302 260 314 L265 359 C266 364 268 368 272 369 C285 374 299 376 313 376 L313 376 Z " />
<glyph glyph-name="minus" unicode="&#x2212;" horiz-adv-x="541" d="M543 332 L547 368 C549 380 540 389 529 389 L108 389 C96 389 86 380 84 368 L80 332 C78 320 87 311 98 311 L519 311 C531 311 541 320 543 332 L543 332 Z " />
<glyph glyph-name="commaaccent" unicode="&#xf6c3;" horiz-adv-x="342" d="M122 -344 C179 -310 212 -257 221 -186 C226 -147 203 -115 156 -115 C111 -115 80 -145 75 -184 C71 -223 95 -252 140 -252 L145 -252 C135 -276 118 -294 97 -305 C90 -308 87 -317 89 -323 L95 -337 C100 -347 111 -350 122 -344 L122 -344 Z " />
<glyph glyph-name="f_f" unicode="&#xfb00;" horiz-adv-x="754" d="M589 21 L631 370 C633 382 643 391 655 391 L686 391 C698 391 708 400 710 412 L718 480 C719 492 711 501 700 501 L669 501 C657 501 649 510 650 522 L653 547 C660 599 686 618 721 618 C740 618 754 615 763 608 C765 606 770 606 772 608 L835 669 C844 678 845 690 836 697 C808 720 769 732 719 732 C616 732 531 670 518 566 L513 522 C512 510 501 501 490 501 L292 501 C280 501 272 510 273 522 L276 547 C283 599 309 618 344 618 C363 618 377 615 386 608 C388 606 393 606 395 608 L458 669 C467 678 468 690 459 697 C431 720 392 732 342 732 C239 732 154 670 141 566 L136 522 C135 510 124 501 113 501 L82 501 C70 501 59 492 58 480 L50 412 C48 400 56 391 68 391 L99 391 C111 391 119 382 117 370 L75 21 C73 9 81 0 93 0 L188 0 C200 0 210 9 212 21 L254 370 C256 382 266 391 278 391 L476 391 C488 391 496 382 494 370 L452 21 C450 9 458 0 470 0 L565 0 C577 0 587 9 589 21 L589 21 Z " />
<glyph glyph-name="fi" unicode="&#xfb01;" horiz-adv-x="633" d="M565 21 L621 480 C622 492 614 501 603 501 L292 501 C280 501 272 510 273 522 L276 547 C283 599 309 618 344 618 C363 618 377 615 386 608 C388 606 393 606 395 608 L458 669 C467 678 468 690 459 697 C431 720 392 732 342 732 C239 732 154 670 141 566 L136 522 C135 510 124 501 113 501 L82 501 C70 501 59 492 58 480 L50 412 C48 400 56 391 68 391 L99 391 C111 391 119 382 117 370 L75 21 C73 9 81 0 93 0 L188 0 C200 0 210 9 212 21 L254 370 C256 382 266 391 278 391 L453 391 C465 391 473 382 471 370 L429 21 C427 9 435 0 447 0 L541 0 C553 0 563 9 565 21 L565 21 Z " />
<glyph glyph-name="fl" unicode="&#xfb02;" horiz-adv-x="665" d="M564 21 L624 511 C644 673 534 748 409 748 C285 748 155 673 135 516 L134 509 C134 504 130 501 126 501 L82 501 C70 501 59 492 58 480 L50 412 C48 400 56 391 68 391 L99 391 C111 391 119 382 117 370 L75 21 C73 9 81 0 93 0 L188 0 C200 0 210 9 212 21 L254 370 C256 382 266 391 278 391 L309 391 C321 391 331 400 333 412 L341 480 C342 492 334 501 323 501 L289 501 C276 501 268 508 271 521 C285 579 319 628 394 628 C467 628 492 563 484 494 L426 21 C424 9 432 0 444 0 L540 0 C552 0 562 9 564 21 L564 21 Z " />
<glyph glyph-name="f_f_i" unicode="&#xfb03;" horiz-adv-x="1010" d="M942 21 L998 480 C999 492 991 501 980 501 L669 501 C657 501 649 510 650 522 L653 547 C660 599 686 618 721 618 C740 618 754 615 763 608 C765 606 770 606 772 608 L835 669 C844 678 845 690 836 697 C808 720 769 732 719 732 C616 732 531 670 518 566 L513 522 C512 510 501 501 490 501 L292 501 C280 501 272 510 273 522 L276 547 C283 599 309 618 344 618 C363 618 377 615 386 608 C388 606 393 606 395 608 L458 669 C467 678 468 690 459 697 C431 720 392 732 342 732 C239 732 154 670 141 566 L136 522 C135 510 124 501 113 501 L82 501 C70 501 59 492 58 480 L50 412 C48 400 56 391 68 391 L99 391 C111 391 119 382 117 370 L75 21 C73 9 81 0 93 0 L188 0 C200 0 210 9 212 21 L254 370 C256 382 266 391 278 391 L476 391 C488 391 496 382 494 370 L452 21 C450 9 458 0 470 0 L565 0 C577 0 587 9 589 21 L631 370 C633 382 643 391 655 391 L830 391 C842 391 850 382 848 370 L806 21 C804 9 812 0 824 0 L918 0 C930 0 940 9 942 21 L942 21 Z " />
<glyph glyph-name="f_f_l" unicode="&#xfb04;" horiz-adv-x="1034" d="M941 21 L1001 511 C1021 673 911 748 787 748 C663 748 532 673 512 516 L511 509 C511 504 507 501 503 501 L292 501 C280 501 272 510 273 522 L276 547 C283 599 309 618 344 618 C363 618 377 615 386 608 C388 606 393 606 395 608 L458 669 C467 678 468 690 459 697 C431 720 392 732 342 732 C239 732 154 670 141 566 L136 522 C135 510 124 501 113 501 L82 501 C70 501 59 492 58 480 L50 412 C48 400 56 391 68 391 L99 391 C111 391 119 382 117 370 L75 21 C73 9 81 0 93 0 L188 0 C200 0 210 9 212 21 L254 370 C256 382 266 391 278 391 L476 391 C488 391 496 382 494 370 L452 21 C450 9 458 0 470 0 L565 0 C577 0 587 9 589 21 L631 370 C633 382 643 391 655 391 L687 391 C699 391 709 400 711 412 L719 480 C720 492 712 501 701 501 L666 501 C653 501 645 508 648 521 C662 579 697 628 772 628 C845 628 870 563 862 494 L804 21 C802 9 810 0 822 0 L917 0 C929 0 939 9 941 21 L941 21 Z " />
<glyph glyph-name="longs_t" unicode="&#xfb05;" horiz-adv-x="722" d="M604 0 C629 0 653 6 675 16 C683 20 687 29 685 37 L672 112 C672 117 667 120 662 119 C648 116 638 115 633 115 C598 115 577 133 584 186 L605 356 C606 368 617 377 628 377 L669 377 C681 377 691 386 693 398 L701 467 C703 479 695 488 683 488 L632 488 C626 488 622 493 622 500 L624 511 C640 647 556 748 409 748 C285 748 155 673 135 516 L134 509 C134 504 130 501 126 501 L82 501 C70 501 59 492 58 480 L50 412 C48 400 56 391 68 391 L99 391 C111 391 119 382 117 370 L75 21 C73 9 81 0 93 0 L188 0 C200 0 210 9 212 21 L270 499 C279 566 309 628 394 628 C467 628 492 563 484 494 L483 491 C483 489 482 488 480 488 L431 488 C419 488 409 479 407 467 L399 398 C397 386 406 377 417 377 L448 377 C460 377 468 368 467 356 L443 166 C431 62 501 0 604 0 L604 0 Z " />
<glyph glyph-name="s_t" unicode="&#xfb06;" horiz-adv-x="837" d="M723 0 C747 0 771 6 793 16 C801 20 805 29 803 37 L790 112 C790 117 785 120 780 119 C766 116 757 115 752 115 C717 115 695 133 702 186 L723 356 C724 368 735 377 746 377 L787 377 C799 377 809 386 811 398 L819 467 C821 479 813 488 801 488 L750 488 C744 488 740 493 740 500 L742 511 C762 673 652 748 528 748 C404 748 273 673 253 516 L252 503 C251 496 245 488 238 487 C165 472 96 416 86 336 C73 232 140 197 227 187 C271 183 295 174 301 162 C320 125 261 102 217 107 C179 111 150 122 131 140 C125 145 113 146 107 140 L48 83 C39 74 38 63 46 55 C84 18 137 -5 219 -5 C308 -5 407 42 419 141 C433 254 373 291 274 303 C209 316 190 336 215 360 C228 373 251 379 284 379 C311 379 333 370 351 352 C357 346 368 346 375 352 L435 412 C443 419 443 430 436 437 C421 452 406 462 391 471 C387 473 383 480 383 485 L385 494 C393 563 426 628 513 628 C585 628 611 563 603 494 L602 491 C602 489 601 488 599 488 L550 488 C538 488 528 479 526 467 L518 398 C516 386 525 377 536 377 L567 377 C579 377 587 368 586 356 L562 166 C550 62 620 0 723 0 L723 0 Z " />
</font>
</svg>
