<?xml version="1.0" encoding="UTF-8"?>
<svg xmlns="http://www.w3.org/2000/svg" xmlns:xlink="http://www.w3.org/1999/xlink" version="1.2" >
<font id="Abside Oblique Round 2">
<font-face  font-family="Abside" units-per-em="1000" ascent="732" descent="-206" font-style="italic" font-weight="400" font-stretch="normal" cap-height="733" x-height="489" underline-position="-107" underline-thickness="73" />
<missing-glyph  horiz-adv-x="599" d="M378 732 C276 732 217 718 148 670 C120 651 115 620 134 598 L172 555 C180 547 199 548 209 556 C243 582 284 596 332 596 C480 596 494 454 377 428 C274 405 234 334 214 244 C207 214 226 195 256 195 L304 195 C322 195 345 214 350 232 C365 284 393 316 433 327 C531 354 584 425 596 518 C611 647 487 732 378 732 L378 732 Z M189 68 C185 29 209 0 254 0 C299 0 332 29 336 68 C341 107 317 137 270 137 C226 137 194 107 189 68 L189 68 Z " />
<glyph glyph-name="&amp;#x20;" unicode="&#x20;" horiz-adv-x="342" d="" />
<glyph glyph-name="&amp;#xa0;" unicode="&#xa0;" horiz-adv-x="342" d="" />
<glyph glyph-name="exclam" unicode="&#x21;" horiz-adv-x="293" d="M183 227 L271 651 C277 698 266 716 215 716 C167 716 149 698 143 651 L113 227 C112 210 126 195 143 195 C161 195 179 210 183 227 L183 227 Z M57 68 C53 29 77 0 122 0 C167 0 199 29 203 68 C208 107 185 137 138 137 C94 137 62 107 57 68 L57 68 Z " />
<glyph glyph-name="quotedbl" unicode="&#x22;" horiz-adv-x="391" d="M203 563 C247 728 248 731 248 733 C251 760 227 775 198 775 C167 775 142 761 139 732 C139 730 139 726 142 563 C143 549 155 536 169 536 C184 536 199 549 203 563 L203 563 Z M356 563 C399 728 400 731 400 733 C403 760 380 775 351 775 C321 775 295 761 292 732 C292 729 291 726 294 563 C295 549 307 536 322 536 C337 536 352 549 356 563 L356 563 Z " />
<glyph glyph-name="numbersign" unicode="&#x23;" horiz-adv-x="729" d="M469 377 L450 332 C442 314 417 297 398 297 L381 297 C353 297 339 321 350 348 L369 393 C377 411 402 428 422 428 L438 428 C466 428 481 404 469 377 L469 377 Z M269 520 L200 520 C180 520 155 503 147 483 L144 475 C134 451 148 430 173 430 L202 430 C238 430 256 399 241 365 L228 335 C220 317 195 300 176 300 L118 300 C98 300 73 283 65 263 L62 255 C52 231 66 210 90 210 L110 210 C145 210 164 180 150 146 L111 55 C99 26 115 0 146 0 L166 0 C186 0 210 17 218 35 L279 175 C287 193 311 210 331 210 L346 210 C374 210 389 186 378 160 L333 55 C321 26 337 0 368 0 L388 0 C408 0 432 17 440 35 L500 175 C508 193 532 210 552 210 L628 210 C648 210 673 227 681 246 L684 255 C694 279 681 300 656 300 L619 300 C584 300 565 330 579 364 L592 394 C600 413 624 430 644 430 L710 430 C730 430 755 447 762 467 L766 475 C775 499 762 520 737 520 L710 520 C675 520 656 550 670 584 L710 677 C722 706 706 732 675 732 L655 732 C635 732 611 715 603 697 L542 555 C534 537 509 520 490 520 L474 520 C446 520 431 544 442 571 L487 676 C500 706 484 732 453 732 L432 732 C412 732 388 715 380 696 L321 556 C313 537 288 520 269 520 L269 520 Z " />
<glyph glyph-name="dollar" unicode="&#x24;" horiz-adv-x="642" d="M613 661 C581 691 547 711 503 721 C486 726 468 749 470 768 L472 780 C475 808 456 830 428 830 L392 830 C364 830 339 808 336 780 L334 767 C332 748 309 722 291 715 C202 685 119 612 108 518 C90 374 198 327 316 312 C380 305 419 289 432 261 C467 185 389 127 295 137 C232 142 185 158 154 186 C146 193 126 195 117 187 L61 137 C41 119 40 94 58 78 C96 45 142 22 195 10 C216 5 237 -21 235 -42 L234 -48 C231 -76 250 -98 278 -98 L314 -98 C342 -98 367 -76 370 -48 L372 -33 C374 -15 397 12 415 18 C504 50 587 129 597 215 C616 364 507 422 381 439 C301 450 230 479 283 554 C302 582 341 596 400 596 C448 596 486 582 514 556 C522 548 541 547 550 555 L609 607 C627 623 630 646 613 661 L613 661 Z " />
<glyph glyph-name="percent" unicode="&#x25;" horiz-adv-x="928" d="M309 25 L760 680 C777 705 765 732 736 732 L706 732 C692 732 668 719 659 707 L208 52 C191 27 203 0 232 0 L263 0 C277 0 301 13 309 25 L309 25 Z M97 554 C84 451 155 371 258 371 C362 371 451 451 464 554 C477 658 407 738 303 738 C200 738 110 658 97 554 L97 554 Z M267 458 C212 458 180 501 186 555 C193 609 236 651 290 651 C346 651 379 609 372 555 C366 501 322 458 267 458 L267 458 Z M505 178 C492 75 562 -4 666 -4 C769 -4 857 75 870 178 C883 281 813 360 710 360 C606 360 518 281 505 178 L505 178 Z M673 84 C619 84 587 125 594 179 C600 230 644 273 697 273 C750 273 782 231 776 179 C769 125 727 84 673 84 L673 84 Z " />
<glyph glyph-name="ampersand" unicode="&#x26;" horiz-adv-x="802" d="M630 198 C652 227 663 250 678 286 C687 307 679 331 659 338 L600 358 C590 361 577 355 572 344 C561 319 550 298 540 282 C537 276 531 277 527 282 L475 366 C461 387 469 416 492 431 C554 472 593 503 602 575 C615 681 536 738 430 738 C325 738 223 688 211 583 C206 544 214 502 241 455 C249 441 244 417 227 408 C132 356 79 289 69 206 C52 69 160 -3 297 -3 C368 -3 422 11 478 47 C497 59 526 57 538 40 L553 18 C559 10 580 0 590 0 L649 0 C684 0 706 37 687 64 L627 148 C618 160 620 185 630 198 L630 198 Z M373 514 C346 553 342 568 343 582 C347 611 371 631 414 631 C459 631 481 608 476 573 C474 556 465 541 427 511 C407 496 385 496 373 514 L373 514 Z M413 147 C373 121 340 110 306 110 C243 110 203 149 211 211 C216 250 242 289 288 319 C308 332 327 327 339 310 L422 188 C432 174 428 157 413 147 L413 147 Z " />
<glyph glyph-name="quotesingle" unicode="&#x27;" horiz-adv-x="244" d="M203 563 C247 728 248 731 248 733 C251 761 224 775 198 775 C173 775 143 762 139 732 C139 730 139 726 142 563 C143 549 155 536 169 536 C184 536 199 549 203 563 L203 563 Z " />
<glyph glyph-name="parenleft" unicode="&#x28;" horiz-adv-x="461" d="M83 293 C62 126 105 -30 197 -165 C203 -173 225 -186 235 -186 L280 -186 C307 -186 327 -156 314 -134 C244 -10 232 141 251 293 C269 441 315 594 418 721 C436 742 424 773 398 773 L352 773 C342 773 318 761 310 753 C188 626 104 465 83 293 L83 293 Z " />
<glyph glyph-name="parenright" unicode="&#x29;" horiz-adv-x="471" d="M407 293 C428 465 384 626 293 753 C287 761 265 773 256 773 L210 773 C184 773 165 742 177 721 C249 594 257 441 239 293 C220 141 172 -10 71 -134 C53 -156 66 -186 92 -186 L137 -186 C147 -186 173 -173 180 -165 C306 -30 386 126 407 293 L407 293 Z " />
<glyph glyph-name="asterisk" unicode="&#x2a;" horiz-adv-x="439" d="M168 499 C178 493 193 496 201 506 L228 537 C251 563 285 563 302 537 L321 508 C327 497 342 495 353 504 C365 513 368 529 362 540 L344 568 C328 593 342 625 372 636 L410 650 C424 655 432 670 428 683 C425 695 411 702 397 697 L363 685 C333 674 309 692 313 723 L317 757 C319 770 309 781 295 781 C282 781 270 770 268 757 L264 723 C260 692 231 674 204 684 L173 695 C161 700 146 693 139 680 C133 667 139 652 152 648 L182 637 C211 627 218 595 197 569 L164 529 C156 518 158 505 168 499 L168 499 Z " />
<glyph glyph-name="plus" unicode="&#x2b;" horiz-adv-x="586" d="M277 130 L296 130 C324 130 349 152 352 180 L360 242 C363 270 388 292 416 292 L488 292 C515 292 541 314 544 342 L546 359 C549 387 530 409 502 409 L430 409 C403 409 383 431 386 459 L394 520 C397 548 378 570 350 570 L331 570 C303 570 278 548 275 520 L267 459 C264 431 239 409 211 409 L139 409 C112 409 86 387 83 359 L81 342 C78 314 97 292 125 292 L197 292 C224 292 244 270 241 242 L233 180 C230 152 249 130 277 130 L277 130 Z " />
<glyph glyph-name="comma" unicode="&#x2c;" horiz-adv-x="290" d="M110 -89 C164 -55 196 -3 204 67 C209 106 185 137 139 137 C94 137 62 107 57 68 C53 29 78 0 123 0 L128 0 C117 -24 101 -42 80 -53 C73 -56 69 -65 72 -71 L76 -81 C82 -95 96 -98 110 -89 L110 -89 Z " />
<glyph glyph-name="&amp;#x2d;" unicode="&#x2d;" horiz-adv-x="439" d="M372 245 C375 271 356 293 329 293 L123 293 C97 293 72 271 69 245 C66 218 85 196 112 196 L318 196 C344 196 369 218 372 245 L372 245 Z " />
<glyph glyph-name="&amp;#xad;" unicode="&#xad;" horiz-adv-x="439" d="M372 245 C375 271 356 293 329 293 L123 293 C97 293 72 271 69 245 C66 218 85 196 112 196 L318 196 C344 196 369 218 372 245 L372 245 Z " />
<glyph glyph-name="period" unicode="&#x2e;" horiz-adv-x="284" d="M52 68 C48 29 73 0 118 0 C163 0 195 29 199 68 C204 107 181 137 134 137 C89 137 57 107 52 68 L52 68 Z " />
<glyph glyph-name="slash" unicode="&#x2f;" horiz-adv-x="402" d="M395 705 L383 705 C364 705 340 689 332 672 L11 16 C0 -8 12 -29 37 -29 L49 -29 C68 -29 92 -13 100 4 L421 660 C432 684 420 705 395 705 L395 705 Z " />
<glyph glyph-name="zero" unicode="0" horiz-adv-x="675" d="M90 366 C69 194 125 0 313 0 C501 0 606 194 627 366 C648 539 591 732 403 732 C215 732 111 538 90 366 L90 366 Z M331 137 C238 137 226 285 236 366 C246 447 294 596 386 596 C479 596 491 447 481 366 C471 286 423 137 331 137 L331 137 Z " />
<glyph glyph-name="one" unicode="1" horiz-adv-x="462" d="M120 502 L144 475 C161 455 193 455 215 475 L229 488 C251 507 279 495 275 468 L224 50 C221 22 240 0 268 0 L314 0 C342 0 367 22 370 50 L448 683 C451 711 432 733 404 733 L329 733 C321 733 298 724 292 718 L129 572 C107 553 103 521 120 502 L120 502 Z " />
<glyph glyph-name="two" unicode="2" horiz-adv-x="635" d="M382 732 C287 732 217 701 157 653 C134 635 131 608 148 588 L190 540 C198 531 215 531 224 540 C262 571 317 596 366 596 C469 596 483 463 403 400 L83 142 C75 136 63 114 62 105 L55 50 C52 22 71 0 99 0 L492 0 C520 0 545 22 548 50 L554 96 C557 124 538 146 510 146 L403 146 C365 146 353 190 385 216 L474 285 C679 445 632 732 382 732 L382 732 Z " />
<glyph glyph-name="three" unicode="3" horiz-adv-x="684" d="M578 387 C619 417 641 464 648 518 C663 647 551 732 424 732 C333 732 264 718 189 666 C162 647 161 621 181 599 L219 555 C226 547 246 548 256 556 C290 582 333 596 384 596 C475 596 548 554 490 471 C474 448 431 437 363 437 C338 437 313 416 310 390 L306 356 C303 331 322 307 347 305 C414 298 454 284 464 261 C499 185 421 127 328 137 C262 142 214 159 184 189 C176 196 159 195 150 187 L100 143 C75 120 69 95 92 76 C156 23 241 0 334 0 C458 0 614 83 630 215 C639 281 626 327 578 357 C570 362 570 381 578 387 L578 387 Z " />
<glyph glyph-name="four" unicode="4" horiz-adv-x="689" d="M75 290 L65 211 C62 183 81 161 109 161 L342 161 C369 161 389 139 386 111 L378 50 C375 22 394 0 422 0 L468 0 C496 0 521 22 524 50 L532 112 C535 139 560 161 587 161 C614 161 638 183 642 210 L648 258 C651 285 632 307 605 307 C578 307 558 329 562 356 L602 683 C605 711 586 733 558 733 L486 733 C476 733 452 722 445 713 L89 321 C85 316 75 296 75 290 L75 290 Z M294 378 L356 448 C384 479 429 463 424 424 L416 357 C412 329 387 307 360 307 L320 307 C281 307 266 347 294 378 L294 378 Z " />
<glyph glyph-name="five" unicode="5" horiz-adv-x="636" d="M150 682 L116 406 C112 378 132 356 160 356 L266 356 C378 356 472 358 454 243 C444 178 385 142 297 142 C238 144 195 159 166 186 C158 194 138 195 129 187 L79 143 C54 120 48 95 71 76 C136 23 221 0 314 0 C438 0 580 96 597 234 C619 416 513 488 331 488 L301 488 C285 488 274 501 276 518 L279 546 C282 574 308 596 335 596 L538 596 C566 596 591 618 594 646 L599 682 C602 710 582 732 555 732 L206 732 C178 732 153 710 150 682 L150 682 Z " />
<glyph glyph-name="six" unicode="6" horiz-adv-x="678" d="M92 356 C67 158 112 8 321 0 C474 -7 597 99 615 244 C634 401 558 488 396 488 C356 488 314 474 270 445 C258 438 245 444 248 457 C273 546 328 591 406 591 C444 591 479 584 509 571 C517 567 534 570 541 578 L587 631 C603 649 603 669 586 682 C542 714 486 730 416 732 C214 721 116 555 92 356 L92 356 Z M240 249 C256 317 297 353 365 356 C443 356 479 316 472 234 C461 172 418 140 343 137 C270 140 235 174 239 239 C239 239 240 249 240 249 L240 249 Z " />
<glyph glyph-name="seven" unicode="7" horiz-adv-x="616" d="M280 31 L616 670 C617 672 621 687 622 689 L624 706 C625 720 615 732 600 732 L177 732 C149 732 124 709 121 682 L117 646 C114 618 133 596 161 596 L349 596 C387 596 406 562 387 527 L133 58 C132 56 127 41 127 39 L125 25 C123 11 133 0 147 0 L230 0 C248 0 272 15 280 31 L280 31 Z " />
<glyph glyph-name="eight" unicode="8" horiz-adv-x="631" d="M325 303 C452 303 427 137 305 137 C184 137 199 303 325 303 L325 303 Z M342 437 C212 437 242 595 361 595 C481 595 473 437 342 437 L342 437 Z M516 387 C557 417 579 464 586 518 C603 658 515 732 379 732 C241 732 135 659 118 518 C111 467 119 419 154 388 C161 382 158 363 149 358 C96 330 69 284 60 215 C41 61 145 0 288 0 C431 0 549 61 568 215 C577 283 564 329 512 359 C504 364 508 381 516 387 L516 387 Z " />
<glyph glyph-name="nine" unicode="9" horiz-adv-x="648" d="M608 408 C628 605 570 705 425 730 C275 752 144 659 112 514 C77 356 144 262 302 246 C342 243 385 253 431 277 C443 284 455 277 450 264 C417 177 358 137 284 144 C244 147 212 157 184 174 C176 179 159 178 151 171 L100 122 C83 105 81 85 96 71 C136 34 190 11 258 3 C342 -4 416 22 479 83 C544 143 587 251 608 408 L608 408 Z M470 483 C454 415 413 379 345 375 C267 375 231 416 238 498 C249 560 292 592 367 595 C440 592 475 558 471 493 C471 493 470 483 470 483 L470 483 Z " />
<glyph glyph-name="colon" unicode="&#x3a;" horiz-adv-x="286" d="M55 68 C51 29 75 0 120 0 C165 0 197 29 201 68 C206 107 183 137 136 137 C92 137 60 107 55 68 L55 68 Z M98 418 C94 379 118 350 163 350 C208 350 240 379 244 418 C249 457 226 487 179 487 C135 487 103 457 98 418 L98 418 Z " />
<glyph glyph-name="&amp;#x3b;" unicode="&#x3b;" horiz-adv-x="294" d="M108 -89 C162 -55 194 -3 202 67 C207 106 184 137 137 137 C92 137 60 107 55 68 C51 29 76 0 121 0 L126 0 C115 -24 99 -42 78 -53 C71 -56 67 -65 70 -71 L74 -81 C80 -95 94 -98 108 -89 L108 -89 Z M102 420 C97 381 121 352 166 352 C211 352 243 381 248 420 C252 459 229 489 182 489 C138 489 106 459 102 420 L102 420 Z " />
<glyph glyph-name="&amp;#x37e;" unicode="&#x37e;" horiz-adv-x="294" d="M108 -89 C162 -55 194 -3 202 67 C207 106 184 137 137 137 C92 137 60 107 55 68 C51 29 76 0 121 0 L126 0 C115 -24 99 -42 78 -53 C71 -56 67 -65 70 -71 L74 -81 C80 -95 94 -98 108 -89 L108 -89 Z M102 420 C97 381 121 352 166 352 C211 352 243 381 248 420 C252 459 229 489 182 489 C138 489 106 459 102 420 L102 420 Z " />
<glyph glyph-name="less" unicode="&#x3c;" horiz-adv-x="561" d="M511 608 L85 392 C78 388 69 376 68 368 C67 360 73 348 79 344 L452 125 C474 112 502 127 505 154 L508 180 C510 195 499 217 488 224 L322 322 C287 343 293 389 333 410 L522 508 C536 515 552 537 554 552 L557 579 C560 606 537 621 511 608 L511 608 Z " />
<glyph glyph-name="equal" unicode="&#x3d;" horiz-adv-x="586" d="M121 195 L463 195 C490 195 515 217 518 244 C521 270 502 292 475 292 L133 292 C107 292 82 270 79 244 C76 217 95 195 121 195 L121 195 Z M146 391 L488 391 C514 391 539 413 542 440 C545 466 526 488 499 488 L157 488 C131 488 106 466 103 440 C100 413 119 391 146 391 L146 391 Z " />
<glyph glyph-name="greater" unicode="&#x3e;" horiz-adv-x="563" d="M137 508 L303 410 C337 389 332 343 292 322 L102 224 C89 217 73 195 71 180 L68 154 C65 127 88 112 113 125 L540 344 C547 348 556 360 557 368 C558 376 552 388 546 392 L173 608 C151 621 123 606 120 579 L117 552 C115 537 126 515 137 508 L137 508 Z " />
<glyph glyph-name="question" unicode="&#x3f;" horiz-adv-x="610" d="M378 732 C276 732 217 718 148 670 C120 651 115 620 134 598 L172 555 C180 547 199 548 209 556 C243 582 284 596 332 596 C480 596 494 454 377 428 C274 405 234 334 214 244 C207 214 226 195 256 195 L304 195 C322 195 345 214 350 232 C365 284 393 316 433 327 C531 354 584 425 596 518 C611 647 487 732 378 732 L378 732 Z M189 68 C185 29 209 0 254 0 C299 0 332 29 336 68 C341 107 317 137 270 137 C226 137 194 107 189 68 L189 68 Z " />
<glyph glyph-name="at" unicode="&#x40;" horiz-adv-x="1069" d="M523 -93 C273 -84 172 32 201 265 C226 476 384 610 599 610 C825 609 931 471 905 263 C886 104 752 70 763 160 L797 437 C800 465 781 487 753 487 L705 488 C694 488 684 479 682 468 L682 464 C681 458 674 454 670 458 C650 475 618 485 578 488 C438 495 320 375 304 244 C287 107 377 0 518 0 C558 0 599 14 635 33 C644 37 663 38 669 33 C753 -41 982 -5 1015 263 C1049 540 905 708 611 708 C332 708 111 536 78 267 C44 -11 167 -184 496 -202 C525 -204 553 -183 556 -154 L557 -144 C561 -118 549 -94 523 -93 L523 -93 Z M536 113 C461 113 419 170 428 243 C437 316 493 374 568 374 C643 374 686 316 677 243 C668 170 611 113 536 113 L536 113 Z " />
<glyph glyph-name="A" unicode="A" horiz-adv-x="803" d="M194 32 L219 80 C228 97 252 112 270 112 L534 112 C551 112 572 97 576 80 L589 32 C594 15 615 0 632 0 L679 0 C717 0 744 33 734 69 L560 701 C555 717 534 732 517 732 L438 732 C420 732 396 717 387 701 L57 69 C38 33 57 0 95 0 L144 0 C161 0 186 15 194 32 L194 32 Z M459 259 L386 259 C348 259 329 293 348 328 L396 420 C420 464 477 464 489 419 L514 327 C523 292 496 259 459 259 L459 259 Z " />
<glyph glyph-name="B" unicode="B" horiz-adv-x="768" d="M320 606 L476 606 C533 604 558 567 557 533 C557 532 556 526 556 526 C546 469 514 449 456 448 L301 448 C273 448 254 470 257 498 L264 556 C268 584 293 606 320 606 L320 606 Z M285 318 L471 318 C539 316 572 267 568 220 C557 150 514 120 445 119 L261 119 C233 119 213 141 217 169 L229 268 C232 296 257 318 285 318 L285 318 Z M697 521 C713 658 630 732 508 732 L189 732 C161 732 136 710 133 682 L55 50 C52 22 71 0 99 0 L461 0 C603 8 692 76 708 214 C716 278 690 334 640 376 C634 381 636 392 643 398 C670 423 690 467 697 521 L697 521 Z " />
<glyph glyph-name="C" unicode="C" horiz-adv-x="756" d="M69 368 C38 164 186 -5 390 0 C476 0 555 22 626 67 C654 84 660 112 642 135 L604 182 C596 193 571 194 558 186 C512 160 463 146 409 146 C275 146 200 235 215 369 C231 498 333 585 462 586 C515 586 561 573 601 547 C613 539 638 540 650 551 L699 598 C722 621 724 649 700 666 C639 710 566 732 480 732 C279 732 89 573 69 368 L69 368 Z " />
<glyph glyph-name="D" unicode="D" horiz-adv-x="781" d="M230 186 L274 546 C277 574 303 596 330 596 L415 596 C545 596 600 513 583 366 C564 220 489 137 359 136 L274 136 C246 136 226 158 230 186 L230 186 Z M342 0 C570 0 699 122 729 366 C759 611 660 733 432 733 L200 733 C172 733 147 711 144 683 L66 50 C63 22 82 0 110 0 L342 0 L342 0 Z " />
<glyph glyph-name="E" unicode="E" horiz-adv-x="684" d="M601 50 L606 87 C609 115 589 137 562 137 L272 137 C244 137 225 159 228 187 L236 253 C239 281 265 303 292 303 L485 303 C513 303 538 325 541 353 L546 389 C549 417 530 439 502 439 L309 439 C281 439 262 461 265 489 L272 546 C275 574 301 596 328 596 L619 596 C647 596 672 618 675 646 L680 682 C683 710 663 732 636 732 L198 732 C170 732 145 710 142 682 L64 50 C61 22 80 0 108 0 L545 0 C573 0 598 22 601 50 L601 50 Z " />
<glyph glyph-name="F" unicode="F" horiz-adv-x="621" d="M212 50 L237 253 C240 281 266 303 293 303 L465 303 C493 303 518 325 521 353 L526 389 C529 417 510 439 482 439 L310 439 C282 439 263 461 266 489 L273 546 C276 574 302 596 329 596 L598 596 C626 596 651 618 654 646 L659 682 C662 710 642 732 615 732 L200 732 C172 732 147 710 144 682 L66 50 C63 22 82 0 110 0 L156 0 C184 0 209 22 212 50 L212 50 Z " />
<glyph glyph-name="G" unicode="G" horiz-adv-x="743" d="M66 368 C34 164 183 -5 386 0 C483 0 571 28 648 84 C657 90 669 110 670 121 L702 380 C705 408 685 430 658 430 L514 430 C486 430 461 408 458 380 L454 347 C450 320 470 298 497 298 C524 298 543 276 540 249 L533 196 C532 186 525 174 516 169 C487 154 450 146 405 146 C272 146 197 235 212 369 C228 498 329 585 458 586 C512 586 558 573 598 547 C610 539 635 540 647 551 L695 599 C719 621 720 649 696 666 C636 710 563 732 476 732 C276 732 86 573 66 368 L66 368 Z " />
<glyph glyph-name="H" unicode="H" horiz-adv-x="792" d="M213 50 L238 253 C241 281 267 303 294 303 L535 303 C563 303 582 281 579 253 L554 50 C551 22 570 0 598 0 L644 0 C672 0 697 22 700 50 L778 683 C781 711 762 733 734 733 L688 733 C660 733 635 711 632 683 L608 489 C605 461 580 439 552 439 L311 439 C283 439 264 461 267 489 L291 682 C294 710 274 732 247 732 L200 732 C172 732 147 710 144 682 L66 50 C63 22 82 0 110 0 L157 0 C185 0 210 22 213 50 L213 50 Z " />
<glyph glyph-name="I" unicode="I" horiz-adv-x="293" d="M110 0 L156 0 C184 0 209 22 212 50 L290 683 C293 711 274 733 246 733 L200 733 C172 733 147 711 144 683 L66 50 C63 22 82 0 110 0 L110 0 Z " />
<glyph glyph-name="J" unicode="J" horiz-adv-x="415" d="M38 113 L30 49 C27 22 46 0 74 0 L123 0 C238 0 327 79 341 195 L401 682 C404 710 384 732 357 732 L310 732 C282 732 257 710 254 682 L200 244 C191 175 155 140 89 137 L65 137 C52 137 40 126 38 113 L38 113 Z " />
<glyph glyph-name="K" unicode="K" horiz-adv-x="705" d="M112 0 L158 0 C186 0 211 22 214 50 L231 183 C236 232 295 253 322 216 L473 17 C478 10 499 0 509 0 L582 0 C621 0 645 42 622 71 L403 359 C389 376 392 406 410 424 L646 669 C672 696 659 732 624 732 L565 732 C555 732 532 722 525 714 L363 545 C328 508 273 528 279 577 L292 682 C295 710 275 732 248 732 L202 732 C174 732 149 710 146 682 L68 50 C65 22 84 0 112 0 L112 0 Z " />
<glyph glyph-name="L" unicode="L" horiz-adv-x="659" d="M146 682 L68 50 C65 22 84 0 112 0 L549 0 C577 0 602 22 605 50 L610 87 C613 115 593 137 566 137 L275 137 C247 137 228 159 231 187 L292 682 C295 710 275 732 248 732 L202 732 C174 732 149 710 146 682 L146 682 Z " />
<glyph glyph-name="M" unicode="M" horiz-adv-x="879" d="M682 294 L652 50 C649 22 668 0 696 0 L743 0 C771 0 796 22 799 50 L881 715 C882 724 875 732 866 732 C859 732 841 725 835 720 L515 432 C493 412 461 412 444 432 L194 720 C190 725 174 732 167 732 C157 732 149 724 148 715 L66 50 C63 22 82 0 110 0 L157 0 C185 0 210 22 213 50 L243 294 C249 341 303 362 332 330 L420 234 C437 215 468 215 489 234 L602 330 C640 363 688 341 682 294 L682 294 Z " />
<glyph glyph-name="N" unicode="N" horiz-adv-x="806" d="M213 50 L255 389 C261 436 317 458 345 423 L571 147 C575 142 581 121 580 113 L572 50 C569 22 588 0 616 0 L664 0 C692 0 717 22 720 50 L798 682 C801 710 781 732 754 732 L708 732 C680 732 655 710 652 682 L627 478 C621 430 565 409 536 444 L310 716 C305 723 284 732 275 732 L200 732 C172 732 147 710 144 682 L66 50 C63 22 82 0 110 0 L157 0 C185 0 210 22 213 50 L213 50 Z " />
<glyph glyph-name="O" unicode="O" horiz-adv-x="804" d="M68 366 C43 160 182 0 389 0 C596 0 775 159 800 366 C825 573 686 732 479 732 C272 732 93 573 68 366 L68 366 Z M407 137 C275 137 198 238 214 366 C230 494 331 596 462 596 C593 596 670 494 654 366 C638 239 537 137 407 137 L407 137 Z " />
<glyph glyph-name="P" unicode="P" horiz-adv-x="684" d="M213 50 L238 253 C241 281 267 303 294 303 L417 303 C587 303 682 375 700 521 C717 662 640 732 469 732 L200 732 C172 732 147 710 144 682 L66 50 C63 22 82 0 110 0 L157 0 C185 0 210 22 213 50 L213 50 Z M331 605 L487 605 C545 603 571 568 566 520 C558 467 524 431 465 430 L310 430 C282 430 263 452 266 480 L275 555 C279 583 304 605 331 605 L331 605 Z " />
<glyph glyph-name="Q" unicode="Q" horiz-adv-x="807" d="M654 -16 L695 12 C719 29 727 61 712 83 L707 91 C697 107 700 139 714 155 C763 215 793 285 803 366 C828 573 689 732 482 732 C275 732 95 573 70 366 C45 160 185 0 392 0 C441 0 487 8 531 24 C544 29 565 24 572 14 L586 -7 C600 -28 631 -32 654 -16 L654 -16 Z M407 137 C275 137 198 238 214 366 C230 494 331 596 462 596 C593 596 670 494 654 366 C638 239 537 137 407 137 L407 137 Z " />
<glyph glyph-name="R" unicode="R" horiz-adv-x="700" d="M331 605 L487 605 C545 603 571 568 566 520 C558 467 524 431 465 430 L310 430 C282 430 263 452 266 480 L275 555 C279 583 304 605 331 605 L331 605 Z M586 338 C651 373 689 434 700 521 C717 662 640 732 469 732 L200 732 C172 732 147 710 144 682 L66 50 C63 22 82 0 110 0 L157 0 C185 0 210 22 213 50 L238 253 C241 281 267 303 294 303 L348 303 C362 303 383 290 389 278 L505 25 C510 13 531 0 545 0 L600 0 C640 0 667 38 651 73 L559 278 C550 296 566 327 586 338 L586 338 Z " />
<glyph glyph-name="S" unicode="S" horiz-adv-x="642" d="M603 670 C545 718 489 732 388 732 C273 732 123 646 108 518 C90 374 201 331 316 312 C492 285 474 130 295 137 C232 142 185 158 154 186 C146 193 126 195 117 187 L68 143 C44 121 39 94 61 75 C125 22 199 0 302 0 C425 0 581 83 597 215 C616 363 508 420 381 439 C219 464 240 596 400 596 C448 596 486 582 514 556 C522 548 541 547 550 555 L598 598 C623 620 625 651 603 670 L603 670 Z " />
<glyph glyph-name="T" unicode="T" horiz-adv-x="707" d="M107 682 L102 646 C99 618 119 596 146 596 L290 596 C318 596 337 574 334 546 L273 50 C270 22 289 0 317 0 L364 0 C392 0 417 22 420 50 L481 546 C484 574 510 596 537 596 L681 596 C709 596 734 618 737 646 L742 682 C745 710 725 732 698 732 L163 732 C135 732 110 710 107 682 L107 682 Z " />
<glyph glyph-name="U" unicode="U" horiz-adv-x="782" d="M133 682 L82 269 C62 102 206 0 366 0 C527 0 697 102 717 269 L768 682 C771 710 751 732 724 732 L677 732 C649 732 624 710 621 682 L575 308 C562 200 485 146 384 146 C283 146 220 200 233 308 L279 682 C282 710 262 732 235 732 L189 732 C161 732 136 710 133 682 L133 682 Z " />
<glyph glyph-name="V" unicode="V" horiz-adv-x="809" d="M399 216 L269 700 C265 717 244 732 227 732 L179 732 C141 732 114 699 124 663 L300 31 C305 15 325 0 343 0 L421 0 C438 0 463 15 471 31 L802 663 C820 699 802 732 764 732 L715 732 C697 732 673 717 664 700 L414 216 C412 213 408 211 405 211 C403 211 399 213 399 216 L399 216 Z " />
<glyph glyph-name="W" unicode="W" horiz-adv-x="1042" d="M574 482 L646 36 C649 17 670 0 690 0 L760 0 C780 0 805 17 812 37 L1059 669 C1072 703 1053 732 1019 732 L965 732 C945 732 920 715 912 695 L756 291 C754 287 749 284 745 284 C741 284 737 287 737 291 L678 695 C675 715 655 732 635 732 L560 732 C540 732 515 715 507 695 L347 292 C345 288 340 284 335 284 C331 284 326 288 326 292 L268 695 C265 715 245 732 224 732 L172 732 C137 732 111 703 116 669 L207 37 C210 17 230 0 250 0 L321 0 C341 0 366 17 374 36 L555 482 C557 486 562 489 566 489 C570 489 574 486 574 482 L574 482 Z " />
<glyph glyph-name="X" unicode="X" horiz-adv-x="789" d="M108 0 L170 0 C181 0 205 11 212 20 L373 208 C398 237 436 237 454 208 L568 21 C573 11 594 0 605 0 L667 0 C706 0 730 39 711 70 L539 352 C529 367 533 395 546 411 L761 663 C787 694 773 732 734 732 L674 732 C663 732 639 721 631 712 L496 555 C472 526 434 526 416 555 L319 712 C314 721 293 732 282 732 L221 732 C183 732 158 694 177 663 L330 411 C339 395 336 367 322 352 L81 70 C54 39 69 0 108 0 L108 0 Z " />
<glyph glyph-name="Y" unicode="Y" horiz-adv-x="749" d="M329 350 L292 50 C289 22 308 0 336 0 L382 0 C410 0 435 22 438 50 L475 350 C476 355 485 375 488 379 L733 664 C759 694 744 732 707 732 L648 732 C637 732 613 721 605 711 L467 549 C442 520 404 520 386 550 L291 711 C286 720 265 732 253 732 L193 732 C155 732 130 694 149 663 L323 379 C325 375 330 355 329 350 L329 350 Z " />
<glyph glyph-name="Z" unicode="Z" horiz-adv-x="720" d="M601 137 L399 137 C357 137 340 178 367 214 L708 667 C711 670 719 689 719 693 L721 706 C722 720 712 732 697 732 L188 732 C160 732 135 710 132 682 L127 646 C124 618 144 596 171 596 L373 596 C415 596 433 555 406 519 L63 61 C60 58 53 39 52 35 L51 25 C49 11 59 0 73 0 L584 0 C612 0 637 22 640 50 L645 87 C648 115 628 137 601 137 L601 137 Z " />
<glyph glyph-name="bracketleft" unicode="&#x5b;" horiz-adv-x="370" d="M275 -145 L279 -113 C283 -85 263 -63 235 -63 L227 -63 C200 -63 180 -41 183 -13 L277 746 C280 774 305 796 333 796 L341 796 C368 796 393 818 397 846 L401 878 C404 906 384 928 357 928 L212 927 C184 927 159 905 156 877 L30 -145 C27 -173 46 -195 74 -195 L219 -195 C247 -195 272 -173 275 -145 L275 -145 Z " />
<glyph glyph-name="backslash" unicode="&#x5c;" horiz-adv-x="402" d="M316 -29 L329 -29 C354 -29 371 -8 366 16 L207 672 C203 689 183 705 165 705 L152 705 C127 705 110 684 115 660 L274 4 C278 -13 298 -29 316 -29 L316 -29 Z " />
<glyph glyph-name="bracketright" unicode="&#x5d;" horiz-adv-x="391" d="M275 -145 L401 877 C404 905 385 927 357 927 L213 928 C185 928 160 906 156 878 L152 846 C149 819 168 796 196 796 L205 796 C232 796 252 774 249 746 L155 -13 C152 -41 127 -63 99 -63 L91 -63 C64 -63 39 -85 35 -113 L31 -145 C28 -173 47 -195 75 -195 L219 -195 C247 -195 272 -173 275 -145 L275 -145 Z " />
<glyph glyph-name="asciicircum" unicode="&#x5e;" horiz-adv-x="488" d="M191 626 L270 698 C292 718 324 718 341 698 L404 626 C409 620 430 611 438 611 L442 611 C453 611 461 622 455 631 L360 797 C342 827 303 827 278 797 L141 631 C133 622 138 611 149 611 L153 611 C161 611 184 620 191 626 L191 626 Z " />
<glyph glyph-name="underscore" unicode="&#x5f;" horiz-adv-x="635" d="M61 -98 L512 -98 C526 -98 538 -87 540 -74 C542 -60 532 -49 518 -49 L67 -49 C54 -49 42 -60 40 -74 C38 -87 48 -98 61 -98 L61 -98 Z " />
<glyph glyph-name="grave" unicode="&#x60;" horiz-adv-x="202" d="M270 614 L187 747 C187 747 183 752 182 753 C163 770 134 759 115 742 C95 724 80 694 98 674 C98 672 101 670 221 571 C232 562 251 563 262 573 C274 583 278 602 270 614 L270 614 Z " />
<glyph glyph-name="a" unicode="a" horiz-adv-x="583" d="M432 468 L432 464 C431 458 424 454 420 458 C400 475 368 485 328 488 C188 495 70 375 54 244 C37 107 127 0 268 0 C298 0 329 9 362 28 C370 33 378 28 377 20 C376 9 384 0 395 0 L457 0 C485 0 510 22 513 50 L561 437 C564 465 545 487 517 487 L455 488 C444 488 434 479 432 468 L432 468 Z M282 113 C206 113 164 170 173 243 C182 316 238 374 313 374 C388 374 432 316 423 243 C414 170 356 113 282 113 L282 113 Z " />
<glyph glyph-name="b" unicode="b" horiz-adv-x="582" d="M128 682 L50 50 C47 22 66 0 94 0 L162 0 C172 0 182 9 183 20 C184 28 194 33 201 28 C230 9 259 0 289 0 C430 0 546 107 563 244 C579 375 491 496 349 488 C308 486 275 476 251 460 C246 457 237 459 238 465 L265 682 C268 710 248 732 221 732 L184 732 C156 732 131 710 128 682 L128 682 Z M306 113 C231 113 188 170 197 243 C206 316 263 374 338 374 C413 374 456 316 447 243 C438 170 381 113 306 113 L306 113 Z " />
<glyph glyph-name="c" unicode="c" horiz-adv-x="496" d="M366 140 C343 123 315 113 283 113 C208 113 165 170 174 244 C183 316 240 375 315 375 C346 375 372 364 391 347 C397 342 409 341 415 347 L473 399 C489 413 491 431 476 443 C438 475 388 493 331 493 C189 493 68 385 51 244 C34 104 127 -5 269 -5 C327 -5 382 13 427 45 C444 56 447 74 435 88 L390 140 C385 146 372 145 366 140 L366 140 Z " />
<glyph glyph-name="d" unicode="d" horiz-adv-x="583" d="M459 682 L432 465 C431 459 425 455 420 459 C400 476 368 485 328 488 C187 496 70 375 54 244 C37 107 126 0 268 0 C298 0 329 9 362 28 C370 33 378 28 377 20 C376 9 384 0 395 0 L462 0 C490 0 515 22 518 50 L596 682 C599 710 579 732 552 732 L515 732 C487 732 462 710 459 682 L459 682 Z M280 113 C205 113 163 170 172 243 C181 316 237 374 312 374 C387 374 430 316 421 243 C412 170 355 113 280 113 L280 113 Z " />
<glyph glyph-name="e" unicode="e" horiz-adv-x="560" d="M53 244 C36 102 125 0 267 0 C337 0 396 16 446 50 C465 63 468 82 454 98 L421 136 C415 143 397 144 387 139 C354 121 318 112 281 112 C240 112 203 133 192 170 C187 186 197 195 215 195 L500 195 C514 195 526 206 528 220 L531 244 C548 385 471 488 327 488 C185 488 71 387 53 244 L53 244 Z M313 376 C353 376 393 356 401 319 C405 300 394 293 374 293 L232 293 C212 293 203 300 212 319 C229 356 274 376 313 376 L313 376 Z " />
<glyph glyph-name="f" unicode="f" horiz-adv-x="377" d="M215 50 L253 355 C255 375 273 391 294 391 C314 391 332 407 334 428 L339 465 C342 485 327 501 307 501 L294 501 C281 501 272 511 273 524 L276 547 C283 599 309 618 344 618 C363 618 377 615 386 608 C388 606 393 606 395 608 L456 667 C467 678 467 691 456 699 C428 721 391 732 342 732 C239 732 154 670 141 566 L138 534 C135 516 119 501 101 501 L97 501 C77 501 59 485 56 465 L51 428 C49 407 63 391 84 391 C104 391 118 375 116 355 L78 50 C75 22 94 0 122 0 L159 0 C187 0 212 22 215 50 L215 50 Z " />
<glyph glyph-name="g" unicode="g" horiz-adv-x="559" d="M430 466 L430 461 C429 455 422 451 417 455 C396 474 362 485 316 488 C167 492 68 385 51 244 C33 97 94 0 246 0 C290 0 331 13 369 38 C374 41 378 37 377 32 L375 20 C366 -54 313 -102 228 -98 C185 -95 150 -85 120 -67 C112 -61 94 -63 86 -71 L58 -99 C40 -117 39 -138 57 -152 C101 -189 162 -210 240 -208 C395 -205 497 -105 515 39 L564 438 C567 466 548 488 520 488 L455 488 C443 488 432 478 430 466 L430 466 Z M276 113 C201 113 159 170 168 243 C177 316 233 374 308 374 C383 374 426 316 417 243 C408 170 351 113 276 113 L276 113 Z " />
<glyph glyph-name="h" unicode="h" horiz-adv-x="537" d="M239 343 C258 360 278 371 302 373 C302 373 308 373 309 373 C372 369 397 331 389 269 L362 50 C359 22 378 0 406 0 L443 0 C471 0 496 22 499 50 L530 303 C543 411 476 488 363 488 C325 488 291 478 260 458 C252 453 242 458 243 466 L270 682 C273 710 253 732 226 732 L189 732 C161 732 136 710 133 682 L55 50 C52 22 71 0 99 0 L136 0 C164 0 189 22 192 50 L225 314 C225 321 233 338 239 343 L239 343 Z " />
<glyph glyph-name="i" unicode="i" horiz-adv-x="256" d="M192 50 L240 439 C243 467 224 489 196 489 L159 489 C131 489 106 467 103 439 L55 50 C52 22 71 0 99 0 L136 0 C164 0 189 22 192 50 L192 50 Z M118 605 C113 566 138 537 183 537 C228 537 259 566 264 605 C269 645 246 674 199 674 C155 674 123 645 118 605 L118 605 Z " />
<glyph glyph-name="j" unicode="j" horiz-adv-x="291" d="M-83 -122 L-88 -161 C-91 -188 -72 -210 -45 -210 L4 -210 C121 -210 199 -129 213 -15 L269 438 C272 466 253 488 225 488 L188 488 C160 488 135 466 132 438 L79 9 C71 -59 33 -95 -32 -98 L-56 -98 C-69 -98 -81 -109 -83 -122 L-83 -122 Z M147 605 C142 566 167 537 212 537 C257 537 288 566 293 605 C298 645 275 674 228 674 C184 674 152 645 147 605 L147 605 Z " />
<glyph glyph-name="k" unicode="k" horiz-adv-x="586" d="M112 0 L158 0 C186 0 211 22 214 50 L220 98 C224 132 266 147 285 120 L358 18 C364 10 384 0 394 0 L467 0 C506 0 531 42 509 72 L387 237 C374 254 377 284 394 302 L512 425 C538 452 525 488 490 488 L432 488 C421 488 398 478 391 470 L327 403 C299 373 256 389 261 428 L292 682 C295 710 275 732 248 732 L202 732 C174 732 149 710 146 682 L68 50 C65 22 84 0 112 0 L112 0 Z " />
<glyph glyph-name="l" unicode="l" horiz-adv-x="280" d="M192 50 L270 682 C273 710 253 732 226 732 L189 732 C161 732 136 710 133 682 L55 50 C52 22 71 0 99 0 L136 0 C164 0 189 22 192 50 L192 50 Z " />
<glyph glyph-name="m" unicode="m" horiz-adv-x="866" d="M230 323 C254 354 278 370 305 373 C305 373 311 373 312 373 C375 369 395 331 387 269 L360 50 C357 22 376 0 404 0 L441 0 C469 0 494 22 497 50 L526 288 C527 297 529 306 532 315 C532 316 536 323 537 324 C559 354 583 370 608 373 C608 373 614 373 615 373 C677 369 698 331 690 269 L663 50 C660 22 679 0 707 0 L744 0 C772 0 797 22 800 50 L831 303 C844 411 776 488 664 488 C603 488 553 475 514 448 C506 442 486 444 479 450 C452 476 412 488 361 488 C321 488 287 478 257 459 C250 454 240 458 241 466 L241 467 C243 479 234 489 222 489 L157 489 C129 489 104 467 101 439 L53 50 C50 22 69 0 97 0 L134 0 C162 0 187 22 190 50 L221 299 C221 303 228 319 230 323 L230 323 Z " />
<glyph glyph-name="n" unicode="n" horiz-adv-x="559" d="M231 322 C253 353 276 370 301 373 C301 373 307 373 308 373 C371 369 396 331 388 269 L361 50 C358 22 377 0 405 0 L442 0 C470 0 495 22 498 50 L529 303 C542 411 475 488 362 488 C324 488 290 478 259 458 C251 453 241 458 242 466 L242 467 C244 479 235 489 223 489 L158 489 C130 489 105 467 102 439 L54 50 C51 22 70 0 98 0 L135 0 C163 0 188 22 191 50 L222 299 C222 303 228 319 231 322 L231 322 Z " />
<glyph glyph-name="o" unicode="o" horiz-adv-x="562" d="M51 244 C34 104 127 -5 269 -5 C410 -5 532 103 549 244 C566 385 472 493 331 493 C189 493 68 385 51 244 L51 244 Z M283 113 C208 113 165 170 174 244 C183 316 240 375 315 375 C390 375 433 317 424 244 C415 170 358 113 283 113 L283 113 Z " />
<glyph glyph-name="p" unicode="p" horiz-adv-x="584" d="M165 -156 L187 24 C188 30 196 32 201 29 C222 13 252 3 291 0 C432 -7 549 113 565 245 C582 382 493 489 351 489 C321 489 290 480 257 461 C249 456 241 461 242 470 C243 480 235 489 225 489 L157 489 C129 489 104 467 101 439 L28 -155 C25 -183 44 -205 71 -205 L108 -206 C136 -206 161 -183 165 -156 L165 -156 Z M306 113 C231 113 189 170 198 243 C207 316 263 374 338 374 C413 374 456 316 447 243 C438 170 381 113 306 113 L306 113 Z " />
<glyph glyph-name="q" unicode="q" horiz-adv-x="572" d="M491 -155 L564 439 C567 467 548 489 520 489 L453 489 C442 489 432 480 431 470 C430 461 420 456 413 461 C384 480 355 489 326 489 C184 489 68 382 51 245 C35 113 123 -7 266 0 C306 3 339 13 363 29 C368 32 377 30 376 24 L354 -156 C350 -183 370 -206 398 -206 L435 -205 C463 -205 488 -183 491 -155 L491 -155 Z M276 113 C201 113 159 170 168 243 C177 316 233 374 308 374 C383 374 426 316 417 243 C408 170 351 113 276 113 L276 113 Z " />
<glyph glyph-name="r" unicode="r" horiz-adv-x="389" d="M213 488 L153 488 C125 488 100 466 97 438 L49 50 C46 22 65 0 93 0 L129 0 C157 0 182 22 185 50 L214 286 C215 292 221 307 225 312 C257 346 295 361 340 357 C356 355 378 369 383 385 L409 476 C410 481 409 485 405 485 C392 487 380 488 366 488 C325 487 287 475 254 452 C246 447 234 451 235 460 L236 462 C237 476 227 488 213 488 L213 488 Z " />
<glyph glyph-name="s" unicode="s" horiz-adv-x="453" d="M423 449 C384 481 348 491 278 491 C192 491 98 431 86 336 C73 232 140 197 227 187 C271 183 295 174 301 162 C320 125 261 102 217 107 C179 111 150 122 131 140 C125 145 113 146 107 140 L57 92 C42 77 41 58 56 46 C93 14 143 -5 219 -5 C308 -5 407 42 419 141 C433 254 373 291 274 303 C209 316 190 336 215 360 C228 373 251 379 284 379 C311 379 333 370 351 352 C357 346 368 346 375 352 L419 396 C437 414 440 435 423 449 L423 449 Z " />
<glyph glyph-name="t" unicode="t" horiz-adv-x="384" d="M270 0 C294 0 318 6 340 16 C348 20 352 29 350 37 L337 112 C337 117 332 120 327 119 C313 116 304 115 299 115 C264 115 242 133 249 186 L267 336 C270 358 291 377 314 377 C337 377 358 396 360 419 L364 447 C367 469 350 488 327 488 C305 488 288 507 291 530 L298 585 C301 613 282 635 254 635 L217 635 C189 635 164 613 161 585 L153 525 C151 504 133 488 112 488 C92 488 74 472 71 452 L67 414 C64 393 79 377 99 377 C119 377 133 361 131 341 L109 166 C97 62 167 0 270 0 L270 0 Z " />
<glyph glyph-name="u" unicode="u" horiz-adv-x="549" d="M357 163 C335 134 312 119 287 116 C287 116 281 116 280 116 C217 120 191 157 199 220 L226 439 C229 467 210 489 182 489 L146 489 C118 489 93 467 90 439 L59 186 C46 78 113 0 226 0 C263 0 298 10 329 30 C337 35 347 31 346 22 L346 22 C344 10 353 0 365 0 L430 0 C458 0 483 22 486 50 L534 439 C537 467 518 489 490 489 L453 489 C425 489 400 467 397 439 L366 186 C365 182 360 166 357 163 L357 163 Z " />
<glyph glyph-name="v" unicode="v" horiz-adv-x="558" d="M86 424 L196 31 C201 15 221 0 239 0 L288 0 C306 0 330 15 338 31 L544 424 C561 457 544 488 508 488 L473 488 C456 488 431 472 423 456 L347 306 C324 261 265 261 253 306 L215 456 C211 472 190 488 172 488 L137 488 C102 488 77 457 86 424 L86 424 Z " />
<glyph glyph-name="w" unicode="w" horiz-adv-x="713" d="M449 0 L496 0 C516 0 541 17 548 37 L700 427 C713 460 694 489 660 489 L635 489 C614 489 589 472 582 452 L540 341 C525 304 472 304 467 342 L455 450 C453 471 433 489 411 489 L389 489 C368 489 343 472 336 451 L295 345 C281 306 226 306 221 344 L206 452 C203 472 183 489 162 489 L137 489 C102 489 76 460 81 427 L138 37 C140 17 161 0 181 0 L228 0 C247 0 272 17 280 36 L317 123 C332 160 383 160 390 123 L406 36 C409 17 430 0 449 0 L449 0 Z " />
<glyph glyph-name="x" unicode="x" horiz-adv-x="535" d="M76 0 L120 0 C132 0 156 12 164 22 L220 92 C245 123 285 123 303 92 L342 22 C347 12 368 0 380 0 L424 0 C456 0 476 31 462 58 L367 226 C359 240 362 268 374 282 L492 429 C513 456 500 487 468 487 L425 487 C413 487 389 475 381 465 L343 417 C317 386 277 386 260 417 L233 465 C227 475 206 487 194 487 L151 487 C120 487 99 456 114 429 L196 282 C204 268 200 240 188 226 L53 58 C31 31 44 0 76 0 L76 0 Z " />
<glyph glyph-name="y" unicode="y" horiz-adv-x="551" d="M228 -179 L544 424 C561 457 544 488 508 488 L473 488 C456 488 431 472 423 456 L347 306 C324 261 265 261 253 306 L215 456 C211 472 190 488 172 488 L137 488 C101 488 75 457 83 423 L178 17 C179 11 176 -11 173 -17 L108 -147 C92 -179 109 -210 144 -210 L177 -210 C195 -210 219 -195 228 -179 L228 -179 Z " />
<glyph glyph-name="z" unicode="z" horiz-adv-x="495" d="M396 115 L331 115 C289 115 271 155 297 191 L479 440 C481 443 489 462 489 466 L490 470 C491 479 484 487 474 487 L152 487 C124 487 99 465 96 437 L94 422 C90 394 110 372 138 372 L202 372 C244 372 262 332 236 296 L55 45 C52 41 45 23 44 19 L44 17 C43 7 49 0 59 0 L382 0 C410 0 435 22 438 50 L440 65 C443 93 424 115 396 115 L396 115 Z " />
<glyph glyph-name="bar" unicode="&#x7c;" horiz-adv-x="378" d="M214 -145 L340 877 C343 905 323 927 296 927 L259 927 C231 927 206 905 203 877 L77 -145 C74 -173 93 -195 121 -195 L158 -195 C186 -195 211 -173 214 -145 L214 -145 Z " />
<glyph glyph-name="exclamdown" unicode="&#xa1;" horiz-adv-x="293" d="M149 489 L61 64 C55 18 66 0 117 0 C166 0 183 18 189 64 L219 489 C220 506 206 521 188 521 C171 521 153 506 149 489 L149 489 Z M274 647 C279 687 255 716 210 716 C165 716 133 687 128 647 C124 608 147 579 194 579 C238 579 270 608 274 647 L274 647 Z " />
<glyph glyph-name="cent" unicode="&#xa2;" horiz-adv-x="496" d="M366 140 C343 123 315 113 283 113 C208 113 165 170 174 244 C183 316 240 375 315 375 C346 375 372 364 391 347 C397 342 409 341 415 347 L479 404 C491 414 492 429 481 438 C459 459 431 474 400 483 C388 486 376 503 377 515 L379 527 C381 547 366 564 346 564 L312 564 C290 564 270 546 267 524 L267 523 C265 506 238 477 222 471 C132 433 64 347 51 244 C38 142 85 56 167 17 C180 10 201 -19 199 -35 L198 -41 C195 -65 212 -85 237 -85 L262 -85 C285 -85 306 -66 309 -43 L311 -27 C312 -15 329 1 341 5 C375 13 406 29 433 49 C446 58 448 73 439 83 L390 140 C385 146 372 145 366 140 L366 140 Z " />
<glyph glyph-name="sterling" unicode="&#xa3;" horiz-adv-x="667" d="M89 366 L86 343 C84 323 97 308 116 308 L118 308 C138 308 155 296 158 276 C166 221 149 170 106 125 C101 120 91 98 90 92 L85 50 C82 22 101 0 129 0 L532 0 C560 0 585 22 588 50 L590 62 C593 90 573 112 546 112 L299 112 C276 112 262 133 269 156 C286 209 292 253 289 287 C288 297 298 308 309 308 L433 308 C455 308 476 326 479 349 C482 372 466 390 443 390 L281 390 C275 390 271 393 270 399 C270 416 271 432 274 449 C288 538 325 581 414 590 C414 590 424 591 425 591 C471 587 507 572 534 546 C542 538 559 538 567 548 L616 604 C634 625 636 652 617 669 C563 717 513 732 419 732 C293 732 193 653 159 527 C148 487 142 450 140 413 C140 402 129 390 118 390 L116 390 C103 390 91 379 89 366 L89 366 Z " />
<glyph glyph-name="yen" unicode="&#xa5;" horiz-adv-x="749" d="M213 156 L255 156 C283 156 302 134 299 106 L292 50 C289 22 308 0 336 0 L382 0 C410 0 435 22 438 50 L445 106 C448 134 474 156 501 156 L555 156 C581 156 606 178 609 205 C612 231 593 253 567 253 L513 253 C485 253 466 275 469 303 C472 330 497 352 525 352 L579 352 C605 352 630 374 633 401 L634 404 C637 429 619 449 594 449 C573 449 566 469 580 486 L733 664 C759 694 744 732 707 732 L648 732 C637 732 613 721 605 711 L467 549 C442 520 404 520 386 550 L291 711 C286 720 265 732 253 732 L193 732 C155 732 130 694 149 663 L260 481 C269 467 258 449 240 449 C218 449 198 431 195 409 L194 401 C191 374 210 352 237 352 L280 352 C307 352 326 330 323 303 C320 275 295 253 268 253 L225 253 C198 253 173 231 170 205 C167 178 186 156 213 156 L213 156 Z " />
<glyph glyph-name="dieresis" unicode="&#xa8;" horiz-adv-x="527" d="M454 600 C493 600 526 628 532 673 C537 718 511 746 472 746 C433 746 400 719 395 672 C389 627 415 600 454 600 L454 600 Z M183 600 C222 600 254 628 260 673 C265 718 240 746 201 746 C162 746 128 719 123 672 C117 628 144 600 183 600 L183 600 Z " />
<glyph glyph-name="copyright" unicode="&#xa9;" horiz-adv-x="817" d="M498 714 C395 714 296 672 220 602 C145 533 101 444 89 351 C77 256 102 169 159 100 C219 28 306 -12 406 -12 C508 -12 603 27 681 99 C757 168 803 257 814 351 C820 396 817 441 805 485 C793 529 774 568 745 602 C686 672 598 714 498 714 L498 714 Z M248 583 C327 649 407 679 493 679 C576 679 651 647 707 588 C736 558 755 522 768 480 C781 438 784 395 779 351 C768 259 720 176 647 113 C577 54 496 23 410 23 C326 23 255 55 197 114 C140 177 113 257 124 351 C130 396 144 440 166 480 C189 521 216 555 248 583 L248 583 Z M215 349 C193 214 292 112 423 111 C478 111 529 125 575 154 C593 165 597 183 586 198 L561 228 C556 235 540 236 532 231 C502 214 470 206 434 206 C347 206 300 263 310 350 C320 432 385 490 469 490 C503 490 533 482 559 465 C567 460 584 461 592 468 L622 497 C637 512 638 530 623 542 C584 571 537 585 481 585 C351 585 227 481 215 349 L215 349 Z " />
<glyph glyph-name="guillemotleft" unicode="&#xab;" horiz-adv-x="482" d="M492 392 L312 275 C279 254 274 214 302 193 L453 77 C461 71 473 77 475 88 L475 92 C476 100 470 122 465 128 L402 199 C385 219 389 251 411 270 L491 341 C498 347 509 369 510 377 L511 381 C512 392 502 398 492 392 L492 392 Z M321 392 L141 275 C108 254 103 214 131 193 L282 77 C290 71 302 77 304 88 L304 92 C305 100 299 122 294 128 L231 199 C214 219 218 251 240 270 L320 341 C327 347 338 369 339 377 L340 381 C341 392 331 398 321 392 L321 392 Z " />
<glyph glyph-name="registered" unicode="&#xae;" horiz-adv-x="817" d="M498 714 C395 714 296 672 220 602 C145 533 101 444 89 351 C77 256 102 169 159 100 C219 28 306 -12 406 -12 C508 -12 603 27 681 99 C757 168 803 257 814 351 C820 396 817 441 805 485 C793 529 774 568 745 602 C686 672 598 714 498 714 L498 714 Z M248 583 C327 649 407 679 493 679 C576 679 651 647 707 588 C736 558 755 522 768 480 C781 438 784 395 779 351 C768 259 720 176 647 113 C577 54 496 23 410 23 C326 23 255 55 197 114 C140 177 113 257 124 351 C130 396 144 440 166 480 C189 521 216 555 248 583 L248 583 Z M427 488 L504 488 C539 486 555 472 552 443 C548 412 528 396 491 395 L416 395 C390 395 372 416 375 442 C378 467 402 488 427 488 L427 488 Z M563 334 C602 355 625 391 632 444 C642 527 596 569 494 569 L354 569 C326 569 301 547 298 519 L256 177 C253 152 270 133 294 133 C318 133 340 152 343 177 L355 274 C357 295 377 313 399 313 L410 313 C423 313 444 300 450 288 L510 158 C515 146 536 133 550 133 L571 133 C595 133 611 156 602 176 L547 299 C543 310 552 328 563 334 L563 334 Z " />
<glyph glyph-name="macron" unicode="&#xaf;" horiz-adv-x="312" d="M392 655 C395 677 380 694 358 694 L124 694 C103 694 83 677 80 655 C78 633 93 616 115 616 L349 616 C370 616 390 633 392 655 L392 655 Z " />
<glyph glyph-name="degree" unicode="&#xb0;" horiz-adv-x="377" d="M334 585 C328 537 284 500 238 500 C193 500 157 538 163 585 C169 633 214 670 259 670 C305 670 340 633 334 585 L334 585 Z M267 732 C184 732 111 665 101 584 C91 504 147 437 230 437 C311 437 386 505 396 584 C406 664 349 732 267 732 L267 732 Z " />
<glyph glyph-name="acute" unicode="&#xb4;" horiz-adv-x="202" d="M125 571 C270 670 273 672 274 674 C296 694 290 724 274 742 C259 759 234 770 210 753 C209 752 204 747 203 747 L86 613 C76 602 75 583 84 573 C93 563 112 562 125 571 L125 571 Z " />
<glyph glyph-name="paragraph" unicode="&#xb6;" horiz-adv-x="956" d="M406 732 C236 732 141 662 124 521 C106 375 183 303 353 303 L476 303 C504 303 523 281 520 253 L495 50 C492 22 511 0 539 0 L586 0 C614 0 639 22 642 50 L703 545 C706 573 731 595 759 595 L766 595 C794 595 813 573 810 545 L749 50 C746 22 765 0 793 0 L839 0 C867 0 892 22 895 50 L973 683 C976 711 957 733 929 733 L406 732 L406 732 Z " />
<glyph glyph-name="cedilla" unicode="&#xb8;" horiz-adv-x="349" d="M218 -200 C274 -200 333 -153 341 -91 C345 -57 328 -32 293 -13 C281 -7 278 10 287 21 L296 31 C308 46 301 64 283 64 L258 64 C244 64 220 51 211 38 L181 -7 C168 -26 174 -47 194 -54 L231 -65 C250 -71 261 -80 260 -93 C258 -108 241 -120 228 -120 C215 -120 205 -111 197 -98 C194 -94 187 -92 182 -94 L144 -111 C130 -118 124 -130 130 -143 C145 -175 176 -200 218 -200 L218 -200 Z " />
<glyph glyph-name="guillemotright" unicode="&#xbb;" horiz-adv-x="482" d="M106 341 L169 270 C186 251 182 219 160 199 L79 128 C73 122 61 100 60 92 L60 88 C58 77 69 71 79 77 L258 193 C291 214 296 254 269 275 L118 392 C109 398 97 392 96 381 L95 377 C94 369 101 347 106 341 L106 341 Z M277 341 L340 270 C357 251 353 219 331 199 L250 128 C244 122 232 100 231 92 L231 88 C229 77 240 71 250 77 L429 193 C462 214 467 254 440 275 L289 392 C280 398 268 392 267 381 L266 377 C265 369 272 347 277 341 L277 341 Z " />
<glyph glyph-name="questiondown" unicode="&#xbf;" horiz-adv-x="610" d="M269 0 C370 0 429 14 498 63 C525 82 531 112 512 134 L475 177 C467 185 448 184 438 176 C404 150 363 137 315 137 C167 137 153 279 269 305 C373 328 413 399 432 488 C439 518 420 537 390 537 L342 537 C324 537 302 518 297 500 C282 448 254 416 214 405 C115 379 62 307 50 215 C34 85 159 0 269 0 L269 0 Z M457 664 C461 703 437 732 392 732 C347 732 315 703 311 664 C306 625 329 595 376 595 C421 595 452 625 457 664 L457 664 Z " />
<glyph glyph-name="Agrave" unicode="&#xc0;" horiz-adv-x="803" d="M194 32 L219 80 C228 97 252 112 270 112 L534 112 C551 112 572 97 576 80 L589 32 C594 15 615 0 632 0 L679 0 C717 0 744 33 734 69 L560 701 C555 717 534 732 517 732 L438 732 C420 732 396 717 387 701 L57 69 C38 33 57 0 95 0 L144 0 C161 0 186 15 194 32 L194 32 Z M459 259 L386 259 C348 259 329 293 348 328 L396 420 C420 464 477 464 489 419 L514 327 C523 292 496 259 459 259 L459 259 Z M598 858 L515 991 C515 991 511 996 510 997 C490 1014 461 1003 443 986 C423 968 408 938 426 918 C427 917 429 915 549 815 C560 806 579 807 590 817 C602 827 606 846 598 858 L598 858 Z " />
<glyph glyph-name="Aacute" unicode="&#xc1;" horiz-adv-x="803" d="M194 32 L219 80 C228 97 252 112 270 112 L534 112 C551 112 572 97 576 80 L589 32 C594 15 615 0 632 0 L679 0 C717 0 744 33 734 69 L560 701 C555 717 534 732 517 732 L438 732 C420 732 396 717 387 701 L57 69 C38 33 57 0 95 0 L144 0 C161 0 186 15 194 32 L194 32 Z M459 259 L386 259 C348 259 329 293 348 328 L396 420 C420 464 477 464 489 419 L514 327 C523 292 496 259 459 259 L459 259 Z M453 815 C598 915 601 917 602 918 C624 938 618 968 601 986 C587 1003 562 1014 538 997 C537 996 532 991 531 991 L414 857 C404 846 403 827 412 817 C421 807 440 806 453 815 L453 815 Z " />
<glyph glyph-name="Acircumflex" unicode="&#xc2;" horiz-adv-x="803" d="M194 32 L219 80 C228 97 252 112 270 112 L534 112 C551 112 572 97 576 80 L589 32 C594 15 615 0 632 0 L679 0 C717 0 744 33 734 69 L560 701 C555 717 534 732 517 732 L438 732 C420 732 396 717 387 701 L57 69 C38 33 57 0 95 0 L144 0 C161 0 186 15 194 32 L194 32 Z M459 259 L386 259 C348 259 329 293 348 328 L396 420 C420 464 477 464 489 419 L514 327 C523 292 496 259 459 259 L459 259 Z M365 812 C375 801 396 800 410 808 L473 848 C489 859 516 859 530 848 L583 808 C594 800 615 801 628 811 C641 821 645 840 636 851 L552 961 C535 984 501 984 478 961 L368 853 C356 841 355 822 365 812 L365 812 Z " />
<glyph glyph-name="Atilde" unicode="&#xc3;" horiz-adv-x="803" d="M194 32 L219 80 C228 97 252 112 270 112 L534 112 C551 112 572 97 576 80 L589 32 C594 15 615 0 632 0 L679 0 C717 0 744 33 734 69 L560 701 C555 717 534 732 517 732 L438 732 C420 732 396 717 387 701 L57 69 C38 33 57 0 95 0 L144 0 C161 0 186 15 194 32 L194 32 Z M459 259 L386 259 C348 259 329 293 348 328 L396 420 C420 464 477 464 489 419 L514 327 C523 292 496 259 459 259 L459 259 Z M379 850 C380 852 384 885 406 890 C421 894 442 882 474 854 C567 770 711 806 741 936 C747 967 731 983 701 983 L651 983 C643 983 635 976 634 968 L632 952 C627 920 595 918 546 958 C451 1034 320 1020 274 896 C262 862 280 850 315 850 L362 850 C371 850 378 841 379 850 L379 850 Z " />
<glyph glyph-name="Adieresis" unicode="&#xc4;" horiz-adv-x="803" d="M194 32 L219 80 C228 97 252 112 270 112 L534 112 C551 112 572 97 576 80 L589 32 C594 15 615 0 632 0 L679 0 C717 0 744 33 734 69 L560 701 C555 717 534 732 517 732 L438 732 C420 732 396 717 387 701 L57 69 C38 33 57 0 95 0 L144 0 C161 0 186 15 194 32 L194 32 Z M459 259 L386 259 C348 259 329 293 348 328 L396 420 C420 464 477 464 489 419 L514 327 C523 292 496 259 459 259 L459 259 Z M626 844 C666 844 698 872 704 917 C709 962 684 990 644 990 C605 990 572 963 566 916 C561 872 587 844 626 844 L626 844 Z M355 844 C394 844 426 872 432 917 C437 962 412 990 373 990 C334 990 300 963 295 917 C289 872 316 844 355 844 L355 844 Z " />
<glyph glyph-name="Aring" unicode="&#xc5;" horiz-adv-x="803" d="M194 32 L219 80 C228 97 252 112 270 112 L534 112 C551 112 572 97 576 80 L589 32 C594 15 615 0 632 0 L679 0 C717 0 744 33 734 69 L560 701 C555 717 534 732 517 732 L438 732 C420 732 396 717 387 701 L57 69 C38 33 57 0 95 0 L144 0 C161 0 186 15 194 32 L194 32 Z M459 259 L386 259 C348 259 329 293 348 328 L396 420 C420 464 477 464 489 419 L514 327 C523 292 496 259 459 259 L459 259 Z M497 804 C557 804 607 848 616 917 C624 986 584 1030 524 1030 C464 1030 413 988 404 916 C396 848 437 804 497 804 L497 804 Z M505 875 C482 875 468 891 472 917 C475 943 493 958 516 958 C538 958 553 943 550 917 C546 891 527 875 505 875 L505 875 Z " />
<glyph glyph-name="AE" unicode="&#xc6;" horiz-adv-x="998" d="M935 50 L940 87 C943 115 923 137 896 137 L605 137 C577 137 558 159 561 187 L569 253 C572 281 598 303 625 303 L819 303 C847 303 872 325 875 353 L880 389 C883 417 864 439 836 439 L642 439 C614 439 595 461 598 489 L605 546 C608 574 634 596 661 596 L953 596 C981 596 1006 618 1009 646 L1014 682 C1017 710 997 732 970 732 L438 732 C420 732 396 717 387 701 L57 69 C38 33 57 0 95 0 L144 0 C161 0 186 15 194 32 L219 80 C228 97 252 112 270 112 L356 112 C383 112 403 90 400 62 L398 50 C395 22 414 0 442 0 L879 0 C907 0 932 22 935 50 L935 50 Z M374 259 L368 259 C339 259 325 284 339 311 L390 408 C404 435 444 427 441 398 L430 309 C427 281 401 259 374 259 L374 259 Z " />
<glyph glyph-name="Ccedilla" unicode="&#xc7;" horiz-adv-x="756" d="M347 -200 C403 -200 462 -153 470 -91 C474 -57 457 -31 422 -12 C418 -10 422 0 427 1 C499 7 566 29 628 68 C654 84 660 112 643 134 L604 182 C596 193 571 194 558 186 C512 160 463 146 409 146 C275 146 200 235 215 369 C231 498 333 585 462 586 C515 586 561 573 601 547 C613 539 638 540 650 551 L699 598 C722 621 724 649 700 666 C639 710 566 732 480 732 C279 732 89 573 69 368 C42 197 142 52 293 12 C306 8 310 -6 302 -18 C293 -31 297 -46 311 -50 L360 -65 C379 -71 390 -80 389 -93 C387 -108 370 -120 357 -120 C344 -120 334 -111 326 -98 C323 -94 316 -92 311 -94 L273 -111 C259 -118 253 -130 259 -143 C274 -175 305 -200 347 -200 L347 -200 Z " />
<glyph glyph-name="Egrave" unicode="&#xc8;" horiz-adv-x="684" d="M601 50 L606 87 C609 115 589 137 562 137 L272 137 C244 137 225 159 228 187 L236 253 C239 281 265 303 292 303 L485 303 C513 303 538 325 541 353 L546 389 C549 417 530 439 502 439 L309 439 C281 439 262 461 265 489 L272 546 C275 574 301 596 328 596 L619 596 C647 596 672 618 675 646 L680 682 C683 710 663 732 636 732 L198 732 C170 732 145 710 142 682 L64 50 C61 22 80 0 108 0 L545 0 C573 0 598 22 601 50 L601 50 Z M539 857 L455 991 C455 991 451 996 450 997 C430 1014 402 1003 383 986 C363 968 348 938 366 918 C367 917 369 915 490 815 C501 806 520 807 531 817 C543 827 547 846 539 857 L539 857 Z " />
<glyph glyph-name="Eacute" unicode="&#xc9;" horiz-adv-x="684" d="M601 50 L606 87 C609 115 589 137 562 137 L272 137 C244 137 225 159 228 187 L236 253 C239 281 265 303 292 303 L485 303 C513 303 538 325 541 353 L546 389 C549 417 530 439 502 439 L309 439 C281 439 262 461 265 489 L272 546 C275 574 301 596 328 596 L619 596 C647 596 672 618 675 646 L680 682 C683 710 663 732 636 732 L198 732 C170 732 145 710 142 682 L64 50 C61 22 80 0 108 0 L545 0 C573 0 598 22 601 50 L601 50 Z M393 815 C539 915 542 917 543 918 C565 938 558 968 542 986 C527 1003 502 1014 478 997 C477 996 472 991 471 991 L354 857 C344 846 343 827 352 817 C361 807 380 806 393 815 L393 815 Z " />
<glyph glyph-name="Ecircumflex" unicode="&#xca;" horiz-adv-x="684" d="M601 50 L606 87 C609 115 589 137 562 137 L272 137 C244 137 225 159 228 187 L236 253 C239 281 265 303 292 303 L485 303 C513 303 538 325 541 353 L546 389 C549 417 530 439 502 439 L309 439 C281 439 262 461 265 489 L272 546 C275 574 301 596 328 596 L619 596 C647 596 672 618 675 646 L680 682 C683 710 663 732 636 732 L198 732 C170 732 145 710 142 682 L64 50 C61 22 80 0 108 0 L545 0 C573 0 598 22 601 50 L601 50 Z M306 812 C316 801 336 800 350 808 L413 848 C429 859 456 859 470 849 L524 808 C535 799 556 801 569 811 C581 821 585 840 576 851 L492 961 C475 984 441 984 417 961 L309 852 C297 841 295 822 306 812 L306 812 Z " />
<glyph glyph-name="Edieresis" unicode="&#xcb;" horiz-adv-x="684" d="M601 50 L606 87 C609 115 589 137 562 137 L272 137 C244 137 225 159 228 187 L236 253 C239 281 265 303 292 303 L485 303 C513 303 538 325 541 353 L546 389 C549 417 530 439 502 439 L309 439 C281 439 262 461 265 489 L272 546 C275 574 301 596 328 596 L619 596 C647 596 672 618 675 646 L680 682 C683 710 663 732 636 732 L198 732 C170 732 145 710 142 682 L64 50 C61 22 80 0 108 0 L545 0 C573 0 598 22 601 50 L601 50 Z M582 844 C621 844 653 872 659 917 C664 962 639 990 600 990 C560 990 527 963 521 916 C516 872 542 844 582 844 L582 844 Z M310 844 C349 844 381 872 387 917 C392 962 367 990 328 990 C289 990 255 963 250 917 C244 872 271 844 310 844 L310 844 Z " />
<glyph glyph-name="Igrave" unicode="&#xcc;" horiz-adv-x="293" d="M110 0 L156 0 C184 0 209 22 212 50 L290 683 C293 711 274 733 246 733 L200 733 C172 733 147 711 144 683 L66 50 C63 22 82 0 110 0 L110 0 Z M343 858 L260 991 C260 991 256 996 255 997 C235 1014 206 1003 188 986 C168 968 153 938 171 918 C172 917 174 915 294 815 C305 806 324 807 335 817 C347 827 351 846 343 858 L343 858 Z " />
<glyph glyph-name="Iacute" unicode="&#xcd;" horiz-adv-x="293" d="M110 0 L156 0 C184 0 209 22 212 50 L290 683 C293 711 274 733 246 733 L200 733 C172 733 147 711 144 683 L66 50 C63 22 82 0 110 0 L110 0 Z M198 815 C343 915 346 917 347 918 C369 938 363 968 347 986 C332 1003 307 1014 283 997 C282 996 277 991 276 991 L159 857 C149 846 148 827 157 817 C166 807 185 806 198 815 L198 815 Z " />
<glyph glyph-name="Icircumflex" unicode="&#xce;" horiz-adv-x="293" d="M110 0 L156 0 C184 0 209 22 212 50 L290 683 C293 711 274 733 246 733 L200 733 C172 733 147 711 144 683 L66 50 C63 22 82 0 110 0 L110 0 Z M110 812 C120 801 141 800 155 808 L218 848 C234 859 261 859 275 848 L328 808 C339 800 360 801 373 811 C386 821 390 840 381 851 L297 961 C280 984 246 984 223 961 L113 853 C101 841 100 822 110 812 L110 812 Z " />
<glyph glyph-name="Idieresis" unicode="&#xcf;" horiz-adv-x="293" d="M110 0 L156 0 C184 0 209 22 212 50 L290 683 C293 711 274 733 246 733 L200 733 C172 733 147 711 144 683 L66 50 C63 22 82 0 110 0 L110 0 Z M377 844 C416 844 448 872 454 917 C459 962 434 990 395 990 C356 990 322 963 316 916 C311 872 338 844 377 844 L377 844 Z M105 844 C145 844 177 872 183 917 C188 962 163 990 123 990 C84 990 51 963 46 917 C40 872 66 844 105 844 L105 844 Z " />
<glyph glyph-name="Eth" unicode="&#xd0;" horiz-adv-x="781" d="M342 0 C570 0 699 122 729 366 C759 611 660 733 432 733 L200 733 C172 733 147 711 144 683 L115 452 C113 429 92 411 70 411 C48 411 27 393 24 371 L23 355 C20 332 36 314 58 314 C80 314 96 296 94 274 L66 50 C63 22 82 0 110 0 L342 0 L342 0 Z M231 196 L241 277 C243 297 262 314 283 314 C304 314 323 331 325 352 L328 374 C330 394 316 411 295 411 C274 411 260 428 262 449 L273 536 C276 564 301 586 329 586 L414 586 C544 586 600 513 583 366 C564 220 490 146 360 146 L275 146 C247 146 228 168 231 196 L231 196 Z " />
<glyph glyph-name="Ntilde" unicode="&#xd1;" horiz-adv-x="806" d="M213 50 L255 389 C261 436 317 458 345 423 L571 147 C575 142 581 121 580 113 L572 50 C569 22 588 0 616 0 L664 0 C692 0 717 22 720 50 L798 682 C801 710 781 732 754 732 L708 732 C680 732 655 710 652 682 L627 478 C621 430 565 409 536 444 L310 716 C305 723 284 732 275 732 L200 732 C172 732 147 710 144 682 L66 50 C63 22 82 0 110 0 L157 0 C185 0 210 22 213 50 L213 50 Z M376 850 C377 852 381 885 403 890 C418 894 440 882 471 854 C564 770 708 806 738 936 C745 967 729 983 699 983 L648 983 C640 983 632 976 631 968 L629 952 C624 920 592 918 543 958 C449 1034 317 1020 271 896 C259 862 277 850 312 850 L359 850 C368 850 375 841 376 850 L376 850 Z " />
<glyph glyph-name="Ograve" unicode="&#xd2;" horiz-adv-x="804" d="M68 366 C43 160 182 0 389 0 C596 0 775 159 800 366 C825 573 686 732 479 732 C272 732 93 573 68 366 L68 366 Z M407 137 C275 137 198 238 214 366 C230 494 331 596 462 596 C593 596 670 494 654 366 C638 239 537 137 407 137 L407 137 Z M599 858 L516 991 C516 991 512 996 511 997 C491 1014 462 1003 444 986 C424 968 409 938 427 918 C428 917 430 915 550 815 C561 806 580 807 591 817 C603 827 607 846 599 858 L599 858 Z " />
<glyph glyph-name="Oacute" unicode="&#xd3;" horiz-adv-x="804" d="M68 366 C43 160 182 0 389 0 C596 0 775 159 800 366 C825 573 686 732 479 732 C272 732 93 573 68 366 L68 366 Z M407 137 C275 137 198 238 214 366 C230 494 331 596 462 596 C593 596 670 494 654 366 C638 239 537 137 407 137 L407 137 Z M454 815 C599 915 602 917 603 918 C625 938 619 968 602 986 C588 1003 563 1014 539 997 C538 996 533 991 532 991 L415 857 C405 846 404 827 413 817 C422 807 441 806 454 815 L454 815 Z " />
<glyph glyph-name="Ocircumflex" unicode="&#xd4;" horiz-adv-x="804" d="M68 366 C43 160 182 0 389 0 C596 0 775 159 800 366 C825 573 686 732 479 732 C272 732 93 573 68 366 L68 366 Z M407 137 C275 137 198 238 214 366 C230 494 331 596 462 596 C593 596 670 494 654 366 C638 239 537 137 407 137 L407 137 Z M366 812 C376 801 396 800 410 808 L473 848 C489 859 516 859 530 849 L584 808 C595 799 616 801 629 811 C641 821 645 840 636 851 L552 961 C535 984 501 984 477 961 L369 852 C357 841 355 822 366 812 L366 812 Z " />
<glyph glyph-name="Otilde" unicode="&#xd5;" horiz-adv-x="804" d="M68 366 C43 160 182 0 389 0 C596 0 775 159 800 366 C825 573 686 732 479 732 C272 732 93 573 68 366 L68 366 Z M407 137 C275 137 198 238 214 366 C230 494 331 596 462 596 C593 596 670 494 654 366 C638 239 537 137 407 137 L407 137 Z M380 850 C381 852 385 885 407 890 C422 894 443 882 475 854 C568 770 712 806 742 936 C748 967 732 983 702 983 L652 983 C644 983 636 976 635 968 L633 952 C628 920 596 918 547 958 C452 1034 321 1020 275 896 C263 862 281 850 316 850 L363 850 C372 850 379 841 380 850 L380 850 Z " />
<glyph glyph-name="Odieresis" unicode="&#xd6;" horiz-adv-x="804" d="M68 366 C43 160 182 0 389 0 C596 0 775 159 800 366 C825 573 686 732 479 732 C272 732 93 573 68 366 L68 366 Z M407 137 C275 137 198 238 214 366 C230 494 331 596 462 596 C593 596 670 494 654 366 C638 239 537 137 407 137 L407 137 Z M627 844 C666 844 699 872 705 917 C710 962 684 990 645 990 C606 990 573 963 567 916 C562 872 588 844 627 844 L627 844 Z M356 844 C395 844 427 872 433 917 C438 962 413 990 374 990 C335 990 301 963 296 917 C290 872 317 844 356 844 L356 844 Z " />
<glyph glyph-name="multiply" unicode="&#xd7;" horiz-adv-x="541" d="M409 385 L491 458 C508 474 511 499 498 514 C484 529 460 530 442 514 L360 441 C339 421 307 421 290 440 L225 514 C211 530 187 529 170 514 C153 499 150 474 163 458 L227 385 C244 366 240 334 218 315 L136 241 C119 226 116 202 129 187 C143 171 167 171 184 186 L268 260 C289 279 321 279 338 260 L402 186 C416 171 440 171 457 187 C474 202 477 226 464 242 L400 315 C383 334 387 366 409 385 L409 385 Z " />
<glyph glyph-name="Oslash" unicode="&#xd8;" horiz-adv-x="804" d="M329 4 C348 1 368 0 389 0 C596 0 775 159 800 366 C816 494 768 604 681 669 C665 681 661 710 671 730 L674 737 C686 761 673 784 647 784 L620 784 C604 784 581 770 574 754 L565 736 C562 730 552 725 546 726 C524 730 502 732 479 732 C272 732 93 573 68 366 C52 236 102 124 193 59 C209 47 214 17 205 -2 L202 -9 C190 -33 203 -56 230 -56 L254 -56 C271 -56 295 -41 302 -25 L312 -5 C315 1 323 5 329 4 L329 4 Z M462 596 C472 596 481 595 490 594 C493 593 494 591 492 588 L306 205 C295 184 276 179 262 195 C224 237 206 298 214 366 C230 494 331 596 462 596 L462 596 Z M407 137 C399 137 393 137 386 138 C384 138 383 140 384 142 L569 523 C579 543 597 547 611 532 C646 490 662 431 654 366 C638 239 537 137 407 137 L407 137 Z " />
<glyph glyph-name="Ugrave" unicode="&#xd9;" horiz-adv-x="782" d="M133 682 L82 269 C62 102 206 0 366 0 C527 0 697 102 717 269 L768 682 C771 710 751 732 724 732 L677 732 C649 732 624 710 621 682 L575 308 C562 200 485 146 384 146 C283 146 220 200 233 308 L279 682 C282 710 262 732 235 732 L189 732 C161 732 136 710 133 682 L133 682 Z M505 857 L421 991 C421 991 417 996 416 997 C396 1014 368 1003 350 986 C329 968 315 938 333 918 C334 917 336 915 456 815 C467 806 486 807 497 817 C509 827 513 846 505 857 L505 857 Z " />
<glyph glyph-name="Uacute" unicode="&#xda;" horiz-adv-x="782" d="M133 682 L82 269 C62 102 206 0 366 0 C527 0 697 102 717 269 L768 682 C771 710 751 732 724 732 L677 732 C649 732 624 710 621 682 L575 308 C562 200 485 146 384 146 C283 146 220 200 233 308 L279 682 C282 710 262 732 235 732 L189 732 C161 732 136 710 133 682 L133 682 Z M521 815 C666 915 669 917 670 918 C692 938 685 968 669 986 C655 1003 629 1014 605 997 C604 996 599 991 598 991 L482 858 C472 846 471 827 480 817 C489 807 508 806 521 815 L521 815 Z " />
<glyph glyph-name="Ucircumflex" unicode="&#xdb;" horiz-adv-x="782" d="M133 682 L82 269 C62 102 206 0 366 0 C527 0 697 102 717 269 L768 682 C771 710 751 732 724 732 L677 732 C649 732 624 710 621 682 L575 308 C562 200 485 146 384 146 C283 146 220 200 233 308 L279 682 C282 710 262 732 235 732 L189 732 C161 732 136 710 133 682 L133 682 Z M335 812 C345 801 365 799 379 808 L443 849 C459 859 486 859 499 848 L553 808 C564 800 585 801 598 811 C611 821 615 840 606 851 L522 961 C505 984 471 984 448 961 L338 852 C326 841 324 822 335 812 L335 812 Z " />
<glyph glyph-name="Udieresis" unicode="&#xdc;" horiz-adv-x="782" d="M133 682 L82 269 C62 102 206 0 366 0 C527 0 697 102 717 269 L768 682 C771 710 751 732 724 732 L677 732 C649 732 624 710 621 682 L575 308 C562 200 485 146 384 146 C283 146 220 200 233 308 L279 682 C282 710 262 732 235 732 L189 732 C161 732 136 710 133 682 L133 682 Z M606 844 C646 844 678 872 684 917 C689 962 664 990 624 990 C585 990 552 963 546 916 C541 872 567 844 606 844 L606 844 Z M335 844 C374 844 406 872 412 917 C417 962 392 990 353 990 C314 990 280 963 275 917 C269 872 296 844 335 844 L335 844 Z " />
<glyph glyph-name="Yacute" unicode="&#xdd;" horiz-adv-x="749" d="M329 350 L292 50 C289 22 308 0 336 0 L382 0 C410 0 435 22 438 50 L475 350 C476 355 485 375 488 379 L733 664 C759 694 744 732 707 732 L648 732 C637 732 613 721 605 711 L467 549 C442 520 404 520 386 550 L291 711 C286 720 265 732 253 732 L193 732 C155 732 130 694 149 663 L323 379 C325 375 330 355 329 350 L329 350 Z M509 815 C655 915 657 917 658 918 C680 938 674 968 658 986 C643 1003 618 1014 594 997 C593 996 588 991 587 991 L470 857 C460 846 459 827 468 817 C477 807 496 806 509 815 L509 815 Z " />
<glyph glyph-name="germandbls" unicode="&#xdf;" horiz-adv-x="696" d="M640 516 C660 678 550 748 425 748 C301 748 171 673 151 516 L150 509 C150 504 146 501 142 501 L113 501 C93 501 75 485 72 465 L67 428 C65 407 79 391 100 391 C120 391 134 375 132 355 L94 50 C91 22 110 0 138 0 L175 0 C203 0 228 22 231 50 L286 494 C294 563 324 628 410 628 C478 628 504 572 501 509 C501 503 494 486 489 481 C427 405 398 408 391 354 C379 255 517 240 510 178 C505 139 457 129 398 127 C378 126 357 108 355 89 L346 16 C345 10 348 4 354 3 C371 1 387 0 401 0 C514 0 633 50 648 167 C664 301 545 328 540 360 C536 383 628 439 640 516 L640 516 Z " />
<glyph glyph-name="agrave" unicode="&#xe0;" horiz-adv-x="583" d="M432 468 L432 464 C431 458 424 454 420 458 C400 475 368 485 328 488 C188 495 70 375 54 244 C37 107 127 0 268 0 C298 0 329 9 362 28 C370 33 378 28 377 20 C376 9 384 0 395 0 L457 0 C485 0 510 22 513 50 L561 437 C564 465 545 487 517 487 L455 488 C444 488 434 479 432 468 L432 468 Z M282 113 C206 113 164 170 173 243 C182 316 238 374 313 374 C388 374 432 316 423 243 C414 170 356 113 282 113 L282 113 Z M459 613 L375 747 C375 747 371 752 370 753 C351 770 322 759 303 742 C283 724 269 694 287 674 C287 672 290 670 410 571 C421 562 440 563 451 573 C463 583 467 602 459 613 L459 613 Z " />
<glyph glyph-name="aacute" unicode="&#xe1;" horiz-adv-x="583" d="M432 468 L432 464 C431 458 424 454 420 458 C400 475 368 485 328 488 C188 495 70 375 54 244 C37 107 127 0 268 0 C298 0 329 9 362 28 C370 33 378 28 377 20 C376 9 384 0 395 0 L457 0 C485 0 510 22 513 50 L561 437 C564 465 545 487 517 487 L455 488 C444 488 434 479 432 468 L432 468 Z M282 113 C206 113 164 170 173 243 C182 316 238 374 313 374 C388 374 432 316 423 243 C414 170 356 113 282 113 L282 113 Z M314 571 C459 670 462 672 463 674 C485 694 478 724 462 742 C448 759 422 770 398 753 C397 752 392 747 391 747 L275 614 C265 602 264 583 273 573 C282 563 301 562 314 571 L314 571 Z " />
<glyph glyph-name="acircumflex" unicode="&#xe2;" horiz-adv-x="583" d="M432 468 L432 464 C431 458 424 454 420 458 C400 475 368 485 328 488 C188 495 70 375 54 244 C37 107 127 0 268 0 C298 0 329 9 362 28 C370 33 378 28 377 20 C376 9 384 0 395 0 L457 0 C485 0 510 22 513 50 L561 437 C564 465 545 487 517 487 L455 488 C444 488 434 479 432 468 L432 468 Z M282 113 C206 113 164 170 173 243 C182 316 238 374 313 374 C388 374 432 316 423 243 C414 170 356 113 282 113 L282 113 Z M225 567 C235 557 256 556 270 564 L333 604 C349 615 376 615 390 604 L443 564 C454 556 475 557 488 567 C501 577 505 596 496 607 L412 717 C395 740 361 740 338 717 L228 607 C216 596 215 577 225 567 L225 567 Z " />
<glyph glyph-name="atilde" unicode="&#xe3;" horiz-adv-x="583" d="M432 468 L432 464 C431 458 424 454 420 458 C400 475 368 485 328 488 C188 495 70 375 54 244 C37 107 127 0 268 0 C298 0 329 9 362 28 C370 33 378 28 377 20 C376 9 384 0 395 0 L457 0 C485 0 510 22 513 50 L561 437 C564 465 545 487 517 487 L455 488 C444 488 434 479 432 468 L432 468 Z M282 113 C206 113 164 170 173 243 C182 316 238 374 313 374 C388 374 432 316 423 243 C414 170 356 113 282 113 L282 113 Z M240 605 C241 607 245 641 266 646 C281 649 303 638 335 609 C428 526 573 562 602 692 C608 723 592 739 562 739 L512 739 C504 739 496 732 495 724 L493 708 C487 676 456 674 406 714 C312 790 181 776 135 651 C123 618 141 605 175 605 L222 605 C232 605 239 595 240 605 L240 605 Z " />
<glyph glyph-name="adieresis" unicode="&#xe4;" horiz-adv-x="583" d="M432 468 L432 464 C431 458 424 454 420 458 C400 475 368 485 328 488 C188 495 70 375 54 244 C37 107 127 0 268 0 C298 0 329 9 362 28 C370 33 378 28 377 20 C376 9 384 0 395 0 L457 0 C485 0 510 22 513 50 L561 437 C564 465 545 487 517 487 L455 488 C444 488 434 479 432 468 L432 468 Z M282 113 C206 113 164 170 173 243 C182 316 238 374 313 374 C388 374 432 316 423 243 C414 170 356 113 282 113 L282 113 Z M487 600 C526 600 558 628 564 673 C569 718 544 746 505 746 C466 746 432 719 427 672 C421 627 448 600 487 600 L487 600 Z M216 600 C255 600 287 628 293 673 C298 718 273 746 234 746 C195 746 161 719 156 672 C150 628 177 600 216 600 L216 600 Z " />
<glyph glyph-name="aring" unicode="&#xe5;" horiz-adv-x="583" d="M432 468 L432 464 C431 458 424 454 420 458 C400 475 368 485 328 488 C188 495 70 375 54 244 C37 107 127 0 268 0 C298 0 329 9 362 28 C370 33 378 28 377 20 C376 9 384 0 395 0 L457 0 C485 0 510 22 513 50 L561 437 C564 465 545 487 517 487 L455 488 C444 488 434 479 432 468 L432 468 Z M282 113 C206 113 164 170 173 243 C182 316 238 374 313 374 C388 374 432 316 423 243 C414 170 356 113 282 113 L282 113 Z M361 560 C421 560 471 604 480 673 C488 742 449 786 389 786 C328 786 277 744 269 672 C260 604 300 560 361 560 L361 560 Z M369 631 C346 631 331 647 335 672 C338 699 357 714 380 714 C401 714 416 699 413 673 C409 647 390 631 369 631 L369 631 Z " />
<glyph glyph-name="ae" unicode="&#xe6;" horiz-adv-x="867" d="M176 361 C239 382 383 392 375 317 L374 310 C374 307 370 304 368 306 C331 322 290 327 259 327 C142 327 56 262 43 151 C31 54 89 0 219 0 C294 0 350 23 392 46 C401 51 420 51 427 45 C464 16 512 0 569 0 C639 0 699 16 749 50 C768 63 771 82 757 97 L723 136 C717 143 699 144 689 139 C656 121 621 112 583 112 C542 112 505 133 494 170 C489 186 499 195 517 195 L803 195 C817 195 829 206 831 220 L834 244 C851 385 773 488 629 488 C577 488 529 476 488 452 C479 447 456 449 450 454 C421 476 382 488 333 488 C265 488 204 478 147 453 C125 444 118 423 128 404 L146 370 C149 363 168 358 176 361 L176 361 Z M346 133 C327 113 290 103 247 103 C188 103 157 127 161 166 C166 205 204 234 263 234 C304 234 338 225 354 207 C359 202 360 193 359 185 L355 154 C354 147 351 138 346 133 L346 133 Z M615 376 C655 376 695 356 703 319 C707 300 696 293 676 293 L535 293 C515 293 506 300 515 319 C532 356 576 376 615 376 L615 376 Z " />
<glyph glyph-name="ccedilla" unicode="&#xe7;" horiz-adv-x="496" d="M232 -200 C288 -200 347 -153 355 -91 C359 -59 343 -33 310 -15 C306 -12 310 -2 315 -1 C357 6 396 23 429 46 C445 57 448 74 437 86 L390 140 C385 146 372 145 366 140 C343 123 315 113 283 113 C208 113 165 170 174 244 C183 316 240 375 315 375 C346 375 372 364 391 347 C397 342 409 341 415 347 L473 399 C489 413 491 431 476 443 C438 475 388 493 331 493 C189 493 68 385 51 244 C38 136 90 46 180 11 C192 7 194 -8 187 -19 C178 -31 182 -45 195 -50 L245 -65 C264 -71 276 -80 275 -93 C273 -108 256 -120 242 -120 C229 -120 219 -111 211 -98 C208 -94 201 -92 196 -94 L158 -111 C144 -118 138 -130 144 -143 C159 -175 190 -200 232 -200 L232 -200 Z " />
<glyph glyph-name="egrave" unicode="&#xe8;" horiz-adv-x="560" d="M53 244 C36 102 125 0 267 0 C337 0 396 16 446 50 C465 63 468 82 454 98 L421 136 C415 143 397 144 387 139 C354 121 318 112 281 112 C240 112 203 133 192 170 C187 186 197 195 215 195 L500 195 C514 195 526 206 528 220 L531 244 C548 385 471 488 327 488 C185 488 71 387 53 244 L53 244 Z M447 614 L364 747 C364 747 360 752 359 753 C339 770 310 759 292 742 C272 724 257 694 275 674 C275 672 278 670 398 571 C409 562 428 563 439 573 C451 583 455 602 447 614 L447 614 Z M313 376 C353 376 393 356 401 319 C405 300 394 293 374 293 L232 293 C212 293 203 300 212 319 C229 356 274 376 313 376 L313 376 Z " />
<glyph glyph-name="eacute" unicode="&#xe9;" horiz-adv-x="560" d="M53 244 C36 102 125 0 267 0 C337 0 396 16 446 50 C465 63 468 82 454 98 L421 136 C415 143 397 144 387 139 C354 121 318 112 281 112 C240 112 203 133 192 170 C187 186 197 195 215 195 L500 195 C514 195 526 206 528 220 L531 244 C548 385 471 488 327 488 C185 488 71 387 53 244 L53 244 Z M302 571 C447 670 450 672 451 674 C473 694 466 724 450 742 C436 759 410 770 387 753 C386 753 381 748 381 747 L263 613 C253 602 252 583 261 573 C270 563 289 562 302 571 L302 571 Z M313 376 C353 376 393 356 401 319 C405 300 394 293 374 293 L232 293 C212 293 203 300 212 319 C229 356 274 376 313 376 L313 376 Z " />
<glyph glyph-name="ecircumflex" unicode="&#xea;" horiz-adv-x="560" d="M53 244 C36 102 125 0 267 0 C337 0 396 16 446 50 C465 63 468 82 454 98 L421 136 C415 143 397 144 387 139 C354 121 318 112 281 112 C240 112 203 133 192 170 C187 186 197 195 215 195 L500 195 C514 195 526 206 528 220 L531 244 C548 385 471 488 327 488 C185 488 71 387 53 244 L53 244 Z M313 376 C353 376 393 356 401 319 C405 300 394 293 374 293 L232 293 C212 293 203 300 212 319 C229 356 274 376 313 376 L313 376 Z M214 567 C224 557 244 555 258 564 L321 604 C337 615 364 615 378 605 L432 564 C443 555 464 557 477 567 C489 577 493 596 484 607 L401 717 C383 740 349 740 326 716 L216 607 C204 596 203 577 214 567 L214 567 Z " />
<glyph glyph-name="edieresis" unicode="&#xeb;" horiz-adv-x="560" d="M53 244 C36 102 125 0 267 0 C337 0 396 16 446 50 C465 63 468 82 454 98 L421 136 C415 143 397 144 387 139 C354 121 318 112 281 112 C240 112 203 133 192 170 C187 186 197 195 215 195 L500 195 C514 195 526 206 528 220 L531 244 C548 385 471 488 327 488 C185 488 71 387 53 244 L53 244 Z M313 376 C353 376 393 356 401 319 C405 300 394 293 374 293 L232 293 C212 293 203 300 212 319 C229 356 274 376 313 376 L313 376 Z M490 600 C529 600 561 628 567 673 C572 718 547 746 508 746 C469 746 435 719 430 672 C424 627 451 600 490 600 L490 600 Z M219 600 C258 600 290 628 296 673 C301 718 276 746 237 746 C197 746 164 719 159 672 C153 628 179 600 219 600 L219 600 Z " />
<glyph glyph-name="igrave" unicode="&#xec;" horiz-adv-x="256" d="M192 50 L240 439 C243 467 224 489 196 489 L159 489 C131 489 106 467 103 439 L55 50 C52 22 71 0 99 0 L136 0 C164 0 189 22 192 50 L192 50 Z M295 613 L211 747 C211 747 207 752 206 753 C187 770 158 759 139 742 C119 724 105 694 123 674 C123 672 125 670 246 571 C257 562 276 563 287 573 C299 583 303 602 295 613 L295 613 Z " />
<glyph glyph-name="iacute" unicode="&#xed;" horiz-adv-x="256" d="M192 50 L240 439 C243 467 224 489 196 489 L159 489 C131 489 106 467 103 439 L55 50 C52 22 71 0 99 0 L136 0 C164 0 189 22 192 50 L192 50 Z M150 571 C295 670 298 672 299 674 C321 694 314 724 298 742 C283 759 258 770 234 753 C233 752 228 747 227 747 L111 614 C101 602 100 583 109 573 C118 563 137 562 150 571 L150 571 Z " />
<glyph glyph-name="icircumflex" unicode="&#xee;" horiz-adv-x="256" d="M192 50 L240 439 C243 467 224 489 196 489 L159 489 C131 489 106 467 103 439 L55 50 C52 22 71 0 99 0 L136 0 C164 0 189 22 192 50 L192 50 Z M62 567 C72 557 92 555 106 564 L170 605 C186 615 213 615 227 604 L280 564 C291 555 312 557 325 567 C337 577 341 596 332 607 L249 716 C232 740 198 740 174 717 L64 607 C53 596 51 577 62 567 L62 567 Z " />
<glyph glyph-name="idieresis" unicode="&#xef;" horiz-adv-x="256" d="M192 50 L240 439 C243 467 224 489 196 489 L159 489 C131 489 106 467 103 439 L55 50 C52 22 71 0 99 0 L136 0 C164 0 189 22 192 50 L192 50 Z M338 600 C377 600 410 628 416 673 C421 718 395 746 356 746 C317 746 283 719 278 672 C272 627 299 600 338 600 L338 600 Z M67 600 C106 600 138 628 144 673 C149 718 124 746 85 746 C46 746 12 719 7 672 C1 628 28 600 67 600 L67 600 Z " />
<glyph glyph-name="ntilde" unicode="&#xf1;" horiz-adv-x="559" d="M231 322 C253 353 276 370 301 373 C301 373 307 373 308 373 C371 369 396 331 388 269 L361 50 C358 22 377 0 405 0 L442 0 C470 0 495 22 498 50 L529 303 C542 411 475 488 362 488 C324 488 290 478 259 458 C251 453 241 458 242 466 L242 467 C244 479 235 489 223 489 L158 489 C130 489 105 467 102 439 L54 50 C51 22 70 0 98 0 L135 0 C163 0 188 22 191 50 L222 299 C222 303 228 319 231 322 L231 322 Z M228 605 C229 607 233 641 254 646 C269 649 291 638 323 609 C416 526 560 562 589 692 C596 723 580 739 550 739 L500 739 C492 739 484 732 483 724 L481 708 C475 676 444 674 394 714 C300 790 168 776 123 651 C111 618 129 605 163 605 L210 605 C220 605 227 595 228 605 L228 605 Z " />
<glyph glyph-name="ograve" unicode="&#xf2;" horiz-adv-x="562" d="M51 244 C34 104 127 -5 269 -5 C410 -5 532 103 549 244 C566 385 472 493 331 493 C189 493 68 385 51 244 L51 244 Z M283 113 C208 113 165 170 174 244 C183 316 240 375 315 375 C390 375 433 317 424 244 C415 170 358 113 283 113 L283 113 Z M448 614 L365 747 C365 747 361 752 360 753 C340 770 311 759 293 742 C273 724 258 694 276 674 C276 672 279 670 399 571 C410 562 429 563 440 573 C452 583 456 602 448 614 L448 614 Z " />
<glyph glyph-name="oacute" unicode="&#xf3;" horiz-adv-x="562" d="M51 244 C34 104 127 -5 269 -5 C410 -5 532 103 549 244 C566 385 472 493 331 493 C189 493 68 385 51 244 L51 244 Z M283 113 C208 113 165 170 174 244 C183 316 240 375 315 375 C390 375 433 317 424 244 C415 170 358 113 283 113 L283 113 Z M303 571 C448 670 451 672 452 674 C474 694 467 724 451 742 C437 759 411 770 388 753 C387 753 382 748 382 747 L264 613 C254 602 253 583 262 573 C271 563 290 562 303 571 L303 571 Z " />
<glyph glyph-name="ocircumflex" unicode="&#xf4;" horiz-adv-x="562" d="M51 244 C34 104 127 -5 269 -5 C410 -5 532 103 549 244 C566 385 472 493 331 493 C189 493 68 385 51 244 L51 244 Z M283 113 C208 113 165 170 174 244 C183 316 240 375 315 375 C390 375 433 317 424 244 C415 170 358 113 283 113 L283 113 Z M215 567 C225 557 246 556 260 564 L323 604 C339 615 366 615 380 604 L433 564 C444 556 465 557 478 567 C491 577 495 596 486 607 L402 717 C385 740 351 740 328 717 L218 607 C206 596 205 577 215 567 L215 567 Z " />
<glyph glyph-name="otilde" unicode="&#xf5;" horiz-adv-x="562" d="M51 244 C34 104 127 -5 269 -5 C410 -5 532 103 549 244 C566 385 472 493 331 493 C189 493 68 385 51 244 L51 244 Z M283 113 C208 113 165 170 174 244 C183 316 240 375 315 375 C390 375 433 317 424 244 C415 170 358 113 283 113 L283 113 Z M229 605 C230 607 234 641 256 646 C270 649 292 638 324 609 C417 526 562 562 591 692 C597 723 581 739 551 739 L501 739 C493 739 485 732 484 724 L482 708 C477 676 445 674 396 714 C301 790 170 776 124 651 C112 618 130 605 164 605 L211 605 C221 605 228 595 229 605 L229 605 Z " />
<glyph glyph-name="odieresis" unicode="&#xf6;" horiz-adv-x="562" d="M51 244 C34 104 127 -5 269 -5 C410 -5 532 103 549 244 C566 385 472 493 331 493 C189 493 68 385 51 244 L51 244 Z M283 113 C208 113 165 170 174 244 C183 316 240 375 315 375 C390 375 433 317 424 244 C415 170 358 113 283 113 L283 113 Z M491 600 C530 600 562 628 568 673 C573 718 548 746 509 746 C470 746 436 719 431 672 C425 627 452 600 491 600 L491 600 Z M220 600 C259 600 291 628 297 673 C302 718 277 746 238 746 C198 746 165 719 160 672 C154 628 180 600 220 600 L220 600 Z " />
<glyph glyph-name="divide" unicode="&#xf7;" horiz-adv-x="541" d="M545 350 C548 372 532 389 511 389 L126 389 C104 389 85 372 82 350 C79 328 95 311 116 311 L501 311 C523 311 542 328 545 350 L545 350 Z M258 517 C254 478 279 449 324 449 C368 449 401 478 405 517 C410 556 386 586 340 586 C295 586 263 556 258 517 L258 517 Z M216 175 C212 136 237 107 282 107 C326 107 359 136 363 175 C368 214 344 244 298 244 C253 244 221 214 216 175 L216 175 Z " />
<glyph glyph-name="oslash" unicode="&#xf8;" horiz-adv-x="562" d="M226 -1 C240 -4 254 -5 269 -5 C406 -5 531 100 549 244 C559 326 530 399 476 444 C463 454 454 485 461 501 C470 519 461 536 441 536 L427 536 C414 536 396 524 390 512 L383 496 C381 492 374 489 370 490 C357 492 344 493 331 493 C193 493 69 389 51 244 C41 163 68 91 122 46 C135 35 143 3 135 -13 L134 -14 C125 -33 135 -50 155 -50 L166 -50 C180 -50 199 -38 205 -25 L213 -8 C215 -4 221 -1 226 -1 L226 -1 Z M280 113 L278 114 C275 114 274 116 275 119 L378 331 C383 341 394 344 400 335 C419 312 428 279 424 244 C415 174 358 113 283 113 C283 113 281 113 280 113 L280 113 Z M318 375 L319 375 C321 374 322 372 321 370 L217 156 C212 146 202 144 196 152 C178 175 169 207 174 244 C182 310 237 372 309 375 C310 375 318 375 318 375 L318 375 Z " />
<glyph glyph-name="ugrave" unicode="&#xf9;" horiz-adv-x="549" d="M357 163 C335 134 312 119 287 116 C287 116 281 116 280 116 C217 120 191 157 199 220 L226 439 C229 467 210 489 182 489 L146 489 C118 489 93 467 90 439 L59 186 C46 78 113 0 226 0 C263 0 298 10 329 30 C337 35 347 31 346 22 L346 22 C344 10 353 0 365 0 L430 0 C458 0 483 22 486 50 L534 439 C537 467 518 489 490 489 L453 489 C425 489 400 467 397 439 L366 186 C365 182 360 166 357 163 L357 163 Z M442 613 L358 747 C358 747 354 752 353 753 C334 770 305 759 286 742 C266 724 252 694 270 674 C270 672 272 670 393 571 C404 562 423 563 434 573 C446 583 450 602 442 613 L442 613 Z " />
<glyph glyph-name="uacute" unicode="&#xfa;" horiz-adv-x="549" d="M357 163 C335 134 312 119 287 116 C287 116 281 116 280 116 C217 120 191 157 199 220 L226 439 C229 467 210 489 182 489 L146 489 C118 489 93 467 90 439 L59 186 C46 78 113 0 226 0 C263 0 298 10 329 30 C337 35 347 31 346 22 L346 22 C344 10 353 0 365 0 L430 0 C458 0 483 22 486 50 L534 439 C537 467 518 489 490 489 L453 489 C425 489 400 467 397 439 L366 186 C365 182 360 166 357 163 L357 163 Z M297 571 C442 670 445 672 446 674 C468 694 461 724 445 742 C430 759 405 770 381 753 C380 752 375 747 374 747 L258 614 C248 602 247 583 256 573 C265 563 284 562 297 571 L297 571 Z " />
<glyph glyph-name="ucircumflex" unicode="&#xfb;" horiz-adv-x="549" d="M357 163 C335 134 312 119 287 116 C287 116 281 116 280 116 C217 120 191 157 199 220 L226 439 C229 467 210 489 182 489 L146 489 C118 489 93 467 90 439 L59 186 C46 78 113 0 226 0 C263 0 298 10 329 30 C337 35 347 31 346 22 L346 22 C344 10 353 0 365 0 L430 0 C458 0 483 22 486 50 L534 439 C537 467 518 489 490 489 L453 489 C425 489 400 467 397 439 L366 186 C365 182 360 166 357 163 L357 163 Z M208 567 C218 557 239 556 253 564 L316 604 C332 615 359 615 373 604 L426 564 C437 556 458 557 471 567 C484 577 488 596 479 607 L395 717 C378 740 344 740 321 717 L211 607 C199 596 198 577 208 567 L208 567 Z " />
<glyph glyph-name="udieresis" unicode="&#xfc;" horiz-adv-x="549" d="M357 163 C335 134 312 119 287 116 C287 116 281 116 280 116 C217 120 191 157 199 220 L226 439 C229 467 210 489 182 489 L146 489 C118 489 93 467 90 439 L59 186 C46 78 113 0 226 0 C263 0 298 10 329 30 C337 35 347 31 346 22 L346 22 C344 10 353 0 365 0 L430 0 C458 0 483 22 486 50 L534 439 C537 467 518 489 490 489 L453 489 C425 489 400 467 397 439 L366 186 C365 182 360 166 357 163 L357 163 Z M485 600 C524 600 556 628 562 673 C567 718 542 746 503 746 C464 746 430 719 425 672 C419 627 446 600 485 600 L485 600 Z M213 600 C252 600 285 628 291 673 C296 718 270 746 231 746 C192 746 158 719 153 672 C147 628 174 600 213 600 L213 600 Z " />
<glyph glyph-name="yacute" unicode="&#xfd;" horiz-adv-x="551" d="M228 -179 L544 424 C561 457 544 488 508 488 L473 488 C456 488 431 472 423 456 L347 306 C324 261 265 261 253 306 L215 456 C211 472 190 488 172 488 L137 488 C101 488 75 457 83 423 L178 17 C179 11 176 -11 173 -17 L108 -147 C92 -179 109 -210 144 -210 L177 -210 C195 -210 219 -195 228 -179 L228 -179 Z M297 571 C442 670 445 672 446 674 C468 694 462 724 445 742 C431 759 406 770 382 753 C381 752 376 747 375 747 L258 613 C248 602 247 583 256 573 C265 563 284 562 297 571 L297 571 Z " />
<glyph glyph-name="ydieresis" unicode="&#xff;" horiz-adv-x="551" d="M228 -179 L544 424 C561 457 544 488 508 488 L473 488 C456 488 431 472 423 456 L347 306 C324 261 265 261 253 306 L215 456 C211 472 190 488 172 488 L137 488 C101 488 75 457 83 423 L178 17 C179 11 176 -11 173 -17 L108 -147 C92 -179 109 -210 144 -210 L177 -210 C195 -210 219 -195 228 -179 L228 -179 Z M485 600 C524 600 556 628 562 673 C567 718 542 746 503 746 C464 746 430 719 425 672 C419 627 446 600 485 600 L485 600 Z M214 600 C253 600 285 628 291 673 C296 718 271 746 232 746 C193 746 159 719 154 672 C148 628 175 600 214 600 L214 600 Z " />
<glyph glyph-name="Amacron" unicode="&#x100;" horiz-adv-x="803" d="M194 32 L219 80 C228 97 252 112 270 112 L534 112 C551 112 572 97 576 80 L589 32 C594 15 615 0 632 0 L679 0 C717 0 744 33 734 69 L560 701 C555 717 534 732 517 732 L438 732 C420 732 396 717 387 701 L57 69 C38 33 57 0 95 0 L144 0 C161 0 186 15 194 32 L194 32 Z M459 259 L386 259 C348 259 329 293 348 328 L396 420 C420 464 477 464 489 419 L514 327 C523 292 496 259 459 259 L459 259 Z M668 899 C671 921 656 938 634 938 L399 938 C378 938 358 921 355 899 C353 877 368 860 390 860 L625 860 C646 860 666 877 668 899 L668 899 Z " />
<glyph glyph-name="amacron" unicode="&#x101;" horiz-adv-x="583" d="M432 468 L432 464 C431 458 424 454 420 458 C400 475 368 485 328 488 C188 495 70 375 54 244 C37 107 127 0 268 0 C298 0 329 9 362 28 C370 33 378 28 377 20 C376 9 384 0 395 0 L457 0 C485 0 510 22 513 50 L561 437 C564 465 545 487 517 487 L455 488 C444 488 434 479 432 468 L432 468 Z M282 113 C206 113 164 170 173 243 C182 316 238 374 313 374 C388 374 432 316 423 243 C414 170 356 113 282 113 L282 113 Z M528 655 C531 677 516 694 494 694 L259 694 C238 694 218 677 215 655 C213 633 228 616 250 616 L485 616 C506 616 526 633 528 655 L528 655 Z " />
<glyph glyph-name="Abreve" unicode="&#x102;" horiz-adv-x="803" d="M194 32 L219 80 C228 97 252 112 270 112 L534 112 C551 112 572 97 576 80 L589 32 C594 15 615 0 632 0 L679 0 C717 0 744 33 734 69 L560 701 C555 717 534 732 517 732 L438 732 C420 732 396 717 387 701 L57 69 C38 33 57 0 95 0 L144 0 C161 0 186 15 194 32 L194 32 Z M459 259 L386 259 C348 259 329 293 348 328 L396 420 C420 464 477 464 489 419 L514 327 C523 292 496 259 459 259 L459 259 Z M585 943 C573 912 545 890 510 890 C475 890 452 912 448 943 C447 952 436 964 428 964 L413 964 C390 964 375 953 378 930 C385 868 434 823 502 823 C570 823 630 868 652 930 C661 953 649 964 625 964 L611 964 C602 964 588 952 585 943 L585 943 Z " />
<glyph glyph-name="abreve" unicode="&#x103;" horiz-adv-x="583" d="M432 468 L432 464 C431 458 424 454 420 458 C400 475 368 485 328 488 C188 495 70 375 54 244 C37 107 127 0 268 0 C298 0 329 9 362 28 C370 33 378 28 377 20 C376 9 384 0 395 0 L457 0 C485 0 510 22 513 50 L561 437 C564 465 545 487 517 487 L455 488 C444 488 434 479 432 468 L432 468 Z M282 113 C206 113 164 170 173 243 C182 316 238 374 313 374 C388 374 432 316 423 243 C414 170 356 113 282 113 L282 113 Z M445 699 C434 668 406 646 371 646 C336 646 313 668 309 699 C308 708 297 720 289 720 L274 720 C250 720 235 709 238 686 C246 624 295 579 363 579 C431 579 491 624 513 686 C522 709 510 720 486 720 L471 720 C462 720 448 708 445 699 L445 699 Z " />
<glyph glyph-name="Aogonek" unicode="&#x104;" horiz-adv-x="803" d="M194 32 L219 80 C228 97 252 112 270 112 L533 112 C551 112 572 96 576 80 L584 52 C585 46 580 28 576 23 C558 -1 544 -29 540 -66 C529 -153 585 -209 671 -209 C730 -209 773 -187 807 -152 C821 -138 820 -122 807 -111 L774 -86 C768 -81 754 -84 748 -90 C728 -109 704 -119 676 -119 C646 -119 622 -99 628 -49 C630 -34 635 -21 642 -8 C644 -4 651 0 656 0 L700 0 C727 0 746 24 739 49 L560 701 C555 717 534 732 517 732 L438 732 C420 732 396 717 387 701 L57 69 C38 33 57 0 95 0 L144 0 C161 0 186 15 194 32 L194 32 Z M459 259 L386 259 C348 259 329 293 348 328 L396 420 C420 464 477 464 489 419 L514 327 C523 292 496 259 459 259 L459 259 Z " />
<glyph glyph-name="aogonek" unicode="&#x105;" horiz-adv-x="583" d="M432 468 L432 464 C431 458 424 454 420 458 C400 475 368 485 328 488 C188 495 70 375 54 244 C37 107 127 0 268 0 C300 0 333 11 368 32 C373 34 379 32 378 27 C378 25 371 6 370 4 C359 -16 350 -39 347 -66 C336 -153 392 -209 478 -209 C537 -209 580 -187 614 -152 C628 -138 627 -122 614 -111 L581 -86 C575 -81 561 -84 555 -90 C535 -109 511 -119 483 -119 C453 -119 429 -99 435 -49 C437 -34 442 -21 449 -8 C451 -4 458 0 463 0 L481 0 C495 0 508 12 510 27 L561 437 C564 465 545 487 517 487 L455 488 C444 488 434 479 432 468 L432 468 Z M282 113 C206 113 164 170 173 243 C182 316 238 374 313 374 C388 374 432 316 423 243 C414 170 356 113 282 113 L282 113 Z " />
<glyph glyph-name="Cacute" unicode="&#x106;" horiz-adv-x="756" d="M69 368 C38 164 186 -5 390 0 C476 0 555 22 626 67 C654 84 660 112 642 135 L604 182 C596 193 571 194 558 186 C512 160 463 146 409 146 C275 146 200 235 215 369 C231 498 333 585 462 586 C515 586 561 573 601 547 C613 539 638 540 650 551 L699 598 C722 621 724 649 700 666 C639 710 566 732 480 732 C279 732 89 573 69 368 L69 368 Z M430 815 C575 915 578 917 579 918 C601 938 595 968 579 986 C564 1003 539 1014 515 997 C514 996 509 991 508 991 L391 857 C381 846 380 827 389 817 C398 807 417 806 430 815 L430 815 Z " />
<glyph glyph-name="cacute" unicode="&#x107;" horiz-adv-x="496" d="M366 140 C343 123 315 113 283 113 C208 113 165 170 174 244 C183 316 240 375 315 375 C346 375 372 364 391 347 C397 342 409 341 415 347 L473 399 C489 413 491 431 476 443 C438 475 388 493 331 493 C189 493 68 385 51 244 C34 104 127 -5 269 -5 C327 -5 382 13 427 45 C444 56 447 74 435 88 L390 140 C385 146 372 145 366 140 L366 140 Z M270 571 C415 670 418 672 419 674 C441 694 434 724 418 742 C404 759 378 770 354 753 C353 752 348 747 347 747 L231 614 C221 602 220 583 229 573 C238 563 257 562 270 571 L270 571 Z " />
<glyph glyph-name="Ccircumflex" unicode="&#x108;" horiz-adv-x="756" d="M69 368 C38 164 186 -5 390 0 C476 0 555 22 626 67 C654 84 660 112 642 135 L604 182 C596 193 571 194 558 186 C512 160 463 146 409 146 C275 146 200 235 215 369 C231 498 333 585 462 586 C515 586 561 573 601 547 C613 539 638 540 650 551 L699 598 C722 621 724 649 700 666 C639 710 566 732 480 732 C279 732 89 573 69 368 L69 368 Z M342 812 C352 801 372 799 386 808 L450 849 C466 859 493 859 506 848 L560 808 C571 799 592 801 605 811 C617 821 621 840 612 851 L529 961 C512 984 478 984 454 961 L345 852 C333 841 331 822 342 812 L342 812 Z " />
<glyph glyph-name="ccircumflex" unicode="&#x109;" horiz-adv-x="496" d="M366 140 C343 123 315 113 283 113 C208 113 165 170 174 244 C183 316 240 375 315 375 C346 375 372 364 391 347 C397 342 409 341 415 347 L473 399 C489 413 491 431 476 443 C438 475 388 493 331 493 C189 493 68 385 51 244 C34 104 127 -5 269 -5 C327 -5 382 13 427 45 C444 56 447 74 435 88 L390 140 C385 146 372 145 366 140 L366 140 Z M181 567 C191 557 212 556 226 564 L289 604 C305 615 332 615 346 605 L400 564 C411 555 432 557 445 567 C457 577 461 596 452 607 L368 717 C351 740 317 740 294 717 L184 607 C172 596 171 577 181 567 L181 567 Z " />
<glyph glyph-name="Cdotaccent" unicode="&#x10a;" horiz-adv-x="756" d="M69 368 C38 164 186 -5 390 0 C476 0 555 22 626 67 C654 84 660 112 642 135 L604 182 C596 193 571 194 558 186 C512 160 463 146 409 146 C275 146 200 235 215 369 C231 498 333 585 462 586 C515 586 561 573 601 547 C613 539 638 540 650 551 L699 598 C722 621 724 649 700 666 C639 710 566 732 480 732 C279 732 89 573 69 368 L69 368 Z M482 844 C521 844 554 872 560 917 C565 962 539 990 500 990 C461 990 428 963 423 917 C417 872 443 844 482 844 L482 844 Z " />
<glyph glyph-name="cdotaccent" unicode="&#x10b;" horiz-adv-x="496" d="M366 140 C343 123 315 113 283 113 C208 113 165 170 174 244 C183 316 240 375 315 375 C346 375 372 364 391 347 C397 342 409 341 415 347 L473 399 C489 413 491 431 476 443 C438 475 388 493 331 493 C189 493 68 385 51 244 C34 104 127 -5 269 -5 C327 -5 382 13 427 45 C444 56 447 74 435 88 L390 140 C385 146 372 145 366 140 L366 140 Z M322 600 C361 600 393 628 399 673 C404 718 379 746 340 746 C301 746 267 719 262 672 C256 628 283 600 322 600 L322 600 Z " />
<glyph glyph-name="Ccaron" unicode="&#x10c;" horiz-adv-x="756" d="M69 368 C38 164 186 -5 390 0 C476 0 555 22 626 67 C654 84 660 112 642 135 L604 182 C596 193 571 194 558 186 C512 160 463 146 409 146 C275 146 200 235 215 369 C231 498 333 585 462 586 C515 586 561 573 601 547 C613 539 638 540 650 551 L699 598 C722 621 724 649 700 666 C639 710 566 732 480 732 C279 732 89 573 69 368 L69 368 Z M514 835 L623 944 C635 955 636 974 626 984 C616 994 595 996 582 987 L519 947 C503 936 475 936 462 946 L408 987 C396 996 375 994 363 984 C350 974 347 955 356 944 L439 834 C457 811 491 811 514 835 L514 835 Z " />
<glyph glyph-name="ccaron" unicode="&#x10d;" horiz-adv-x="496" d="M366 140 C343 123 315 113 283 113 C208 113 165 170 174 244 C183 316 240 375 315 375 C346 375 372 364 391 347 C397 342 409 341 415 347 L473 399 C489 413 491 431 476 443 C438 475 388 493 331 493 C189 493 68 385 51 244 C34 104 127 -5 269 -5 C327 -5 382 13 427 45 C444 56 447 74 435 88 L390 140 C385 146 372 145 366 140 L366 140 Z M353 590 L463 700 C475 711 476 730 466 740 C456 750 435 752 422 743 L358 702 C342 692 314 692 301 703 L248 743 C236 751 215 750 202 740 C189 730 186 711 195 700 L278 590 C296 567 330 567 353 590 L353 590 Z " />
<glyph glyph-name="Dcaron" unicode="&#x10e;" horiz-adv-x="781" d="M230 186 L274 546 C277 574 303 596 330 596 L415 596 C545 596 600 513 583 366 C564 220 489 137 359 136 L274 136 C246 136 226 158 230 186 L230 186 Z M342 0 C570 0 699 122 729 366 C759 611 660 733 432 733 L200 733 C172 733 147 711 144 683 L66 50 C63 22 82 0 110 0 L342 0 L342 0 Z M526 834 L636 944 C648 955 649 974 639 984 C629 994 608 996 595 987 L531 946 C515 936 487 936 474 947 L421 987 C409 995 388 994 375 984 C362 974 359 955 368 944 L451 834 C469 811 503 811 526 834 L526 834 Z " />
<glyph glyph-name="dcaron" unicode="&#x10f;" horiz-adv-x="889" d="M459 682 L432 465 C431 459 425 455 420 459 C400 476 368 485 328 488 C187 496 70 375 54 244 C37 107 126 0 268 0 C298 0 329 9 362 28 C370 33 378 28 377 20 C376 9 384 0 395 0 L462 0 C490 0 515 22 518 50 L596 682 C599 710 579 732 552 732 L515 732 C487 732 462 710 459 682 L459 682 Z M280 113 C205 113 163 170 172 243 C181 316 237 374 312 374 C387 374 430 316 421 243 C412 170 355 113 280 113 L280 113 Z M767 551 C822 585 853 637 862 707 C867 746 843 777 796 777 C751 777 720 747 715 708 C710 669 736 640 781 640 L786 640 C774 616 758 598 737 587 C731 583 727 575 730 569 L734 559 C739 545 753 542 767 551 L767 551 Z " />
<glyph glyph-name="Dcroat" unicode="&#x110;" horiz-adv-x="781" d="M342 0 C570 0 699 122 729 366 C759 611 660 733 432 733 L200 733 C172 733 147 711 144 683 L113 435 C111 414 92 397 71 397 C51 397 32 380 29 360 L29 357 C26 336 41 319 62 319 C82 319 97 302 95 282 L66 50 C63 22 82 0 110 0 L342 0 L342 0 Z M231 196 L241 274 C244 299 266 319 291 319 L297 319 C319 319 338 336 341 358 C344 380 328 397 307 397 L301 397 C276 397 258 417 261 442 L273 536 C276 564 301 586 329 586 L414 586 C544 586 600 513 583 366 C564 220 490 146 360 146 L275 146 C247 146 228 168 231 196 L231 196 Z " />
<glyph glyph-name="dcroat" unicode="&#x111;" horiz-adv-x="583" d="M437 502 L432 465 C431 459 425 455 420 459 C400 476 368 485 328 488 C187 496 70 375 54 244 C37 107 126 0 268 0 C298 0 329 9 362 28 C370 33 378 28 377 20 C376 9 384 0 395 0 L462 0 C490 0 515 22 518 50 L574 506 C577 528 596 545 618 545 C639 545 659 562 662 584 L664 604 C667 626 651 643 630 643 C608 643 593 660 596 682 L596 688 C599 712 582 732 557 732 L509 732 C485 732 462 712 459 688 L459 687 C456 662 434 643 410 643 C386 643 365 624 362 600 L360 589 C357 564 374 545 398 545 C422 545 440 526 437 502 L437 502 Z M280 113 C205 113 163 170 172 243 C181 316 237 374 312 374 C387 374 430 316 421 243 C412 170 355 113 280 113 L280 113 Z " />
<glyph glyph-name="Emacron" unicode="&#x112;" horiz-adv-x="684" d="M601 50 L606 87 C609 115 589 137 562 137 L272 137 C244 137 225 159 228 187 L236 253 C239 281 265 303 292 303 L485 303 C513 303 538 325 541 353 L546 389 C549 417 530 439 502 439 L309 439 C281 439 262 461 265 489 L272 546 C275 574 301 596 328 596 L619 596 C647 596 672 618 675 646 L680 682 C683 710 663 732 636 732 L198 732 C170 732 145 710 142 682 L64 50 C61 22 80 0 108 0 L545 0 C573 0 598 22 601 50 L601 50 Z M608 899 C611 921 596 938 574 938 L340 938 C319 938 299 921 296 899 C294 877 309 860 331 860 L565 860 C586 860 606 877 608 899 L608 899 Z " />
<glyph glyph-name="emacron" unicode="&#x113;" horiz-adv-x="560" d="M53 244 C36 102 125 0 267 0 C337 0 396 16 446 50 C465 63 468 82 454 98 L421 136 C415 143 397 144 387 139 C354 121 318 112 281 112 C240 112 203 133 192 170 C187 186 197 195 215 195 L500 195 C514 195 526 206 528 220 L531 244 C548 385 471 488 327 488 C185 488 71 387 53 244 L53 244 Z M313 376 C353 376 393 356 401 319 C405 300 394 293 374 293 L232 293 C212 293 203 300 212 319 C229 356 274 376 313 376 L313 376 Z M516 655 C519 677 504 694 482 694 L248 694 C227 694 207 677 204 655 C202 633 217 616 239 616 L473 616 C494 616 514 633 516 655 L516 655 Z " />
<glyph glyph-name="Ebreve" unicode="&#x114;" horiz-adv-x="684" d="M601 50 L606 87 C609 115 589 137 562 137 L272 137 C244 137 225 159 228 187 L236 253 C239 281 265 303 292 303 L485 303 C513 303 538 325 541 353 L546 389 C549 417 530 439 502 439 L309 439 C281 439 262 461 265 489 L272 546 C275 574 301 596 328 596 L619 596 C647 596 672 618 675 646 L680 682 C683 710 663 732 636 732 L198 732 C170 732 145 710 142 682 L64 50 C61 22 80 0 108 0 L545 0 C573 0 598 22 601 50 L601 50 Z M525 943 C514 912 486 890 450 890 C416 890 393 912 389 943 C388 952 377 964 369 964 L354 964 C330 964 315 953 318 930 C326 868 375 823 442 823 C510 823 571 868 593 930 C602 953 590 964 566 964 L551 964 C542 964 528 952 525 943 L525 943 Z " />
<glyph glyph-name="ebreve" unicode="&#x115;" horiz-adv-x="560" d="M53 244 C36 102 125 0 267 0 C337 0 396 16 446 50 C465 63 468 82 454 98 L421 136 C415 143 397 144 387 139 C354 121 318 112 281 112 C240 112 203 133 192 170 C187 186 197 195 215 195 L500 195 C514 195 526 206 528 220 L531 244 C548 385 471 488 327 488 C185 488 71 387 53 244 L53 244 Z M313 376 C353 376 393 356 401 319 C405 300 394 293 374 293 L232 293 C212 293 203 300 212 319 C229 356 274 376 313 376 L313 376 Z M434 699 C423 668 394 646 359 646 C324 646 301 668 297 699 C296 708 285 720 277 720 L262 720 C239 720 225 709 227 686 C234 624 283 579 351 579 C419 579 479 624 501 686 C510 709 498 720 474 720 L460 720 C451 720 437 708 434 699 L434 699 Z " />
<glyph glyph-name="Edotaccent" unicode="&#x116;" horiz-adv-x="684" d="M601 50 L606 87 C609 115 589 137 562 137 L272 137 C244 137 225 159 228 187 L236 253 C239 281 265 303 292 303 L485 303 C513 303 538 325 541 353 L546 389 C549 417 530 439 502 439 L309 439 C281 439 262 461 265 489 L272 546 C275 574 301 596 328 596 L619 596 C647 596 672 618 675 646 L680 682 C683 710 663 732 636 732 L198 732 C170 732 145 710 142 682 L64 50 C61 22 80 0 108 0 L545 0 C573 0 598 22 601 50 L601 50 Z M446 844 C485 844 517 872 523 917 C528 962 503 990 464 990 C425 990 391 963 386 917 C380 872 407 844 446 844 L446 844 Z " />
<glyph glyph-name="edotaccent" unicode="&#x117;" horiz-adv-x="560" d="M53 244 C36 102 125 0 267 0 C337 0 396 16 446 50 C465 63 468 82 454 98 L421 136 C415 143 397 144 387 139 C354 121 318 112 281 112 C240 112 203 133 192 170 C187 186 197 195 215 195 L500 195 C514 195 526 206 528 220 L531 244 C548 385 471 488 327 488 C185 488 71 387 53 244 L53 244 Z M313 376 C353 376 393 356 401 319 C405 300 394 293 374 293 L232 293 C212 293 203 300 212 319 C229 356 274 376 313 376 L313 376 Z M354 600 C393 600 426 628 432 673 C437 718 411 746 372 746 C333 746 299 719 294 672 C288 628 315 600 354 600 L354 600 Z " />
<glyph glyph-name="Eogonek" unicode="&#x118;" horiz-adv-x="684" d="M308 -10 C300 -26 294 -45 292 -66 C281 -153 338 -209 423 -209 C483 -209 525 -187 559 -152 C573 -138 572 -122 559 -111 L526 -86 C520 -81 507 -84 500 -90 C480 -109 457 -119 428 -119 C399 -119 375 -99 381 -49 C383 -34 387 -21 394 -8 C396 -4 403 0 408 0 L545 0 C573 0 598 22 601 50 L606 87 C609 115 589 137 562 137 L272 137 C244 137 225 159 228 187 L236 253 C239 281 265 303 292 303 L485 303 C513 303 538 325 541 353 L546 389 C549 417 530 439 502 439 L309 439 C281 439 262 461 265 489 L272 546 C275 574 301 596 328 596 L619 596 C647 596 672 618 675 646 L680 682 C683 710 663 732 636 732 L198 732 C170 732 145 710 142 682 L64 50 C61 22 80 0 108 0 L303 0 C308 0 310 -5 308 -10 L308 -10 Z " />
<glyph glyph-name="eogonek" unicode="&#x119;" horiz-adv-x="560" d="M53 244 C38 121 102 28 212 6 C217 5 218 -1 215 -6 C207 -23 201 -43 198 -66 C187 -153 243 -209 328 -209 C388 -209 431 -187 465 -152 C478 -138 477 -122 464 -112 L431 -86 C425 -81 412 -84 405 -90 C385 -109 362 -119 334 -119 C304 -119 280 -99 286 -49 C288 -34 293 -19 301 -6 C303 -2 312 3 316 3 C367 9 412 26 451 53 C466 64 469 81 458 94 L421 136 C415 143 397 144 387 139 C354 121 318 112 281 112 C240 112 203 133 192 170 C187 186 197 195 215 195 L500 195 C514 195 526 206 528 220 L531 244 C548 385 471 488 327 488 C185 488 71 387 53 244 L53 244 Z M313 376 C353 376 393 356 401 319 C405 300 394 293 374 293 L232 293 C212 293 203 300 212 319 C229 356 274 376 313 376 L313 376 Z " />
<glyph glyph-name="Ecaron" unicode="&#x11a;" horiz-adv-x="684" d="M601 50 L606 87 C609 115 589 137 562 137 L272 137 C244 137 225 159 228 187 L236 253 C239 281 265 303 292 303 L485 303 C513 303 538 325 541 353 L546 389 C549 417 530 439 502 439 L309 439 C281 439 262 461 265 489 L272 546 C275 574 301 596 328 596 L619 596 C647 596 672 618 675 646 L680 682 C683 710 663 732 636 732 L198 732 C170 732 145 710 142 682 L64 50 C61 22 80 0 108 0 L545 0 C573 0 598 22 601 50 L601 50 Z M477 834 L587 944 C599 955 600 974 590 984 C580 994 559 996 546 987 L482 946 C466 936 438 936 425 947 L371 987 C360 996 339 994 327 984 C314 974 311 955 320 944 L402 835 C420 811 454 811 477 834 L477 834 Z " />
<glyph glyph-name="ecaron" unicode="&#x11b;" horiz-adv-x="560" d="M53 244 C36 102 125 0 267 0 C337 0 396 16 446 50 C465 63 468 82 454 98 L421 136 C415 143 397 144 387 139 C354 121 318 112 281 112 C240 112 203 133 192 170 C187 186 197 195 215 195 L500 195 C514 195 526 206 528 220 L531 244 C548 385 471 488 327 488 C185 488 71 387 53 244 L53 244 Z M313 376 C353 376 393 356 401 319 C405 300 394 293 374 293 L232 293 C212 293 203 300 212 319 C229 356 274 376 313 376 L313 376 Z M385 590 L495 700 C507 711 508 730 498 740 C488 750 467 752 454 743 L390 702 C374 692 346 692 333 703 L280 743 C268 752 247 750 235 740 C222 730 219 711 228 700 L310 591 C328 567 362 567 385 590 L385 590 Z " />
<glyph glyph-name="Gcircumflex" unicode="&#x11c;" horiz-adv-x="743" d="M66 368 C34 164 183 -5 386 0 C483 0 571 28 648 84 C657 90 669 110 670 121 L702 380 C705 408 685 430 658 430 L514 430 C486 430 461 408 458 380 L454 347 C450 320 470 298 497 298 C524 298 543 276 540 249 L533 196 C532 186 525 174 516 169 C487 154 450 146 405 146 C272 146 197 235 212 369 C228 498 329 585 458 586 C512 586 558 573 598 547 C610 539 635 540 647 551 L695 599 C719 621 720 649 696 666 C636 710 563 732 476 732 C276 732 86 573 66 368 L66 368 Z M335 812 C345 801 365 799 379 808 L443 849 C459 859 486 859 499 848 L553 808 C564 800 585 801 598 811 C611 821 615 840 606 851 L522 961 C505 984 471 984 448 961 L338 852 C326 841 324 822 335 812 L335 812 Z " />
<glyph glyph-name="gcircumflex" unicode="&#x11d;" horiz-adv-x="559" d="M430 466 L430 461 C429 455 422 451 417 455 C396 474 362 485 316 488 C167 492 68 385 51 244 C33 97 94 0 246 0 C290 0 331 13 369 38 C374 41 378 37 377 32 L375 20 C366 -54 313 -102 228 -98 C185 -95 150 -85 120 -67 C112 -61 94 -63 86 -71 L58 -99 C40 -117 39 -138 57 -152 C101 -189 162 -210 240 -208 C395 -205 497 -105 515 39 L564 438 C567 466 548 488 520 488 L455 488 C443 488 432 478 430 466 L430 466 Z M276 113 C201 113 159 170 168 243 C177 316 233 374 308 374 C383 374 426 316 417 243 C408 170 351 113 276 113 L276 113 Z M213 567 C223 557 244 556 258 564 L321 604 C337 615 364 615 378 604 L431 564 C442 556 463 557 476 567 C489 577 493 596 484 607 L400 717 C383 740 349 740 326 717 L216 607 C204 596 203 577 213 567 L213 567 Z " />
<glyph glyph-name="Gbreve" unicode="&#x11e;" horiz-adv-x="743" d="M66 368 C34 164 183 -5 386 0 C483 0 571 28 648 84 C657 90 669 110 670 121 L702 380 C705 408 685 430 658 430 L514 430 C486 430 461 408 458 380 L454 347 C450 320 470 298 497 298 C524 298 543 276 540 249 L533 196 C532 186 525 174 516 169 C487 154 450 146 405 146 C272 146 197 235 212 369 C228 498 329 585 458 586 C512 586 558 573 598 547 C610 539 635 540 647 551 L695 599 C719 621 720 649 696 666 C636 710 563 732 476 732 C276 732 86 573 66 368 L66 368 Z M555 943 C544 912 516 890 480 890 C446 890 423 912 418 943 C417 952 406 964 398 964 L383 964 C360 964 345 953 348 930 C356 868 405 823 472 823 C540 823 601 868 623 930 C632 953 620 964 596 964 L581 964 C572 964 558 952 555 943 L555 943 Z " />
<glyph glyph-name="gbreve" unicode="&#x11f;" horiz-adv-x="559" d="M430 466 L430 461 C429 455 422 451 417 455 C396 474 362 485 316 488 C167 492 68 385 51 244 C33 97 94 0 246 0 C290 0 331 13 369 38 C374 41 378 37 377 32 L375 20 C366 -54 313 -102 228 -98 C185 -95 150 -85 120 -67 C112 -61 94 -63 86 -71 L58 -99 C40 -117 39 -138 57 -152 C101 -189 162 -210 240 -208 C395 -205 497 -105 515 39 L564 438 C567 466 548 488 520 488 L455 488 C443 488 432 478 430 466 L430 466 Z M276 113 C201 113 159 170 168 243 C177 316 233 374 308 374 C383 374 426 316 417 243 C408 170 351 113 276 113 L276 113 Z M433 699 C422 668 393 646 358 646 C323 646 300 668 296 699 C295 708 284 720 276 720 L261 720 C238 720 224 709 226 686 C233 624 282 579 350 579 C418 579 478 624 500 686 C509 709 497 720 473 720 L459 720 C450 720 436 708 433 699 L433 699 Z " />
<glyph glyph-name="Gdotaccent" unicode="&#x120;" horiz-adv-x="743" d="M66 368 C34 164 183 -5 386 0 C483 0 571 28 648 84 C657 90 669 110 670 121 L702 380 C705 408 685 430 658 430 L514 430 C486 430 461 408 458 380 L454 347 C450 320 470 298 497 298 C524 298 543 276 540 249 L533 196 C532 186 525 174 516 169 C487 154 450 146 405 146 C272 146 197 235 212 369 C228 498 329 585 458 586 C512 586 558 573 598 547 C610 539 635 540 647 551 L695 599 C719 621 720 649 696 666 C636 710 563 732 476 732 C276 732 86 573 66 368 L66 368 Z M476 844 C515 844 547 872 553 917 C558 962 533 990 494 990 C455 990 421 963 416 917 C410 872 437 844 476 844 L476 844 Z " />
<glyph glyph-name="gdotaccent" unicode="&#x121;" horiz-adv-x="559" d="M430 466 L430 461 C429 455 422 451 417 455 C396 474 362 485 316 488 C167 492 68 385 51 244 C33 97 94 0 246 0 C290 0 331 13 369 38 C374 41 378 37 377 32 L375 20 C366 -54 313 -102 228 -98 C185 -95 150 -85 120 -67 C112 -61 94 -63 86 -71 L58 -99 C40 -117 39 -138 57 -152 C101 -189 162 -210 240 -208 C395 -205 497 -105 515 39 L564 438 C567 466 548 488 520 488 L455 488 C443 488 432 478 430 466 L430 466 Z M276 113 C201 113 159 170 168 243 C177 316 233 374 308 374 C383 374 426 316 417 243 C408 170 351 113 276 113 L276 113 Z M353 600 C392 600 425 628 431 673 C436 718 410 746 371 746 C332 746 298 719 293 672 C287 628 314 600 353 600 L353 600 Z " />
<glyph glyph-name="Gcommaaccent" unicode="&#x122;" horiz-adv-x="743" d="M66 368 C34 164 183 -5 386 0 C483 0 571 28 648 84 C657 90 669 110 670 121 L702 380 C705 408 685 430 658 430 L514 430 C486 430 461 408 458 380 L454 347 C450 320 470 298 497 298 C524 298 543 276 540 249 L533 196 C532 186 525 174 516 169 C487 154 450 146 405 146 C272 146 197 235 212 369 C228 498 329 585 458 586 C512 586 558 573 598 547 C610 539 635 540 647 551 L695 599 C719 621 720 649 696 666 C636 710 563 732 476 732 C276 732 86 573 66 368 L66 368 Z M328 -341 C382 -307 413 -255 421 -186 C426 -147 403 -115 356 -115 C312 -115 280 -145 275 -184 C271 -223 295 -252 340 -252 L345 -252 C335 -276 319 -294 297 -305 C290 -308 287 -317 290 -324 L294 -333 C300 -346 314 -350 328 -341 L328 -341 Z " />
<glyph glyph-name="gcommaaccent" unicode="&#x123;" horiz-adv-x="559" d="M430 466 L430 461 C429 455 422 451 417 455 C396 474 362 485 316 488 C167 492 68 385 51 244 C33 97 94 0 246 0 C290 0 331 13 369 38 C374 41 378 37 377 32 L375 20 C366 -54 313 -102 228 -98 C185 -95 150 -85 120 -67 C112 -61 94 -63 86 -71 L58 -99 C40 -117 39 -138 57 -152 C101 -189 162 -210 240 -208 C395 -205 497 -105 515 39 L564 438 C567 466 548 488 520 488 L455 488 C443 488 432 478 430 466 L430 466 Z M276 113 C201 113 159 170 168 243 C177 316 233 374 308 374 C383 374 426 316 417 243 C408 170 351 113 276 113 L276 113 Z M380 808 C326 774 294 720 286 652 C281 613 304 582 351 582 C396 582 428 611 433 650 C438 689 412 719 367 719 L362 719 C374 743 390 761 411 771 C417 775 421 783 418 789 L414 799 C408 813 394 817 380 808 L380 808 Z " />
<glyph glyph-name="Hcircumflex" unicode="&#x124;" horiz-adv-x="792" d="M213 50 L238 253 C241 281 267 303 294 303 L535 303 C563 303 582 281 579 253 L554 50 C551 22 570 0 598 0 L644 0 C672 0 697 22 700 50 L778 683 C781 711 762 733 734 733 L688 733 C660 733 635 711 632 683 L608 489 C605 461 580 439 552 439 L311 439 C283 439 264 461 267 489 L291 682 C294 710 274 732 247 732 L200 732 C172 732 147 710 144 682 L66 50 C63 22 82 0 110 0 L157 0 C185 0 210 22 213 50 L213 50 Z M360 812 C370 801 390 799 404 808 L468 849 C484 859 511 859 524 848 L578 808 C589 799 610 801 623 811 C635 821 639 840 630 851 L547 961 C530 984 496 984 472 961 L363 852 C351 841 349 822 360 812 L360 812 Z " />
<glyph glyph-name="hcircumflex" unicode="&#x125;" horiz-adv-x="537" d="M239 343 C258 360 278 371 302 373 C302 373 308 373 309 373 C372 369 397 331 389 269 L362 50 C359 22 378 0 406 0 L443 0 C471 0 496 22 499 50 L530 303 C543 411 476 488 363 488 C325 488 291 478 260 458 C252 453 242 458 243 466 L270 682 C273 710 253 732 226 732 L189 732 C161 732 136 710 133 682 L55 50 C52 22 71 0 99 0 L136 0 C164 0 189 22 192 50 L225 314 C225 321 233 338 239 343 L239 343 Z M232 812 C242 801 263 800 277 808 L340 848 C356 859 383 859 397 849 L451 808 C462 799 483 801 496 811 C508 821 512 840 503 851 L419 961 C402 984 368 984 345 961 L235 853 C223 841 222 822 232 812 L232 812 Z " />
<glyph glyph-name="Hbar" unicode="&#x126;" horiz-adv-x="792" d="M213 50 L238 253 C241 281 267 303 294 303 L535 303 C563 303 582 281 579 253 L554 50 C551 22 570 0 598 0 L644 0 C672 0 697 22 700 50 L778 683 C781 711 762 733 734 733 L688 733 C660 733 635 711 632 683 L608 489 C605 461 580 439 552 439 L311 439 C283 439 264 461 267 489 L291 682 C294 710 274 732 247 732 L200 732 C172 732 147 710 144 682 L66 50 C63 22 82 0 110 0 L157 0 C185 0 210 22 213 50 L213 50 Z M662 899 C665 921 650 938 628 938 L394 938 C373 938 353 921 350 899 C348 877 363 860 385 860 L619 860 C640 860 660 877 662 899 L662 899 Z " />
<glyph glyph-name="hbar" unicode="&#x127;" horiz-adv-x="537" d="M112 516 L55 50 C52 22 71 0 99 0 L136 0 C164 0 189 22 192 50 L225 314 C225 321 233 338 239 343 C258 360 278 371 302 373 C302 373 308 373 309 373 C372 369 397 331 389 269 L362 50 C359 22 378 0 406 0 L443 0 C471 0 496 22 499 50 L530 303 C543 411 476 488 363 488 C325 488 291 478 260 458 C252 453 242 458 243 466 L249 515 C252 539 275 559 299 559 L305 559 C326 559 346 576 348 598 C351 620 336 637 314 637 L309 637 C284 637 267 657 270 682 L270 685 C273 711 255 732 228 732 L186 732 C160 732 136 711 133 685 L132 680 C130 656 108 637 84 637 L80 637 C59 637 39 620 36 598 C34 576 49 559 71 559 L75 559 C98 559 115 540 112 516 L112 516 Z " />
<glyph glyph-name="Itilde" unicode="&#x128;" horiz-adv-x="293" d="M110 0 L156 0 C184 0 209 22 212 50 L290 683 C293 711 274 733 246 733 L200 733 C172 733 147 711 144 683 L66 50 C63 22 82 0 110 0 L110 0 Z M125 850 C126 852 130 885 151 890 C166 894 188 882 220 854 C313 770 457 806 487 936 C493 967 477 983 447 983 L397 983 C389 983 381 976 380 968 L378 952 C372 920 341 918 291 958 C197 1034 66 1020 20 896 C8 862 26 850 61 850 L108 850 C117 850 124 841 125 850 L125 850 Z " />
<glyph glyph-name="itilde" unicode="&#x129;" horiz-adv-x="256" d="M192 50 L240 439 C243 467 224 489 196 489 L159 489 C131 489 106 467 103 439 L55 50 C52 22 71 0 99 0 L136 0 C164 0 189 22 192 50 L192 50 Z M76 605 C77 607 81 641 103 646 C118 649 140 638 171 609 C264 526 409 562 438 692 C445 723 429 739 399 739 L348 739 C340 739 332 732 331 724 L329 708 C324 676 292 674 243 714 C149 790 17 776 -29 651 C-41 618 -23 605 11 605 L58 605 C68 605 75 595 76 605 L76 605 Z " />
<glyph glyph-name="Imacron" unicode="&#x12a;" horiz-adv-x="293" d="M110 0 L156 0 C184 0 209 22 212 50 L290 683 C293 711 274 733 246 733 L200 733 C172 733 147 711 144 683 L66 50 C63 22 82 0 110 0 L110 0 Z M413 899 C416 921 401 938 379 938 L144 938 C123 938 103 921 100 899 C98 877 113 860 135 860 L370 860 C391 860 411 877 413 899 L413 899 Z " />
<glyph glyph-name="imacron" unicode="&#x12b;" horiz-adv-x="256" d="M192 50 L240 439 C243 467 224 489 196 489 L159 489 C131 489 106 467 103 439 L55 50 C52 22 71 0 99 0 L136 0 C164 0 189 22 192 50 L192 50 Z M364 655 C367 677 352 694 330 694 L96 694 C75 694 55 677 52 655 C50 633 65 616 87 616 L321 616 C342 616 362 633 364 655 L364 655 Z " />
<glyph glyph-name="Ibreve" unicode="&#x12c;" horiz-adv-x="293" d="M110 0 L156 0 C184 0 209 22 212 50 L290 683 C293 711 274 733 246 733 L200 733 C172 733 147 711 144 683 L66 50 C63 22 82 0 110 0 L110 0 Z M330 943 C318 912 290 890 255 890 C221 890 198 912 193 943 C192 952 181 964 173 964 L158 964 C135 964 120 953 123 930 C130 868 179 823 247 823 C315 823 376 868 398 930 C407 953 395 964 371 964 L356 964 C347 964 333 952 330 943 L330 943 Z " />
<glyph glyph-name="ibreve" unicode="&#x12d;" horiz-adv-x="256" d="M192 50 L240 439 C243 467 224 489 196 489 L159 489 C131 489 106 467 103 439 L55 50 C52 22 71 0 99 0 L136 0 C164 0 189 22 192 50 L192 50 Z M282 699 C271 668 242 646 207 646 C172 646 149 668 145 699 C144 708 133 720 125 720 L110 720 C87 720 73 709 75 686 C82 624 131 579 199 579 C267 579 328 624 350 686 C359 709 347 720 323 720 L308 720 C299 720 285 708 282 699 L282 699 Z " />
<glyph glyph-name="Iogonek" unicode="&#x12e;" horiz-adv-x="293" d="M53 -10 C41 -29 33 -52 29 -81 C18 -168 74 -224 159 -224 C219 -224 262 -201 296 -166 C309 -153 309 -137 296 -127 L262 -100 C256 -95 243 -98 236 -104 C216 -124 194 -134 166 -134 C136 -134 111 -114 117 -64 C120 -44 127 -26 139 -10 C142 -4 151 0 158 0 L176 0 C193 0 208 13 210 30 L290 683 C293 711 274 733 246 733 L200 733 C172 733 147 711 144 683 L62 14 C61 11 54 -7 53 -10 L53 -10 Z " />
<glyph glyph-name="iogonek" unicode="&#x12f;" horiz-adv-x="256" d="M42 11 C28 -10 18 -35 14 -66 C3 -153 60 -209 145 -209 C205 -209 248 -187 282 -152 C295 -138 294 -122 281 -112 L248 -86 C242 -81 229 -84 222 -90 C202 -109 179 -119 151 -119 C121 -119 97 -99 103 -49 C105 -34 109 -21 117 -8 C119 -4 126 0 131 0 L154 0 C172 0 188 14 190 32 L240 439 C243 467 224 489 196 489 L159 489 C131 489 106 467 103 439 L54 38 C53 35 44 14 42 11 L42 11 Z M118 605 C113 566 138 537 183 537 C228 537 259 566 264 605 C269 645 246 674 199 674 C155 674 123 645 118 605 L118 605 Z " />
<glyph glyph-name="Idotaccent" unicode="&#x130;" horiz-adv-x="293" d="M110 0 L156 0 C184 0 209 22 212 50 L290 683 C293 711 274 733 246 733 L200 733 C172 733 147 711 144 683 L66 50 C63 22 82 0 110 0 L110 0 Z M250 844 C290 844 322 872 328 917 C333 962 308 990 268 990 C229 990 196 963 191 917 C185 872 211 844 250 844 L250 844 Z " />
<glyph glyph-name="dotlessi" unicode="&#x131;" horiz-adv-x="256" d="M192 50 L240 439 C243 467 224 489 196 489 L159 489 C131 489 106 467 103 439 L55 50 C52 22 71 0 99 0 L136 0 C164 0 189 22 192 50 L192 50 Z " />
<glyph glyph-name="IJ" unicode="&#x132;" horiz-adv-x="708" d="M110 0 L156 0 C184 0 209 22 212 50 L290 683 C293 711 274 733 246 733 L200 733 C172 733 147 711 144 683 L66 50 C63 22 82 0 110 0 L110 0 Z M331 113 L323 49 C320 22 339 0 367 0 L416 0 C531 0 620 79 634 195 L694 682 C697 710 677 732 650 732 L603 732 C575 732 550 710 547 682 L493 244 C484 175 448 140 382 137 L358 137 C345 137 333 126 331 113 L331 113 Z " />
<glyph glyph-name="ij" unicode="&#x133;" horiz-adv-x="546" d="M192 50 L240 439 C243 467 224 489 196 489 L159 489 C131 489 106 467 103 439 L55 50 C52 22 71 0 99 0 L136 0 C164 0 189 22 192 50 L192 50 Z M118 605 C113 566 138 537 183 537 C228 537 259 566 264 605 C269 645 246 674 199 674 C155 674 123 645 118 605 L118 605 Z M172 -123 L167 -161 C164 -188 183 -210 211 -210 L260 -210 C377 -210 455 -129 469 -15 L525 438 C528 466 509 488 481 488 L444 488 C416 488 391 466 388 438 L335 9 C327 -59 289 -95 224 -98 L199 -98 C186 -98 174 -109 172 -123 L172 -123 Z M403 605 C398 566 423 537 468 537 C513 537 544 566 549 605 C554 645 531 674 484 674 C439 674 408 645 403 605 L403 605 Z " />
<glyph glyph-name="Jcircumflex" unicode="&#x134;" horiz-adv-x="415" d="M38 113 L30 49 C27 22 46 0 74 0 L123 0 C238 0 327 79 341 195 L401 682 C404 710 384 732 357 732 L310 732 C282 732 257 710 254 682 L200 244 C191 175 155 140 89 137 L65 137 C52 137 40 126 38 113 L38 113 Z M210 812 C220 801 240 799 254 808 L318 849 C334 859 361 859 374 848 L428 808 C439 800 460 801 473 811 C486 821 490 840 481 851 L397 961 C380 984 346 984 323 961 L213 852 C201 841 199 822 210 812 L210 812 Z " />
<glyph glyph-name="jcircumflex" unicode="&#x135;" horiz-adv-x="291" d="M-83 -122 L-88 -161 C-91 -188 -72 -210 -45 -210 L4 -210 C121 -210 199 -129 213 -15 L269 438 C272 466 253 488 225 488 L188 488 C160 488 135 466 132 438 L79 9 C71 -59 33 -95 -32 -98 L-56 -98 C-69 -98 -81 -109 -83 -122 L-83 -122 Z M85 567 C95 557 115 555 129 564 L192 604 C208 615 235 615 249 605 L303 564 C314 555 335 557 348 567 C360 577 364 596 355 607 L272 717 C254 740 220 740 197 716 L87 607 C75 596 74 577 85 567 L85 567 Z " />
<glyph glyph-name="Kcommaaccent" unicode="&#x136;" horiz-adv-x="705" d="M112 0 L158 0 C186 0 211 22 214 50 L231 183 C236 232 295 253 322 216 L473 17 C478 10 499 0 509 0 L582 0 C621 0 645 42 622 71 L403 359 C389 376 392 406 410 424 L646 669 C672 696 659 732 624 732 L565 732 C555 732 532 722 525 714 L363 545 C328 508 273 528 279 577 L292 682 C295 710 275 732 248 732 L202 732 C174 732 149 710 146 682 L68 50 C65 22 84 0 112 0 L112 0 Z M309 -341 C363 -307 395 -255 403 -186 C408 -147 384 -115 338 -115 C293 -115 261 -145 256 -184 C252 -223 277 -252 322 -252 L327 -252 C316 -276 300 -294 279 -305 C272 -308 269 -317 271 -323 L275 -333 C281 -346 295 -349 309 -341 L309 -341 Z " />
<glyph glyph-name="kcommaaccent" unicode="&#x137;" horiz-adv-x="586" d="M112 0 L158 0 C186 0 211 22 214 50 L220 98 C224 132 266 147 285 120 L358 18 C364 10 384 0 394 0 L467 0 C506 0 531 42 509 72 L387 237 C374 254 377 284 394 302 L512 425 C538 452 525 488 490 488 L432 488 C421 488 398 478 391 470 L327 403 C299 373 256 389 261 428 L292 682 C295 710 275 732 248 732 L202 732 C174 732 149 710 146 682 L68 50 C65 22 84 0 112 0 L112 0 Z M250 -341 C303 -307 335 -255 343 -186 C348 -147 325 -115 278 -115 C234 -115 202 -145 197 -184 C193 -223 217 -252 262 -252 L267 -252 C257 -276 241 -294 219 -305 C212 -308 209 -317 212 -324 L216 -333 C222 -346 236 -350 250 -341 L250 -341 Z " />
<glyph glyph-name="Lacute" unicode="&#x139;" horiz-adv-x="659" d="M146 682 L68 50 C65 22 84 0 112 0 L549 0 C577 0 602 22 605 50 L610 87 C613 115 593 137 566 137 L275 137 C247 137 228 159 231 187 L292 682 C295 710 275 732 248 732 L202 732 C174 732 149 710 146 682 L146 682 Z M381 815 C527 915 530 917 530 918 C552 938 546 968 530 986 C515 1003 490 1014 466 997 C465 996 460 991 459 991 L342 857 C332 846 331 827 340 817 C349 807 368 806 381 815 L381 815 Z " />
<glyph glyph-name="lacute" unicode="&#x13a;" horiz-adv-x="280" d="M192 50 L270 682 C273 710 253 732 226 732 L189 732 C161 732 136 710 133 682 L55 50 C52 22 71 0 99 0 L136 0 C164 0 189 22 192 50 L192 50 Z M196 815 C342 915 344 917 345 918 C367 938 361 968 345 986 C330 1003 305 1014 281 997 C280 996 275 991 274 991 L157 857 C147 846 146 827 155 817 C164 807 183 806 196 815 L196 815 Z " />
<glyph glyph-name="Lcommaaccent" unicode="&#x13b;" horiz-adv-x="659" d="M146 682 L68 50 C65 22 84 0 112 0 L549 0 C577 0 602 22 605 50 L610 87 C613 115 593 137 566 137 L275 137 C247 137 228 159 231 187 L292 682 C295 710 275 732 248 732 L202 732 C174 732 149 710 146 682 L146 682 Z M286 -341 C340 -307 372 -255 380 -186 C385 -147 361 -115 315 -115 C270 -115 238 -145 233 -184 C229 -223 254 -252 299 -252 L304 -252 C293 -276 277 -294 256 -305 C249 -308 246 -317 248 -323 L252 -333 C258 -346 272 -349 286 -341 L286 -341 Z " />
<glyph glyph-name="lcommaaccent" unicode="&#x13c;" horiz-adv-x="280" d="M192 50 L270 682 C273 710 253 732 226 732 L189 732 C161 732 136 710 133 682 L55 50 C52 22 71 0 99 0 L136 0 C164 0 189 22 192 50 L192 50 Z M97 -341 C151 -307 182 -255 190 -186 C195 -147 172 -115 125 -115 C81 -115 49 -145 44 -184 C40 -223 64 -252 109 -252 L112 -252 C114 -252 115 -253 114 -254 C103 -277 87 -294 66 -305 C59 -308 56 -317 59 -324 L63 -333 C69 -346 83 -350 97 -341 L97 -341 Z " />
<glyph glyph-name="Lcaron" unicode="&#x13d;" horiz-adv-x="659" d="M146 682 L68 50 C65 22 84 0 112 0 L549 0 C577 0 602 22 605 50 L610 87 C613 115 593 137 566 137 L275 137 C247 137 228 159 231 187 L292 682 C295 710 275 732 248 732 L202 732 C174 732 149 710 146 682 L146 682 Z M537 551 C591 585 622 637 631 707 C636 746 612 777 565 777 C521 777 490 747 485 708 C480 669 505 640 550 640 L553 640 C554 640 555 639 554 638 C543 615 527 597 506 587 C500 583 496 574 499 568 L503 559 C509 545 523 542 537 551 L537 551 Z " />
<glyph glyph-name="lcaron" unicode="&#x13e;" horiz-adv-x="585" d="M192 50 L270 682 C273 710 253 732 226 732 L189 732 C161 732 136 710 133 682 L55 50 C52 22 71 0 99 0 L136 0 C164 0 189 22 192 50 L192 50 Z M464 551 C518 585 549 637 558 707 C563 746 539 777 492 777 C448 777 417 747 412 708 C407 669 432 640 477 640 L482 640 C471 616 454 598 433 587 C427 583 423 575 426 569 L430 559 C436 545 450 541 464 551 L464 551 Z " />
<glyph glyph-name="Ldot" unicode="&#x13f;" horiz-adv-x="659" d="M146 682 L68 50 C65 22 84 0 112 0 L549 0 C577 0 602 22 605 50 L610 87 C613 115 593 137 566 137 L275 137 C247 137 228 159 231 187 L292 682 C295 710 275 732 248 732 L202 732 C174 732 149 710 146 682 L146 682 Z M484 555 C523 555 556 583 561 628 C567 673 541 701 502 701 C462 701 430 674 424 627 C419 583 444 555 484 555 L484 555 Z " />
<glyph glyph-name="ldot" unicode="&#x140;" horiz-adv-x="510" d="M192 50 L270 682 C273 710 253 732 226 732 L189 732 C161 732 136 710 133 682 L55 50 C52 22 71 0 99 0 L136 0 C164 0 189 22 192 50 L192 50 Z M418 555 C457 555 490 583 495 628 C501 673 475 701 436 701 C397 701 364 674 358 627 C353 583 379 555 418 555 L418 555 Z " />
<glyph glyph-name="Lslash" unicode="&#x141;" horiz-adv-x="659" d="M146 682 L113 416 C111 402 96 379 83 373 L21 339 C1 329 -8 305 1 287 C9 268 32 262 52 272 L57 275 C77 286 96 274 93 253 L68 50 C65 22 84 0 112 0 L549 0 C577 0 602 22 605 50 L610 87 C613 115 593 137 566 137 L275 137 C247 137 228 159 231 187 L251 353 C253 367 269 390 282 396 L349 432 C369 443 379 467 370 486 C362 505 339 511 319 500 L310 496 C289 485 269 497 272 520 L292 682 C295 710 275 732 248 732 L202 732 C174 732 149 710 146 682 L146 682 Z " />
<glyph glyph-name="lslash" unicode="&#x142;" horiz-adv-x="280" d="M192 50 L229 351 C231 365 247 388 259 394 L329 432 C349 443 359 467 350 486 C342 505 319 511 299 500 L289 495 C268 483 247 496 250 519 L270 682 C273 710 253 732 226 732 L189 732 C161 732 136 710 133 682 L101 420 C99 406 83 383 70 377 L1 339 C-19 329 -28 305 -19 287 C-11 268 12 262 32 272 L41 277 C63 289 83 276 80 253 L55 50 C52 22 71 0 99 0 L136 0 C164 0 189 22 192 50 L192 50 Z " />
<glyph glyph-name="Nacute" unicode="&#x143;" horiz-adv-x="806" d="M213 50 L255 389 C261 436 317 458 345 423 L571 147 C575 142 581 121 580 113 L572 50 C569 22 588 0 616 0 L664 0 C692 0 717 22 720 50 L798 682 C801 710 781 732 754 732 L708 732 C680 732 655 710 652 682 L627 478 C621 430 565 409 536 444 L310 716 C305 723 284 732 275 732 L200 732 C172 732 147 710 144 682 L66 50 C63 22 82 0 110 0 L157 0 C185 0 210 22 213 50 L213 50 Z M455 815 C600 915 603 917 604 918 C626 938 619 968 603 986 C589 1003 564 1014 540 997 C539 996 534 991 533 991 L416 857 C406 846 405 827 414 817 C423 807 442 806 455 815 L455 815 Z " />
<glyph glyph-name="nacute" unicode="&#x144;" horiz-adv-x="559" d="M231 322 C253 353 276 370 301 373 C301 373 307 373 308 373 C371 369 396 331 388 269 L361 50 C358 22 377 0 405 0 L442 0 C470 0 495 22 498 50 L529 303 C542 411 475 488 362 488 C324 488 290 478 259 458 C251 453 241 458 242 466 L242 467 C244 479 235 489 223 489 L158 489 C130 489 105 467 102 439 L54 50 C51 22 70 0 98 0 L135 0 C163 0 188 22 191 50 L222 299 C222 303 228 319 231 322 L231 322 Z M301 571 C447 670 450 672 451 674 C473 694 466 724 450 742 C435 759 410 770 386 753 C385 752 380 747 379 747 L262 613 C252 602 251 583 260 573 C269 563 288 562 301 571 L301 571 Z " />
<glyph glyph-name="Ncommaaccent" unicode="&#x145;" horiz-adv-x="806" d="M213 50 L255 389 C261 436 317 458 345 423 L571 147 C575 142 581 121 580 113 L572 50 C569 22 588 0 616 0 L664 0 C692 0 717 22 720 50 L798 682 C801 710 781 732 754 732 L708 732 C680 732 655 710 652 682 L627 478 C621 430 565 409 536 444 L310 716 C305 723 284 732 275 732 L200 732 C172 732 147 710 144 682 L66 50 C63 22 82 0 110 0 L157 0 C185 0 210 22 213 50 L213 50 Z M359 -341 C413 -307 445 -255 453 -186 C458 -147 435 -115 388 -115 C343 -115 312 -145 307 -184 C303 -223 327 -252 372 -252 L377 -252 C366 -276 350 -294 329 -305 C322 -308 319 -317 321 -323 L325 -333 C331 -346 345 -349 359 -341 L359 -341 Z " />
<glyph glyph-name="ncommaaccent" unicode="&#x146;" horiz-adv-x="559" d="M231 322 C253 353 276 370 301 373 C301 373 307 373 308 373 C371 369 396 331 388 269 L361 50 C358 22 377 0 405 0 L442 0 C470 0 495 22 498 50 L529 303 C542 411 475 488 362 488 C324 488 290 478 259 458 C251 453 241 458 242 466 L242 467 C244 479 235 489 223 489 L158 489 C130 489 105 467 102 439 L54 50 C51 22 70 0 98 0 L135 0 C163 0 188 22 191 50 L222 299 C222 303 228 319 231 322 L231 322 Z M236 -341 C290 -307 322 -255 330 -186 C335 -147 311 -115 264 -115 C220 -115 188 -145 183 -184 C179 -223 203 -252 248 -252 L251 -252 C253 -252 254 -253 253 -254 C242 -277 226 -294 205 -305 C198 -308 195 -317 198 -324 L202 -333 C208 -346 222 -350 236 -341 L236 -341 Z " />
<glyph glyph-name="Ncaron" unicode="&#x147;" horiz-adv-x="806" d="M213 50 L255 389 C261 436 317 458 345 423 L571 147 C575 142 581 121 580 113 L572 50 C569 22 588 0 616 0 L664 0 C692 0 717 22 720 50 L798 682 C801 710 781 732 754 732 L708 732 C680 732 655 710 652 682 L627 478 C621 430 565 409 536 444 L310 716 C305 723 284 732 275 732 L200 732 C172 732 147 710 144 682 L66 50 C63 22 82 0 110 0 L157 0 C185 0 210 22 213 50 L213 50 Z M538 834 L648 944 C660 955 661 974 651 984 C641 994 620 996 607 987 L543 946 C527 936 499 936 486 947 L432 987 C421 996 400 994 388 984 C375 974 372 955 381 944 L463 835 C481 811 515 811 538 834 L538 834 Z " />
<glyph glyph-name="ncaron" unicode="&#x148;" horiz-adv-x="559" d="M231 322 C253 353 276 370 301 373 C301 373 307 373 308 373 C371 369 396 331 388 269 L361 50 C358 22 377 0 405 0 L442 0 C470 0 495 22 498 50 L529 303 C542 411 475 488 362 488 C324 488 290 478 259 458 C251 453 241 458 242 466 L242 467 C244 479 235 489 223 489 L158 489 C130 489 105 467 102 439 L54 50 C51 22 70 0 98 0 L135 0 C163 0 188 22 191 50 L222 299 C222 303 228 319 231 322 L231 322 Z M385 590 L495 700 C507 711 508 730 497 740 C487 750 466 751 453 743 L390 703 C374 692 346 692 333 703 L280 743 C268 751 247 750 234 740 C221 730 218 711 227 700 L310 590 C328 567 362 567 385 590 L385 590 Z " />
<glyph glyph-name="napostrophe" unicode="&#x149;" horiz-adv-x="772" d="M443 322 C465 353 488 370 514 373 C514 373 520 373 521 373 C584 369 609 331 601 269 L574 50 C571 22 590 0 618 0 L655 0 C683 0 708 22 711 50 L742 303 C755 411 687 488 575 488 C537 488 503 478 471 458 C464 453 453 458 454 466 L454 467 C456 479 447 489 435 489 L371 489 C343 489 318 467 315 439 L267 50 C264 22 283 0 311 0 L347 0 C375 0 400 22 403 50 L434 299 C434 303 440 319 443 322 L443 322 Z M166 379 C220 413 251 465 260 535 C264 574 241 605 194 605 C150 605 119 575 114 536 C109 497 133 468 178 468 L183 468 C173 444 157 426 135 415 C129 411 125 402 128 396 L132 387 C138 373 152 370 166 379 L166 379 Z " />
<glyph glyph-name="Eng" unicode="&#x14a;" horiz-adv-x="806" d="M405 -129 L397 -193 C394 -220 413 -242 441 -242 L490 -242 C605 -242 694 -163 708 -47 L798 682 C801 710 781 732 754 732 L708 732 C680 732 655 710 652 682 L617 402 C611 354 554 333 526 368 L251 716 C246 722 225 732 216 732 L194 732 C170 732 147 712 144 688 L66 50 C63 22 82 0 110 0 L157 0 C185 0 210 22 213 50 L247 325 C253 373 310 394 338 359 L564 73 C568 68 574 47 573 40 L568 2 C560 -66 522 -102 456 -105 L432 -105 C419 -105 407 -116 405 -129 L405 -129 Z " />
<glyph glyph-name="eng" unicode="&#x14b;" horiz-adv-x="559" d="M189 -166 L184 -205 C181 -232 200 -254 227 -254 L277 -254 C394 -254 471 -174 485 -60 L529 303 C542 411 475 488 362 488 C324 488 290 478 259 458 C251 453 241 458 242 466 L242 467 C244 479 235 489 223 489 L158 489 C130 489 105 467 102 439 L54 50 C51 22 70 0 98 0 L135 0 C163 0 188 22 191 50 L222 299 C222 303 228 319 231 322 C253 353 276 370 301 373 C301 373 307 373 308 373 C371 369 396 331 388 269 L351 -35 C342 -104 306 -139 240 -142 L216 -142 C202 -142 190 -153 189 -166 L189 -166 Z " />
<glyph glyph-name="Omacron" unicode="&#x14c;" horiz-adv-x="804" d="M68 366 C43 160 182 0 389 0 C596 0 775 159 800 366 C825 573 686 732 479 732 C272 732 93 573 68 366 L68 366 Z M407 137 C275 137 198 238 214 366 C230 494 331 596 462 596 C593 596 670 494 654 366 C638 239 537 137 407 137 L407 137 Z M668 899 C671 921 656 938 634 938 L400 938 C379 938 359 921 356 899 C354 877 369 860 391 860 L625 860 C646 860 666 877 668 899 L668 899 Z " />
<glyph glyph-name="omacron" unicode="&#x14d;" horiz-adv-x="562" d="M51 244 C34 104 127 -5 269 -5 C410 -5 532 103 549 244 C566 385 472 493 331 493 C189 493 68 385 51 244 L51 244 Z M283 113 C208 113 165 170 174 244 C183 316 240 375 315 375 C390 375 433 317 424 244 C415 170 358 113 283 113 L283 113 Z M517 655 C520 677 505 694 483 694 L249 694 C228 694 208 677 205 655 C203 633 218 616 240 616 L474 616 C495 616 515 633 517 655 L517 655 Z " />
<glyph glyph-name="Obreve" unicode="&#x14e;" horiz-adv-x="804" d="M68 366 C43 160 182 0 389 0 C596 0 775 159 800 366 C825 573 686 732 479 732 C272 732 93 573 68 366 L68 366 Z M407 137 C275 137 198 238 214 366 C230 494 331 596 462 596 C593 596 670 494 654 366 C638 239 537 137 407 137 L407 137 Z M586 943 C574 912 546 890 511 890 C476 890 453 912 449 943 C448 952 437 964 429 964 L414 964 C391 964 376 953 379 930 C386 868 435 823 503 823 C571 823 631 868 653 930 C662 953 650 964 626 964 L612 964 C603 964 589 952 586 943 L586 943 Z " />
<glyph glyph-name="obreve" unicode="&#x14f;" horiz-adv-x="562" d="M51 244 C34 104 127 -5 269 -5 C410 -5 532 103 549 244 C566 385 472 493 331 493 C189 493 68 385 51 244 L51 244 Z M283 113 C208 113 165 170 174 244 C183 316 240 375 315 375 C390 375 433 317 424 244 C415 170 358 113 283 113 L283 113 Z M435 699 C424 668 395 646 360 646 C325 646 302 668 298 699 C297 708 286 720 278 720 L263 720 C240 720 226 709 228 686 C235 624 284 579 352 579 C420 579 480 624 502 686 C511 709 499 720 475 720 L461 720 C452 720 438 708 435 699 L435 699 Z " />
<glyph glyph-name="Ohungarumlaut" unicode="&#x150;" horiz-adv-x="804" d="M68 366 C43 160 182 0 389 0 C596 0 775 159 800 366 C825 573 686 732 479 732 C272 732 93 573 68 366 L68 366 Z M407 137 C275 137 198 238 214 366 C230 494 331 596 462 596 C593 596 670 494 654 366 C638 239 537 137 407 137 L407 137 Z M353 815 C498 915 501 917 502 918 C524 938 517 968 501 986 C487 1003 461 1014 438 997 C437 997 432 992 432 991 L314 857 C304 846 303 827 312 817 C321 807 340 806 353 815 L353 815 Z M555 815 C700 915 703 917 704 918 C726 938 720 968 704 986 C689 1003 664 1014 640 997 C639 996 634 991 633 991 L516 857 C506 846 505 827 514 817 C523 807 542 806 555 815 L555 815 Z " />
<glyph glyph-name="ohungarumlaut" unicode="&#x151;" horiz-adv-x="562" d="M51 244 C34 104 127 -5 269 -5 C410 -5 532 103 549 244 C566 385 472 493 331 493 C189 493 68 385 51 244 L51 244 Z M283 113 C208 113 165 170 174 244 C183 316 240 375 315 375 C390 375 433 317 424 244 C415 170 358 113 283 113 L283 113 Z M202 571 C347 670 350 672 351 674 C373 694 366 724 350 742 C336 759 310 770 286 753 C285 752 280 747 279 747 L163 614 C153 602 152 583 161 573 C170 563 189 562 202 571 L202 571 Z M404 571 C549 670 552 672 553 674 C575 694 568 724 552 742 C538 759 513 770 489 753 C488 752 483 747 482 747 L365 613 C355 602 354 583 363 573 C372 563 391 562 404 571 L404 571 Z " />
<glyph glyph-name="OE" unicode="&#x152;" horiz-adv-x="968" d="M924 50 L929 87 C932 115 912 137 885 137 L594 137 C566 137 547 159 550 187 L558 253 C561 281 587 303 614 303 L808 303 C836 303 861 325 864 353 L869 389 C872 417 853 439 825 439 L631 439 C603 439 584 461 587 489 L594 546 C597 574 623 596 650 596 L942 596 C970 596 995 618 998 646 L1003 682 C1006 710 986 732 959 732 L479 732 C273 739 93 568 68 366 C43 166 177 0 389 0 L868 0 C896 0 921 22 924 50 L924 50 Z M214 366 C227 471 297 558 398 586 C433 596 452 577 448 542 L404 189 C400 154 378 136 346 145 C254 172 201 257 214 366 L214 366 Z " />
<glyph glyph-name="oe" unicode="&#x153;" horiz-adv-x="924" d="M51 244 C34 104 127 -5 269 -5 C329 -5 383 12 438 53 C449 62 479 61 488 52 C526 17 582 0 641 0 C710 0 770 16 820 50 C839 63 842 82 828 98 L795 135 C789 143 770 144 761 139 C727 121 692 112 655 112 C614 112 576 133 565 170 C560 186 570 195 588 195 L874 195 C888 195 900 206 902 220 L905 244 C922 385 845 488 701 488 C642 488 589 472 539 437 C525 427 496 425 485 435 C440 476 390 493 331 493 C189 493 68 385 51 244 L51 244 Z M283 113 C208 113 165 170 174 244 C183 316 240 375 315 375 C390 375 433 317 424 244 C415 170 358 113 283 113 L283 113 Z M687 376 C726 376 766 356 774 319 C778 300 767 293 747 293 L606 293 C586 293 577 300 586 319 C603 356 648 376 687 376 L687 376 Z " />
<glyph glyph-name="Racute" unicode="&#x154;" horiz-adv-x="700" d="M586 338 C651 373 689 434 700 521 C717 662 640 732 469 732 L200 732 C172 732 147 710 144 682 L66 50 C63 22 82 0 110 0 L157 0 C185 0 210 22 213 50 L238 253 C241 281 267 303 294 303 L348 303 C362 303 383 290 389 278 L505 25 C510 13 531 0 545 0 L600 0 C640 0 667 38 651 73 L559 278 C550 296 566 327 586 338 L586 338 Z M331 605 L487 605 C545 603 571 568 566 520 C558 467 524 431 465 430 L310 430 C282 430 263 452 266 480 L275 555 C279 583 304 605 331 605 L331 605 Z M402 815 C547 915 550 917 551 918 C573 938 566 968 550 986 C536 1003 510 1014 486 997 C485 996 480 991 479 991 L363 858 C353 846 352 827 361 817 C370 807 389 806 402 815 L402 815 Z " />
<glyph glyph-name="racute" unicode="&#x155;" horiz-adv-x="389" d="M227 488 L167 488 C139 488 114 466 111 438 L63 50 C60 22 79 0 107 0 L143 0 C171 0 196 22 199 50 L228 285 C229 292 235 307 239 312 C272 346 310 361 355 357 C370 355 392 369 397 385 L423 476 C424 481 423 485 419 485 C406 487 394 488 380 488 C339 487 301 475 268 452 C260 447 248 451 249 460 L250 462 C251 476 241 488 227 488 L227 488 Z M216 571 C361 670 364 672 365 674 C387 694 381 724 364 742 C350 759 325 770 301 753 C300 752 295 747 294 747 L177 613 C167 602 166 583 175 573 C184 563 203 562 216 571 L216 571 Z " />
<glyph glyph-name="Rcommaaccent" unicode="&#x156;" horiz-adv-x="700" d="M586 338 C651 373 689 434 700 521 C717 662 640 732 469 732 L200 732 C172 732 147 710 144 682 L66 50 C63 22 82 0 110 0 L157 0 C185 0 210 22 213 50 L238 253 C241 281 267 303 294 303 L348 303 C362 303 383 290 389 278 L505 25 C510 13 531 0 545 0 L600 0 C640 0 667 38 651 73 L559 278 C550 296 566 327 586 338 L586 338 Z M331 605 L487 605 C545 603 571 568 566 520 C558 467 524 431 465 430 L310 430 C282 430 263 452 266 480 L275 555 C279 583 304 605 331 605 L331 605 Z M306 -341 C360 -307 392 -255 400 -186 C405 -147 382 -115 335 -115 C290 -115 258 -145 253 -184 C249 -223 274 -252 319 -252 L324 -252 C313 -276 297 -294 276 -305 C269 -308 266 -317 268 -323 L272 -333 C278 -346 292 -349 306 -341 L306 -341 Z " />
<glyph glyph-name="rcommaaccent" unicode="&#x157;" horiz-adv-x="389" d="M227 488 L167 488 C139 488 114 466 111 438 L63 50 C60 22 79 0 107 0 L143 0 C171 0 196 22 199 50 L228 285 C229 292 235 307 239 312 C272 346 310 361 355 357 C370 355 392 369 397 385 L423 476 C424 481 423 485 419 485 C406 487 394 488 380 488 C339 487 301 475 268 452 C260 447 248 451 249 460 L250 462 C251 476 241 488 227 488 L227 488 Z M151 -341 C205 -307 237 -255 245 -186 C250 -147 226 -115 179 -115 C135 -115 103 -145 98 -184 C94 -223 118 -252 163 -252 L166 -252 C168 -252 169 -253 168 -254 C157 -277 141 -294 121 -305 C114 -308 111 -317 113 -323 L117 -333 C123 -346 137 -349 151 -341 L151 -341 Z " />
<glyph glyph-name="Rcaron" unicode="&#x158;" horiz-adv-x="700" d="M331 605 L487 605 C545 603 571 568 566 520 C558 467 524 431 465 430 L310 430 C282 430 263 452 266 480 L275 555 C279 583 304 605 331 605 L331 605 Z M586 338 C651 373 689 434 700 521 C717 662 640 732 469 732 L200 732 C172 732 147 710 144 682 L66 50 C63 22 82 0 110 0 L157 0 C185 0 210 22 213 50 L238 253 C241 281 267 303 294 303 L348 303 C362 303 383 290 389 278 L505 25 C510 13 531 0 545 0 L600 0 C640 0 667 38 651 73 L559 278 C550 296 566 327 586 338 L586 338 Z M485 834 L595 944 C607 955 608 974 598 984 C588 994 567 996 554 987 L490 946 C474 936 446 936 433 947 L380 987 C368 995 347 994 334 984 C321 974 318 955 327 944 L410 834 C428 811 462 811 485 834 L485 834 Z " />
<glyph glyph-name="rcaron" unicode="&#x159;" horiz-adv-x="389" d="M227 488 L167 488 C139 488 114 466 111 438 L63 50 C60 22 79 0 107 0 L143 0 C171 0 196 22 199 50 L228 285 C229 292 235 307 239 312 C272 346 310 361 355 357 C370 355 392 369 397 385 L423 476 C424 481 423 485 419 485 C406 487 394 488 380 488 C339 487 301 475 268 452 C260 447 248 451 249 460 L250 462 C251 476 241 488 227 488 L227 488 Z M300 590 L410 700 C422 711 423 730 412 740 C402 750 381 751 368 743 L305 703 C289 692 261 692 248 703 L195 743 C183 751 162 750 149 740 C136 730 133 711 142 700 L225 590 C243 567 277 567 300 590 L300 590 Z " />
<glyph glyph-name="Sacute" unicode="&#x15a;" horiz-adv-x="642" d="M603 670 C545 718 489 732 388 732 C273 732 123 646 108 518 C90 374 201 331 316 312 C492 285 474 130 295 137 C232 142 185 158 154 186 C146 193 126 195 117 187 L68 143 C44 121 39 94 61 75 C125 22 199 0 302 0 C425 0 581 83 597 215 C616 363 508 420 381 439 C219 464 240 596 400 596 C448 596 486 582 514 556 C522 548 541 547 550 555 L598 598 C623 620 625 651 603 670 L603 670 Z M373 815 C518 915 521 917 522 918 C544 938 537 968 521 986 C507 1003 482 1014 458 997 C457 996 452 991 451 991 L334 857 C324 846 323 827 332 817 C341 807 360 806 373 815 L373 815 Z " />
<glyph glyph-name="sacute" unicode="&#x15b;" horiz-adv-x="453" d="M423 449 C384 481 348 491 278 491 C192 491 98 431 86 336 C73 232 140 197 227 187 C271 183 295 174 301 162 C320 125 261 102 217 107 C179 111 150 122 131 140 C125 145 113 146 107 140 L57 92 C42 77 41 58 56 46 C93 14 143 -5 219 -5 C308 -5 407 42 419 141 C433 254 373 291 274 303 C209 316 190 336 215 360 C228 373 251 379 284 379 C311 379 333 370 351 352 C357 346 368 346 375 352 L419 396 C437 414 440 435 423 449 L423 449 Z M248 571 C393 670 396 672 397 674 C419 694 413 724 397 742 C382 759 357 770 333 753 C332 752 327 747 326 747 L209 613 C199 602 198 583 207 573 C216 563 235 562 248 571 L248 571 Z " />
<glyph glyph-name="Scircumflex" unicode="&#x15c;" horiz-adv-x="642" d="M603 670 C545 718 489 732 388 732 C273 732 123 646 108 518 C90 374 201 331 316 312 C492 285 474 130 295 137 C232 142 185 158 154 186 C146 193 126 195 117 187 L68 143 C44 121 39 94 61 75 C125 22 199 0 302 0 C425 0 581 83 597 215 C616 363 508 420 381 439 C219 464 240 596 400 596 C448 596 486 582 514 556 C522 548 541 547 550 555 L598 598 C623 620 625 651 603 670 L603 670 Z M285 812 C295 801 315 800 329 808 L392 848 C408 859 435 859 449 849 L503 808 C514 799 535 801 548 811 C560 821 564 840 555 851 L471 961 C454 984 420 984 396 961 L288 852 C276 841 274 822 285 812 L285 812 Z " />
<glyph glyph-name="scircumflex" unicode="&#x15d;" horiz-adv-x="453" d="M423 449 C384 481 348 491 278 491 C192 491 98 431 86 336 C73 232 140 197 227 187 C271 183 295 174 301 162 C320 125 261 102 217 107 C179 111 150 122 131 140 C125 145 113 146 107 140 L57 92 C42 77 41 58 56 46 C93 14 143 -5 219 -5 C308 -5 407 42 419 141 C433 254 373 291 274 303 C209 316 190 336 215 360 C228 373 251 379 284 379 C311 379 333 370 351 352 C357 346 368 346 375 352 L419 396 C437 414 440 435 423 449 L423 449 Z M160 567 C170 557 191 556 205 564 L268 604 C284 615 311 615 325 605 L379 564 C390 555 411 557 424 567 C436 577 440 596 431 607 L347 717 C330 740 296 740 273 717 L163 607 C151 596 150 577 160 567 L160 567 Z " />
<glyph glyph-name="Scedilla" unicode="&#x15e;" horiz-adv-x="642" d="M289 -200 C346 -200 405 -153 413 -91 C418 -51 393 -22 344 -3 C342 -3 341 -1 342 1 C343 1 352 4 353 4 C464 23 583 101 597 215 C616 363 508 420 381 439 C219 464 240 596 400 596 C448 596 486 582 514 556 C522 548 541 547 550 555 L598 598 C623 620 625 651 603 670 C545 718 489 732 388 732 C273 732 123 646 108 518 C90 374 201 331 316 312 C492 285 474 130 295 137 C232 142 185 158 154 186 C146 193 126 195 117 187 L66 141 C43 120 40 93 61 75 C110 34 166 11 237 3 C248 2 251 -10 243 -21 C236 -32 239 -45 252 -49 L303 -65 C322 -71 333 -80 332 -93 C330 -108 313 -120 299 -120 C287 -120 277 -111 268 -98 C265 -94 258 -92 253 -94 L216 -111 C202 -118 196 -130 202 -143 C217 -175 248 -200 289 -200 L289 -200 Z " />
<glyph glyph-name="scedilla" unicode="&#x15f;" horiz-adv-x="453" d="M195 -200 C251 -200 311 -153 319 -91 C323 -58 306 -32 272 -14 C267 -11 272 1 278 2 C348 18 410 64 419 141 C433 254 373 291 274 303 C209 316 190 336 215 360 C228 373 251 379 284 379 C311 379 333 370 351 352 C357 346 368 346 375 352 L419 396 C437 414 440 435 423 449 C384 481 348 491 278 491 C192 491 98 431 86 336 C73 232 140 197 227 187 C271 183 295 174 301 162 C320 125 261 102 217 107 C179 111 150 122 131 140 C125 145 113 146 107 140 L52 86 C41 75 40 60 50 51 C74 29 103 13 141 4 C152 1 155 -11 148 -21 C141 -32 145 -45 157 -49 L209 -65 C227 -71 239 -80 238 -93 C236 -108 219 -120 205 -120 C193 -120 182 -111 174 -98 C171 -94 164 -92 159 -94 L122 -111 C107 -118 101 -130 107 -143 C122 -175 153 -200 195 -200 L195 -200 Z " />
<glyph glyph-name="Scaron" unicode="&#x160;" horiz-adv-x="642" d="M603 670 C545 718 489 732 388 732 C273 732 123 646 108 518 C90 374 201 331 316 312 C492 285 474 130 295 137 C232 142 185 158 154 186 C146 193 126 195 117 187 L68 143 C44 121 39 94 61 75 C125 22 199 0 302 0 C425 0 581 83 597 215 C616 363 508 420 381 439 C219 464 240 596 400 596 C448 596 486 582 514 556 C522 548 541 547 550 555 L598 598 C623 620 625 651 603 670 L603 670 Z M456 834 L566 944 C578 955 579 974 569 984 C559 994 538 996 525 987 L461 946 C445 936 417 936 404 947 L350 987 C339 996 318 994 306 984 C293 974 290 955 299 944 L381 835 C399 811 433 811 456 834 L456 834 Z " />
<glyph glyph-name="scaron" unicode="&#x161;" horiz-adv-x="453" d="M423 449 C384 481 348 491 278 491 C192 491 98 431 86 336 C73 232 140 197 227 187 C271 183 295 174 301 162 C320 125 261 102 217 107 C179 111 150 122 131 140 C125 145 113 146 107 140 L57 92 C42 77 41 58 56 46 C93 14 143 -5 219 -5 C308 -5 407 42 419 141 C433 254 373 291 274 303 C209 316 190 336 215 360 C228 373 251 379 284 379 C311 379 333 370 351 352 C357 346 368 346 375 352 L419 396 C437 414 440 435 423 449 L423 449 Z M332 590 L442 700 C454 711 455 730 445 740 C435 750 414 752 401 743 L337 702 C321 692 293 692 280 703 L227 743 C215 751 194 750 181 740 C168 730 165 711 174 700 L257 590 C275 567 309 567 332 590 L332 590 Z " />
<glyph glyph-name="Tcommaaccent" unicode="&#x162;" horiz-adv-x="707" d="M107 682 L102 646 C99 618 119 596 146 596 L290 596 C318 596 337 574 334 546 L273 50 C270 22 289 0 317 0 L364 0 C392 0 417 22 420 50 L481 546 C484 574 510 596 537 596 L681 596 C709 596 734 618 737 646 L742 682 C745 710 725 732 698 732 L163 732 C135 732 110 710 107 682 L107 682 Z M310 -341 C364 -307 395 -255 403 -186 C408 -147 385 -115 338 -115 C294 -115 262 -145 257 -184 C253 -223 277 -252 322 -252 L327 -252 C317 -276 301 -294 279 -305 C272 -308 269 -317 272 -324 L276 -333 C282 -346 296 -350 310 -341 L310 -341 Z " />
<glyph glyph-name="tcommaaccent" unicode="&#x163;" horiz-adv-x="384" d="M270 0 C294 0 318 6 340 16 C348 20 352 29 350 37 L337 112 C337 117 332 120 327 119 C313 116 304 115 299 115 C264 115 242 133 249 186 L267 336 C270 358 291 377 314 377 C337 377 358 396 360 419 L364 447 C367 469 350 488 327 488 C305 488 288 507 291 530 L298 585 C301 613 282 635 254 635 L217 635 C189 635 164 613 161 585 L153 525 C151 504 133 488 112 488 C92 488 74 472 71 452 L67 414 C64 393 79 377 99 377 C119 377 133 361 131 341 L109 166 C97 62 167 0 270 0 L270 0 Z M148 -341 C202 -307 234 -255 242 -186 C247 -147 224 -115 177 -115 C132 -115 101 -145 96 -184 C92 -223 116 -252 161 -252 L166 -252 C155 -276 139 -294 118 -305 C111 -308 108 -317 110 -323 L114 -333 C120 -346 134 -349 148 -341 L148 -341 Z " />
<glyph glyph-name="Tcaron" unicode="&#x164;" horiz-adv-x="707" d="M107 682 L102 646 C99 618 119 596 146 596 L290 596 C318 596 337 574 334 546 L273 50 C270 22 289 0 317 0 L364 0 C392 0 417 22 420 50 L481 546 C484 574 510 596 537 596 L681 596 C709 596 734 618 737 646 L742 682 C745 710 725 732 698 732 L163 732 C135 732 110 710 107 682 L107 682 Z M489 835 L598 944 C610 955 611 974 601 984 C591 994 570 996 557 987 L494 947 C478 936 450 936 437 946 L383 987 C371 996 350 994 338 984 C325 974 322 955 331 944 L414 834 C432 811 466 811 489 835 L489 835 Z " />
<glyph glyph-name="tcaron" unicode="&#x165;" horiz-adv-x="689" d="M270 0 C294 0 318 6 340 16 C348 20 352 29 350 37 L337 112 C337 117 332 120 327 119 C313 116 304 115 299 115 C264 115 242 133 249 186 L267 336 C270 358 291 377 314 377 C337 377 358 396 360 419 L364 447 C367 469 350 488 327 488 C305 488 288 507 291 530 L298 585 C301 613 282 635 254 635 L217 635 C189 635 164 613 161 585 L153 525 C151 504 133 488 112 488 C92 488 74 472 71 452 L67 414 C64 393 79 377 99 377 C119 377 133 361 131 341 L109 166 C97 62 167 0 270 0 L270 0 Z M568 551 C623 585 654 637 663 707 C668 746 643 777 596 777 C552 777 521 747 516 708 C511 669 537 640 581 640 L584 640 C585 640 586 639 585 638 C574 615 558 597 538 587 C532 583 528 575 531 569 L535 559 C540 545 554 542 568 551 L568 551 Z " />
<glyph glyph-name="Tbar" unicode="&#x166;" horiz-adv-x="707" d="M303 291 L273 50 C270 22 289 0 317 0 L364 0 C392 0 417 22 420 50 L450 293 C453 315 473 333 495 333 L497 333 C518 333 538 350 541 372 C543 394 528 411 506 411 L505 411 C483 411 467 429 469 452 L481 546 C484 574 510 596 537 596 L681 596 C709 596 734 618 737 646 L742 682 C745 710 725 732 698 732 L163 732 C135 732 110 710 107 682 L102 646 C99 618 119 596 146 596 L290 596 C318 596 337 574 334 546 L323 453 C320 430 299 411 275 411 L272 411 C251 411 231 394 229 372 C226 350 241 333 263 333 L266 333 C289 333 306 314 303 291 L303 291 Z " />
<glyph glyph-name="tbar" unicode="&#x167;" horiz-adv-x="384" d="M113 192 L109 166 C97 62 167 0 270 0 C294 0 318 6 340 16 C348 20 352 29 350 37 L337 112 C337 117 332 120 327 119 C313 116 304 115 299 115 C264 115 242 133 249 186 L251 202 C252 210 260 217 268 217 L302 217 C323 217 343 234 345 256 C348 278 333 295 311 295 L303 295 C281 295 264 313 267 336 C270 359 291 377 313 377 L314 377 C337 377 358 396 360 419 L364 447 C367 469 350 488 327 488 C305 488 288 507 291 530 L298 585 C301 613 282 635 254 635 L217 635 C189 635 164 613 161 585 L153 525 C151 504 133 488 112 488 C92 488 74 472 71 452 L67 414 C64 393 79 377 99 377 C119 377 133 361 131 341 L130 336 C127 313 107 295 84 295 L76 295 C55 295 35 278 32 256 C30 234 45 217 67 217 L90 217 C104 217 114 206 113 192 L113 192 Z " />
<glyph glyph-name="Utilde" unicode="&#x168;" horiz-adv-x="782" d="M133 682 L82 269 C62 102 206 0 366 0 C527 0 697 102 717 269 L768 682 C771 710 751 732 724 732 L677 732 C649 732 624 710 621 682 L575 308 C562 200 485 146 384 146 C283 146 220 200 233 308 L279 682 C282 710 262 732 235 732 L189 732 C161 732 136 710 133 682 L133 682 Z M369 850 C370 852 374 885 396 890 C410 894 432 882 464 854 C557 770 701 806 731 936 C737 967 721 983 691 983 L641 983 C633 983 625 976 624 968 L622 952 C616 920 585 918 535 958 C441 1034 310 1020 264 896 C252 862 270 850 305 850 L352 850 C361 850 368 841 369 850 L369 850 Z " />
<glyph glyph-name="utilde" unicode="&#x169;" horiz-adv-x="549" d="M357 163 C335 134 312 119 287 116 C287 116 281 116 280 116 C217 120 191 157 199 220 L226 439 C229 467 210 489 182 489 L146 489 C118 489 93 467 90 439 L59 186 C46 78 113 0 226 0 C263 0 298 10 329 30 C337 35 347 31 346 22 L346 22 C344 10 353 0 365 0 L430 0 C458 0 483 22 486 50 L534 439 C537 467 518 489 490 489 L453 489 C425 489 400 467 397 439 L366 186 C365 182 360 166 357 163 L357 163 Z M223 605 C224 607 228 641 249 646 C264 649 286 638 318 609 C411 526 556 562 585 692 C591 723 575 739 545 739 L495 739 C487 739 479 732 478 724 L476 708 C470 676 439 674 389 714 C295 790 164 776 118 651 C106 618 124 605 158 605 L205 605 C215 605 222 595 223 605 L223 605 Z " />
<glyph glyph-name="Umacron" unicode="&#x16a;" horiz-adv-x="782" d="M133 682 L82 269 C62 102 206 0 366 0 C527 0 697 102 717 269 L768 682 C771 710 751 732 724 732 L677 732 C649 732 624 710 621 682 L575 308 C562 200 485 146 384 146 C283 146 220 200 233 308 L279 682 C282 710 262 732 235 732 L189 732 C161 732 136 710 133 682 L133 682 Z M657 899 C660 921 645 938 623 938 L388 938 C367 938 347 921 344 899 C342 877 357 860 379 860 L614 860 C635 860 655 877 657 899 L657 899 Z " />
<glyph glyph-name="umacron" unicode="&#x16b;" horiz-adv-x="549" d="M357 163 C335 134 312 119 287 116 C287 116 281 116 280 116 C217 120 191 157 199 220 L226 439 C229 467 210 489 182 489 L146 489 C118 489 93 467 90 439 L59 186 C46 78 113 0 226 0 C263 0 298 10 329 30 C337 35 347 31 346 22 L346 22 C344 10 353 0 365 0 L430 0 C458 0 483 22 486 50 L534 439 C537 467 518 489 490 489 L453 489 C425 489 400 467 397 439 L366 186 C365 182 360 166 357 163 L357 163 Z M511 655 C514 677 499 694 477 694 L242 694 C221 694 201 677 198 655 C196 633 211 616 233 616 L468 616 C489 616 509 633 511 655 L511 655 Z " />
<glyph glyph-name="Ubreve" unicode="&#x16c;" horiz-adv-x="782" d="M133 682 L82 269 C62 102 206 0 366 0 C527 0 697 102 717 269 L768 682 C771 710 751 732 724 732 L677 732 C649 732 624 710 621 682 L575 308 C562 200 485 146 384 146 C283 146 220 200 233 308 L279 682 C282 710 262 732 235 732 L189 732 C161 732 136 710 133 682 L133 682 Z M574 943 C563 912 535 890 500 890 C465 890 442 912 438 943 C437 952 426 964 418 964 L403 964 C380 964 365 953 368 930 C375 868 424 823 492 823 C560 823 620 868 642 930 C651 953 639 964 615 964 L600 964 C591 964 577 952 574 943 L574 943 Z " />
<glyph glyph-name="ubreve" unicode="&#x16d;" horiz-adv-x="549" d="M357 163 C335 134 312 119 287 116 C287 116 281 116 280 116 C217 120 191 157 199 220 L226 439 C229 467 210 489 182 489 L146 489 C118 489 93 467 90 439 L59 186 C46 78 113 0 226 0 C263 0 298 10 329 30 C337 35 347 31 346 22 L346 22 C344 10 353 0 365 0 L430 0 C458 0 483 22 486 50 L534 439 C537 467 518 489 490 489 L453 489 C425 489 400 467 397 439 L366 186 C365 182 360 166 357 163 L357 163 Z M428 699 C417 668 389 646 353 646 C319 646 296 668 292 699 C291 708 280 720 272 720 L257 720 C233 720 218 709 221 686 C229 624 278 579 345 579 C413 579 474 624 496 686 C505 709 493 720 469 720 L454 720 C445 720 431 708 428 699 L428 699 Z " />
<glyph glyph-name="Uring" unicode="&#x16e;" horiz-adv-x="782" d="M133 682 L82 269 C62 102 206 0 366 0 C527 0 697 102 717 269 L768 682 C771 710 751 732 724 732 L677 732 C649 732 624 710 621 682 L575 308 C562 200 485 146 384 146 C283 146 220 200 233 308 L279 682 C282 710 262 732 235 732 L189 732 C161 732 136 710 133 682 L133 682 Z M490 804 C550 804 600 848 609 917 C617 986 577 1030 517 1030 C457 1030 406 988 397 916 C389 848 430 804 490 804 L490 804 Z M498 875 C475 875 461 891 465 917 C468 943 486 958 509 958 C531 958 545 943 542 917 C538 891 520 875 498 875 L498 875 Z " />
<glyph glyph-name="uring" unicode="&#x16f;" horiz-adv-x="549" d="M357 163 C335 134 312 119 287 116 C287 116 281 116 280 116 C217 120 191 157 199 220 L226 439 C229 467 210 489 182 489 L146 489 C118 489 93 467 90 439 L59 186 C46 78 113 0 226 0 C263 0 298 10 329 30 C337 35 347 31 346 22 L346 22 C344 10 353 0 365 0 L430 0 C458 0 483 22 486 50 L534 439 C537 467 518 489 490 489 L453 489 C425 489 400 467 397 439 L366 186 C365 182 360 166 357 163 L357 163 Z M344 560 C404 560 454 604 463 673 C471 742 432 786 372 786 C311 786 260 744 252 672 C243 604 283 560 344 560 L344 560 Z M351 631 C329 631 314 647 318 672 C321 699 340 714 362 714 C384 714 399 699 396 673 C392 647 373 631 351 631 L351 631 Z " />
<glyph glyph-name="Uhungarumlaut" unicode="&#x170;" horiz-adv-x="782" d="M133 682 L82 269 C62 102 206 0 366 0 C527 0 697 102 717 269 L768 682 C771 710 751 732 724 732 L677 732 C649 732 624 710 621 682 L575 308 C562 200 485 146 384 146 C283 146 220 200 233 308 L279 682 C282 710 262 732 235 732 L189 732 C161 732 136 710 133 682 L133 682 Z M544 815 C689 915 692 917 693 918 C715 938 708 968 692 986 C678 1003 652 1014 628 997 C627 996 622 991 621 991 L505 858 C495 846 494 827 503 817 C512 807 531 806 544 815 L544 815 Z M342 815 C487 915 490 917 491 918 C513 938 506 968 490 986 C476 1003 450 1014 426 997 C425 996 420 991 419 991 L303 858 C293 846 292 827 301 817 C310 807 329 806 342 815 L342 815 Z " />
<glyph glyph-name="uhungarumlaut" unicode="&#x171;" horiz-adv-x="549" d="M357 163 C335 134 312 119 287 116 C287 116 281 116 280 116 C217 120 191 157 199 220 L226 439 C229 467 210 489 182 489 L146 489 C118 489 93 467 90 439 L59 186 C46 78 113 0 226 0 C263 0 298 10 329 30 C337 35 347 31 346 22 L346 22 C344 10 353 0 365 0 L430 0 C458 0 483 22 486 50 L534 439 C537 467 518 489 490 489 L453 489 C425 489 400 467 397 439 L366 186 C365 182 360 166 357 163 L357 163 Z M398 571 C543 670 546 672 547 674 C569 694 562 724 546 742 C531 759 506 770 482 753 C481 752 476 747 475 747 L359 614 C349 602 348 583 357 573 C366 563 385 562 398 571 L398 571 Z M196 571 C341 670 344 672 345 674 C367 694 360 724 344 742 C329 759 304 770 280 753 C279 752 274 747 273 747 L157 614 C146 602 145 583 155 573 C164 563 183 562 196 571 L196 571 Z " />
<glyph glyph-name="Uogonek" unicode="&#x172;" horiz-adv-x="782" d="M133 682 L82 269 C62 102 206 0 366 0 C376 0 387 0 397 1 C399 1 399 -2 398 -5 C389 -22 383 -43 380 -66 C369 -153 425 -209 511 -209 C570 -209 613 -187 647 -152 C661 -138 660 -122 647 -112 L613 -86 C607 -81 594 -84 587 -90 C567 -109 544 -119 516 -119 C486 -119 462 -99 468 -49 C471 -24 483 -2 500 17 C503 20 513 28 516 29 C619 71 703 155 717 269 L768 682 C771 710 751 732 724 732 L677 732 C649 732 624 710 621 682 L575 308 C562 200 485 146 384 146 C283 146 220 200 233 308 L279 682 C282 710 262 732 235 732 L189 732 C161 732 136 710 133 682 L133 682 Z " />
<glyph glyph-name="uogonek" unicode="&#x173;" horiz-adv-x="549" d="M357 163 C335 134 312 119 287 116 C287 116 281 116 280 116 C217 120 191 157 199 220 L226 439 C229 467 210 489 182 489 L146 489 C118 489 93 467 90 439 L59 186 C47 89 100 18 191 3 C196 2 195 -3 193 -8 C185 -24 179 -44 176 -66 C165 -153 222 -209 307 -209 C366 -209 409 -187 443 -152 C457 -138 456 -122 443 -111 L410 -86 C404 -81 390 -84 384 -90 C364 -109 340 -119 312 -119 C282 -119 259 -99 265 -49 C267 -30 274 -13 285 3 C287 6 299 15 303 16 C315 22 327 28 338 37 C342 39 348 38 347 33 L346 22 C344 10 353 0 365 0 L430 0 C458 0 483 22 486 50 L534 439 C537 467 518 489 490 489 L453 489 C425 489 400 467 397 439 L366 186 C365 182 360 166 357 163 L357 163 Z " />
<glyph glyph-name="Wcircumflex" unicode="&#x174;" horiz-adv-x="1042" d="M574 482 L646 36 C649 17 670 0 690 0 L760 0 C780 0 805 17 812 37 L1059 669 C1072 703 1053 732 1019 732 L965 732 C945 732 920 715 912 695 L756 291 C754 287 749 284 745 284 C741 284 737 287 737 291 L678 695 C675 715 655 732 635 732 L560 732 C540 732 515 715 507 695 L347 292 C345 288 340 284 335 284 C331 284 326 288 326 292 L268 695 C265 715 245 732 224 732 L172 732 C137 732 111 703 116 669 L207 37 C210 17 230 0 250 0 L321 0 C341 0 366 17 374 36 L555 482 C557 486 562 489 566 489 C570 489 574 486 574 482 L574 482 Z M485 812 C495 801 515 799 529 808 L593 849 C609 859 636 859 649 848 L703 808 C714 799 735 801 748 811 C760 821 764 840 755 851 L672 961 C655 984 621 984 597 961 L488 852 C476 841 474 822 485 812 L485 812 Z " />
<glyph glyph-name="wcircumflex" unicode="&#x175;" horiz-adv-x="713" d="M449 0 L496 0 C516 0 541 17 548 37 L700 427 C713 460 694 489 660 489 L635 489 C614 489 589 472 582 452 L540 341 C525 304 472 304 467 342 L455 450 C453 471 433 489 411 489 L389 489 C368 489 343 472 336 451 L295 345 C281 306 226 306 221 344 L206 452 C203 472 183 489 162 489 L137 489 C102 489 76 460 81 427 L138 37 C140 17 161 0 181 0 L228 0 C247 0 272 17 280 36 L317 123 C332 160 383 160 390 123 L406 36 C409 17 430 0 449 0 L449 0 Z M290 567 C300 557 321 556 335 564 L398 604 C414 615 441 615 455 604 L508 564 C519 556 540 557 553 567 C566 577 570 596 561 607 L477 717 C460 740 426 740 403 717 L293 607 C281 596 280 577 290 567 L290 567 Z " />
<glyph glyph-name="Ycircumflex" unicode="&#x176;" horiz-adv-x="749" d="M329 350 L292 50 C289 22 308 0 336 0 L382 0 C410 0 435 22 438 50 L475 350 C476 355 485 375 488 379 L733 664 C759 694 744 732 707 732 L648 732 C637 732 613 721 605 711 L467 549 C442 520 404 520 386 550 L291 711 C286 720 265 732 253 732 L193 732 C155 732 130 694 149 663 L323 379 C325 375 330 355 329 350 L329 350 Z M338 812 C348 801 369 800 383 808 L446 848 C462 859 489 859 503 848 L556 808 C567 800 588 801 601 811 C614 821 618 840 609 851 L525 961 C508 984 474 984 451 961 L341 853 C329 841 328 822 338 812 L338 812 Z " />
<glyph glyph-name="ycircumflex" unicode="&#x177;" horiz-adv-x="551" d="M228 -179 L544 424 C561 457 544 488 508 488 L473 488 C456 488 431 472 423 456 L347 306 C324 261 265 261 253 306 L215 456 C211 472 190 488 172 488 L137 488 C101 488 75 457 83 423 L178 17 C179 11 176 -11 173 -17 L108 -147 C92 -179 109 -210 144 -210 L177 -210 C195 -210 219 -195 228 -179 L228 -179 Z M209 567 C219 557 240 556 254 564 L317 604 C333 615 360 615 374 604 L427 564 C438 556 459 557 472 567 C485 577 489 596 480 607 L396 717 C379 740 345 740 322 717 L212 607 C200 596 199 577 209 567 L209 567 Z " />
<glyph glyph-name="Ydieresis" unicode="&#x178;" horiz-adv-x="749" d="M329 350 L292 50 C289 22 308 0 336 0 L382 0 C410 0 435 22 438 50 L475 350 C476 355 485 375 488 379 L733 664 C759 694 744 732 707 732 L648 732 C637 732 613 721 605 711 L467 549 C442 520 404 520 386 550 L291 711 C286 720 265 732 253 732 L193 732 C155 732 130 694 149 663 L323 379 C325 375 330 355 329 350 L329 350 Z M614 844 C653 844 686 872 692 917 C697 962 671 990 632 990 C593 990 559 963 553 916 C548 872 575 844 614 844 L614 844 Z M343 844 C382 844 414 872 420 917 C425 962 400 990 361 990 C322 990 288 963 283 917 C277 872 304 844 343 844 L343 844 Z " />
<glyph glyph-name="Zacute" unicode="&#x179;" horiz-adv-x="720" d="M601 137 L399 137 C357 137 340 178 367 214 L708 667 C711 670 719 689 719 693 L721 706 C722 720 712 732 697 732 L188 732 C160 732 135 710 132 682 L127 646 C124 618 144 596 171 596 L373 596 C415 596 433 555 406 519 L63 61 C60 58 53 39 52 35 L51 25 C49 11 59 0 73 0 L584 0 C612 0 637 22 640 50 L645 87 C648 115 628 137 601 137 L601 137 Z M412 815 C557 915 560 917 561 918 C583 938 577 968 560 986 C546 1003 521 1014 497 997 C496 996 491 991 490 991 L373 857 C363 846 362 827 371 817 C380 807 399 806 412 815 L412 815 Z " />
<glyph glyph-name="zacute" unicode="&#x17a;" horiz-adv-x="495" d="M396 115 L331 115 C289 115 271 155 297 191 L479 440 C481 443 489 462 489 466 L490 470 C491 479 484 487 474 487 L152 487 C124 487 99 465 96 437 L94 422 C90 394 110 372 138 372 L202 372 C244 372 262 332 236 296 L55 45 C52 41 45 23 44 19 L44 17 C43 7 49 0 59 0 L382 0 C410 0 435 22 438 50 L440 65 C443 93 424 115 396 115 L396 115 Z M269 571 C414 670 417 672 418 674 C440 694 434 724 418 742 C403 759 378 770 354 753 C353 752 348 747 347 747 L230 613 C220 602 219 583 228 573 C237 563 256 562 269 571 L269 571 Z " />
<glyph glyph-name="Zdotaccent" unicode="&#x17b;" horiz-adv-x="720" d="M601 137 L399 137 C357 137 340 178 367 214 L708 667 C711 670 719 689 719 693 L721 706 C722 720 712 732 697 732 L188 732 C160 732 135 710 132 682 L127 646 C124 618 144 596 171 596 L373 596 C415 596 433 555 406 519 L63 61 C60 58 53 39 52 35 L51 25 C49 11 59 0 73 0 L584 0 C612 0 637 22 640 50 L645 87 C648 115 628 137 601 137 L601 137 Z M464 844 C503 844 536 872 542 917 C547 962 521 990 482 990 C443 990 410 963 405 917 C399 872 425 844 464 844 L464 844 Z " />
<glyph glyph-name="zdotaccent" unicode="&#x17c;" horiz-adv-x="495" d="M396 115 L331 115 C289 115 271 155 297 191 L479 440 C481 443 489 462 489 466 L490 470 C491 479 484 487 474 487 L152 487 C124 487 99 465 96 437 L94 422 C90 394 110 372 138 372 L202 372 C244 372 262 332 236 296 L55 45 C52 41 45 23 44 19 L44 17 C43 7 49 0 59 0 L382 0 C410 0 435 22 438 50 L440 65 C443 93 424 115 396 115 L396 115 Z M322 600 C361 600 393 628 399 673 C404 718 379 746 340 746 C300 746 267 719 262 672 C256 628 282 600 322 600 L322 600 Z " />
<glyph glyph-name="Zcaron" unicode="&#x17d;" horiz-adv-x="720" d="M601 137 L399 137 C357 137 340 178 367 214 L708 667 C711 670 719 689 719 693 L721 706 C722 720 712 732 697 732 L188 732 C160 732 135 710 132 682 L127 646 C124 618 144 596 171 596 L373 596 C415 596 433 555 406 519 L63 61 C60 58 53 39 52 35 L51 25 C49 11 59 0 73 0 L584 0 C612 0 637 22 640 50 L645 87 C648 115 628 137 601 137 L601 137 Z M495 834 L605 944 C617 955 618 974 608 984 C598 994 577 996 564 987 L500 946 C484 936 456 936 443 947 L389 987 C378 996 357 994 345 984 C332 974 329 955 338 944 L420 835 C438 811 472 811 495 834 L495 834 Z " />
<glyph glyph-name="zcaron" unicode="&#x17e;" horiz-adv-x="495" d="M396 115 L331 115 C289 115 271 155 297 191 L479 440 C481 443 489 462 489 466 L490 470 C491 479 484 487 474 487 L152 487 C124 487 99 465 96 437 L94 422 C90 394 110 372 138 372 L202 372 C244 372 262 332 236 296 L55 45 C52 41 45 23 44 19 L44 17 C43 7 49 0 59 0 L382 0 C410 0 435 22 438 50 L440 65 C443 93 424 115 396 115 L396 115 Z M353 590 L463 700 C475 711 476 730 465 740 C455 750 434 751 421 743 L358 703 C342 692 314 692 301 702 L247 743 C235 752 214 750 202 740 C189 730 186 711 195 700 L278 590 C296 567 330 567 353 590 L353 590 Z " />
<glyph glyph-name="longs" unicode="&#x17f;" horiz-adv-x="377" d="M215 50 L276 547 C283 599 309 618 344 618 C363 618 377 615 386 608 C388 606 393 606 395 608 L456 667 C467 678 467 691 456 699 C428 721 391 732 342 732 C239 732 154 670 141 566 L138 534 C135 516 119 501 101 501 L97 501 C77 501 59 485 56 465 L51 428 C49 407 63 391 84 391 C104 391 118 375 116 355 L78 50 C75 22 94 0 122 0 L159 0 C187 0 212 22 215 50 L215 50 Z " />
<glyph glyph-name="AEacute" unicode="&#x1fc;" horiz-adv-x="998" d="M935 50 L940 87 C943 115 923 137 896 137 L605 137 C577 137 558 159 561 187 L569 253 C572 281 598 303 625 303 L819 303 C847 303 872 325 875 353 L880 389 C883 417 864 439 836 439 L642 439 C614 439 595 461 598 489 L605 546 C608 574 634 596 661 596 L953 596 C981 596 1006 618 1009 646 L1014 682 C1017 710 997 732 970 732 L438 732 C420 732 396 717 387 701 L57 69 C38 33 57 0 95 0 L144 0 C161 0 186 15 194 32 L219 80 C228 97 252 112 270 112 L356 112 C383 112 403 90 400 62 L398 50 C395 22 414 0 442 0 L879 0 C907 0 932 22 935 50 L935 50 Z M551 815 C696 915 699 917 700 918 C722 938 715 968 699 986 C685 1003 659 1014 635 997 C634 996 629 991 628 991 L512 858 C502 846 501 827 510 817 C519 807 538 806 551 815 L551 815 Z M374 259 L368 259 C339 259 325 284 339 311 L390 408 C404 435 444 427 441 398 L430 309 C427 281 401 259 374 259 L374 259 Z " />
<glyph glyph-name="Oslashacute" unicode="&#x1fe;" horiz-adv-x="804" d="M329 4 C348 1 368 0 389 0 C596 0 775 159 800 366 C816 494 768 604 681 669 C665 681 661 710 671 730 L674 737 C686 761 673 784 647 784 L620 784 C604 784 581 770 574 754 L565 736 C562 730 552 725 546 726 C524 730 502 732 479 732 C272 732 93 573 68 366 C52 236 102 124 193 59 C209 47 214 17 205 -2 L202 -9 C190 -33 203 -56 230 -56 L254 -56 C271 -56 295 -41 302 -25 L312 -5 C315 1 323 5 329 4 L329 4 Z M462 596 C472 596 481 595 490 594 C493 593 494 591 492 588 L306 205 C295 184 276 179 262 195 C224 237 206 298 214 366 C230 494 331 596 462 596 L462 596 Z M407 137 C399 137 393 137 386 138 C384 138 383 140 384 142 L569 523 C579 543 597 547 611 532 C646 490 662 431 654 366 C638 239 537 137 407 137 L407 137 Z M454 815 C599 915 602 917 603 918 C625 938 619 968 602 986 C588 1003 563 1014 539 997 C538 996 533 991 532 991 L415 857 C405 846 404 827 413 817 C422 807 441 806 454 815 L454 815 Z " />
<glyph glyph-name="oslashacute" unicode="&#x1ff;" horiz-adv-x="562" d="M226 -1 C240 -4 254 -5 269 -5 C406 -5 531 100 549 244 C559 326 530 399 476 444 C463 454 454 485 461 501 C470 519 461 536 441 536 L427 536 C414 536 396 524 390 512 L383 496 C381 492 374 489 370 490 C357 492 344 493 331 493 C193 493 69 389 51 244 C41 163 68 91 122 46 C135 35 143 3 135 -13 L134 -14 C125 -33 135 -50 155 -50 L166 -50 C180 -50 199 -38 205 -25 L213 -8 C215 -4 221 -1 226 -1 L226 -1 Z M303 571 C448 670 451 672 452 674 C474 694 467 724 451 742 C437 759 411 770 388 753 C387 753 382 748 382 747 L264 613 C254 602 253 583 262 573 C271 563 290 562 303 571 L303 571 Z M280 113 L278 114 C275 114 274 116 275 119 L378 331 C383 341 394 344 400 335 C419 312 428 279 424 244 C415 174 358 113 283 113 C283 113 281 113 280 113 L280 113 Z M318 375 L319 375 C321 374 322 372 321 370 L217 156 C212 146 202 144 196 152 C178 175 169 207 174 244 C182 310 237 372 309 375 C310 375 318 375 318 375 L318 375 Z " />
<glyph glyph-name="Scommaaccent" unicode="&#x218;" horiz-adv-x="642" d="M603 670 C545 718 489 732 388 732 C273 732 123 646 108 518 C90 374 201 331 316 312 C492 285 474 130 295 137 C232 142 185 158 154 186 C146 193 126 195 117 187 L68 143 C44 121 39 94 61 75 C125 22 199 0 302 0 C425 0 581 83 597 215 C616 363 508 420 381 439 C219 464 240 596 400 596 C448 596 486 582 514 556 C522 548 541 547 550 555 L598 598 C623 620 625 651 603 670 L603 670 Z M277 -341 C331 -307 363 -255 371 -186 C376 -147 353 -115 306 -115 C261 -115 230 -145 225 -184 C221 -223 245 -252 290 -252 L295 -252 C284 -276 268 -294 247 -305 C240 -308 237 -317 239 -323 L243 -333 C249 -346 263 -349 277 -341 L277 -341 Z " />
<glyph glyph-name="scommaaccent" unicode="&#x219;" horiz-adv-x="453" d="M423 449 C384 481 348 491 278 491 C192 491 98 431 86 336 C73 232 140 197 227 187 C271 183 295 174 301 162 C320 125 261 102 217 107 C179 111 150 122 131 140 C125 145 113 146 107 140 L57 92 C42 77 41 58 56 46 C93 14 143 -5 219 -5 C308 -5 407 42 419 141 C433 254 373 291 274 303 C209 316 190 336 215 360 C228 373 251 379 284 379 C311 379 333 370 351 352 C357 346 368 346 375 352 L419 396 C437 414 440 435 423 449 L423 449 Z M183 -341 C237 -307 269 -255 277 -186 C282 -147 258 -115 212 -115 C167 -115 135 -145 130 -184 C126 -223 151 -252 196 -252 L201 -252 C190 -276 174 -294 153 -305 C146 -308 143 -317 145 -323 L149 -333 C155 -346 169 -349 183 -341 L183 -341 Z " />
<glyph glyph-name="circumflex" unicode="&#x2c6;" horiz-adv-x="306" d="M86 567 C96 557 117 556 131 564 L194 604 C210 615 237 615 251 604 L304 564 C315 556 336 557 349 567 C362 577 366 596 357 607 L273 717 C256 740 222 740 199 717 L89 607 C77 596 76 577 86 567 L86 567 Z " />
<glyph glyph-name="caron" unicode="&#x2c7;" horiz-adv-x="306" d="M258 590 L368 700 C380 711 381 730 370 740 C360 750 339 751 326 743 L263 703 C247 692 219 692 206 703 L153 743 C141 751 120 750 107 740 C94 730 91 711 100 700 L183 590 C201 567 235 567 258 590 L258 590 Z " />
<glyph glyph-name="breve" unicode="&#x2d8;" horiz-adv-x="286" d="M298 699 C287 668 259 646 223 646 C189 646 166 668 161 699 C160 708 149 720 141 720 L126 720 C103 720 89 709 91 686 C98 624 147 579 215 579 C283 579 344 624 366 686 C375 709 363 720 339 720 L324 720 C315 720 301 708 298 699 L298 699 Z " />
<glyph glyph-name="dotaccent" unicode="&#x2d9;" horiz-adv-x="137" d="M143 600 C182 600 214 628 220 673 C225 718 200 746 161 746 C122 746 88 719 83 672 C77 628 104 600 143 600 L143 600 Z " />
<glyph glyph-name="ring" unicode="&#x2da;" horiz-adv-x="211" d="M175 560 C235 560 285 604 294 673 C302 742 263 786 203 786 C142 786 91 744 83 672 C74 604 114 560 175 560 L175 560 Z M182 631 C160 631 145 647 149 672 C152 699 171 714 193 714 C215 714 230 699 227 673 C223 647 204 631 182 631 L182 631 Z " />
<glyph glyph-name="ogonek" unicode="&#x2db;" horiz-adv-x="288" d="M88 81 C45 55 -7 11 -16 -66 C-27 -153 30 -209 115 -209 C174 -209 217 -187 251 -152 C265 -138 264 -122 251 -111 L218 -86 C212 -81 198 -84 192 -90 C172 -109 148 -119 120 -119 C90 -119 67 -99 73 -49 C77 -14 99 16 127 40 C136 47 139 61 132 69 L126 76 C117 86 101 88 88 81 L88 81 Z " />
<glyph glyph-name="tilde" unicode="&#x2dc;" horiz-adv-x="478" d="M202 605 C203 607 207 641 228 646 C243 649 265 638 297 609 C390 526 535 562 564 692 C570 723 554 739 524 739 L474 739 C466 739 458 732 457 724 L455 708 C449 676 418 674 368 714 C274 790 143 776 97 651 C85 618 103 605 137 605 L184 605 C194 605 201 595 202 605 L202 605 Z " />
<glyph glyph-name="hungarumlaut" unicode="&#x2dd;" horiz-adv-x="404" d="M125 571 C270 670 273 672 274 674 C296 694 290 724 274 742 C259 759 234 770 210 753 C209 752 204 747 203 747 L86 613 C76 602 75 583 84 573 C93 563 112 562 125 571 L125 571 Z M327 571 C473 670 476 672 477 674 C499 694 492 724 476 742 C461 759 436 770 412 753 C411 752 406 747 405 747 L288 613 C278 602 277 583 286 573 C295 563 314 562 327 571 L327 571 Z " />
<glyph glyph-name="Wgrave" unicode="&#x1e80;" horiz-adv-x="1042" d="M574 482 L646 36 C649 17 670 0 690 0 L760 0 C780 0 805 17 812 37 L1059 669 C1072 703 1053 732 1019 732 L965 732 C945 732 920 715 912 695 L756 291 C754 287 749 284 745 284 C741 284 737 287 737 291 L678 695 C675 715 655 732 635 732 L560 732 C540 732 515 715 507 695 L347 292 C345 288 340 284 335 284 C331 284 326 288 326 292 L268 695 C265 715 245 732 224 732 L172 732 C137 732 111 703 116 669 L207 37 C210 17 230 0 250 0 L321 0 C341 0 366 17 374 36 L555 482 C557 486 562 489 566 489 C570 489 574 486 574 482 L574 482 Z M718 857 L634 991 C634 991 630 996 629 997 C609 1014 581 1003 562 986 C542 968 528 938 546 918 C547 917 549 915 669 815 C680 806 699 807 710 817 C722 827 726 846 718 857 L718 857 Z " />
<glyph glyph-name="wgrave" unicode="&#x1e81;" horiz-adv-x="713" d="M449 0 L496 0 C516 0 541 17 548 37 L700 427 C713 460 694 489 660 489 L635 489 C614 489 589 472 582 452 L540 341 C525 304 472 304 467 342 L455 450 C453 471 433 489 411 489 L389 489 C368 489 343 472 336 451 L295 345 C281 306 226 306 221 344 L206 452 C203 472 183 489 162 489 L137 489 C102 489 76 460 81 427 L138 37 C140 17 161 0 181 0 L228 0 C247 0 272 17 280 36 L317 123 C332 160 383 160 390 123 L406 36 C409 17 430 0 449 0 L449 0 Z M523 614 L440 747 C440 747 436 752 435 753 C415 770 386 759 368 742 C348 724 333 694 351 674 C351 672 354 670 474 571 C485 562 504 563 515 573 C527 583 531 602 523 614 L523 614 Z " />
<glyph glyph-name="Wacute" unicode="&#x1e82;" horiz-adv-x="1042" d="M574 482 L646 36 C649 17 670 0 690 0 L760 0 C780 0 805 17 812 37 L1059 669 C1072 703 1053 732 1019 732 L965 732 C945 732 920 715 912 695 L756 291 C754 287 749 284 745 284 C741 284 737 287 737 291 L678 695 C675 715 655 732 635 732 L560 732 C540 732 515 715 507 695 L347 292 C345 288 340 284 335 284 C331 284 326 288 326 292 L268 695 C265 715 245 732 224 732 L172 732 C137 732 111 703 116 669 L207 37 C210 17 230 0 250 0 L321 0 C341 0 366 17 374 36 L555 482 C557 486 562 489 566 489 C570 489 574 486 574 482 L574 482 Z M573 815 C718 915 721 917 722 918 C744 938 737 968 721 986 C707 1003 681 1014 657 997 C656 996 651 991 650 991 L534 858 C524 846 523 827 532 817 C541 807 560 806 573 815 L573 815 Z " />
<glyph glyph-name="wacute" unicode="&#x1e83;" horiz-adv-x="713" d="M449 0 L496 0 C516 0 541 17 548 37 L700 427 C713 460 694 489 660 489 L635 489 C614 489 589 472 582 452 L540 341 C525 304 472 304 467 342 L455 450 C453 471 433 489 411 489 L389 489 C368 489 343 472 336 451 L295 345 C281 306 226 306 221 344 L206 452 C203 472 183 489 162 489 L137 489 C102 489 76 460 81 427 L138 37 C140 17 161 0 181 0 L228 0 C247 0 272 17 280 36 L317 123 C332 160 383 160 390 123 L406 36 C409 17 430 0 449 0 L449 0 Z M378 571 C523 670 526 672 527 674 C549 694 543 724 527 742 C512 759 487 770 463 753 C462 752 457 747 456 747 L339 613 C329 602 328 583 337 573 C346 563 365 562 378 571 L378 571 Z " />
<glyph glyph-name="Wdieresis" unicode="&#x1e84;" horiz-adv-x="1042" d="M574 482 L646 36 C649 17 670 0 690 0 L760 0 C780 0 805 17 812 37 L1059 669 C1072 703 1053 732 1019 732 L965 732 C945 732 920 715 912 695 L756 291 C754 287 749 284 745 284 C741 284 737 287 737 291 L678 695 C675 715 655 732 635 732 L560 732 C540 732 515 715 507 695 L347 292 C345 288 340 284 335 284 C331 284 326 288 326 292 L268 695 C265 715 245 732 224 732 L172 732 C137 732 111 703 116 669 L207 37 C210 17 230 0 250 0 L321 0 C341 0 366 17 374 36 L555 482 C557 486 562 489 566 489 C570 489 574 486 574 482 L574 482 Z M761 844 C800 844 832 872 838 917 C843 962 818 990 779 990 C740 990 706 963 700 916 C695 872 722 844 761 844 L761 844 Z M489 844 C528 844 561 872 567 917 C572 962 546 990 507 990 C468 990 434 963 429 917 C423 872 450 844 489 844 L489 844 Z " />
<glyph glyph-name="wdieresis" unicode="&#x1e85;" horiz-adv-x="713" d="M449 0 L496 0 C516 0 541 17 548 37 L700 427 C713 460 694 489 660 489 L635 489 C614 489 589 472 582 452 L540 341 C525 304 472 304 467 342 L455 450 C453 471 433 489 411 489 L389 489 C368 489 343 472 336 451 L295 345 C281 306 226 306 221 344 L206 452 C203 472 183 489 162 489 L137 489 C102 489 76 460 81 427 L138 37 C140 17 161 0 181 0 L228 0 C247 0 272 17 280 36 L317 123 C332 160 383 160 390 123 L406 36 C409 17 430 0 449 0 L449 0 Z M566 600 C605 600 638 628 644 673 C649 718 623 746 584 746 C545 746 511 719 506 672 C500 627 527 600 566 600 L566 600 Z M295 600 C334 600 366 628 372 673 C377 718 352 746 313 746 C274 746 240 719 235 672 C229 628 256 600 295 600 L295 600 Z " />
<glyph glyph-name="Ygrave" unicode="&#x1ef2;" horiz-adv-x="749" d="M329 350 L292 50 C289 22 308 0 336 0 L382 0 C410 0 435 22 438 50 L475 350 C476 355 485 375 488 379 L733 664 C759 694 744 732 707 732 L648 732 C637 732 613 721 605 711 L467 549 C442 520 404 520 386 550 L291 711 C286 720 265 732 253 732 L193 732 C155 732 130 694 149 663 L323 379 C325 375 330 355 329 350 L329 350 Z M571 858 L488 991 C488 991 484 996 483 997 C463 1014 434 1003 416 986 C396 968 381 938 399 918 C400 917 402 915 522 815 C533 806 552 807 563 817 C575 827 579 846 571 858 L571 858 Z " />
<glyph glyph-name="ygrave" unicode="&#x1ef3;" horiz-adv-x="551" d="M228 -179 L544 424 C561 457 544 488 508 488 L473 488 C456 488 431 472 423 456 L347 306 C324 261 265 261 253 306 L215 456 C211 472 190 488 172 488 L137 488 C101 488 75 457 83 423 L178 17 C179 11 176 -11 173 -17 L108 -147 C92 -179 109 -210 144 -210 L177 -210 C195 -210 219 -195 228 -179 L228 -179 Z M442 614 L359 747 C359 747 355 752 354 753 C334 770 305 759 287 742 C267 724 252 694 270 674 C270 672 273 670 393 571 C404 562 423 563 434 573 C446 583 450 602 442 614 L442 614 Z " />
<glyph glyph-name="endash" unicode="&#x2013;" horiz-adv-x="541" d="M543 234 C545 256 530 273 509 273 L100 273 C78 273 58 256 56 234 C53 212 68 195 90 195 L499 195 C520 195 540 212 543 234 L543 234 Z " />
<glyph glyph-name="emdash" unicode="&#x2014;" horiz-adv-x="1000" d="M1029 234 C1031 256 1016 273 995 273 L73 273 C51 273 31 256 29 234 C26 212 41 195 63 195 L985 195 C1006 195 1026 212 1029 234 L1029 234 Z " />
<glyph glyph-name="quoteleft" unicode="&#x2018;" horiz-adv-x="305" d="M280 763 C227 729 195 677 187 608 C182 569 205 537 252 537 C296 537 328 567 332 606 C337 645 313 674 268 674 L263 674 C273 698 290 716 311 727 C317 731 321 739 319 745 L314 755 C308 769 294 773 280 763 L280 763 Z " />
<glyph glyph-name="quoteright" unicode="&#x2019;" horiz-adv-x="305" d="M184 551 C238 585 269 637 278 707 C283 746 259 777 212 777 C168 777 137 747 132 708 C127 669 152 640 197 640 L200 640 C201 640 202 639 201 638 C190 615 174 597 153 587 C147 583 143 574 146 568 L150 559 C156 545 170 542 184 551 L184 551 Z " />
<glyph glyph-name="quotesinglbase" unicode="&#x201a;" horiz-adv-x="305" d="M164 -89 C218 -55 250 -3 258 67 C263 106 240 137 193 137 C148 137 117 107 112 68 C108 29 132 0 177 0 L182 0 C171 -24 155 -42 134 -53 C127 -56 123 -65 126 -71 L130 -81 C136 -95 150 -98 164 -89 L164 -89 Z " />
<glyph glyph-name="quotedblleft" unicode="&#x201c;" horiz-adv-x="481" d="M280 763 C227 729 195 677 187 608 C182 569 205 537 252 537 C296 537 328 567 332 606 C337 645 313 674 268 674 L263 674 C273 698 290 716 311 727 C317 731 321 739 319 745 L314 755 C308 769 294 773 280 763 L280 763 Z M462 763 C408 729 376 677 368 608 C363 569 386 537 433 537 C478 537 509 567 513 606 C518 645 494 674 449 674 L444 674 C455 698 471 716 492 727 C498 731 502 739 500 745 L496 755 C490 769 476 772 462 763 L462 763 Z " />
<glyph glyph-name="quotedblright" unicode="&#x201d;" horiz-adv-x="481" d="M363 551 C418 585 449 637 458 707 C463 746 439 777 392 777 C347 777 317 747 312 708 C307 669 332 640 377 640 L382 640 C370 616 354 598 333 587 C327 583 323 575 326 569 L330 559 C335 545 349 542 363 551 L363 551 Z M182 551 C237 585 268 637 277 707 C282 746 258 777 211 777 C166 777 135 747 130 708 C125 669 151 640 196 640 L201 640 C189 616 173 598 152 587 C146 583 142 575 145 569 L149 559 C154 545 168 542 182 551 L182 551 Z " />
<glyph glyph-name="quotedblbase" unicode="&#x201e;" horiz-adv-x="481" d="M339 -99 C392 -65 423 -13 432 57 C437 96 414 127 367 127 C323 127 291 97 286 58 C281 19 306 -10 351 -10 L356 -10 C345 -34 329 -52 308 -63 C301 -67 297 -76 300 -82 L304 -91 C310 -105 324 -108 339 -99 L339 -99 Z M157 -99 C211 -65 242 -13 251 57 C256 96 233 127 186 127 C141 127 110 97 105 58 C100 19 125 -10 170 -10 L175 -10 C164 -34 147 -52 126 -63 C120 -67 116 -75 119 -81 L123 -91 C129 -105 143 -108 157 -99 L157 -99 Z " />
<glyph glyph-name="bullet" unicode="&#x2022;" horiz-adv-x="284" d="M89 364 C83 316 114 281 169 281 C223 281 262 316 268 364 C274 412 245 448 188 448 C134 448 95 412 89 364 L89 364 Z " />
<glyph glyph-name="ellipsis" unicode="&#x2026;" horiz-adv-x="1000" d="M106 68 C102 29 126 0 171 0 C216 0 248 29 252 68 C257 107 234 137 187 137 C142 137 111 107 106 68 L106 68 Z M447 68 C443 29 467 0 512 0 C557 0 589 29 593 68 C598 107 575 137 528 137 C484 137 452 107 447 68 L447 68 Z M790 68 C786 29 810 0 855 0 C900 0 932 29 936 68 C941 107 918 137 871 137 C827 137 795 107 790 68 L790 68 Z " />
<glyph glyph-name="perthousand" unicode="&#x2030;" horiz-adv-x="1360" d="M309 25 L760 680 C777 705 765 732 736 732 L706 732 C692 732 668 719 659 707 L208 52 C191 27 203 0 232 0 L263 0 C277 0 301 13 309 25 L309 25 Z M97 554 C84 451 155 371 258 371 C362 371 451 451 464 554 C477 658 407 738 303 738 C200 738 110 658 97 554 L97 554 Z M267 458 C212 458 180 501 186 555 C193 609 236 651 290 651 C346 651 379 609 372 555 C366 501 322 458 267 458 L267 458 Z M505 178 C492 75 562 -4 666 -4 C769 -4 857 75 870 178 C883 281 813 360 710 360 C606 360 518 281 505 178 L505 178 Z M673 84 C619 84 587 125 594 179 C600 230 644 273 697 273 C750 273 782 231 776 179 C769 125 727 84 673 84 L673 84 Z M950 178 C937 75 1007 -4 1110 -4 C1213 -4 1301 75 1314 178 C1327 281 1257 360 1154 360 C1051 360 963 281 950 178 L950 178 Z M1117 84 C1063 84 1032 125 1039 179 C1045 230 1088 273 1141 273 C1195 273 1226 231 1220 179 C1213 125 1172 84 1117 84 L1117 84 Z " />
<glyph glyph-name="guilsinglleft" unicode="&#x2039;" horiz-adv-x="330" d="M279 81 L279 81 C286 81 292 86 292 93 C293 96 290 110 288 113 L229 204 C219 220 222 248 237 264 L318 355 C320 358 327 372 327 376 C328 382 323 387 317 387 L317 387 C312 387 298 382 295 379 L160 271 C135 251 131 217 151 197 L259 89 C262 86 275 81 279 81 L279 81 Z " />
<glyph glyph-name="guilsinglright" unicode="&#x203a;" horiz-adv-x="330" d="M236 271 L129 379 C126 382 113 387 109 387 L108 387 C102 387 96 382 95 376 C95 372 98 358 100 355 L158 264 C169 248 165 220 151 204 L70 113 C67 110 61 96 60 93 C60 86 64 81 70 81 L71 81 C75 81 89 86 93 89 L227 197 C253 217 257 251 236 271 L236 271 Z " />
<glyph glyph-name="&amp;#x2044;" unicode="&#x2044;" horiz-adv-x="167" d="M-43 9 L337 691 C342 701 337 710 327 710 C316 710 301 701 296 691 L-84 9 C-90 0 -85 -10 -74 -10 C-64 -10 -48 0 -43 9 L-43 9 Z " />
<glyph glyph-name="&amp;#x2215;" unicode="&#x2215;" horiz-adv-x="167" d="M-43 9 L337 691 C342 701 337 710 327 710 C316 710 301 701 296 691 L-84 9 C-90 0 -85 -10 -74 -10 C-64 -10 -48 0 -43 9 L-43 9 Z " />
<glyph glyph-name="Euro" unicode="&#x20ac;" horiz-adv-x="732" d="M53 430 L51 416 C49 402 59 391 73 391 L86 391 C92 391 96 386 96 380 L94 368 L93 355 C92 348 85 342 78 342 L66 342 C53 342 41 331 39 318 L37 304 C35 287 47 274 63 274 C77 274 94 259 97 245 C108 192 131 146 167 105 C228 36 311 0 415 0 C501 0 580 22 651 67 C679 84 685 112 667 135 L629 182 C621 193 596 194 583 186 C537 160 488 146 434 146 C368 146 318 167 281 207 C268 223 257 241 250 261 C247 268 252 274 260 274 L488 274 C506 274 524 289 526 308 C528 327 515 342 496 342 L242 342 C240 342 238 344 238 346 C239 354 239 361 240 369 C241 375 242 380 243 386 C244 388 246 391 248 391 L502 391 C521 391 538 406 540 425 C542 444 529 459 510 459 L281 459 C274 459 272 465 275 471 C287 490 303 508 320 525 C365 565 421 586 487 586 C540 586 586 573 626 547 C638 539 663 540 675 551 L724 598 C747 621 749 649 725 666 C664 710 591 732 505 732 C401 732 310 697 231 627 C185 586 150 540 127 487 C121 474 100 459 86 459 C70 459 55 446 53 430 L53 430 Z " />
<glyph glyph-name="estimated" unicode="&#x212e;" horiz-adv-x="560" d="M53 244 C36 102 125 0 267 0 C337 0 396 16 446 50 C465 63 468 82 454 98 L421 136 C415 143 397 144 387 139 C354 121 318 112 281 112 C267 112 254 114 242 119 C238 120 236 124 237 129 L240 158 C243 178 262 195 282 195 L500 195 C514 195 526 206 528 220 L531 244 C548 385 471 488 327 488 C185 488 71 387 53 244 L53 244 Z M313 376 C327 376 341 374 353 369 C357 367 360 361 360 357 L356 329 C354 309 336 293 316 293 L294 293 C274 293 259 310 262 330 L265 359 C266 364 268 368 272 369 C285 374 299 376 313 376 L313 376 Z " />
<glyph glyph-name="minus" unicode="&#x2212;" horiz-adv-x="541" d="M545 350 C548 372 532 389 511 389 L126 389 C104 389 85 372 82 350 C79 328 95 311 116 311 L501 311 C523 311 542 328 545 350 L545 350 Z " />
<glyph glyph-name="commaaccent" unicode="&#xf6c3;" horiz-adv-x="342" d="M127 -341 C181 -307 213 -255 221 -186 C226 -147 203 -115 156 -115 C111 -115 80 -145 75 -184 C71 -223 95 -252 140 -252 L145 -252 C135 -276 118 -294 97 -305 C90 -308 87 -317 89 -323 L93 -333 C99 -346 113 -349 127 -341 L127 -341 Z " />
<glyph glyph-name="f_f" unicode="&#xfb00;" horiz-adv-x="754" d="M592 50 L630 355 C632 375 650 391 671 391 C691 391 709 407 711 428 L716 465 C719 485 704 501 684 501 L671 501 C658 501 649 511 650 524 L653 547 C660 599 686 618 721 618 C740 618 754 615 763 608 C765 606 770 606 772 608 L833 667 C844 678 844 691 833 699 C805 721 768 732 719 732 C616 732 531 670 518 566 L515 534 C512 516 496 501 478 501 L294 501 C281 501 272 511 273 524 L276 547 C283 599 309 618 344 618 C363 618 377 615 386 608 C388 606 393 606 395 608 L456 667 C467 678 467 691 456 699 C428 721 391 732 342 732 C239 732 154 670 141 566 L138 534 C135 516 119 501 101 501 L97 501 C77 501 59 485 56 465 L51 428 C49 407 63 391 84 391 C104 391 118 375 116 355 L78 50 C75 22 94 0 122 0 L159 0 C187 0 212 22 215 50 L251 341 C254 369 279 391 307 391 L447 391 C475 391 494 369 491 341 L455 50 C452 22 471 0 499 0 L536 0 C564 0 589 22 592 50 L592 50 Z " />
<glyph glyph-name="fi" unicode="&#xfb01;" horiz-adv-x="633" d="M568 50 L617 451 C621 479 601 501 574 501 L294 501 C281 501 272 511 273 524 L276 547 C283 599 309 618 344 618 C363 618 377 615 386 608 C388 606 393 606 395 608 L456 667 C467 678 467 691 456 699 C428 721 391 732 342 732 C239 732 154 670 141 566 L138 534 C135 516 119 501 101 501 L97 501 C77 501 59 485 56 465 L51 428 C49 407 63 391 84 391 C104 391 118 375 116 355 L78 50 C75 22 94 0 122 0 L159 0 C187 0 212 22 215 50 L251 341 C254 369 279 391 307 391 L424 391 C452 391 471 369 468 341 L432 50 C429 22 448 0 476 0 L512 0 C540 0 565 22 568 50 L568 50 Z " />
<glyph glyph-name="fl" unicode="&#xfb02;" horiz-adv-x="665" d="M567 50 L624 511 C644 673 534 748 409 748 C285 748 155 673 135 516 L134 509 C134 504 130 501 126 501 L97 501 C77 501 59 485 56 465 L51 428 C49 407 63 391 84 391 C104 391 118 375 116 355 L78 50 C75 22 94 0 122 0 L159 0 C187 0 212 22 215 50 L253 355 C255 375 273 391 294 391 C314 391 332 407 334 428 L339 463 C341 484 326 501 306 501 L301 501 C280 501 269 514 275 535 C291 587 325 628 394 628 C467 628 492 563 484 494 L429 50 C426 22 445 0 473 0 L511 0 C539 0 564 22 567 50 L567 50 Z " />
<glyph glyph-name="f_f_i" unicode="&#xfb03;" horiz-adv-x="1010" d="M945 50 L994 451 C998 479 978 501 951 501 L671 501 C658 501 649 511 650 524 L653 547 C660 599 686 618 721 618 C740 618 754 615 763 608 C765 606 770 606 772 608 L833 667 C844 678 844 691 833 699 C805 721 768 732 719 732 C616 732 531 670 518 566 L515 534 C512 516 496 501 478 501 L294 501 C281 501 272 511 273 524 L276 547 C283 599 309 618 344 618 C363 618 377 615 386 608 C388 606 393 606 395 608 L456 667 C467 678 467 691 456 699 C428 721 391 732 342 732 C239 732 154 670 141 566 L138 534 C135 516 119 501 101 501 L97 501 C77 501 59 485 56 465 L51 428 C49 407 63 391 84 391 C104 391 118 375 116 355 L78 50 C75 22 94 0 122 0 L159 0 C187 0 212 22 215 50 L251 341 C254 369 279 391 307 391 L447 391 C475 391 494 369 491 341 L455 50 C452 22 471 0 499 0 L536 0 C564 0 589 22 592 50 L628 341 C631 369 656 391 684 391 L801 391 C829 391 848 369 845 341 L809 50 C806 22 825 0 853 0 L889 0 C917 0 942 22 945 50 L945 50 Z " />
<glyph glyph-name="f_f_l" unicode="&#xfb04;" horiz-adv-x="1034" d="M944 50 L1001 511 C1021 673 911 748 787 748 C663 748 532 673 512 516 L511 509 C511 504 507 501 503 501 L294 501 C281 501 272 511 273 524 L276 547 C283 599 309 618 344 618 C363 618 377 615 386 608 C388 606 393 606 395 608 L456 667 C467 678 467 691 456 699 C428 721 391 732 342 732 C239 732 154 670 141 566 L138 534 C135 516 119 501 101 501 L97 501 C77 501 59 485 56 465 L51 428 C49 407 63 391 84 391 C104 391 118 375 116 355 L78 50 C75 22 94 0 122 0 L159 0 C187 0 212 22 215 50 L251 341 C254 369 279 391 307 391 L447 391 C475 391 494 369 491 341 L455 50 C452 22 471 0 499 0 L536 0 C564 0 589 22 592 50 L629 354 C632 374 651 391 671 391 C691 391 710 408 713 428 L717 463 C719 484 704 501 683 501 L678 501 C657 501 646 514 652 535 C668 587 703 628 772 628 C845 628 870 563 862 494 L807 50 C804 22 823 0 851 0 L888 0 C916 0 941 22 944 50 L944 50 Z " />
<glyph glyph-name="longs_t" unicode="&#xfb05;" horiz-adv-x="722" d="M604 0 C629 0 653 6 675 16 C683 20 687 29 685 37 L672 112 C672 117 667 120 662 119 C648 116 638 115 633 115 C598 115 577 133 584 186 L602 336 C605 358 626 377 649 377 C672 377 693 396 695 419 L699 447 C702 469 685 488 662 488 L632 488 C626 488 622 493 622 500 L624 511 C640 647 556 748 409 748 C285 748 155 673 135 516 L134 509 C134 504 130 501 126 501 L97 501 C77 501 59 485 56 465 L51 428 C49 407 63 391 84 391 C104 391 118 375 116 355 L78 50 C75 22 94 0 122 0 L159 0 C187 0 212 22 215 50 L270 499 C279 566 309 628 394 628 C467 628 492 563 484 494 L483 491 C483 489 482 488 480 488 L446 488 C426 488 408 472 405 452 L401 414 C398 393 413 377 433 377 C453 377 467 361 465 341 L443 166 C431 62 501 0 604 0 L604 0 Z " />
<glyph glyph-name="s_t" unicode="&#xfb06;" horiz-adv-x="837" d="M723 0 C747 0 771 6 793 16 C801 20 805 29 803 37 L790 112 C790 117 785 120 780 119 C766 116 757 115 752 115 C717 115 695 133 702 186 L720 336 C723 358 744 377 767 377 C790 377 811 396 813 419 L817 447 C820 469 803 488 780 488 L750 488 C744 488 740 493 740 500 L742 511 C762 673 652 748 528 748 C404 748 273 673 253 516 L252 503 C251 496 245 488 238 487 C165 472 96 416 86 336 C73 232 140 197 227 187 C271 183 295 174 301 162 C320 125 261 102 217 107 C179 111 150 122 131 140 C125 145 113 146 107 140 L57 92 C42 77 41 58 56 46 C93 14 143 -5 219 -5 C308 -5 407 42 419 141 C433 254 373 291 274 303 C209 316 190 336 215 360 C228 373 251 379 284 379 C311 379 333 370 351 352 C357 346 368 346 375 352 L435 412 C443 419 443 430 436 437 C421 452 406 462 391 471 C387 473 383 480 383 485 L385 494 C393 563 426 628 513 628 C585 628 611 563 603 494 L602 491 C602 489 601 488 599 488 L565 488 C545 488 527 472 524 452 L520 414 C517 393 532 377 552 377 C572 377 586 361 584 341 L562 166 C550 62 620 0 723 0 L723 0 Z " />
</font>
</svg>
