<?xml version="1.0" encoding="UTF-8"?>
<svg xmlns="http://www.w3.org/2000/svg" xmlns:xlink="http://www.w3.org/1999/xlink" version="1.2" >
<font id="Abside Smooth">
<font-face  font-family="Abside" units-per-em="1000" ascent="732" descent="-206" font-style="normal" font-weight="400" font-stretch="normal" cap-height="733" x-height="489" underline-position="-107" underline-thickness="73" />
<missing-glyph  horiz-adv-x="599" d="M288 732 C227 732 181 727 141 712 C27 670 31 628 73 586 C115 544 122 556 181 581 C204 591 230 596 259 596 C333 596 378 561 390 522 C419 427 266 453 210 344 C150 227 190 195 250 195 C309 195 300 215 339 284 C368 336 435 308 498 398 C521 431 532 472 532 518 C532 647 397 732 288 732 L288 732 Z M181 68 C181 29 209 0 254 0 C299 0 328 29 328 68 C328 107 300 137 253 137 C209 137 181 107 181 68 L181 68 Z " />
<glyph glyph-name="&amp;#x20;" unicode="&#x20;" horiz-adv-x="342" d="" />
<glyph glyph-name="&amp;#xa0;" unicode="&#xa0;" horiz-adv-x="342" d="" />
<glyph glyph-name="exclam" unicode="&#x21;" horiz-adv-x="293" d="M172 423 C188 620 209 668 178 701 C169 712 153 716 127 716 C103 716 87 712 77 701 C46 669 65 620 75 423 C85 226 91 195 120 195 C148 195 155 226 172 423 L172 423 Z M49 68 C49 29 77 0 122 0 C167 0 195 29 195 68 C195 107 168 137 121 137 C77 137 49 107 49 68 L49 68 Z " />
<glyph glyph-name="quotedbl" unicode="&#x22;" horiz-adv-x="391" d="M154 706 C158 731 158 732 158 733 C158 760 132 775 103 775 C72 775 49 761 49 732 C49 731 49 730 53 705 C74 559 81 536 104 536 C126 536 133 559 154 706 L154 706 Z M307 706 C310 731 310 732 310 733 C310 760 285 775 256 775 C226 775 202 761 202 732 C202 731 202 729 205 704 C225 558 233 536 256 536 C279 536 287 559 307 706 L307 706 Z " />
<glyph glyph-name="numbersign" unicode="&#x23;" horiz-adv-x="729" d="M419 363 C401 306 391 297 345 297 C299 297 295 306 312 363 C329 419 339 428 386 428 C432 428 436 419 419 363 L419 363 Z M170 520 C108 520 96 514 86 475 C75 436 83 430 145 430 C207 430 214 421 197 365 C179 309 167 300 110 300 C52 300 41 294 31 255 C20 216 27 210 85 210 C142 210 147 196 120 105 C92 14 96 0 146 0 C195 0 207 14 236 105 C264 196 275 210 321 210 C366 210 369 196 342 105 C314 14 318 0 368 0 C417 0 429 14 457 105 C485 196 499 210 565 210 C630 210 642 216 653 255 C664 294 656 300 591 300 C525 300 518 309 535 365 C551 421 563 430 625 430 C686 430 697 436 708 475 C718 514 711 520 650 520 C588 520 583 534 611 626 C639 718 635 732 586 732 C536 732 524 718 496 626 C467 534 456 520 410 520 C364 520 361 534 389 626 C417 718 413 732 363 732 C313 732 301 718 274 626 C246 534 232 520 170 520 L170 520 Z " />
<glyph glyph-name="dollar" unicode="&#x24;" horiz-adv-x="642" d="M477 698 C396 741 376 735 376 779 C376 823 367 830 308 830 C249 830 240 823 240 778 C240 733 199 747 105 654 C68 618 44 572 44 518 C44 446 73 398 116 367 C236 280 292 321 357 294 C401 277 451 223 391 167 C317 97 260 125 179 159 C114 185 105 198 64 156 C22 114 20 82 117 36 C217 -11 240 -4 240 -48 C240 -91 249 -98 308 -98 C367 -98 376 -91 376 -45 C376 1 418 -13 511 82 C547 119 571 166 571 215 C571 364 455 422 327 439 C287 445 248 455 224 473 C168 516 214 570 255 586 C274 593 298 596 327 596 C356 596 382 591 405 581 C464 556 471 544 513 586 C555 628 558 656 477 698 L477 698 Z " />
<glyph glyph-name="percent" unicode="&#x25;" horiz-adv-x="928" d="M499 366 C678 683 698 732 647 732 C595 732 559 683 380 366 C200 49 180 0 232 0 C284 0 320 49 499 366 L499 366 Z M29 554 C29 451 109 371 212 371 C316 371 396 451 396 554 C396 658 316 738 212 738 C109 738 29 658 29 554 L29 554 Z M211 458 C156 458 118 501 118 555 C118 609 156 651 210 651 C266 651 304 609 304 555 C304 501 266 458 211 458 L211 458 Z M483 178 C483 75 562 -4 666 -4 C769 -4 848 75 848 178 C848 281 769 360 666 360 C562 360 483 281 483 178 L483 178 Z M663 84 C609 84 572 125 572 179 C572 230 610 273 663 273 C716 273 754 231 754 179 C754 125 717 84 663 84 L663 84 Z " />
<glyph glyph-name="ampersand" unicode="&#x26;" horiz-adv-x="802" d="M628 241 C657 312 647 329 596 345 C544 361 536 356 518 311 C505 276 493 281 451 338 C408 395 425 401 495 478 C518 503 531 532 531 575 C531 681 445 738 339 738 C234 738 139 688 139 583 C139 560 144 535 155 509 C189 430 166 437 85 330 C58 293 44 252 44 206 C44 69 160 -3 297 -3 C340 -3 376 2 410 14 C501 48 510 68 536 37 C562 5 577 0 649 0 C721 0 722 12 660 87 C598 161 602 178 628 241 L628 241 Z M283 550 C274 565 272 574 272 582 C272 611 294 631 337 631 C382 631 406 608 406 573 C406 563 403 553 392 539 C349 485 320 490 283 550 L283 550 Z M354 123 C333 114 313 110 292 110 C229 110 185 149 185 211 C185 235 193 258 208 280 C254 344 288 325 349 251 C409 177 415 149 354 123 L354 123 Z " />
<glyph glyph-name="quotesingle" unicode="&#x27;" horiz-adv-x="244" d="M154 706 C158 731 158 732 158 733 C158 761 129 775 103 775 C78 775 49 762 49 732 C49 731 49 730 53 705 C74 559 81 536 104 536 C126 536 133 559 154 706 L154 706 Z " />
<glyph glyph-name="parenleft" unicode="&#x28;" horiz-adv-x="461" d="M47 293 C47 205 64 120 96 40 C181 -173 244 -186 303 -186 C362 -186 312 -173 249 38 C225 120 215 206 215 293 C215 378 224 464 248 546 C310 761 362 773 303 773 C244 773 181 761 97 552 C65 471 47 384 47 293 L47 293 Z " />
<glyph glyph-name="parenright" unicode="&#x29;" horiz-adv-x="471" d="M371 293 C371 384 353 471 321 552 C237 761 174 773 115 773 C56 773 108 761 170 546 C194 464 203 378 203 293 C203 206 193 120 169 38 C106 -173 56 -186 115 -186 C174 -186 237 -173 322 40 C354 120 371 205 371 293 L371 293 Z " />
<glyph glyph-name="asterisk" unicode="&#x2a;" horiz-adv-x="439" d="M107 499 C123 489 131 495 163 537 C194 579 204 579 236 537 C268 495 275 490 292 504 C308 518 305 526 275 568 C244 609 247 618 297 637 C346 656 353 662 345 683 C336 703 328 703 280 685 C231 667 224 672 224 723 C224 773 221 781 200 781 C178 781 175 773 175 723 C175 672 168 667 120 684 C71 701 63 701 56 680 C49 659 56 653 104 637 C152 621 155 611 124 564 C92 517 90 509 107 499 L107 499 Z " />
<glyph glyph-name="plus" unicode="&#x2b;" horiz-adv-x="586" d="M271 130 C322 130 330 141 330 211 C330 281 342 292 416 292 C490 292 502 300 502 351 C502 401 490 409 416 409 C342 409 330 420 330 490 C330 559 322 570 271 570 C219 570 211 559 211 490 C211 420 199 409 125 409 C51 409 39 401 39 351 C39 300 51 292 125 292 C199 292 211 281 211 211 C211 141 219 130 271 130 L271 130 Z " />
<glyph glyph-name="comma" unicode="&#x2c;" horiz-adv-x="290" d="M171 -36 C188 -7 196 27 196 67 C196 106 168 137 122 137 C77 137 49 107 49 68 C49 29 78 0 123 0 L128 0 C123 -15 116 -27 107 -36 C83 -62 76 -62 86 -81 C96 -100 128 -110 171 -36 L171 -36 Z " />
<glyph glyph-name="&amp;#x2d;" unicode="&#x2d;" horiz-adv-x="439" d="M342 245 C342 286 322 293 191 293 C59 293 39 286 39 245 C39 203 59 196 191 196 C322 196 342 203 342 245 L342 245 Z " />
<glyph glyph-name="&amp;#xad;" unicode="&#xad;" horiz-adv-x="439" d="M342 245 C342 286 322 293 191 293 C59 293 39 286 39 245 C39 203 59 196 191 196 C322 196 342 203 342 245 L342 245 Z " />
<glyph glyph-name="period" unicode="&#x2e;" horiz-adv-x="284" d="M44 68 C44 29 73 0 118 0 C163 0 191 29 191 68 C191 107 164 137 117 137 C72 137 44 107 44 68 L44 68 Z " />
<glyph glyph-name="slash" unicode="&#x2f;" horiz-adv-x="402" d="M309 705 C267 705 243 656 127 338 C11 20 -1 -29 41 -29 C82 -29 106 20 222 338 C338 656 350 705 309 705 L309 705 Z " />
<glyph glyph-name="zero" unicode="0" horiz-adv-x="675" d="M45 366 C45 194 125 0 313 0 C501 0 582 194 582 366 C582 539 501 732 313 732 C125 732 45 538 45 366 L45 366 Z M314 137 C221 137 191 285 191 366 C191 447 221 596 313 596 C406 596 436 447 436 366 C436 286 406 137 314 137 L314 137 Z " />
<glyph glyph-name="one" unicode="1" horiz-adv-x="462" d="M72 488 C114 446 128 446 170 488 C211 530 218 501 218 269 C218 36 228 0 291 0 C354 0 364 49 364 367 C364 684 354 733 291 733 C228 733 205 719 121 635 C36 550 30 530 72 488 L72 488 Z " />
<glyph glyph-name="two" unicode="2" horiz-adv-x="635" d="M292 732 C235 732 188 721 147 701 C45 651 51 613 93 571 C135 529 143 541 208 574 C234 588 264 596 293 596 C345 596 378 563 389 522 C418 416 334 382 202 264 C69 145 49 118 49 64 C49 9 82 0 296 0 C509 0 542 10 542 73 C542 136 524 146 411 146 C297 146 290 155 359 216 L439 285 C624 445 542 732 292 732 L292 732 Z " />
<glyph glyph-name="three" unicode="3" horiz-adv-x="684" d="M565 430 C578 455 584 485 584 518 C584 647 461 732 334 732 C281 732 235 727 193 713 C75 672 78 628 120 586 C162 544 170 556 229 581 C253 591 280 596 311 596 C357 596 399 586 424 565 C486 512 430 452 377 442 C279 424 262 430 262 374 C262 317 280 320 377 294 C430 279 483 223 423 167 C350 98 293 125 211 159 C146 185 138 198 96 156 C54 114 52 70 178 25 C226 8 279 0 334 0 C458 0 604 83 604 215 C604 254 598 286 582 311 C538 384 532 364 565 430 L565 430 Z " />
<glyph glyph-name="four" unicode="4" horiz-adv-x="689" d="M39 234 C39 171 61 161 206 161 C350 161 372 150 372 81 C372 11 382 0 445 0 C508 0 518 11 518 81 C518 150 525 161 567 161 C609 161 616 171 616 234 C616 297 609 307 567 307 C525 307 518 336 518 520 C518 704 508 733 445 733 C382 733 350 704 206 520 C61 336 39 297 39 234 L39 234 Z M283 424 C360 525 372 525 372 424 C372 323 360 307 283 307 C205 307 205 323 283 424 L283 424 Z " />
<glyph glyph-name="five" unicode="5" horiz-adv-x="636" d="M66 544 C66 381 76 356 144 356 L222 356 C278 356 330 357 367 343 C460 308 445 210 384 168 C360 151 324 142 280 142 C244 144 213 150 187 160 C125 185 117 198 75 156 C33 114 31 70 157 25 C206 8 259 0 314 0 C438 0 568 96 568 234 C568 416 453 488 271 488 L242 488 C216 488 212 495 212 542 C212 589 232 596 364 596 C495 596 515 605 515 664 C515 723 485 732 291 732 C96 732 66 707 66 544 L66 544 Z " />
<glyph glyph-name="six" unicode="6" horiz-adv-x="678" d="M48 356 C48 158 111 8 321 0 C475 -7 585 99 585 244 C585 401 498 488 336 488 C312 488 288 483 263 472 C193 442 155 464 231 550 C256 577 290 591 333 591 C357 591 379 589 400 584 C452 571 463 569 495 611 C526 652 526 682 441 712 C346 746 228 792 112 615 C67 547 48 456 48 356 L48 356 Z M241 326 C260 344 287 355 321 356 C399 356 440 316 443 234 C440 172 401 140 326 137 C289 139 260 148 241 166 C187 215 188 272 241 326 L241 326 Z " />
<glyph glyph-name="seven" unicode="7" horiz-adv-x="616" d="M401 340 C519 633 537 683 537 706 C537 728 503 732 287 732 C71 732 37 723 38 664 C38 605 59 596 195 596 C330 596 336 559 237 323 C137 86 122 46 122 25 C122 3 132 0 193 0 C254 0 282 46 401 340 L401 340 Z " />
<glyph glyph-name="eight" unicode="8" horiz-adv-x="631" d="M288 303 C415 303 410 137 288 137 C167 137 162 303 288 303 L288 303 Z M288 437 C158 437 169 595 288 595 C408 595 419 437 288 437 L288 437 Z M503 430 C516 455 522 485 522 518 C522 658 425 732 289 732 C151 732 54 659 54 518 C54 487 59 457 72 432 C105 364 101 384 57 314 C41 288 34 256 34 215 C34 61 145 0 288 0 C431 0 542 61 542 215 C542 254 536 286 521 311 C476 384 470 364 503 430 L503 430 Z " />
<glyph glyph-name="nine" unicode="9" horiz-adv-x="648" d="M501 634 C406 770 278 789 140 685 C90 646 56 587 49 514 C41 435 57 372 95 327 C203 197 285 235 347 255 C418 278 453 253 370 176 C301 111 255 138 200 158 C149 175 138 180 103 141 C67 102 63 73 146 34 C237 -9 279 -18 374 18 C409 31 441 53 469 83 C498 113 519 155 534 209 C580 376 616 468 501 634 L501 634 Z M379 406 C360 388 334 377 299 375 C221 375 180 416 177 498 C180 560 219 592 294 595 C332 594 360 584 380 566 C433 517 432 460 379 406 L379 406 Z " />
<glyph glyph-name="colon" unicode="&#x3a;" horiz-adv-x="286" d="M47 68 C47 29 75 0 120 0 C165 0 193 29 193 68 C193 107 166 137 119 137 C75 137 47 107 47 68 L47 68 Z M47 418 C47 379 75 350 120 350 C165 350 193 379 193 418 C193 457 166 487 119 487 C75 487 47 457 47 418 L47 418 Z " />
<glyph glyph-name="&amp;#x3b;" unicode="&#x3b;" horiz-adv-x="294" d="M169 -36 C186 -7 194 27 194 67 C194 106 167 137 120 137 C75 137 47 107 47 68 C47 29 76 0 121 0 L126 0 C121 -15 114 -27 105 -36 C81 -62 74 -62 84 -81 C94 -100 126 -110 169 -36 L169 -36 Z M50 420 C50 381 78 352 123 352 C168 352 196 381 196 420 C196 459 169 489 122 489 C78 489 50 459 50 420 L50 420 Z " />
<glyph glyph-name="&amp;#x37e;" unicode="&#x37e;" horiz-adv-x="294" d="M169 -36 C186 -7 194 27 194 67 C194 106 167 137 120 137 C75 137 47 107 47 68 C47 29 76 0 121 0 L126 0 C121 -15 114 -27 105 -36 C81 -62 74 -62 84 -81 C94 -100 126 -110 169 -36 L169 -36 Z M50 420 C50 381 78 352 123 352 C168 352 196 381 196 420 C196 459 169 489 122 489 C78 489 50 459 50 420 L50 420 Z " />
<glyph glyph-name="less" unicode="&#x3c;" horiz-adv-x="561" d="M255 510 C54 401 23 382 23 368 C23 354 54 335 255 225 C455 115 486 106 486 154 C486 202 467 220 345 288 C222 356 222 376 345 444 C467 512 486 530 486 579 C486 627 455 618 255 510 L255 510 Z " />
<glyph glyph-name="equal" unicode="&#x3d;" horiz-adv-x="586" d="M269 195 C459 195 488 202 488 244 C488 285 459 292 269 292 C78 292 49 285 49 244 C49 202 78 195 269 195 L269 195 Z M269 391 C459 391 488 398 488 440 C488 481 459 488 269 488 C78 488 49 481 49 440 C49 398 78 391 269 391 L269 391 Z " />
<glyph glyph-name="greater" unicode="&#x3e;" horiz-adv-x="563" d="M191 444 C313 376 313 356 191 288 C68 220 49 202 49 154 C49 106 80 115 281 225 C481 335 512 354 512 368 C512 382 481 401 281 510 C80 618 49 627 49 579 C49 530 68 512 191 444 L191 444 Z " />
<glyph glyph-name="question" unicode="&#x3f;" horiz-adv-x="610" d="M288 732 C227 732 181 727 141 712 C27 670 31 628 73 586 C115 544 122 556 181 581 C204 591 230 596 259 596 C333 596 378 561 390 522 C419 427 266 453 210 344 C150 227 190 195 250 195 C309 195 300 215 339 284 C368 336 435 308 498 398 C521 431 532 472 532 518 C532 647 397 732 288 732 L288 732 Z M181 68 C181 29 209 0 254 0 C299 0 328 29 328 68 C328 107 300 137 253 137 C209 137 181 107 181 68 L181 68 Z " />
<glyph glyph-name="at" unicode="&#x40;" horiz-adv-x="1069" d="M267 -7 C200 52 168 143 168 265 C168 476 309 610 524 610 C750 609 873 471 873 263 C873 104 743 70 743 160 L743 324 C743 465 735 487 684 488 C633 488 625 485 625 468 C625 451 623 460 581 475 C529 494 456 536 343 418 C300 372 274 310 274 244 C274 107 377 0 518 0 C542 0 566 5 589 14 C646 34 690 -52 848 15 C921 45 983 122 983 263 C983 540 818 708 524 708 C245 708 45 536 45 267 C45 121 85 3 171 -78 C438 -328 575 -197 575 -149 C575 -101 474 -191 267 -7 L267 -7 Z M522 113 C447 113 398 170 398 243 C398 316 447 374 522 374 C597 374 647 316 647 243 C647 170 597 113 522 113 L522 113 Z " />
<glyph glyph-name="A" unicode="A" horiz-adv-x="803" d="M200 56 C219 104 244 112 388 112 C532 112 557 104 576 56 C595 8 608 0 676 0 C743 0 733 49 607 366 C481 683 451 732 388 732 C324 732 294 683 168 366 C41 49 32 0 100 0 C167 0 181 8 200 56 L200 56 Z M390 259 C295 259 288 278 336 398 C384 518 399 518 446 398 C493 278 485 259 390 259 L390 259 Z " />
<glyph glyph-name="B" unicode="B" horiz-adv-x="768" d="M299 606 L402 606 C431 605 453 595 468 580 C503 547 512 505 468 467 C453 454 431 449 401 448 L299 448 C210 448 196 459 196 527 C196 595 210 606 299 606 L299 606 Z M314 318 L432 318 C500 316 539 267 541 220 C539 150 499 120 430 119 L313 119 C212 119 196 132 196 219 C196 305 212 318 314 318 L314 318 Z M571 678 C533 714 479 732 418 732 L234 732 C74 732 49 683 49 366 C49 49 77 0 255 0 C433 0 515 -44 625 58 C663 94 683 145 682 214 C682 249 673 281 655 310 C607 389 598 386 619 438 C646 506 678 579 571 678 L571 678 Z " />
<glyph glyph-name="C" unicode="C" horiz-adv-x="756" d="M24 368 C18 164 187 -5 390 0 C442 0 491 8 535 25 C652 67 652 105 610 152 C568 198 556 187 482 161 C454 151 424 146 391 146 C257 146 171 235 170 369 C170 498 261 585 390 586 C422 586 452 581 481 572 C556 546 568 535 610 582 C652 628 652 666 535 708 C491 724 442 732 390 732 C189 732 19 573 24 368 L24 368 Z " />
<glyph glyph-name="D" unicode="D" horiz-adv-x="781" d="M207 366 C207 565 216 596 275 596 L342 596 C472 596 537 513 538 366 C537 220 472 137 342 136 L275 136 C216 136 207 167 207 366 L207 366 Z M342 0 C570 0 684 122 684 366 C684 611 570 733 342 733 L201 733 C79 733 60 684 60 367 C60 49 79 0 201 0 L342 0 L342 0 Z " />
<glyph glyph-name="E" unicode="E" horiz-adv-x="684" d="M595 69 C595 128 569 137 400 137 C231 137 205 148 205 220 C205 292 225 303 352 303 C478 303 498 312 498 371 C498 430 478 439 352 439 C225 439 205 450 205 518 C205 585 231 596 401 596 C570 596 596 605 596 664 C596 723 560 732 327 732 C94 732 58 683 58 366 C58 49 94 0 327 0 C559 0 595 9 595 69 L595 69 Z " />
<glyph glyph-name="F" unicode="F" horiz-adv-x="621" d="M206 152 C206 283 224 303 342 303 C460 303 478 312 478 371 C478 430 460 439 342 439 C224 439 206 450 206 518 C206 585 231 596 391 596 C550 596 575 605 575 664 C575 723 540 732 318 732 C95 732 60 683 60 366 C60 49 70 0 133 0 C196 0 206 20 206 152 L206 152 Z " />
<glyph glyph-name="G" unicode="G" horiz-adv-x="743" d="M21 368 C14 164 184 -5 386 0 C439 0 487 8 532 25 C649 67 655 120 655 264 C655 408 639 430 533 430 C427 430 411 421 411 364 C411 307 418 298 460 298 C502 298 509 290 509 238 C509 186 505 167 457 154 C437 149 414 146 387 146 C254 146 168 235 167 369 C167 498 257 585 386 586 C419 586 449 581 478 572 C553 546 565 535 607 582 C648 628 649 666 532 708 C487 724 439 732 386 732 C186 732 16 573 21 368 L21 368 Z " />
<glyph glyph-name="H" unicode="H" horiz-adv-x="792" d="M207 152 C207 283 230 303 378 303 C525 303 548 283 548 152 C548 20 558 0 621 0 C684 0 694 49 694 367 C694 684 684 733 621 733 C558 733 548 713 548 586 C548 459 525 439 378 439 C230 439 207 459 207 586 C207 712 197 732 134 732 C70 732 60 683 60 366 C60 49 70 0 134 0 C197 0 207 20 207 152 L207 152 Z " />
<glyph glyph-name="I" unicode="I" horiz-adv-x="293" d="M133 0 C196 0 206 49 206 367 C206 684 196 733 133 733 C70 733 60 684 60 367 C60 49 70 0 133 0 L133 0 Z " />
<glyph glyph-name="J" unicode="J" horiz-adv-x="415" d="M24 69 C24 9 31 0 74 0 L123 0 C238 0 317 79 317 195 L317 464 C317 696 307 732 244 732 C180 732 170 699 170 488 L170 244 C170 175 138 140 72 137 L48 137 C27 137 24 128 24 69 L24 69 Z " />
<glyph glyph-name="K" unicode="K" horiz-adv-x="705" d="M135 0 C198 0 208 21 208 158 C208 295 227 295 347 158 C467 21 499 0 582 0 C664 0 654 26 504 196 C353 365 349 414 474 562 C598 709 606 732 535 732 C463 732 436 712 330 586 C224 459 208 459 208 586 C208 712 198 732 135 732 C72 732 62 683 62 366 C62 49 72 0 135 0 L135 0 Z " />
<glyph glyph-name="L" unicode="L" horiz-adv-x="659" d="M62 366 C62 49 98 0 331 0 C563 0 599 9 599 69 C599 128 573 137 404 137 C234 137 208 177 208 435 C208 692 198 732 135 732 C72 732 62 683 62 366 L62 366 Z " />
<glyph glyph-name="M" unicode="M" horiz-adv-x="879" d="M646 206 C646 28 656 0 720 0 C783 0 793 49 793 366 C793 683 791 732 776 732 C761 732 737 709 593 564 C448 419 404 419 260 564 C116 709 92 732 77 732 C62 732 60 683 60 366 C60 49 70 0 134 0 C197 0 207 28 207 206 C207 384 222 398 317 306 C411 214 441 214 536 306 C631 398 646 384 646 206 L646 206 Z " />
<glyph glyph-name="N" unicode="N" horiz-adv-x="806" d="M207 258 C207 480 231 489 387 324 C542 159 566 124 566 67 C566 9 576 0 640 0 C704 0 714 49 714 366 C714 683 704 732 641 732 C578 732 568 707 568 543 C568 378 544 378 388 543 C231 707 197 732 134 732 C70 732 60 683 60 366 C60 49 70 0 134 0 C197 0 207 35 207 258 L207 258 Z " />
<glyph glyph-name="O" unicode="O" horiz-adv-x="804" d="M23 366 C23 160 182 0 389 0 C596 0 755 159 755 366 C755 573 596 732 389 732 C182 732 23 573 23 366 L23 366 Z M390 137 C258 137 169 238 169 366 C169 494 258 596 389 596 C520 596 609 494 609 366 C609 239 520 137 390 137 L390 137 Z " />
<glyph glyph-name="P" unicode="P" horiz-adv-x="684" d="M207 152 C207 283 219 303 294 303 L380 303 C550 303 636 375 636 521 C636 662 550 732 379 732 L220 732 C81 732 60 683 60 366 C60 49 70 0 134 0 C197 0 207 20 207 152 L207 152 Z M310 605 L413 605 C471 603 501 568 502 520 C501 467 471 431 412 430 L310 430 C221 430 207 442 207 518 C207 593 221 605 310 605 L310 605 Z " />
<glyph glyph-name="Q" unicode="Q" horiz-adv-x="807" d="M675 -2 C725 37 729 48 702 84 C674 119 698 130 736 235 C751 275 758 319 758 366 C758 573 599 732 392 732 C185 732 25 573 25 366 C25 160 185 0 392 0 C422 0 450 3 477 9 C546 24 558 30 586 -6 C613 -41 625 -40 675 -2 L675 -2 Z M390 137 C258 137 169 238 169 366 C169 494 258 596 389 596 C520 596 609 494 609 366 C609 239 520 137 390 137 L390 137 Z " />
<glyph glyph-name="R" unicode="R" horiz-adv-x="700" d="M310 605 L413 605 C471 603 501 568 502 520 C501 467 471 431 412 430 L310 430 C221 430 207 442 207 518 C207 593 221 605 310 605 L310 605 Z M602 392 C625 425 636 469 636 521 C636 662 550 732 379 732 L220 732 C81 732 60 683 60 366 C60 49 70 0 134 0 C197 0 207 20 207 152 C207 283 216 303 274 303 C331 303 352 283 428 152 C504 20 527 0 600 0 C673 0 672 21 593 160 C513 298 542 302 602 392 L602 392 Z " />
<glyph glyph-name="S" unicode="S" horiz-adv-x="642" d="M445 712 C405 727 360 732 298 732 C183 732 44 646 44 518 C44 446 73 399 117 368 C237 282 412 357 413 212 C413 171 368 134 278 137 C240 140 206 147 179 159 C114 185 105 198 64 156 C22 114 20 70 144 25 C190 8 242 0 302 0 C425 0 571 83 571 215 C571 363 456 420 327 439 C162 464 167 596 327 596 C356 596 382 591 405 581 C464 556 471 544 513 586 C555 628 559 670 445 712 L445 712 Z " />
<glyph glyph-name="T" unicode="T" horiz-adv-x="707" d="M23 664 C23 605 39 596 145 596 C251 596 267 556 267 298 C267 40 277 0 341 0 C404 0 414 40 414 298 C414 556 430 596 536 596 C642 596 658 605 658 664 C658 723 615 732 341 732 C66 732 23 723 23 664 L23 664 Z " />
<glyph glyph-name="U" unicode="U" horiz-adv-x="782" d="M49 501 L49 269 C49 102 206 0 366 0 C527 0 684 102 684 269 L684 501 C684 701 674 732 611 732 C547 732 537 704 537 520 L537 308 C537 200 467 146 366 146 C265 146 195 200 195 308 L195 520 C195 704 185 732 122 732 C59 732 49 701 49 501 L49 501 Z " />
<glyph glyph-name="V" unicode="V" horiz-adv-x="809" d="M273 472 C185 697 161 732 93 732 C25 732 35 683 162 366 C289 49 319 0 382 0 C445 0 475 49 602 366 C728 683 737 732 670 732 C602 732 577 697 488 472 C399 246 384 211 380 211 C375 211 360 246 273 472 L273 472 Z " />
<glyph glyph-name="W" unicode="W" horiz-adv-x="1042" d="M583 245 C643 33 662 0 725 0 C788 0 811 49 896 366 C981 683 983 732 916 732 C848 732 829 702 778 508 C726 314 717 284 711 284 C704 284 695 314 643 508 C591 702 573 732 508 732 C442 732 424 702 371 508 C317 314 308 284 301 284 C293 284 284 314 233 508 C181 702 163 732 95 732 C27 732 30 683 115 366 C199 49 222 0 286 0 C349 0 368 33 429 245 C489 456 499 489 506 489 C512 489 522 456 583 245 L583 245 Z " />
<glyph glyph-name="X" unicode="X" horiz-adv-x="789" d="M108 0 C183 0 208 18 292 132 C375 245 401 245 484 132 C567 18 592 0 667 0 C742 0 735 26 614 191 C493 355 491 405 602 557 C713 708 719 732 645 732 C570 732 548 716 474 616 C399 516 377 516 303 616 C228 716 205 732 131 732 C57 732 62 708 173 557 C284 405 282 355 161 191 C40 26 33 0 108 0 L108 0 Z " />
<glyph glyph-name="Y" unicode="Y" horiz-adv-x="749" d="M286 183 C286 25 296 0 359 0 C422 0 432 25 432 183 C432 341 450 391 567 549 C683 707 690 732 617 732 C544 732 521 716 446 613 C371 509 348 509 274 613 C200 716 177 732 103 732 C29 732 35 707 152 549 C268 391 286 341 286 183 L286 183 Z " />
<glyph glyph-name="Z" unicode="Z" horiz-adv-x="720" d="M463 137 C315 137 315 173 463 408 C611 643 634 683 634 706 C634 728 595 732 341 732 C87 732 48 723 48 664 C48 605 71 596 219 596 C367 596 367 559 219 323 C71 86 48 46 48 25 C48 3 87 0 341 0 C595 0 634 9 634 69 C634 128 611 137 463 137 L463 137 Z " />
<glyph glyph-name="bracketleft" unicode="&#x5b;" horiz-adv-x="370" d="M293 -129 C293 -72 286 -63 239 -63 C192 -63 185 -5 185 367 C185 738 192 796 239 796 C286 796 293 805 293 862 C293 919 277 928 171 928 C64 927 48 852 48 366 C48 -120 64 -195 171 -195 C277 -195 293 -186 293 -129 L293 -129 Z " />
<glyph glyph-name="backslash" unicode="&#x5c;" horiz-adv-x="402" d="M333 -29 C374 -29 362 20 247 338 C131 656 107 705 66 705 C24 705 36 656 152 338 C267 20 291 -29 333 -29 L333 -29 Z " />
<glyph glyph-name="bracketright" unicode="&#x5d;" horiz-adv-x="391" d="M293 366 C293 852 277 927 171 928 C65 928 49 919 49 862 C48 805 55 796 103 796 C150 796 157 738 157 367 C157 -5 150 -63 103 -63 C56 -63 49 -72 49 -129 C49 -186 65 -195 171 -195 C277 -195 293 -120 293 366 L293 366 Z " />
<glyph glyph-name="asciicircum" unicode="&#x5e;" horiz-adv-x="488" d="M160 673 C212 726 228 726 281 673 C334 619 345 611 367 611 C389 611 381 627 307 733 C232 839 209 839 135 733 C61 627 52 611 74 611 C96 611 107 619 160 673 L160 673 Z " />
<glyph glyph-name="underscore" unicode="&#x5f;" horiz-adv-x="635" d="M299 -98 C515 -98 549 -95 549 -74 C549 -52 515 -49 299 -49 C83 -49 49 -52 49 -74 C49 -95 83 -98 299 -98 L299 -98 Z " />
<glyph glyph-name="grave" unicode="&#x60;" horiz-adv-x="202" d="M152 671 C101 739 89 767 57 761 C45 758 33 751 24 742 C6 724 -5 694 15 674 C16 673 17 672 37 657 C154 567 176 557 192 573 C208 589 203 603 152 671 L152 671 Z " />
<glyph glyph-name="a" unicode="a" horiz-adv-x="583" d="M375 468 C375 451 373 460 331 475 C279 494 206 536 93 418 C50 372 24 310 24 244 C24 107 127 0 268 0 C286 0 303 3 321 10 C371 28 375 36 375 20 C375 3 384 0 441 0 C498 0 507 33 507 244 C507 454 498 487 441 488 C384 488 375 485 375 468 L375 468 Z M268 113 C192 113 143 170 143 243 C143 316 192 374 267 374 C342 374 393 316 393 243 C393 170 342 113 268 113 L268 113 Z " />
<glyph glyph-name="b" unicode="b" horiz-adv-x="582" d="M44 366 C44 49 53 0 113 0 C172 0 181 3 181 20 C181 36 185 28 236 10 C254 3 272 0 289 0 C430 0 533 107 533 244 C533 310 507 373 464 418 C352 536 278 495 225 476 C183 461 181 468 181 591 C181 713 172 732 113 732 C53 732 44 683 44 366 L44 366 Z M292 113 C217 113 167 170 167 243 C167 316 217 374 292 374 C367 374 417 316 417 243 C417 170 367 113 292 113 L292 113 Z " />
<glyph glyph-name="c" unicode="c" horiz-adv-x="496" d="M321 124 C306 117 289 113 269 113 C194 113 144 170 144 244 C144 316 194 375 269 375 C288 375 306 371 321 364 C360 346 367 341 404 378 C441 415 444 442 368 474 C338 486 305 493 270 493 C128 493 21 385 21 244 C21 104 128 -5 270 -5 C305 -5 338 2 368 14 C443 45 440 72 404 109 C367 146 360 140 321 124 L321 124 Z " />
<glyph glyph-name="d" unicode="d" horiz-adv-x="583" d="M375 591 C375 468 373 461 331 476 C279 495 205 537 93 418 C50 373 24 310 24 244 C24 107 126 0 268 0 C286 0 303 3 321 10 C371 28 375 36 375 20 C375 3 384 0 444 0 C503 0 512 49 512 366 C512 683 503 732 444 732 C384 732 375 713 375 591 L375 591 Z M266 113 C191 113 142 170 142 243 C142 316 191 374 266 374 C341 374 391 316 391 243 C391 170 341 113 266 113 L266 113 Z " />
<glyph glyph-name="e" unicode="e" horiz-adv-x="560" d="M23 244 C23 102 125 0 267 0 C310 0 347 6 381 18 C464 49 462 78 428 112 C394 146 385 139 332 122 C311 115 290 112 267 112 C242 112 218 120 199 134 C151 171 188 195 333 195 C478 195 501 198 501 220 L501 244 C501 385 411 488 267 488 C125 488 23 387 23 244 L23 244 Z M267 376 C291 376 316 369 335 355 C382 319 352 293 267 293 C182 293 152 319 199 355 C218 369 243 376 267 376 L267 376 Z " />
<glyph glyph-name="f" unicode="f" horiz-adv-x="377" d="M209 196 C209 365 214 391 246 391 C277 391 282 398 282 446 C282 494 277 501 246 501 C214 501 209 504 209 524 L209 547 C209 599 233 618 268 618 C280 618 289 617 297 614 C315 609 321 608 353 644 C384 679 387 700 330 720 C308 728 282 732 252 732 C149 732 72 670 72 566 L72 534 C72 505 67 501 36 501 C4 501 -1 494 -1 446 C-1 398 4 391 36 391 C67 391 72 365 72 196 C72 26 81 0 141 0 C200 0 209 26 209 196 L209 196 Z " />
<glyph glyph-name="g" unicode="g" horiz-adv-x="559" d="M373 466 C373 447 372 458 327 475 C268 497 191 539 83 420 C43 377 21 315 21 244 C21 97 94 0 246 0 C270 0 293 4 314 11 C369 30 373 42 373 32 L373 20 C373 -54 326 -102 240 -98 C214 -96 190 -92 169 -84 C114 -66 105 -59 78 -91 C50 -122 49 -153 140 -188 C177 -202 219 -209 266 -208 C420 -205 510 -105 510 39 L510 264 C510 458 501 488 442 488 C382 488 373 485 373 466 L373 466 Z M262 113 C187 113 138 170 138 243 C138 316 187 374 262 374 C337 374 387 316 387 243 C387 170 337 113 262 113 L262 113 Z " />
<glyph glyph-name="h" unicode="h" horiz-adv-x="537" d="M219 361 C249 379 286 395 332 344 C348 327 356 301 356 269 L356 135 C356 18 365 0 425 0 C484 0 493 20 493 152 L493 303 C493 411 416 488 303 488 C280 488 259 485 239 477 C188 458 186 463 186 588 C186 713 177 732 118 732 C58 732 49 683 49 366 C49 49 58 0 118 0 C177 0 186 22 186 165 C186 308 186 340 219 361 L219 361 Z " />
<glyph glyph-name="i" unicode="i" horiz-adv-x="256" d="M186 245 C186 456 177 489 118 489 C58 489 49 456 49 245 C49 33 58 0 118 0 C177 0 186 33 186 245 L186 245 Z M44 605 C44 566 72 537 117 537 C162 537 190 566 190 605 C190 645 163 674 116 674 C72 674 44 645 44 605 L44 605 Z " />
<glyph glyph-name="j" unicode="j" horiz-adv-x="291" d="M-68 -154 C-68 -202 -61 -210 -19 -210 L30 -210 C147 -210 215 -129 215 -15 L215 237 C215 454 206 488 147 488 C87 488 78 456 78 249 L78 9 C78 -59 45 -95 -20 -98 L-44 -98 C-65 -98 -68 -106 -68 -154 L-68 -154 Z M73 605 C73 566 101 537 146 537 C191 537 219 566 219 605 C219 645 192 674 145 674 C101 674 73 645 73 605 L73 605 Z " />
<glyph glyph-name="k" unicode="k" horiz-adv-x="586" d="M135 0 C198 0 208 13 208 98 C208 182 219 182 290 98 C360 13 384 0 467 0 C549 0 546 18 446 135 C346 251 342 284 422 379 C501 473 502 488 431 488 C359 488 339 477 278 403 C217 329 208 346 208 525 C208 704 198 732 135 732 C72 732 62 683 62 366 C62 49 72 0 135 0 L135 0 Z " />
<glyph glyph-name="l" unicode="l" horiz-adv-x="280" d="M186 366 C186 683 177 732 118 732 C58 732 49 683 49 366 C49 49 58 0 118 0 C177 0 186 49 186 366 L186 366 Z " />
<glyph glyph-name="m" unicode="m" horiz-adv-x="866" d="M220 356 C250 380 290 395 333 344 C348 327 354 301 354 269 L354 135 C354 18 363 0 423 0 C482 0 491 19 491 144 L491 288 C491 293 491 298 492 304 C493 317 492 331 526 358 C554 379 592 395 635 344 C650 327 657 301 657 269 L657 135 C657 18 666 0 726 0 C785 0 794 20 794 152 L794 303 C794 411 716 488 604 488 C568 488 537 484 510 474 C444 452 441 451 383 474 C359 484 332 488 301 488 C277 488 255 485 236 477 C186 459 184 448 184 467 C184 486 175 489 116 489 C56 489 47 456 47 245 C47 33 56 0 116 0 C175 0 184 21 184 156 C184 291 181 326 220 356 L220 356 Z " />
<glyph glyph-name="n" unicode="n" horiz-adv-x="559" d="M218 356 C246 380 285 395 331 344 C347 327 355 301 355 269 L355 135 C355 18 364 0 424 0 C483 0 492 20 492 152 L492 303 C492 411 415 488 302 488 C279 488 258 485 238 477 C187 458 185 447 185 467 C185 486 176 489 117 489 C57 489 48 456 48 245 C48 33 57 0 117 0 C176 0 185 21 185 156 C185 290 182 324 218 356 L218 356 Z " />
<glyph glyph-name="o" unicode="o" horiz-adv-x="562" d="M21 244 C21 104 128 -5 270 -5 C411 -5 519 103 519 244 C519 385 411 493 270 493 C128 493 21 385 21 244 L21 244 Z M269 113 C194 113 144 170 144 244 C144 316 194 375 269 375 C344 375 394 317 394 244 C394 170 344 113 269 113 L269 113 Z " />
<glyph glyph-name="p" unicode="p" horiz-adv-x="584" d="M184 -83 C184 23 186 28 228 13 C280 -6 354 -48 466 70 C510 116 535 179 535 245 C535 382 433 489 291 489 C274 489 256 486 238 479 C188 461 184 453 184 470 C184 486 175 489 116 489 C56 489 47 442 47 142 C47 -158 56 -205 116 -206 C175 -206 184 -189 184 -83 L184 -83 Z M292 113 C217 113 168 170 168 243 C168 316 217 374 292 374 C367 374 417 316 417 243 C417 170 367 113 292 113 L292 113 Z " />
<glyph glyph-name="q" unicode="q" horiz-adv-x="572" d="M510 142 C510 442 501 489 442 489 C382 489 373 486 373 470 C373 453 369 461 318 479 C301 486 283 489 266 489 C124 489 21 382 21 245 C21 179 47 116 90 70 C203 -48 277 -6 329 13 C371 28 373 23 373 -83 C373 -189 382 -206 442 -206 C501 -205 510 -158 510 142 L510 142 Z M262 113 C187 113 138 170 138 243 C138 316 187 374 262 374 C337 374 387 316 387 243 C387 170 337 113 262 113 L262 113 Z " />
<glyph glyph-name="r" unicode="r" horiz-adv-x="389" d="M111 488 C52 488 43 455 43 244 C43 33 52 0 111 0 C170 0 179 20 179 151 C179 281 176 330 242 352 C314 375 331 360 341 418 C351 475 349 486 329 487 C309 489 293 497 237 474 C182 451 179 439 179 462 C179 485 170 488 111 488 L111 488 Z " />
<glyph glyph-name="s" unicode="s" horiz-adv-x="453" d="M318 478 C291 488 260 491 218 491 C132 491 45 431 45 336 C45 284 63 249 92 226 C172 162 213 192 257 178 C280 170 302 138 268 119 C219 90 193 100 143 122 C102 141 96 147 63 111 C30 74 28 45 105 15 C137 2 174 -5 220 -5 C309 -5 402 42 402 141 C402 254 337 291 237 303 C204 310 182 318 171 327 C149 346 172 368 196 374 C207 378 221 379 237 379 C254 379 269 376 283 369 C320 351 325 345 358 382 C391 419 394 449 318 478 L318 478 Z " />
<glyph glyph-name="t" unicode="t" horiz-adv-x="384" d="M270 0 C285 0 299 2 312 6 C347 16 348 30 336 72 C323 114 318 120 299 117 C293 116 288 115 285 115 C250 115 226 133 226 186 L226 282 C226 364 232 377 268 377 C303 377 309 384 309 433 C309 481 303 488 268 488 C232 488 226 498 226 562 C226 625 217 635 158 635 C98 635 89 625 89 562 C89 498 84 488 53 488 C21 488 16 481 16 433 C16 384 21 377 53 377 C84 377 89 363 89 272 L89 166 C89 62 167 0 270 0 L270 0 Z " />
<glyph glyph-name="u" unicode="u" horiz-adv-x="549" d="M310 132 C281 109 243 94 196 144 C180 162 172 188 172 220 L172 355 C172 471 163 489 104 489 C45 489 36 469 36 338 L36 186 C36 78 113 0 226 0 C249 0 270 4 289 11 C340 30 343 41 343 22 C343 3 352 0 412 0 C471 0 480 33 480 245 C480 456 471 489 412 489 C352 489 343 468 343 331 C343 194 346 160 310 132 L310 132 Z " />
<glyph glyph-name="v" unicode="v" horiz-adv-x="558" d="M107 244 C192 33 213 0 264 0 C314 0 335 33 420 244 C505 455 509 488 449 488 C388 488 371 468 321 336 C270 203 254 203 205 336 C155 468 138 488 78 488 C17 488 21 455 107 244 L107 244 Z " />
<glyph glyph-name="w" unicode="w" horiz-adv-x="713" d="M473 0 C526 0 543 33 599 245 C655 456 655 489 600 489 C545 489 531 469 498 342 C465 215 455 215 426 342 C396 469 384 489 341 489 C297 489 285 470 253 345 C221 219 211 219 179 345 C146 470 132 489 77 489 C21 489 21 456 78 245 C134 33 151 0 204 0 C257 0 270 16 302 123 C333 229 343 229 375 123 C407 16 420 0 473 0 L473 0 Z " />
<glyph glyph-name="x" unicode="x" horiz-adv-x="535" d="M76 0 C137 0 153 10 198 76 C243 142 257 142 302 76 C347 10 363 0 424 0 C485 0 482 17 407 127 C332 237 331 270 399 371 C467 471 469 487 409 487 C348 487 333 478 295 422 C256 365 244 365 206 422 C167 478 152 487 92 487 C31 487 33 471 101 371 C169 270 168 237 93 127 C18 17 15 0 76 0 L76 0 Z " />
<glyph glyph-name="y" unicode="y" horiz-adv-x="551" d="M378 139 C499 441 509 488 449 488 C388 488 371 468 321 336 C270 203 254 203 205 336 C155 468 138 488 78 488 C17 488 20 455 95 244 C170 33 177 -14 142 -105 C107 -196 111 -210 170 -210 C228 -210 256 -163 378 139 L378 139 Z " />
<glyph glyph-name="z" unicode="z" horiz-adv-x="495" d="M330 115 C242 115 242 138 330 284 C418 429 432 454 432 470 C432 485 406 487 237 487 C68 487 42 479 42 430 C42 380 56 372 144 372 C231 372 231 349 144 203 C56 56 42 31 42 17 C42 2 68 0 237 0 C406 0 432 8 432 58 C432 107 418 115 330 115 L330 115 Z " />
<glyph glyph-name="bar" unicode="&#x7c;" horiz-adv-x="378" d="M232 366 C232 852 223 927 164 927 C104 927 95 852 95 366 C95 -120 104 -195 164 -195 C223 -195 232 -120 232 366 L232 366 Z " />
<glyph glyph-name="exclamdown" unicode="&#xa1;" horiz-adv-x="293" d="M73 293 C56 95 36 47 66 15 C76 5 92 0 117 0 C142 0 158 5 167 15 C198 47 179 95 169 293 C159 490 153 521 125 521 C96 521 89 490 73 293 L73 293 Z M195 647 C195 687 167 716 122 716 C77 716 49 687 49 647 C49 608 76 579 123 579 C167 579 195 608 195 647 L195 647 Z " />
<glyph glyph-name="cent" unicode="&#xa2;" horiz-adv-x="496" d="M321 124 C306 117 289 113 269 113 C194 113 144 170 144 244 C144 316 194 375 269 375 C288 375 306 371 321 364 C360 346 367 341 404 378 C441 415 444 435 387 465 C328 495 314 494 314 527 C314 559 307 564 259 564 C210 564 203 559 203 524 C203 489 154 506 72 398 C40 356 21 303 21 244 C21 186 40 133 72 91 C155 -18 203 -3 203 -41 C203 -79 210 -85 259 -85 C307 -85 314 -79 314 -43 C314 -7 328 -8 387 22 C443 51 440 72 404 109 C367 146 360 140 321 124 L321 124 Z " />
<glyph glyph-name="sterling" unicode="&#xa3;" horiz-adv-x="667" d="M44 349 C44 314 49 308 79 308 C108 308 143 294 128 204 C113 115 79 104 79 56 C79 8 113 0 331 0 C548 0 582 8 582 56 C582 104 559 112 411 112 C263 112 254 126 258 226 C261 298 261 308 342 308 C423 308 436 314 436 349 C436 384 422 390 330 390 C237 390 221 394 219 420 C217 445 189 482 250 551 C310 620 363 602 426 572 C484 545 491 535 527 584 C562 632 566 672 462 713 C425 727 385 732 329 732 C266 732 212 712 171 677 C62 581 89 518 88 457 C87 399 89 390 68 390 C47 390 44 384 44 349 L44 349 Z " />
<glyph glyph-name="yen" unicode="&#xa5;" horiz-adv-x="749" d="M216 156 C277 156 286 146 286 78 C286 10 296 0 359 0 C422 0 432 10 432 78 C432 146 442 156 508 156 C574 156 584 163 584 205 C584 246 574 253 508 253 C442 253 432 260 432 303 C432 345 442 352 508 352 C574 352 584 359 584 401 C584 442 578 449 539 449 C499 449 507 468 597 591 C687 713 690 732 617 732 C544 732 521 716 446 613 C371 509 348 509 274 613 C200 716 177 732 103 732 C29 732 31 713 121 591 C211 468 220 449 185 449 C150 449 145 442 145 401 C145 359 154 352 216 352 C277 352 286 345 286 303 C286 260 277 253 216 253 C154 253 145 246 145 205 C145 163 154 156 216 156 L216 156 Z " />
<glyph glyph-name="dieresis" unicode="&#xa8;" horiz-adv-x="527" d="M380 600 C419 600 449 628 449 673 C449 718 419 746 380 746 C341 746 312 719 312 672 C312 627 341 600 380 600 L380 600 Z M109 600 C148 600 177 628 177 673 C177 718 148 746 109 746 C70 746 40 719 40 672 C40 628 70 600 109 600 L109 600 Z " />
<glyph glyph-name="copyright" unicode="&#xa9;" horiz-adv-x="817" d="M410 714 C359 714 309 704 265 684 C150 635 115 597 71 486 C55 443 46 398 46 351 C46 304 55 258 72 216 C116 105 151 67 265 17 C309 -2 357 -12 407 -12 C509 -12 600 27 669 99 C736 168 771 257 771 351 C771 396 763 441 745 485 C737 507 726 528 714 547 C682 598 667 634 553 684 C508 704 460 714 410 714 L410 714 Z M176 583 C247 649 324 679 410 679 C493 679 572 647 635 588 C667 558 691 522 709 480 C727 438 736 395 736 351 C736 259 698 176 633 113 C570 54 493 23 407 23 C323 23 248 55 183 114 C118 177 81 257 81 351 C81 396 90 440 107 480 C125 521 148 555 176 583 L176 583 Z M172 349 C170 282 196 222 240 180 C353 69 425 99 503 127 C579 154 579 179 552 209 C524 238 517 231 469 215 C451 209 431 206 409 206 C322 206 268 263 267 350 C267 432 325 490 409 490 C430 490 449 487 468 481 C516 465 524 458 552 487 C579 516 579 541 503 569 C474 580 443 585 409 585 C279 585 168 481 172 349 L172 349 Z " />
<glyph glyph-name="guillemotleft" unicode="&#xab;" horiz-adv-x="482" d="M342 320 C236 246 236 223 342 149 C448 74 464 66 464 88 C464 110 456 121 403 174 C350 227 350 243 403 296 C456 348 464 359 464 381 C464 403 448 394 342 320 L342 320 Z M171 320 C65 246 65 223 171 149 C277 74 293 66 293 88 C293 110 285 121 232 174 C179 227 179 243 232 296 C285 348 293 359 293 381 C293 403 277 394 171 320 L171 320 Z " />
<glyph glyph-name="registered" unicode="&#xae;" horiz-adv-x="817" d="M410 714 C359 714 309 704 265 684 C150 635 115 597 71 486 C55 443 46 398 46 351 C46 304 55 258 72 216 C116 105 151 67 265 17 C309 -2 357 -12 407 -12 C509 -12 600 27 669 99 C736 168 771 257 771 351 C771 396 763 441 745 485 C737 507 726 528 714 547 C682 598 667 634 553 684 C508 704 460 714 410 714 L410 714 Z M176 583 C247 649 324 679 410 679 C493 679 572 647 635 588 C667 558 691 522 709 480 C727 438 736 395 736 351 C736 259 698 176 633 113 C570 54 493 23 407 23 C323 23 248 55 183 114 C118 177 81 257 81 351 C81 396 90 440 107 480 C125 521 148 555 176 583 L176 583 Z M383 488 L444 488 C479 486 497 472 498 443 C497 412 479 396 443 395 L382 395 C329 395 321 401 321 442 C321 482 329 488 383 488 L383 488 Z M557 366 C570 386 577 412 577 444 C577 527 526 569 424 569 L329 569 C247 569 234 540 234 351 C234 162 240 133 278 133 C315 133 321 145 321 223 C321 301 326 313 361 313 C395 313 407 301 453 223 C498 145 512 133 555 133 C598 133 598 146 551 228 C504 310 522 313 557 366 L557 366 Z " />
<glyph glyph-name="macron" unicode="&#xaf;" horiz-adv-x="312" d="M312 655 C312 689 291 694 156 694 C21 694 0 689 0 655 C0 621 21 616 156 616 C291 616 312 621 312 655 L312 655 Z " />
<glyph glyph-name="degree" unicode="&#xb0;" horiz-adv-x="377" d="M262 585 C262 537 223 500 177 500 C132 500 91 538 91 585 C91 633 132 670 177 670 C223 670 262 633 262 585 L262 585 Z M177 732 C94 732 29 665 29 584 C29 504 93 437 176 437 C257 437 324 505 324 584 C324 664 259 732 177 732 L177 732 Z " />
<glyph glyph-name="acute" unicode="&#xb4;" horiz-adv-x="202" d="M169 657 C190 672 191 673 191 674 C211 694 201 724 183 742 C174 751 162 758 150 761 C118 767 106 739 55 671 C3 603 -2 589 14 573 C30 557 52 567 169 657 L169 657 Z " />
<glyph glyph-name="paragraph" unicode="&#xb6;" horiz-adv-x="956" d="M316 732 C146 732 60 662 60 521 C60 375 146 303 316 303 L403 303 C477 303 489 283 489 152 C489 20 499 0 563 0 C626 0 636 40 636 298 C636 555 643 595 690 595 C736 595 743 555 743 298 C743 40 753 0 816 0 C879 0 889 49 889 367 C889 684 851 733 603 733 L316 732 L316 732 Z " />
<glyph glyph-name="cedilla" unicode="&#xb8;" horiz-adv-x="349" d="M243 -200 C299 -200 352 -153 352 -91 C352 -71 345 -53 330 -38 C287 7 271 2 292 31 C313 60 310 64 269 64 C227 64 217 57 192 11 C166 -35 167 -44 201 -54 L239 -65 C259 -71 271 -80 271 -93 C271 -108 256 -120 243 -120 C235 -120 228 -117 221 -111 C202 -96 199 -92 170 -106 C141 -119 130 -140 177 -177 C195 -191 218 -200 243 -200 L243 -200 Z " />
<glyph glyph-name="guillemotright" unicode="&#xbb;" horiz-adv-x="482" d="M110 296 C163 243 163 227 110 174 C57 121 49 110 49 88 C49 66 65 74 171 149 C277 223 277 246 171 320 C65 394 49 403 49 381 C49 359 57 348 110 296 L110 296 Z M281 296 C334 243 334 227 281 174 C228 121 220 110 220 88 C220 66 236 74 342 149 C448 223 448 246 342 320 C236 394 220 403 220 381 C220 359 228 348 281 296 L281 296 Z " />
<glyph glyph-name="questiondown" unicode="&#xbf;" horiz-adv-x="610" d="M269 0 C331 0 376 5 416 20 C529 62 525 105 484 147 C442 188 435 176 376 151 C353 142 327 137 298 137 C150 137 119 279 232 305 C291 319 326 349 347 389 C406 505 366 537 307 537 C248 537 257 517 218 448 C206 426 188 412 164 405 C68 379 24 307 24 215 C24 85 159 0 269 0 L269 0 Z M375 664 C375 703 347 732 302 732 C257 732 229 703 229 664 C229 625 256 595 303 595 C348 595 375 625 375 664 L375 664 Z " />
<glyph glyph-name="Agrave" unicode="&#xc0;" horiz-adv-x="803" d="M200 56 C219 104 244 112 388 112 C532 112 557 104 576 56 C595 8 608 0 676 0 C743 0 733 49 607 366 C481 683 451 732 388 732 C324 732 294 683 168 366 C41 49 32 0 100 0 C167 0 181 8 200 56 L200 56 Z M390 259 C295 259 288 278 336 398 C384 518 399 518 446 398 C493 278 485 259 390 259 L390 259 Z M450 915 C399 983 387 1011 355 1005 C342 1002 331 995 322 986 C304 968 293 938 313 918 C314 918 315 917 335 902 C453 812 474 801 490 817 C506 833 501 847 450 915 L450 915 Z " />
<glyph glyph-name="Aacute" unicode="&#xc1;" horiz-adv-x="803" d="M200 56 C219 104 244 112 388 112 C532 112 557 104 576 56 C595 8 608 0 676 0 C743 0 733 49 607 366 C481 683 451 732 388 732 C324 732 294 683 168 366 C41 49 32 0 100 0 C167 0 181 8 200 56 L200 56 Z M390 259 C295 259 288 278 336 398 C384 518 399 518 446 398 C493 278 485 259 390 259 L390 259 Z M467 902 C488 917 489 918 489 918 C509 938 499 968 480 986 C472 995 460 1002 448 1005 C416 1011 404 983 353 915 C301 847 296 833 312 817 C328 801 349 812 467 902 L467 902 Z " />
<glyph glyph-name="Acircumflex" unicode="&#xc2;" horiz-adv-x="803" d="M200 56 C219 104 244 112 388 112 C532 112 557 104 576 56 C595 8 608 0 676 0 C743 0 733 49 607 366 C481 683 451 732 388 732 C324 732 294 683 168 366 C41 49 32 0 100 0 C167 0 181 8 200 56 L200 56 Z M390 259 C295 259 288 278 336 398 C384 518 399 518 446 398 C493 278 485 259 390 259 L390 259 Z M266 812 C284 795 294 797 342 830 C390 863 404 863 452 830 C500 797 510 795 529 811 C547 827 540 842 474 917 C407 991 387 991 321 917 C254 843 247 828 266 812 L266 812 Z " />
<glyph glyph-name="Atilde" unicode="&#xc3;" horiz-adv-x="803" d="M200 56 C219 104 244 112 388 112 C532 112 557 104 576 56 C595 8 608 0 676 0 C743 0 733 49 607 366 C481 683 451 732 388 732 C324 732 294 683 168 366 C41 49 32 0 100 0 C167 0 181 8 200 56 L200 56 Z M390 259 C295 259 288 278 336 398 C384 518 399 518 446 398 C493 278 485 259 390 259 L390 259 Z M278 868 C285 892 303 895 325 884 C337 878 352 868 369 854 C427 808 495 798 547 821 C690 884 618 983 570 983 C522 983 515 981 515 968 L515 952 C515 936 506 928 491 928 C431 930 401 1045 253 998 C108 951 166 850 217 850 C267 850 273 853 278 868 L278 868 Z " />
<glyph glyph-name="Adieresis" unicode="&#xc4;" horiz-adv-x="803" d="M200 56 C219 104 244 112 388 112 C532 112 557 104 576 56 C595 8 608 0 676 0 C743 0 733 49 607 366 C481 683 451 732 388 732 C324 732 294 683 168 366 C41 49 32 0 100 0 C167 0 181 8 200 56 L200 56 Z M390 259 C295 259 288 278 336 398 C384 518 399 518 446 398 C493 278 485 259 390 259 L390 259 Z M522 844 C562 844 591 872 591 917 C591 962 562 990 522 990 C483 990 454 963 454 916 C454 872 483 844 522 844 L522 844 Z M251 844 C290 844 319 872 319 917 C319 962 290 990 251 990 C212 990 182 963 182 917 C182 872 212 844 251 844 L251 844 Z " />
<glyph glyph-name="Aring" unicode="&#xc5;" horiz-adv-x="803" d="M200 56 C219 104 244 112 388 112 C532 112 557 104 576 56 C595 8 608 0 676 0 C743 0 733 49 607 366 C481 683 451 732 388 732 C324 732 294 683 168 366 C41 49 32 0 100 0 C167 0 181 8 200 56 L200 56 Z M390 259 C295 259 288 278 336 398 C384 518 399 518 446 398 C493 278 485 259 390 259 L390 259 Z M398 804 C458 804 503 848 503 917 C503 986 458 1030 398 1030 C338 1030 292 988 292 916 C292 848 338 804 398 804 L398 804 Z M398 875 C375 875 359 891 359 917 C359 943 375 958 398 958 C420 958 437 943 437 917 C437 891 420 875 398 875 L398 875 Z " />
<glyph glyph-name="AE" unicode="&#xc6;" horiz-adv-x="998" d="M929 69 C929 128 903 137 734 137 C564 137 538 148 538 220 C538 292 558 303 685 303 C812 303 832 312 832 371 C832 430 812 439 685 439 C558 439 538 450 538 518 C538 585 564 596 734 596 C904 596 930 605 930 664 C930 723 889 732 622 732 C355 732 294 683 168 366 C41 49 32 0 100 0 C167 0 181 8 200 56 C219 104 233 112 307 112 C381 112 392 104 392 56 C392 8 428 0 661 0 C893 0 929 9 929 69 L929 69 Z M336 259 C288 259 288 278 336 398 C384 518 392 518 392 398 C392 278 384 259 336 259 L336 259 Z " />
<glyph glyph-name="Ccedilla" unicode="&#xc7;" horiz-adv-x="756" d="M372 -200 C428 -200 481 -153 481 -91 C481 -71 474 -53 460 -38 C417 8 422 -19 539 26 C652 69 652 105 610 152 C568 198 556 187 482 161 C454 151 424 146 391 146 C257 146 171 235 170 369 C170 498 261 585 390 586 C422 586 452 581 481 572 C556 546 568 535 610 582 C652 628 652 666 535 708 C491 724 442 732 390 732 C189 732 19 573 24 368 C21 278 52 195 105 131 C241 -33 315 3 304 -18 C293 -39 296 -44 330 -54 L368 -65 C388 -71 400 -80 400 -93 C400 -108 385 -120 372 -120 C364 -120 357 -117 350 -111 C331 -96 328 -92 299 -106 C270 -119 259 -140 306 -177 C324 -191 347 -200 372 -200 L372 -200 Z " />
<glyph glyph-name="Egrave" unicode="&#xc8;" horiz-adv-x="684" d="M595 69 C595 128 569 137 400 137 C231 137 205 148 205 220 C205 292 225 303 352 303 C478 303 498 312 498 371 C498 430 478 439 352 439 C225 439 205 450 205 518 C205 585 231 596 401 596 C570 596 596 605 596 664 C596 723 560 732 327 732 C94 732 58 683 58 366 C58 49 94 0 327 0 C559 0 595 9 595 69 L595 69 Z M391 915 C339 983 327 1011 295 1005 C283 1002 271 995 262 986 C244 968 233 938 253 918 C254 918 255 917 275 902 C394 812 415 801 431 817 C447 833 442 847 391 915 L391 915 Z " />
<glyph glyph-name="Eacute" unicode="&#xc9;" horiz-adv-x="684" d="M595 69 C595 128 569 137 400 137 C231 137 205 148 205 220 C205 292 225 303 352 303 C478 303 498 312 498 371 C498 430 478 439 352 439 C225 439 205 450 205 518 C205 585 231 596 401 596 C570 596 596 605 596 664 C596 723 560 732 327 732 C94 732 58 683 58 366 C58 49 94 0 327 0 C559 0 595 9 595 69 L595 69 Z M408 902 C429 917 430 918 430 918 C450 938 439 968 421 986 C412 995 400 1002 388 1005 C356 1011 344 983 293 915 C241 847 236 833 252 817 C268 801 289 812 408 902 L408 902 Z " />
<glyph glyph-name="Ecircumflex" unicode="&#xca;" horiz-adv-x="684" d="M595 69 C595 128 569 137 400 137 C231 137 205 148 205 220 C205 292 225 303 352 303 C478 303 498 312 498 371 C498 430 478 439 352 439 C225 439 205 450 205 518 C205 585 231 596 401 596 C570 596 596 605 596 664 C596 723 560 732 327 732 C94 732 58 683 58 366 C58 49 94 0 327 0 C559 0 595 9 595 69 L595 69 Z M206 812 C224 795 234 797 282 830 C330 863 344 863 393 830 C441 797 451 795 469 811 C487 827 480 842 414 917 C347 991 327 991 261 917 C195 843 188 828 206 812 L206 812 Z " />
<glyph glyph-name="Edieresis" unicode="&#xcb;" horiz-adv-x="684" d="M595 69 C595 128 569 137 400 137 C231 137 205 148 205 220 C205 292 225 303 352 303 C478 303 498 312 498 371 C498 430 478 439 352 439 C225 439 205 450 205 518 C205 585 231 596 401 596 C570 596 596 605 596 664 C596 723 560 732 327 732 C94 732 58 683 58 366 C58 49 94 0 327 0 C559 0 595 9 595 69 L595 69 Z M478 844 C517 844 546 872 546 917 C546 962 517 990 478 990 C438 990 409 963 409 916 C409 872 438 844 478 844 L478 844 Z M206 844 C245 844 274 872 274 917 C274 962 245 990 206 990 C167 990 137 963 137 917 C137 872 167 844 206 844 L206 844 Z " />
<glyph glyph-name="Igrave" unicode="&#xcc;" horiz-adv-x="293" d="M133 0 C196 0 206 49 206 367 C206 684 196 733 133 733 C70 733 60 684 60 367 C60 49 70 0 133 0 L133 0 Z M195 915 C144 983 132 1011 100 1005 C87 1002 76 995 67 986 C49 968 38 938 58 918 C59 918 60 917 80 902 C198 812 219 801 235 817 C251 833 246 847 195 915 L195 915 Z " />
<glyph glyph-name="Iacute" unicode="&#xcd;" horiz-adv-x="293" d="M133 0 C196 0 206 49 206 367 C206 684 196 733 133 733 C70 733 60 684 60 367 C60 49 70 0 133 0 L133 0 Z M212 902 C233 917 234 918 234 918 C254 938 244 968 226 986 C217 995 205 1002 193 1005 C161 1011 149 983 98 915 C46 847 41 833 57 817 C73 801 94 812 212 902 L212 902 Z " />
<glyph glyph-name="Icircumflex" unicode="&#xce;" horiz-adv-x="293" d="M133 0 C196 0 206 49 206 367 C206 684 196 733 133 733 C70 733 60 684 60 367 C60 49 70 0 133 0 L133 0 Z M11 812 C29 795 39 797 87 830 C135 863 149 863 197 830 C245 797 255 795 274 811 C292 827 285 842 219 917 C152 991 132 991 66 917 C-1 843 -8 828 11 812 L11 812 Z " />
<glyph glyph-name="Idieresis" unicode="&#xcf;" horiz-adv-x="293" d="M133 0 C196 0 206 49 206 367 C206 684 196 733 133 733 C70 733 60 684 60 367 C60 49 70 0 133 0 L133 0 Z M273 844 C312 844 341 872 341 917 C341 962 312 990 273 990 C234 990 204 963 204 916 C204 872 234 844 273 844 L273 844 Z M1 844 C41 844 70 872 70 917 C70 962 41 990 1 990 C-38 990 -67 963 -67 917 C-67 872 -38 844 1 844 L1 844 Z " />
<glyph glyph-name="Eth" unicode="&#xd0;" horiz-adv-x="781" d="M342 0 C570 0 684 122 684 366 C684 611 570 733 342 733 L201 733 C79 733 60 711 60 572 C60 433 55 411 20 411 C-16 411 -21 404 -21 363 C-21 321 -16 314 20 314 C55 314 60 293 60 157 C60 21 79 0 201 0 L342 0 L342 0 Z M207 230 C207 303 212 314 245 314 C277 314 282 321 282 363 C282 404 277 411 245 411 C212 411 207 423 207 499 C207 574 216 586 275 586 L342 586 C472 586 537 513 538 366 C537 220 472 146 342 146 L275 146 C216 146 207 157 207 230 L207 230 Z " />
<glyph glyph-name="Ntilde" unicode="&#xd1;" horiz-adv-x="806" d="M207 258 C207 480 231 489 387 324 C542 159 566 124 566 67 C566 9 576 0 640 0 C704 0 714 49 714 366 C714 683 704 732 641 732 C578 732 568 707 568 543 C568 378 544 378 388 543 C231 707 197 732 134 732 C70 732 60 683 60 366 C60 49 70 0 134 0 C197 0 207 35 207 258 L207 258 Z M275 868 C282 892 300 895 323 884 C363 864 401 758 544 821 C687 884 616 983 568 983 C519 983 512 981 512 968 L512 952 C512 936 503 928 488 928 C428 930 398 1045 250 998 C105 951 163 850 214 850 C264 850 270 853 275 868 L275 868 Z " />
<glyph glyph-name="Ograve" unicode="&#xd2;" horiz-adv-x="804" d="M23 366 C23 160 182 0 389 0 C596 0 755 159 755 366 C755 573 596 732 389 732 C182 732 23 573 23 366 L23 366 Z M390 137 C258 137 169 238 169 366 C169 494 258 596 389 596 C520 596 609 494 609 366 C609 239 520 137 390 137 L390 137 Z M451 915 C400 983 388 1011 356 1005 C343 1002 332 995 323 986 C305 968 294 938 314 918 C315 918 316 917 336 902 C454 812 475 801 491 817 C507 833 502 847 451 915 L451 915 Z " />
<glyph glyph-name="Oacute" unicode="&#xd3;" horiz-adv-x="804" d="M23 366 C23 160 182 0 389 0 C596 0 755 159 755 366 C755 573 596 732 389 732 C182 732 23 573 23 366 L23 366 Z M390 137 C258 137 169 238 169 366 C169 494 258 596 389 596 C520 596 609 494 609 366 C609 239 520 137 390 137 L390 137 Z M468 902 C489 917 490 918 490 918 C510 938 500 968 481 986 C473 995 461 1002 449 1005 C417 1011 405 983 354 915 C302 847 297 833 313 817 C329 801 350 812 468 902 L468 902 Z " />
<glyph glyph-name="Ocircumflex" unicode="&#xd4;" horiz-adv-x="804" d="M23 366 C23 160 182 0 389 0 C596 0 755 159 755 366 C755 573 596 732 389 732 C182 732 23 573 23 366 L23 366 Z M390 137 C258 137 169 238 169 366 C169 494 258 596 389 596 C520 596 609 494 609 366 C609 239 520 137 390 137 L390 137 Z M266 812 C284 795 294 797 342 830 C390 863 404 863 453 830 C501 797 511 795 529 811 C547 827 540 842 474 917 C407 991 387 991 321 917 C255 843 248 828 266 812 L266 812 Z " />
<glyph glyph-name="Otilde" unicode="&#xd5;" horiz-adv-x="804" d="M23 366 C23 160 182 0 389 0 C596 0 755 159 755 366 C755 573 596 732 389 732 C182 732 23 573 23 366 L23 366 Z M390 137 C258 137 169 238 169 366 C169 494 258 596 389 596 C520 596 609 494 609 366 C609 239 520 137 390 137 L390 137 Z M279 868 C286 892 304 895 326 884 C338 878 353 868 370 854 C428 808 496 798 548 821 C691 884 619 983 571 983 C523 983 516 981 516 968 L516 952 C516 936 507 928 492 928 C432 930 402 1045 254 998 C109 951 167 850 218 850 C268 850 274 853 279 868 L279 868 Z " />
<glyph glyph-name="Odieresis" unicode="&#xd6;" horiz-adv-x="804" d="M23 366 C23 160 182 0 389 0 C596 0 755 159 755 366 C755 573 596 732 389 732 C182 732 23 573 23 366 L23 366 Z M390 137 C258 137 169 238 169 366 C169 494 258 596 389 596 C520 596 609 494 609 366 C609 239 520 137 390 137 L390 137 Z M523 844 C562 844 592 872 592 917 C592 962 562 990 523 990 C484 990 455 963 455 916 C455 872 484 844 523 844 L523 844 Z M252 844 C291 844 320 872 320 917 C320 962 291 990 252 990 C213 990 183 963 183 917 C183 872 213 844 252 844 L252 844 Z " />
<glyph glyph-name="multiply" unicode="&#xd7;" horiz-adv-x="541" d="M394 418 C453 477 458 490 435 514 C411 538 398 533 339 474 C280 414 262 414 203 474 C143 533 130 538 107 514 C83 490 88 477 147 418 C206 359 206 341 147 282 C88 223 83 210 107 187 C130 163 143 168 203 227 C262 286 280 286 339 227 C398 168 411 163 435 187 C458 210 453 223 394 282 C335 341 335 359 394 418 L394 418 Z " />
<glyph glyph-name="Oslash" unicode="&#xd8;" horiz-adv-x="804" d="M352 2 C364 1 377 0 389 0 C596 0 755 159 755 366 C755 437 736 503 703 558 C619 699 568 695 584 737 C599 778 594 784 547 784 C499 784 491 780 481 754 C471 728 465 726 430 730 C417 731 403 732 389 732 C182 732 23 573 23 366 C23 294 43 227 77 171 C165 27 218 33 203 -9 C188 -50 193 -56 240 -56 C287 -56 296 -52 306 -25 C315 2 322 4 352 2 L352 2 Z M389 596 C395 596 400 596 406 595 C420 594 412 565 345 382 C278 199 239 168 196 252 C179 286 169 325 169 366 C169 494 258 596 389 596 L389 596 Z M390 137 C386 137 381 137 377 137 C367 137 375 166 441 347 C507 528 545 557 585 475 C601 443 609 406 609 366 C609 239 520 137 390 137 L390 137 Z " />
<glyph glyph-name="Ugrave" unicode="&#xd9;" horiz-adv-x="782" d="M49 501 L49 269 C49 102 206 0 366 0 C527 0 684 102 684 269 L684 501 C684 701 674 732 611 732 C547 732 537 704 537 520 L537 308 C537 200 467 146 366 146 C265 146 195 200 195 308 L195 520 C195 704 185 732 122 732 C59 732 49 701 49 501 L49 501 Z M357 915 C305 983 293 1011 261 1005 C249 1002 238 995 229 986 C210 968 200 938 220 918 C221 918 222 917 242 902 C360 812 381 801 397 817 C413 833 408 847 357 915 L357 915 Z " />
<glyph glyph-name="Uacute" unicode="&#xda;" horiz-adv-x="782" d="M49 501 L49 269 C49 102 206 0 366 0 C527 0 684 102 684 269 L684 501 C684 701 674 732 611 732 C547 732 537 704 537 520 L537 308 C537 200 467 146 366 146 C265 146 195 200 195 308 L195 520 C195 704 185 732 122 732 C59 732 49 701 49 501 L49 501 Z M535 902 C556 917 557 918 557 918 C577 938 566 968 548 986 C540 995 528 1002 515 1005 C483 1011 471 983 420 915 C369 847 364 833 380 817 C396 801 417 812 535 902 L535 902 Z " />
<glyph glyph-name="Ucircumflex" unicode="&#xdb;" horiz-adv-x="782" d="M49 501 L49 269 C49 102 206 0 366 0 C527 0 684 102 684 269 L684 501 C684 701 674 732 611 732 C547 732 537 704 537 520 L537 308 C537 200 467 146 366 146 C265 146 195 200 195 308 L195 520 C195 704 185 732 122 732 C59 732 49 701 49 501 L49 501 Z M235 812 C253 795 263 797 312 830 C360 863 374 863 422 830 C470 797 480 795 499 811 C517 827 510 842 444 917 C377 991 357 991 291 917 C224 843 217 828 235 812 L235 812 Z " />
<glyph glyph-name="Udieresis" unicode="&#xdc;" horiz-adv-x="782" d="M49 501 L49 269 C49 102 206 0 366 0 C527 0 684 102 684 269 L684 501 C684 701 674 732 611 732 C547 732 537 704 537 520 L537 308 C537 200 467 146 366 146 C265 146 195 200 195 308 L195 520 C195 704 185 732 122 732 C59 732 49 701 49 501 L49 501 Z M502 844 C542 844 571 872 571 917 C571 962 542 990 502 990 C463 990 434 963 434 916 C434 872 463 844 502 844 L502 844 Z M231 844 C270 844 299 872 299 917 C299 962 270 990 231 990 C192 990 162 963 162 917 C162 872 192 844 231 844 L231 844 Z " />
<glyph glyph-name="Yacute" unicode="&#xdd;" horiz-adv-x="749" d="M286 183 C286 25 296 0 359 0 C422 0 432 25 432 183 C432 341 450 391 567 549 C683 707 690 732 617 732 C544 732 521 716 446 613 C371 509 348 509 274 613 C200 716 177 732 103 732 C29 732 35 707 152 549 C268 391 286 341 286 183 L286 183 Z M524 902 C544 917 545 918 545 918 C565 938 555 968 537 986 C528 995 516 1002 504 1005 C472 1011 460 983 409 915 C357 847 352 833 368 817 C384 801 406 811 524 902 L524 902 Z " />
<glyph glyph-name="germandbls" unicode="&#xdf;" horiz-adv-x="696" d="M502 693 C457 731 396 748 333 748 C209 748 88 673 88 516 L88 509 C88 502 83 501 52 501 C20 501 15 494 15 446 C15 398 20 391 52 391 C83 391 88 365 88 196 C88 26 97 0 157 0 C216 0 225 33 225 247 L225 494 C225 563 247 628 333 628 C370 628 396 612 413 587 C461 519 434 479 371 412 C356 395 348 383 348 354 C348 255 488 240 488 178 C488 155 471 142 444 134 C360 112 344 118 344 66 C344 13 348 3 374 1 C384 0 393 0 401 0 C514 0 627 50 627 167 C627 234 597 274 565 302 C506 353 496 371 533 418 C590 491 630 586 502 693 L502 693 Z " />
<glyph glyph-name="agrave" unicode="&#xe0;" horiz-adv-x="583" d="M375 468 C375 451 373 460 331 475 C279 494 206 536 93 418 C50 372 24 310 24 244 C24 107 127 0 268 0 C286 0 303 3 321 10 C371 28 375 36 375 20 C375 3 384 0 441 0 C498 0 507 33 507 244 C507 454 498 487 441 488 C384 488 375 485 375 468 L375 468 Z M268 113 C192 113 143 170 143 243 C143 316 192 374 267 374 C342 374 393 316 393 243 C393 170 342 113 268 113 L268 113 Z M341 671 C289 739 277 767 245 761 C233 758 221 751 212 742 C194 724 184 694 204 674 C205 673 206 672 226 657 C343 567 365 557 381 573 C397 589 392 603 341 671 L341 671 Z " />
<glyph glyph-name="aacute" unicode="&#xe1;" horiz-adv-x="583" d="M375 468 C375 451 373 460 331 475 C279 494 206 536 93 418 C50 372 24 310 24 244 C24 107 127 0 268 0 C286 0 303 3 321 10 C371 28 375 36 375 20 C375 3 384 0 441 0 C498 0 507 33 507 244 C507 454 498 487 441 488 C384 488 375 485 375 468 L375 468 Z M268 113 C192 113 143 170 143 243 C143 316 192 374 267 374 C342 374 393 316 393 243 C393 170 342 113 268 113 L268 113 Z M358 657 C379 672 380 673 380 674 C400 694 389 724 371 742 C363 751 351 758 338 761 C306 767 294 739 243 671 C192 603 187 589 203 573 C219 557 241 567 358 657 L358 657 Z " />
<glyph glyph-name="acircumflex" unicode="&#xe2;" horiz-adv-x="583" d="M375 468 C375 451 373 460 331 475 C279 494 206 536 93 418 C50 372 24 310 24 244 C24 107 127 0 268 0 C286 0 303 3 321 10 C371 28 375 36 375 20 C375 3 384 0 441 0 C498 0 507 33 507 244 C507 454 498 487 441 488 C384 488 375 485 375 468 L375 468 Z M268 113 C192 113 143 170 143 243 C143 316 192 374 267 374 C342 374 393 316 393 243 C393 170 342 113 268 113 L268 113 Z M156 567 C174 551 184 553 232 586 C280 619 294 619 342 586 C390 553 400 551 419 567 C437 583 430 598 364 673 C297 747 277 747 211 673 C144 598 137 583 156 567 L156 567 Z " />
<glyph glyph-name="atilde" unicode="&#xe3;" horiz-adv-x="583" d="M375 468 C375 451 373 460 331 475 C279 494 206 536 93 418 C50 372 24 310 24 244 C24 107 127 0 268 0 C286 0 303 3 321 10 C371 28 375 36 375 20 C375 3 384 0 441 0 C498 0 507 33 507 244 C507 454 498 487 441 488 C384 488 375 485 375 468 L375 468 Z M268 113 C192 113 143 170 143 243 C143 316 192 374 267 374 C342 374 393 316 393 243 C393 170 342 113 268 113 L268 113 Z M169 624 C171 633 177 644 187 646 C194 648 204 646 216 640 C257 619 295 513 438 577 C580 640 509 739 461 739 C413 739 406 737 406 724 L406 708 C404 676 373 674 318 714 C261 756 196 771 143 754 C-2 707 57 605 108 605 C158 605 164 608 169 624 L169 624 Z " />
<glyph glyph-name="adieresis" unicode="&#xe4;" horiz-adv-x="583" d="M375 468 C375 451 373 460 331 475 C279 494 206 536 93 418 C50 372 24 310 24 244 C24 107 127 0 268 0 C286 0 303 3 321 10 C371 28 375 36 375 20 C375 3 384 0 441 0 C498 0 507 33 507 244 C507 454 498 487 441 488 C384 488 375 485 375 468 L375 468 Z M268 113 C192 113 143 170 143 243 C143 316 192 374 267 374 C342 374 393 316 393 243 C393 170 342 113 268 113 L268 113 Z M413 600 C452 600 481 628 481 673 C481 718 452 746 413 746 C374 746 344 719 344 672 C344 627 374 600 413 600 L413 600 Z M142 600 C181 600 210 628 210 673 C210 718 181 746 142 746 C103 746 73 719 73 672 C73 628 103 600 142 600 L142 600 Z " />
<glyph glyph-name="aring" unicode="&#xe5;" horiz-adv-x="583" d="M375 468 C375 451 373 460 331 475 C279 494 206 536 93 418 C50 372 24 310 24 244 C24 107 127 0 268 0 C286 0 303 3 321 10 C371 28 375 36 375 20 C375 3 384 0 441 0 C498 0 507 33 507 244 C507 454 498 487 441 488 C384 488 375 485 375 468 L375 468 Z M268 113 C192 113 143 170 143 243 C143 316 192 374 267 374 C342 374 393 316 393 243 C393 170 342 113 268 113 L268 113 Z M292 560 C352 560 397 604 397 673 C397 742 352 786 292 786 C231 786 186 744 186 672 C186 604 231 560 292 560 L292 560 Z M292 631 C269 631 252 647 252 672 C252 699 269 714 292 714 C313 714 330 699 330 673 C330 647 313 631 292 631 L292 631 Z " />
<glyph glyph-name="ae" unicode="&#xe6;" horiz-adv-x="867" d="M237 376 C289 375 336 360 336 317 L336 310 C336 304 329 312 275 322 C254 326 235 327 219 327 C102 327 24 262 24 151 C24 54 89 0 219 0 C263 0 300 8 330 19 C399 44 409 40 479 15 C506 5 537 0 569 0 C612 0 650 6 683 18 C767 48 765 78 731 112 C696 146 687 139 634 122 C614 115 592 112 569 112 C545 112 520 120 502 134 C453 171 490 195 636 195 C781 195 804 198 804 220 L804 244 C804 385 713 488 569 488 C539 488 510 484 484 475 C418 454 410 455 352 475 C329 484 303 488 273 488 C232 488 194 485 158 476 C67 455 62 429 85 394 C108 358 127 379 237 376 L237 376 Z M299 113 C281 106 259 103 234 103 C175 103 141 127 141 166 C141 205 175 234 234 234 C259 234 281 231 299 225 C337 212 336 193 336 170 C336 146 337 127 299 113 L299 113 Z M569 376 C593 376 618 369 637 355 C684 319 654 293 570 293 C485 293 454 319 502 355 C520 369 545 376 569 376 L569 376 Z " />
<glyph glyph-name="ccedilla" unicode="&#xe7;" horiz-adv-x="496" d="M257 -200 C313 -200 366 -153 366 -91 C366 -72 359 -54 346 -40 C306 4 304 -14 375 18 C443 48 440 72 404 109 C367 146 360 140 321 124 C306 117 289 113 269 113 C194 113 144 170 144 244 C144 316 194 375 269 375 C288 375 306 371 321 364 C360 346 367 341 404 378 C441 415 444 442 368 474 C338 486 305 493 270 493 C128 493 21 385 21 244 C21 186 40 133 71 91 C154 -17 200 1 189 -19 C178 -39 181 -44 215 -54 L253 -65 C273 -71 286 -80 286 -93 C286 -108 271 -120 257 -120 C249 -120 242 -117 235 -111 C216 -96 213 -92 184 -106 C155 -119 144 -140 191 -177 C209 -191 232 -200 257 -200 L257 -200 Z " />
<glyph glyph-name="egrave" unicode="&#xe8;" horiz-adv-x="560" d="M23 244 C23 102 125 0 267 0 C310 0 347 6 381 18 C464 49 462 78 428 112 C394 146 385 139 332 122 C311 115 290 112 267 112 C242 112 218 120 199 134 C151 171 188 195 333 195 C478 195 501 198 501 220 L501 244 C501 385 411 488 267 488 C125 488 23 387 23 244 L23 244 Z M329 671 C278 739 266 767 234 761 C221 758 210 751 201 742 C183 724 172 694 192 674 C193 673 194 672 214 657 C331 567 353 557 369 573 C385 589 380 603 329 671 L329 671 Z M267 376 C291 376 316 369 335 355 C382 319 352 293 267 293 C182 293 152 319 199 355 C218 369 243 376 267 376 L267 376 Z " />
<glyph glyph-name="eacute" unicode="&#xe9;" horiz-adv-x="560" d="M23 244 C23 102 125 0 267 0 C310 0 347 6 381 18 C464 49 462 78 428 112 C394 146 385 139 332 122 C311 115 290 112 267 112 C242 112 218 120 199 134 C151 171 188 195 333 195 C478 195 501 198 501 220 L501 244 C501 385 411 488 267 488 C125 488 23 387 23 244 L23 244 Z M346 657 C367 672 368 673 368 674 C388 694 377 724 359 742 C351 751 339 758 327 761 C295 767 283 739 232 671 C180 603 175 589 191 573 C207 557 229 567 346 657 L346 657 Z M267 376 C291 376 316 369 335 355 C382 319 352 293 267 293 C182 293 152 319 199 355 C218 369 243 376 267 376 L267 376 Z " />
<glyph glyph-name="ecircumflex" unicode="&#xea;" horiz-adv-x="560" d="M23 244 C23 102 125 0 267 0 C310 0 347 6 381 18 C464 49 462 78 428 112 C394 146 385 139 332 122 C311 115 290 112 267 112 C242 112 218 120 199 134 C151 171 188 195 333 195 C478 195 501 198 501 220 L501 244 C501 385 411 488 267 488 C125 488 23 387 23 244 L23 244 Z M267 376 C291 376 316 369 335 355 C382 319 352 293 267 293 C182 293 152 319 199 355 C218 369 243 376 267 376 L267 376 Z M144 567 C162 551 172 553 220 586 C268 619 282 619 331 586 C379 553 389 551 407 567 C425 583 418 598 352 673 C285 747 265 747 199 673 C133 598 126 583 144 567 L144 567 Z " />
<glyph glyph-name="edieresis" unicode="&#xeb;" horiz-adv-x="560" d="M23 244 C23 102 125 0 267 0 C310 0 347 6 381 18 C464 49 462 78 428 112 C394 146 385 139 332 122 C311 115 290 112 267 112 C242 112 218 120 199 134 C151 171 188 195 333 195 C478 195 501 198 501 220 L501 244 C501 385 411 488 267 488 C125 488 23 387 23 244 L23 244 Z M267 376 C291 376 316 369 335 355 C382 319 352 293 267 293 C182 293 152 319 199 355 C218 369 243 376 267 376 L267 376 Z M416 600 C455 600 484 628 484 673 C484 718 455 746 416 746 C377 746 347 719 347 672 C347 627 377 600 416 600 L416 600 Z M145 600 C184 600 213 628 213 673 C213 718 184 746 145 746 C105 746 76 719 76 672 C76 628 105 600 145 600 L145 600 Z " />
<glyph glyph-name="igrave" unicode="&#xec;" horiz-adv-x="256" d="M186 245 C186 456 177 489 118 489 C58 489 49 456 49 245 C49 33 58 0 118 0 C177 0 186 33 186 245 L186 245 Z M177 671 C125 739 113 767 81 761 C69 758 57 751 48 742 C30 724 20 694 40 674 C41 673 41 672 61 657 C179 567 201 557 217 573 C233 589 228 603 177 671 L177 671 Z " />
<glyph glyph-name="iacute" unicode="&#xed;" horiz-adv-x="256" d="M186 245 C186 456 177 489 118 489 C58 489 49 456 49 245 C49 33 58 0 118 0 C177 0 186 33 186 245 L186 245 Z M194 657 C215 672 216 673 216 674 C236 694 225 724 207 742 C198 751 186 758 174 761 C142 767 130 739 79 671 C28 603 23 589 39 573 C55 557 77 567 194 657 L194 657 Z " />
<glyph glyph-name="icircumflex" unicode="&#xee;" horiz-adv-x="256" d="M186 245 C186 456 177 489 118 489 C58 489 49 456 49 245 C49 33 58 0 118 0 C177 0 186 33 186 245 L186 245 Z M-8 567 C10 551 20 553 69 586 C117 619 131 619 179 586 C227 553 237 551 255 567 C273 583 266 598 200 673 C134 747 114 747 48 673 C-19 598 -26 583 -8 567 L-8 567 Z " />
<glyph glyph-name="idieresis" unicode="&#xef;" horiz-adv-x="256" d="M186 245 C186 456 177 489 118 489 C58 489 49 456 49 245 C49 33 58 0 118 0 C177 0 186 33 186 245 L186 245 Z M264 600 C303 600 333 628 333 673 C333 718 303 746 264 746 C225 746 195 719 195 672 C195 627 225 600 264 600 L264 600 Z M-7 600 C32 600 61 628 61 673 C61 718 32 746 -7 746 C-46 746 -76 719 -76 672 C-76 628 -46 600 -7 600 L-7 600 Z " />
<glyph glyph-name="ntilde" unicode="&#xf1;" horiz-adv-x="559" d="M218 356 C246 380 285 395 331 344 C347 327 355 301 355 269 L355 135 C355 18 364 0 424 0 C483 0 492 20 492 152 L492 303 C492 411 415 488 302 488 C279 488 258 485 238 477 C187 458 185 447 185 467 C185 486 176 489 117 489 C57 489 48 456 48 245 C48 33 57 0 117 0 C176 0 185 21 185 156 C185 290 182 324 218 356 L218 356 Z M157 624 C159 633 165 644 175 646 C182 648 192 646 204 640 C245 619 283 513 426 577 C568 640 497 739 449 739 C401 739 394 737 394 724 L394 708 C392 676 361 674 306 714 C249 756 183 771 131 754 C-14 707 45 605 96 605 C146 605 152 608 157 624 L157 624 Z " />
<glyph glyph-name="ograve" unicode="&#xf2;" horiz-adv-x="562" d="M21 244 C21 104 128 -5 270 -5 C411 -5 519 103 519 244 C519 385 411 493 270 493 C128 493 21 385 21 244 L21 244 Z M269 113 C194 113 144 170 144 244 C144 316 194 375 269 375 C344 375 394 317 394 244 C394 170 344 113 269 113 L269 113 Z M330 671 C279 739 267 767 235 761 C222 758 211 751 202 742 C184 724 173 694 193 674 C194 673 195 672 215 657 C332 567 354 557 370 573 C386 589 381 603 330 671 L330 671 Z " />
<glyph glyph-name="oacute" unicode="&#xf3;" horiz-adv-x="562" d="M21 244 C21 104 128 -5 270 -5 C411 -5 519 103 519 244 C519 385 411 493 270 493 C128 493 21 385 21 244 L21 244 Z M269 113 C194 113 144 170 144 244 C144 316 194 375 269 375 C344 375 394 317 394 244 C394 170 344 113 269 113 L269 113 Z M347 657 C368 672 369 673 369 674 C389 694 378 724 360 742 C352 751 340 758 328 761 C296 767 284 739 233 671 C181 603 176 589 192 573 C208 557 230 567 347 657 L347 657 Z " />
<glyph glyph-name="ocircumflex" unicode="&#xf4;" horiz-adv-x="562" d="M21 244 C21 104 128 -5 270 -5 C411 -5 519 103 519 244 C519 385 411 493 270 493 C128 493 21 385 21 244 L21 244 Z M269 113 C194 113 144 170 144 244 C144 316 194 375 269 375 C344 375 394 317 394 244 C394 170 344 113 269 113 L269 113 Z M146 567 C164 551 174 553 222 586 C270 619 284 619 332 586 C380 553 390 551 409 567 C427 583 420 598 354 673 C287 747 267 747 201 673 C134 598 127 583 146 567 L146 567 Z " />
<glyph glyph-name="otilde" unicode="&#xf5;" horiz-adv-x="562" d="M21 244 C21 104 128 -5 270 -5 C411 -5 519 103 519 244 C519 385 411 493 270 493 C128 493 21 385 21 244 L21 244 Z M269 113 C194 113 144 170 144 244 C144 316 194 375 269 375 C344 375 394 317 394 244 C394 170 344 113 269 113 L269 113 Z M158 624 C165 648 183 651 205 640 C246 619 284 513 427 577 C569 640 498 739 450 739 C402 739 395 737 395 724 L395 708 C395 692 386 684 371 684 C311 686 281 801 133 754 C-13 707 46 605 97 605 C147 605 153 608 158 624 L158 624 Z " />
<glyph glyph-name="odieresis" unicode="&#xf6;" horiz-adv-x="562" d="M21 244 C21 104 128 -5 270 -5 C411 -5 519 103 519 244 C519 385 411 493 270 493 C128 493 21 385 21 244 L21 244 Z M269 113 C194 113 144 170 144 244 C144 316 194 375 269 375 C344 375 394 317 394 244 C394 170 344 113 269 113 L269 113 Z M417 600 C456 600 485 628 485 673 C485 718 456 746 417 746 C378 746 348 719 348 672 C348 627 378 600 417 600 L417 600 Z M146 600 C185 600 214 628 214 673 C214 718 185 746 146 746 C106 746 77 719 77 672 C77 628 106 600 146 600 L146 600 Z " />
<glyph glyph-name="divide" unicode="&#xf7;" horiz-adv-x="541" d="M502 350 C502 384 471 389 271 389 C70 389 39 384 39 350 C39 316 70 311 271 311 C471 311 502 316 502 350 L502 350 Z M195 517 C195 478 224 449 269 449 C313 449 342 478 342 517 C342 556 314 586 268 586 C223 586 195 556 195 517 L195 517 Z M195 175 C195 136 224 107 269 107 C313 107 342 136 342 175 C342 214 314 244 268 244 C223 244 195 214 195 175 L195 175 Z " />
<glyph glyph-name="oslash" unicode="&#xf8;" horiz-adv-x="562" d="M243 -4 C252 -5 261 -5 270 -5 C407 -5 519 100 519 244 C519 292 506 337 483 375 C424 473 389 470 400 501 C411 531 408 536 375 536 C341 536 335 533 328 512 C320 491 316 489 295 492 C287 493 279 493 270 493 C132 493 21 389 21 244 C21 197 34 152 56 114 C113 17 148 19 137 -13 C125 -45 128 -50 161 -50 C194 -50 200 -47 208 -25 C216 -3 220 -1 243 -4 L243 -4 Z M264 114 C260 114 265 130 302 232 C338 333 359 349 381 304 C389 286 394 266 394 244 C394 209 382 176 360 152 C302 89 268 113 264 114 L264 114 Z M273 375 C276 374 271 358 234 257 C197 155 177 139 157 183 C149 201 144 222 144 244 C144 278 157 311 178 335 C236 399 270 375 273 375 L273 375 Z " />
<glyph glyph-name="ugrave" unicode="&#xf9;" horiz-adv-x="549" d="M310 132 C281 109 243 94 196 144 C180 162 172 188 172 220 L172 355 C172 471 163 489 104 489 C45 489 36 469 36 338 L36 186 C36 78 113 0 226 0 C249 0 270 4 289 11 C340 30 343 41 343 22 C343 3 352 0 412 0 C471 0 480 33 480 245 C480 456 471 489 412 489 C352 489 343 468 343 331 C343 194 346 160 310 132 L310 132 Z M324 671 C272 739 260 767 228 761 C216 758 204 751 195 742 C177 724 167 694 187 674 C187 673 188 672 208 657 C326 567 348 557 364 573 C380 589 375 603 324 671 L324 671 Z " />
<glyph glyph-name="uacute" unicode="&#xfa;" horiz-adv-x="549" d="M310 132 C281 109 243 94 196 144 C180 162 172 188 172 220 L172 355 C172 471 163 489 104 489 C45 489 36 469 36 338 L36 186 C36 78 113 0 226 0 C249 0 270 4 289 11 C340 30 343 41 343 22 C343 3 352 0 412 0 C471 0 480 33 480 245 C480 456 471 489 412 489 C352 489 343 468 343 331 C343 194 346 160 310 132 L310 132 Z M341 657 C362 672 363 673 363 674 C383 694 372 724 354 742 C345 751 333 758 321 761 C289 767 277 739 226 671 C175 603 170 589 186 573 C202 557 224 567 341 657 L341 657 Z " />
<glyph glyph-name="ucircumflex" unicode="&#xfb;" horiz-adv-x="549" d="M310 132 C281 109 243 94 196 144 C180 162 172 188 172 220 L172 355 C172 471 163 489 104 489 C45 489 36 469 36 338 L36 186 C36 78 113 0 226 0 C249 0 270 4 289 11 C340 30 343 41 343 22 C343 3 352 0 412 0 C471 0 480 33 480 245 C480 456 471 489 412 489 C352 489 343 468 343 331 C343 194 346 160 310 132 L310 132 Z M139 567 C157 551 167 553 215 586 C263 619 277 619 325 586 C373 553 383 551 402 567 C420 583 413 598 347 673 C280 747 260 747 194 673 C127 598 120 583 139 567 L139 567 Z " />
<glyph glyph-name="udieresis" unicode="&#xfc;" horiz-adv-x="549" d="M310 132 C281 109 243 94 196 144 C180 162 172 188 172 220 L172 355 C172 471 163 489 104 489 C45 489 36 469 36 338 L36 186 C36 78 113 0 226 0 C249 0 270 4 289 11 C340 30 343 41 343 22 C343 3 352 0 412 0 C471 0 480 33 480 245 C480 456 471 489 412 489 C352 489 343 468 343 331 C343 194 346 160 310 132 L310 132 Z M411 600 C450 600 479 628 479 673 C479 718 450 746 411 746 C372 746 342 719 342 672 C342 627 372 600 411 600 L411 600 Z M139 600 C178 600 208 628 208 673 C208 718 178 746 139 746 C100 746 70 719 70 672 C70 628 100 600 139 600 L139 600 Z " />
<glyph glyph-name="yacute" unicode="&#xfd;" horiz-adv-x="551" d="M378 139 C499 441 509 488 449 488 C388 488 371 468 321 336 C270 203 254 203 205 336 C155 468 138 488 78 488 C17 488 20 455 95 244 C170 33 177 -14 142 -105 C107 -196 111 -210 170 -210 C228 -210 256 -163 378 139 L378 139 Z M341 657 C362 672 363 673 363 674 C383 694 373 724 354 742 C346 751 334 758 322 761 C290 767 278 739 227 671 C175 603 170 589 186 573 C202 557 224 567 341 657 L341 657 Z " />
<glyph glyph-name="ydieresis" unicode="&#xff;" horiz-adv-x="551" d="M378 139 C499 441 509 488 449 488 C388 488 371 468 321 336 C270 203 254 203 205 336 C155 468 138 488 78 488 C17 488 20 455 95 244 C170 33 177 -14 142 -105 C107 -196 111 -210 170 -210 C228 -210 256 -163 378 139 L378 139 Z M411 600 C450 600 479 628 479 673 C479 718 450 746 411 746 C372 746 342 719 342 672 C342 627 372 600 411 600 L411 600 Z M140 600 C179 600 208 628 208 673 C208 718 179 746 140 746 C101 746 71 719 71 672 C71 628 101 600 140 600 L140 600 Z " />
<glyph glyph-name="Amacron" unicode="&#x100;" horiz-adv-x="803" d="M200 56 C219 104 244 112 388 112 C532 112 557 104 576 56 C595 8 608 0 676 0 C743 0 733 49 607 366 C481 683 451 732 388 732 C324 732 294 683 168 366 C41 49 32 0 100 0 C167 0 181 8 200 56 L200 56 Z M390 259 C295 259 288 278 336 398 C384 518 399 518 446 398 C493 278 485 259 390 259 L390 259 Z M558 899 C558 933 537 938 402 938 C266 938 245 933 245 899 C245 865 266 860 402 860 C537 860 558 865 558 899 L558 899 Z " />
<glyph glyph-name="amacron" unicode="&#x101;" horiz-adv-x="583" d="M375 468 C375 451 373 460 331 475 C279 494 206 536 93 418 C50 372 24 310 24 244 C24 107 127 0 268 0 C286 0 303 3 321 10 C371 28 375 36 375 20 C375 3 384 0 441 0 C498 0 507 33 507 244 C507 454 498 487 441 488 C384 488 375 485 375 468 L375 468 Z M268 113 C192 113 143 170 143 243 C143 316 192 374 267 374 C342 374 393 316 393 243 C393 170 342 113 268 113 L268 113 Z M448 655 C448 689 427 694 292 694 C156 694 135 689 135 655 C135 621 156 616 292 616 C427 616 448 621 448 655 L448 655 Z " />
<glyph glyph-name="Abreve" unicode="&#x102;" horiz-adv-x="803" d="M200 56 C219 104 244 112 388 112 C532 112 557 104 576 56 C595 8 608 0 676 0 C743 0 733 49 607 366 C481 683 451 732 388 732 C324 732 294 683 168 366 C41 49 32 0 100 0 C167 0 181 8 200 56 L200 56 Z M390 259 C295 259 288 278 336 398 C384 518 399 518 446 398 C493 278 485 259 390 259 L390 259 Z M452 912 C440 898 422 890 401 890 C380 890 362 898 349 912 C317 947 325 964 295 964 C265 964 235 930 301 864 C326 839 361 823 401 823 C441 823 476 839 502 864 C567 930 537 964 507 964 C477 964 485 947 452 912 L452 912 Z " />
<glyph glyph-name="abreve" unicode="&#x103;" horiz-adv-x="583" d="M375 468 C375 451 373 460 331 475 C279 494 206 536 93 418 C50 372 24 310 24 244 C24 107 127 0 268 0 C286 0 303 3 321 10 C371 28 375 36 375 20 C375 3 384 0 441 0 C498 0 507 33 507 244 C507 454 498 487 441 488 C384 488 375 485 375 468 L375 468 Z M268 113 C192 113 143 170 143 243 C143 316 192 374 267 374 C342 374 393 316 393 243 C393 170 342 113 268 113 L268 113 Z M343 668 C331 654 313 646 292 646 C271 646 253 654 240 668 C208 703 216 720 186 720 C155 720 125 686 191 620 C217 595 252 579 292 579 C332 579 367 595 393 620 C458 686 428 720 398 720 C367 720 375 703 343 668 L343 668 Z " />
<glyph glyph-name="Aogonek" unicode="&#x104;" horiz-adv-x="803" d="M200 56 C219 104 244 112 388 112 C532 112 556 107 569 75 C581 42 573 34 558 -7 C552 -24 548 -44 548 -66 C548 -153 611 -209 697 -209 C733 -209 761 -201 785 -187 C847 -150 839 -125 807 -102 C775 -79 772 -89 736 -108 C723 -116 708 -119 691 -119 C661 -119 634 -99 634 -49 C634 -40 635 -32 638 -23 C643 -2 654 0 700 0 C746 0 733 49 607 366 C481 683 451 732 388 732 C324 732 294 683 168 366 C41 49 32 0 100 0 C167 0 181 8 200 56 L200 56 Z M390 259 C295 259 288 278 336 398 C384 518 399 518 446 398 C493 278 485 259 390 259 L390 259 Z " />
<glyph glyph-name="aogonek" unicode="&#x105;" horiz-adv-x="583" d="M375 468 C375 451 373 460 331 475 C279 494 206 536 93 418 C50 372 24 310 24 244 C24 107 127 0 268 0 C286 0 303 3 321 10 C371 28 375 37 375 27 C375 17 369 11 361 -22 C357 -35 355 -50 355 -66 C355 -153 418 -209 504 -209 C540 -209 568 -201 592 -187 C654 -150 646 -125 614 -102 C582 -79 579 -89 543 -108 C530 -116 515 -119 498 -119 C468 -119 441 -99 441 -49 C441 -40 442 -32 445 -23 C450 -2 458 0 481 0 C503 0 507 33 507 244 C507 454 498 487 441 488 C384 488 375 485 375 468 L375 468 Z M268 113 C192 113 143 170 143 243 C143 316 192 374 267 374 C342 374 393 316 393 243 C393 170 342 113 268 113 L268 113 Z " />
<glyph glyph-name="Cacute" unicode="&#x106;" horiz-adv-x="756" d="M24 368 C18 164 187 -5 390 0 C442 0 491 8 535 25 C652 67 652 105 610 152 C568 198 556 187 482 161 C454 151 424 146 391 146 C257 146 171 235 170 369 C170 498 261 585 390 586 C422 586 452 581 481 572 C556 546 568 535 610 582 C652 628 652 666 535 708 C491 724 442 732 390 732 C189 732 19 573 24 368 L24 368 Z M444 902 C465 917 466 918 466 918 C486 938 476 968 458 986 C449 995 437 1002 425 1005 C393 1011 381 983 330 915 C278 847 273 833 289 817 C305 801 326 812 444 902 L444 902 Z " />
<glyph glyph-name="cacute" unicode="&#x107;" horiz-adv-x="496" d="M321 124 C306 117 289 113 269 113 C194 113 144 170 144 244 C144 316 194 375 269 375 C288 375 306 371 321 364 C360 346 367 341 404 378 C441 415 444 442 368 474 C338 486 305 493 270 493 C128 493 21 385 21 244 C21 104 128 -5 270 -5 C305 -5 338 2 368 14 C443 45 440 72 404 109 C367 146 360 140 321 124 L321 124 Z M314 657 C335 672 336 673 336 674 C356 694 345 724 327 742 C319 751 307 758 294 761 C262 767 250 739 199 671 C148 603 143 589 159 573 C175 557 197 567 314 657 L314 657 Z " />
<glyph glyph-name="Ccircumflex" unicode="&#x108;" horiz-adv-x="756" d="M24 368 C18 164 187 -5 390 0 C442 0 491 8 535 25 C652 67 652 105 610 152 C568 198 556 187 482 161 C454 151 424 146 391 146 C257 146 171 235 170 369 C170 498 261 585 390 586 C422 586 452 581 481 572 C556 546 568 535 610 582 C652 628 652 666 535 708 C491 724 442 732 390 732 C189 732 19 573 24 368 L24 368 Z M242 812 C260 795 270 797 319 830 C367 863 381 863 429 830 C477 797 487 795 505 811 C523 827 516 842 450 917 C384 991 364 991 298 917 C231 843 224 828 242 812 L242 812 Z " />
<glyph glyph-name="ccircumflex" unicode="&#x109;" horiz-adv-x="496" d="M321 124 C306 117 289 113 269 113 C194 113 144 170 144 244 C144 316 194 375 269 375 C288 375 306 371 321 364 C360 346 367 341 404 378 C441 415 444 442 368 474 C338 486 305 493 270 493 C128 493 21 385 21 244 C21 104 128 -5 270 -5 C305 -5 338 2 368 14 C443 45 440 72 404 109 C367 146 360 140 321 124 L321 124 Z M112 567 C130 551 140 553 188 586 C236 619 250 619 299 586 C347 553 357 551 375 567 C393 583 386 598 320 673 C253 747 233 747 167 673 C100 598 93 583 112 567 L112 567 Z " />
<glyph glyph-name="Cdotaccent" unicode="&#x10a;" horiz-adv-x="756" d="M24 368 C18 164 187 -5 390 0 C442 0 491 8 535 25 C652 67 652 105 610 152 C568 198 556 187 482 161 C454 151 424 146 391 146 C257 146 171 235 170 369 C170 498 261 585 390 586 C422 586 452 581 481 572 C556 546 568 535 610 582 C652 628 652 666 535 708 C491 724 442 732 390 732 C189 732 19 573 24 368 L24 368 Z M378 844 C417 844 447 872 447 917 C447 962 417 990 378 990 C339 990 310 963 310 917 C310 872 339 844 378 844 L378 844 Z " />
<glyph glyph-name="cdotaccent" unicode="&#x10b;" horiz-adv-x="496" d="M321 124 C306 117 289 113 269 113 C194 113 144 170 144 244 C144 316 194 375 269 375 C288 375 306 371 321 364 C360 346 367 341 404 378 C441 415 444 442 368 474 C338 486 305 493 270 493 C128 493 21 385 21 244 C21 104 128 -5 270 -5 C305 -5 338 2 368 14 C443 45 440 72 404 109 C367 146 360 140 321 124 L321 124 Z M248 600 C287 600 316 628 316 673 C316 718 287 746 248 746 C209 746 179 719 179 672 C179 628 209 600 248 600 L248 600 Z " />
<glyph glyph-name="Ccaron" unicode="&#x10c;" horiz-adv-x="756" d="M24 368 C18 164 187 -5 390 0 C442 0 491 8 535 25 C652 67 652 105 610 152 C568 198 556 187 482 161 C454 151 424 146 391 146 C257 146 171 235 170 369 C170 498 261 585 390 586 C422 586 452 581 481 572 C556 546 568 535 610 582 C652 628 652 666 535 708 C491 724 442 732 390 732 C189 732 19 573 24 368 L24 368 Z M450 879 C516 953 523 968 505 984 C487 1000 477 998 429 965 C381 932 367 932 319 965 C270 998 260 1000 242 984 C224 968 231 953 298 879 C364 804 384 804 450 879 L450 879 Z " />
<glyph glyph-name="ccaron" unicode="&#x10d;" horiz-adv-x="496" d="M321 124 C306 117 289 113 269 113 C194 113 144 170 144 244 C144 316 194 375 269 375 C288 375 306 371 321 364 C360 346 367 341 404 378 C441 415 444 442 368 474 C338 486 305 493 270 493 C128 493 21 385 21 244 C21 104 128 -5 270 -5 C305 -5 338 2 368 14 C443 45 440 72 404 109 C367 146 360 140 321 124 L321 124 Z M320 635 C386 709 393 724 375 740 C357 756 347 754 299 721 C250 688 236 688 188 721 C140 754 130 756 112 740 C93 724 100 709 167 635 C233 560 253 560 320 635 L320 635 Z " />
<glyph glyph-name="Dcaron" unicode="&#x10e;" horiz-adv-x="781" d="M207 366 C207 565 216 596 275 596 L342 596 C472 596 537 513 538 366 C537 220 472 137 342 136 L275 136 C216 136 207 167 207 366 L207 366 Z M342 0 C570 0 684 122 684 366 C684 611 570 733 342 733 L201 733 C79 733 60 684 60 367 C60 49 79 0 201 0 L342 0 L342 0 Z M463 879 C529 953 536 968 518 984 C500 1000 490 998 442 965 C393 932 379 932 331 965 C283 998 273 1000 255 984 C236 968 243 953 310 879 C376 804 396 804 463 879 L463 879 Z " />
<glyph glyph-name="dcaron" unicode="&#x10f;" horiz-adv-x="889" d="M375 591 C375 468 373 461 331 476 C279 495 205 537 93 418 C50 373 24 310 24 244 C24 107 126 0 268 0 C286 0 303 3 321 10 C371 28 375 36 375 20 C375 3 384 0 444 0 C503 0 512 49 512 366 C512 683 503 732 444 732 C384 732 375 713 375 591 L375 591 Z M266 113 C191 113 142 170 142 243 C142 316 191 374 266 374 C341 374 391 316 391 243 C391 170 341 113 266 113 L266 113 Z M750 605 C767 633 775 667 775 707 C775 746 748 777 701 777 C656 777 628 747 628 708 C628 669 657 640 702 640 L707 640 C702 626 695 613 686 603 C663 578 655 578 665 559 C675 540 707 530 750 605 L750 605 Z " />
<glyph glyph-name="Dcroat" unicode="&#x110;" horiz-adv-x="781" d="M342 0 C570 0 684 122 684 366 C684 611 570 733 342 733 L201 733 C79 733 60 710 60 565 C60 420 55 397 23 397 C-10 397 -15 392 -15 358 C-15 324 -10 319 23 319 C55 319 60 298 60 160 C60 21 79 0 201 0 L342 0 L342 0 Z M207 233 C207 307 213 319 252 319 C291 319 297 324 297 358 C297 392 291 397 252 397 C213 397 207 410 207 492 C207 573 216 586 275 586 L342 586 C472 586 537 513 538 366 C537 220 472 146 342 146 L275 146 C216 146 207 158 207 233 L207 233 Z " />
<glyph glyph-name="dcroat" unicode="&#x111;" horiz-adv-x="583" d="M375 497 C375 455 373 461 331 476 C279 495 205 537 93 418 C50 373 24 310 24 244 C24 107 126 0 268 0 C286 0 303 3 321 10 C371 28 375 36 375 20 C375 3 384 0 444 0 C503 0 512 37 512 273 C512 508 517 545 551 545 C585 545 590 552 590 594 C590 636 585 643 551 643 C517 643 512 649 512 688 C512 726 503 732 444 732 C384 732 375 726 375 688 C375 649 369 643 332 643 C294 643 288 636 288 594 C288 552 294 545 332 545 C369 545 375 539 375 497 L375 497 Z M266 113 C191 113 142 170 142 243 C142 316 191 374 266 374 C341 374 391 316 391 243 C391 170 341 113 266 113 L266 113 Z " />
<glyph glyph-name="Emacron" unicode="&#x112;" horiz-adv-x="684" d="M595 69 C595 128 569 137 400 137 C231 137 205 148 205 220 C205 292 225 303 352 303 C478 303 498 312 498 371 C498 430 478 439 352 439 C225 439 205 450 205 518 C205 585 231 596 401 596 C570 596 596 605 596 664 C596 723 560 732 327 732 C94 732 58 683 58 366 C58 49 94 0 327 0 C559 0 595 9 595 69 L595 69 Z M498 899 C498 933 477 938 342 938 C207 938 186 933 186 899 C186 865 207 860 342 860 C477 860 498 865 498 899 L498 899 Z " />
<glyph glyph-name="emacron" unicode="&#x113;" horiz-adv-x="560" d="M23 244 C23 102 125 0 267 0 C310 0 347 6 381 18 C464 49 462 78 428 112 C394 146 385 139 332 122 C311 115 290 112 267 112 C242 112 218 120 199 134 C151 171 188 195 333 195 C478 195 501 198 501 220 L501 244 C501 385 411 488 267 488 C125 488 23 387 23 244 L23 244 Z M267 376 C291 376 316 369 335 355 C382 319 352 293 267 293 C182 293 152 319 199 355 C218 369 243 376 267 376 L267 376 Z M436 655 C436 689 415 694 280 694 C145 694 124 689 124 655 C124 621 145 616 280 616 C415 616 436 621 436 655 L436 655 Z " />
<glyph glyph-name="Ebreve" unicode="&#x114;" horiz-adv-x="684" d="M595 69 C595 128 569 137 400 137 C231 137 205 148 205 220 C205 292 225 303 352 303 C478 303 498 312 498 371 C498 430 478 439 352 439 C225 439 205 450 205 518 C205 585 231 596 401 596 C570 596 596 605 596 664 C596 723 560 732 327 732 C94 732 58 683 58 366 C58 49 94 0 327 0 C559 0 595 9 595 69 L595 69 Z M393 912 C380 898 363 890 341 890 C320 890 303 898 290 912 C258 947 266 964 236 964 C205 964 175 930 241 864 C266 839 302 823 341 823 C381 823 417 839 442 864 C508 930 478 964 448 964 C417 964 425 947 393 912 L393 912 Z " />
<glyph glyph-name="ebreve" unicode="&#x115;" horiz-adv-x="560" d="M23 244 C23 102 125 0 267 0 C310 0 347 6 381 18 C464 49 462 78 428 112 C394 146 385 139 332 122 C311 115 290 112 267 112 C242 112 218 120 199 134 C151 171 188 195 333 195 C478 195 501 198 501 220 L501 244 C501 385 411 488 267 488 C125 488 23 387 23 244 L23 244 Z M267 376 C291 376 316 369 335 355 C382 319 352 293 267 293 C182 293 152 319 199 355 C218 369 243 376 267 376 L267 376 Z M331 668 C319 654 301 646 280 646 C259 646 241 654 228 668 C196 703 204 720 174 720 C144 720 114 686 180 620 C205 595 240 579 280 579 C320 579 355 595 381 620 C446 686 416 720 386 720 C356 720 364 703 331 668 L331 668 Z " />
<glyph glyph-name="Edotaccent" unicode="&#x116;" horiz-adv-x="684" d="M595 69 C595 128 569 137 400 137 C231 137 205 148 205 220 C205 292 225 303 352 303 C478 303 498 312 498 371 C498 430 478 439 352 439 C225 439 205 450 205 518 C205 585 231 596 401 596 C570 596 596 605 596 664 C596 723 560 732 327 732 C94 732 58 683 58 366 C58 49 94 0 327 0 C559 0 595 9 595 69 L595 69 Z M342 844 C381 844 410 872 410 917 C410 962 381 990 342 990 C303 990 273 963 273 917 C273 872 303 844 342 844 L342 844 Z " />
<glyph glyph-name="edotaccent" unicode="&#x117;" horiz-adv-x="560" d="M23 244 C23 102 125 0 267 0 C310 0 347 6 381 18 C464 49 462 78 428 112 C394 146 385 139 332 122 C311 115 290 112 267 112 C242 112 218 120 199 134 C151 171 188 195 333 195 C478 195 501 198 501 220 L501 244 C501 385 411 488 267 488 C125 488 23 387 23 244 L23 244 Z M267 376 C291 376 316 369 335 355 C382 319 352 293 267 293 C182 293 152 319 199 355 C218 369 243 376 267 376 L267 376 Z M280 600 C319 600 349 628 349 673 C349 718 319 746 280 746 C241 746 211 719 211 672 C211 628 241 600 280 600 L280 600 Z " />
<glyph glyph-name="Eogonek" unicode="&#x118;" horiz-adv-x="684" d="M304 -31 C301 -42 300 -54 300 -66 C300 -153 364 -209 449 -209 C485 -209 514 -201 538 -187 C599 -150 591 -125 559 -102 C527 -79 524 -89 488 -108 C475 -116 461 -119 443 -119 C414 -119 387 -99 387 -49 C387 -40 388 -32 390 -23 C395 -2 412 0 497 0 C582 0 595 9 595 69 C595 128 569 137 400 137 C231 137 205 148 205 220 C205 292 225 303 352 303 C478 303 498 312 498 371 C498 430 478 439 352 439 C225 439 205 450 205 518 C205 585 231 596 401 596 C570 596 596 605 596 664 C596 723 560 732 327 732 C94 732 58 683 58 366 C58 49 75 0 186 0 C296 0 309 -3 304 -31 L304 -31 Z " />
<glyph glyph-name="eogonek" unicode="&#x119;" horiz-adv-x="560" d="M23 244 C23 181 43 126 78 84 C168 -25 216 0 210 -28 C207 -40 206 -53 206 -66 C206 -153 269 -209 354 -209 C390 -209 419 -201 443 -187 C504 -150 496 -125 464 -102 C432 -79 429 -89 393 -108 C381 -116 366 -119 349 -119 C319 -119 292 -99 292 -49 C292 -40 293 -31 296 -22 C302 0 323 -8 396 24 C464 55 462 78 428 112 C394 146 385 139 332 122 C311 115 290 112 267 112 C242 112 218 120 199 134 C151 171 188 195 333 195 C478 195 501 198 501 220 L501 244 C501 385 411 488 267 488 C125 488 23 387 23 244 L23 244 Z M267 376 C291 376 316 369 335 355 C382 319 352 293 267 293 C182 293 152 319 199 355 C218 369 243 376 267 376 L267 376 Z " />
<glyph glyph-name="Ecaron" unicode="&#x11a;" horiz-adv-x="684" d="M595 69 C595 128 569 137 400 137 C231 137 205 148 205 220 C205 292 225 303 352 303 C478 303 498 312 498 371 C498 430 478 439 352 439 C225 439 205 450 205 518 C205 585 231 596 401 596 C570 596 596 605 596 664 C596 723 560 732 327 732 C94 732 58 683 58 366 C58 49 94 0 327 0 C559 0 595 9 595 69 L595 69 Z M414 879 C480 953 487 968 469 984 C451 1000 441 998 393 965 C344 932 330 932 282 965 C234 998 224 1000 206 984 C188 968 195 953 261 879 C327 804 347 804 414 879 L414 879 Z " />
<glyph glyph-name="ecaron" unicode="&#x11b;" horiz-adv-x="560" d="M23 244 C23 102 125 0 267 0 C310 0 347 6 381 18 C464 49 462 78 428 112 C394 146 385 139 332 122 C311 115 290 112 267 112 C242 112 218 120 199 134 C151 171 188 195 333 195 C478 195 501 198 501 220 L501 244 C501 385 411 488 267 488 C125 488 23 387 23 244 L23 244 Z M267 376 C291 376 316 369 335 355 C382 319 352 293 267 293 C182 293 152 319 199 355 C218 369 243 376 267 376 L267 376 Z M352 635 C418 709 425 724 407 740 C389 756 379 754 331 721 C282 688 268 688 220 721 C172 754 162 756 144 740 C126 724 133 709 199 635 C265 560 285 560 352 635 L352 635 Z " />
<glyph glyph-name="Gcircumflex" unicode="&#x11c;" horiz-adv-x="743" d="M21 368 C14 164 184 -5 386 0 C439 0 487 8 532 25 C649 67 655 120 655 264 C655 408 639 430 533 430 C427 430 411 421 411 364 C411 307 418 298 460 298 C502 298 509 290 509 238 C509 186 505 167 457 154 C437 149 414 146 387 146 C254 146 168 235 167 369 C167 498 257 585 386 586 C419 586 449 581 478 572 C553 546 565 535 607 582 C648 628 649 666 532 708 C487 724 439 732 386 732 C186 732 16 573 21 368 L21 368 Z M235 812 C253 795 263 797 312 830 C360 863 374 863 422 830 C470 797 480 795 499 811 C517 827 510 842 444 917 C377 991 357 991 291 917 C224 843 217 828 235 812 L235 812 Z " />
<glyph glyph-name="gcircumflex" unicode="&#x11d;" horiz-adv-x="559" d="M373 466 C373 447 372 458 327 475 C268 497 191 539 83 420 C43 377 21 315 21 244 C21 97 94 0 246 0 C270 0 293 4 314 11 C369 30 373 42 373 32 L373 20 C373 -54 326 -102 240 -98 C214 -96 190 -92 169 -84 C114 -66 105 -59 78 -91 C50 -122 49 -153 140 -188 C177 -202 219 -209 266 -208 C420 -205 510 -105 510 39 L510 264 C510 458 501 488 442 488 C382 488 373 485 373 466 L373 466 Z M262 113 C187 113 138 170 138 243 C138 316 187 374 262 374 C337 374 387 316 387 243 C387 170 337 113 262 113 L262 113 Z M144 567 C162 551 172 553 220 586 C268 619 282 619 330 586 C378 553 388 551 407 567 C425 583 418 598 352 673 C285 747 265 747 199 673 C132 598 125 583 144 567 L144 567 Z " />
<glyph glyph-name="Gbreve" unicode="&#x11e;" horiz-adv-x="743" d="M21 368 C14 164 184 -5 386 0 C439 0 487 8 532 25 C649 67 655 120 655 264 C655 408 639 430 533 430 C427 430 411 421 411 364 C411 307 418 298 460 298 C502 298 509 290 509 238 C509 186 505 167 457 154 C437 149 414 146 387 146 C254 146 168 235 167 369 C167 498 257 585 386 586 C419 586 449 581 478 572 C553 546 565 535 607 582 C648 628 649 666 532 708 C487 724 439 732 386 732 C186 732 16 573 21 368 L21 368 Z M423 912 C410 898 393 890 371 890 C350 890 332 898 320 912 C287 947 295 964 265 964 C235 964 205 930 271 864 C296 839 332 823 371 823 C411 823 447 839 472 864 C538 930 508 964 478 964 C447 964 455 947 423 912 L423 912 Z " />
<glyph glyph-name="gbreve" unicode="&#x11f;" horiz-adv-x="559" d="M373 466 C373 447 372 458 327 475 C268 497 191 539 83 420 C43 377 21 315 21 244 C21 97 94 0 246 0 C270 0 293 4 314 11 C369 30 373 42 373 32 L373 20 C373 -54 326 -102 240 -98 C214 -96 190 -92 169 -84 C114 -66 105 -59 78 -91 C50 -122 49 -153 140 -188 C177 -202 219 -209 266 -208 C420 -205 510 -105 510 39 L510 264 C510 458 501 488 442 488 C382 488 373 485 373 466 L373 466 Z M262 113 C187 113 138 170 138 243 C138 316 187 374 262 374 C337 374 387 316 387 243 C387 170 337 113 262 113 L262 113 Z M330 668 C318 654 300 646 279 646 C258 646 240 654 227 668 C195 703 203 720 173 720 C143 720 113 686 179 620 C204 595 239 579 279 579 C319 579 354 595 380 620 C445 686 415 720 385 720 C355 720 363 703 330 668 L330 668 Z " />
<glyph glyph-name="Gdotaccent" unicode="&#x120;" horiz-adv-x="743" d="M21 368 C14 164 184 -5 386 0 C439 0 487 8 532 25 C649 67 655 120 655 264 C655 408 639 430 533 430 C427 430 411 421 411 364 C411 307 418 298 460 298 C502 298 509 290 509 238 C509 186 505 167 457 154 C437 149 414 146 387 146 C254 146 168 235 167 369 C167 498 257 585 386 586 C419 586 449 581 478 572 C553 546 565 535 607 582 C648 628 649 666 532 708 C487 724 439 732 386 732 C186 732 16 573 21 368 L21 368 Z M372 844 C411 844 440 872 440 917 C440 962 411 990 372 990 C333 990 303 963 303 917 C303 872 333 844 372 844 L372 844 Z " />
<glyph glyph-name="gdotaccent" unicode="&#x121;" horiz-adv-x="559" d="M373 466 C373 447 372 458 327 475 C268 497 191 539 83 420 C43 377 21 315 21 244 C21 97 94 0 246 0 C270 0 293 4 314 11 C369 30 373 42 373 32 L373 20 C373 -54 326 -102 240 -98 C214 -96 190 -92 169 -84 C114 -66 105 -59 78 -91 C50 -122 49 -153 140 -188 C177 -202 219 -209 266 -208 C420 -205 510 -105 510 39 L510 264 C510 458 501 488 442 488 C382 488 373 485 373 466 L373 466 Z M262 113 C187 113 138 170 138 243 C138 316 187 374 262 374 C337 374 387 316 387 243 C387 170 337 113 262 113 L262 113 Z M279 600 C318 600 348 628 348 673 C348 718 318 746 279 746 C240 746 210 719 210 672 C210 628 240 600 279 600 L279 600 Z " />
<glyph glyph-name="Gcommaaccent" unicode="&#x122;" horiz-adv-x="743" d="M21 368 C14 164 184 -5 386 0 C439 0 487 8 532 25 C649 67 655 120 655 264 C655 408 639 430 533 430 C427 430 411 421 411 364 C411 307 418 298 460 298 C502 298 509 290 509 238 C509 186 505 167 457 154 C437 149 414 146 387 146 C254 146 168 235 167 369 C167 498 257 585 386 586 C419 586 449 581 478 572 C553 546 565 535 607 582 C648 628 649 666 532 708 C487 724 439 732 386 732 C186 732 16 573 21 368 L21 368 Z M420 -287 C436 -259 444 -225 444 -186 C444 -147 417 -115 370 -115 C326 -115 298 -145 298 -184 C298 -223 326 -252 371 -252 L376 -252 C372 -267 365 -279 356 -288 C332 -314 324 -314 335 -333 C345 -351 378 -362 420 -287 L420 -287 Z " />
<glyph glyph-name="gcommaaccent" unicode="&#x123;" horiz-adv-x="559" d="M373 466 C373 447 372 458 327 475 C268 497 191 539 83 420 C43 377 21 315 21 244 C21 97 94 0 246 0 C270 0 293 4 314 11 C369 30 373 42 373 32 L373 20 C373 -54 326 -102 240 -98 C214 -96 190 -92 169 -84 C114 -66 105 -59 78 -91 C50 -122 49 -153 140 -188 C177 -202 219 -209 266 -208 C420 -205 510 -105 510 39 L510 264 C510 458 501 488 442 488 C382 488 373 485 373 466 L373 466 Z M262 113 C187 113 138 170 138 243 C138 316 187 374 262 374 C337 374 387 316 387 243 C387 170 337 113 262 113 L262 113 Z M231 754 C214 725 206 691 206 652 C206 613 233 582 280 582 C325 582 353 611 353 650 C353 689 324 719 279 719 L274 719 C279 734 286 746 295 755 C318 780 326 780 316 799 C306 818 274 828 231 754 L231 754 Z " />
<glyph glyph-name="Hcircumflex" unicode="&#x124;" horiz-adv-x="792" d="M207 152 C207 283 230 303 378 303 C525 303 548 283 548 152 C548 20 558 0 621 0 C684 0 694 49 694 367 C694 684 684 733 621 733 C558 733 548 713 548 586 C548 459 525 439 378 439 C230 439 207 459 207 586 C207 712 197 732 134 732 C70 732 60 683 60 366 C60 49 70 0 134 0 C197 0 207 20 207 152 L207 152 Z M260 812 C278 795 288 797 337 830 C385 863 399 863 447 830 C495 797 505 795 523 811 C541 827 534 842 468 917 C402 991 382 991 316 917 C249 843 242 828 260 812 L260 812 Z " />
<glyph glyph-name="hcircumflex" unicode="&#x125;" horiz-adv-x="537" d="M219 361 C249 379 286 395 332 344 C348 327 356 301 356 269 L356 135 C356 18 365 0 425 0 C484 0 493 20 493 152 L493 303 C493 411 416 488 303 488 C280 488 259 485 239 477 C188 458 186 463 186 588 C186 713 177 732 118 732 C58 732 49 683 49 366 C49 49 58 0 118 0 C177 0 186 22 186 165 C186 308 186 340 219 361 L219 361 Z M133 812 C151 795 161 797 209 830 C257 863 271 863 320 830 C368 797 378 795 396 811 C414 827 407 842 341 917 C274 991 254 991 188 917 C121 843 114 828 133 812 L133 812 Z " />
<glyph glyph-name="Hbar" unicode="&#x126;" horiz-adv-x="792" d="M207 152 C207 283 230 303 378 303 C525 303 548 283 548 152 C548 20 558 0 621 0 C684 0 694 49 694 367 C694 684 684 733 621 733 C558 733 548 713 548 586 C548 459 525 439 378 439 C230 439 207 459 207 586 C207 712 197 732 134 732 C70 732 60 683 60 366 C60 49 70 0 134 0 C197 0 207 20 207 152 L207 152 Z M552 899 C552 933 531 938 396 938 C261 938 240 933 240 899 C240 865 261 860 396 860 C531 860 552 865 552 899 L552 899 Z " />
<glyph glyph-name="hbar" unicode="&#x127;" horiz-adv-x="537" d="M49 280 C49 38 58 0 118 0 C177 0 186 22 186 165 C186 308 186 340 219 361 C249 379 286 395 332 344 C348 327 356 301 356 269 L356 135 C356 18 365 0 425 0 C484 0 493 20 493 152 L493 303 C493 411 416 488 303 488 C280 488 259 485 239 477 C188 458 186 452 186 502 C186 551 192 559 231 559 C269 559 275 564 275 598 C275 632 269 637 231 637 C192 637 186 643 186 685 C186 726 177 732 118 732 C58 732 49 726 49 685 C49 643 43 637 6 637 C-31 637 -37 632 -37 598 C-37 564 -31 559 6 559 C43 559 49 521 49 280 L49 280 Z " />
<glyph glyph-name="Itilde" unicode="&#x128;" horiz-adv-x="293" d="M133 0 C196 0 206 49 206 367 C206 684 196 733 133 733 C70 733 60 684 60 367 C60 49 70 0 133 0 L133 0 Z M24 868 C30 892 48 895 71 884 C83 878 98 868 115 854 C173 808 241 798 293 821 C436 884 364 983 316 983 C268 983 261 981 261 968 L261 952 C259 920 228 918 173 958 C116 1000 51 1015 -2 998 C-146 951 -88 850 -38 850 C13 850 19 853 24 868 L24 868 Z " />
<glyph glyph-name="itilde" unicode="&#x129;" horiz-adv-x="256" d="M186 245 C186 456 177 489 118 489 C58 489 49 456 49 245 C49 33 58 0 118 0 C177 0 186 33 186 245 L186 245 Z M5 624 C8 633 13 644 24 646 C31 648 41 646 53 640 C94 619 131 513 274 577 C417 640 346 739 298 739 C249 739 242 737 242 724 L242 708 C242 692 233 684 218 684 C158 686 128 801 -20 754 C-165 707 -107 605 -57 605 C-6 605 0 608 5 624 L5 624 Z " />
<glyph glyph-name="Imacron" unicode="&#x12a;" horiz-adv-x="293" d="M133 0 C196 0 206 49 206 367 C206 684 196 733 133 733 C70 733 60 684 60 367 C60 49 70 0 133 0 L133 0 Z M303 899 C303 933 282 938 147 938 C11 938 -10 933 -10 899 C-10 865 11 860 147 860 C282 860 303 865 303 899 L303 899 Z " />
<glyph glyph-name="imacron" unicode="&#x12b;" horiz-adv-x="256" d="M186 245 C186 456 177 489 118 489 C58 489 49 456 49 245 C49 33 58 0 118 0 C177 0 186 33 186 245 L186 245 Z M284 655 C284 689 263 694 128 694 C-7 694 -28 689 -28 655 C-28 621 -7 616 128 616 C263 616 284 621 284 655 L284 655 Z " />
<glyph glyph-name="Ibreve" unicode="&#x12c;" horiz-adv-x="293" d="M133 0 C196 0 206 49 206 367 C206 684 196 733 133 733 C70 733 60 684 60 367 C60 49 70 0 133 0 L133 0 Z M197 912 C185 898 167 890 146 890 C125 890 107 898 95 912 C62 947 70 964 40 964 C10 964 -20 930 46 864 C71 839 106 823 146 823 C186 823 222 839 247 864 C313 930 283 964 253 964 C222 964 230 947 197 912 L197 912 Z " />
<glyph glyph-name="ibreve" unicode="&#x12d;" horiz-adv-x="256" d="M186 245 C186 456 177 489 118 489 C58 489 49 456 49 245 C49 33 58 0 118 0 C177 0 186 33 186 245 L186 245 Z M179 668 C167 654 149 646 128 646 C107 646 89 654 76 668 C44 703 52 720 22 720 C-8 720 -38 686 28 620 C53 595 88 579 128 579 C168 579 204 595 229 620 C295 686 265 720 235 720 C204 720 212 703 179 668 L179 668 Z " />
<glyph glyph-name="Iogonek" unicode="&#x12e;" horiz-adv-x="293" d="M45 -36 C41 -49 39 -64 39 -81 C39 -168 102 -224 187 -224 C223 -224 252 -216 276 -201 C337 -164 329 -139 297 -117 C265 -94 262 -103 226 -123 C214 -131 199 -134 182 -134 C152 -134 125 -114 125 -64 C125 -52 127 -41 131 -30 C140 -2 150 0 176 0 C202 0 206 49 206 367 C206 684 196 733 133 733 C70 733 60 684 60 367 C60 50 54 -2 45 -36 L45 -36 Z " />
<glyph glyph-name="iogonek" unicode="&#x12f;" horiz-adv-x="256" d="M30 -16 C25 -31 22 -48 22 -66 C22 -153 86 -209 171 -209 C207 -209 236 -201 260 -187 C321 -150 313 -125 281 -102 C249 -79 246 -89 210 -108 C198 -116 183 -119 166 -119 C136 -119 109 -99 109 -49 C109 -40 110 -32 112 -23 C118 -2 126 0 154 0 C182 0 186 33 186 245 C186 456 177 489 118 489 C58 489 49 458 49 257 C49 55 41 21 30 -16 L30 -16 Z M44 605 C44 566 72 537 117 537 C162 537 190 566 190 605 C190 645 163 674 116 674 C72 674 44 645 44 605 L44 605 Z " />
<glyph glyph-name="Idotaccent" unicode="&#x130;" horiz-adv-x="293" d="M133 0 C196 0 206 49 206 367 C206 684 196 733 133 733 C70 733 60 684 60 367 C60 49 70 0 133 0 L133 0 Z M146 844 C186 844 215 872 215 917 C215 962 186 990 146 990 C107 990 78 963 78 917 C78 872 107 844 146 844 L146 844 Z " />
<glyph glyph-name="dotlessi" unicode="&#x131;" horiz-adv-x="256" d="M186 245 C186 456 177 489 118 489 C58 489 49 456 49 245 C49 33 58 0 118 0 C177 0 186 33 186 245 L186 245 Z " />
<glyph glyph-name="IJ" unicode="&#x132;" horiz-adv-x="708" d="M133 0 C196 0 206 49 206 367 C206 684 196 733 133 733 C70 733 60 684 60 367 C60 49 70 0 133 0 L133 0 Z M317 69 C317 9 324 0 367 0 L416 0 C531 0 610 79 610 195 L610 464 C610 696 600 732 537 732 C473 732 463 699 463 488 L463 244 C463 175 431 140 365 137 L341 137 C320 137 317 128 317 69 L317 69 Z " />
<glyph glyph-name="ij" unicode="&#x133;" horiz-adv-x="546" d="M186 245 C186 456 177 489 118 489 C58 489 49 456 49 245 C49 33 58 0 118 0 C177 0 186 33 186 245 L186 245 Z M44 605 C44 566 72 537 117 537 C162 537 190 566 190 605 C190 645 163 674 116 674 C72 674 44 645 44 605 L44 605 Z M187 -154 C187 -202 194 -210 237 -210 L286 -210 C403 -210 471 -129 471 -15 L471 237 C471 454 462 488 403 488 C343 488 334 456 334 249 L334 9 C334 -59 301 -95 236 -98 L212 -98 C190 -98 187 -106 187 -154 L187 -154 Z M329 605 C329 566 357 537 402 537 C447 537 475 566 475 605 C475 645 448 674 401 674 C356 674 329 645 329 605 L329 605 Z " />
<glyph glyph-name="Jcircumflex" unicode="&#x134;" horiz-adv-x="415" d="M24 69 C24 9 31 0 74 0 L123 0 C238 0 317 79 317 195 L317 464 C317 696 307 732 244 732 C180 732 170 699 170 488 L170 244 C170 175 138 140 72 137 L48 137 C27 137 24 128 24 69 L24 69 Z M110 812 C128 795 138 797 187 830 C235 863 249 863 297 830 C345 797 355 795 374 811 C392 827 385 842 319 917 C252 991 232 991 166 917 C99 843 92 828 110 812 L110 812 Z " />
<glyph glyph-name="jcircumflex" unicode="&#x135;" horiz-adv-x="291" d="M-68 -154 C-68 -202 -61 -210 -19 -210 L30 -210 C147 -210 215 -129 215 -15 L215 237 C215 454 206 488 147 488 C87 488 78 456 78 249 L78 9 C78 -59 45 -95 -20 -98 L-44 -98 C-65 -98 -68 -106 -68 -154 L-68 -154 Z M15 567 C33 551 43 553 91 586 C139 619 153 619 202 586 C250 553 260 551 278 567 C296 583 289 598 223 673 C156 747 136 747 70 673 C4 598 -3 583 15 567 L15 567 Z " />
<glyph glyph-name="Kcommaaccent" unicode="&#x136;" horiz-adv-x="705" d="M135 0 C198 0 208 21 208 158 C208 295 227 295 347 158 C467 21 499 0 582 0 C664 0 654 26 504 196 C353 365 349 414 474 562 C598 709 606 732 535 732 C463 732 436 712 330 586 C224 459 208 459 208 586 C208 712 198 732 135 732 C72 732 62 683 62 366 C62 49 72 0 135 0 L135 0 Z M401 -287 C418 -259 426 -225 426 -186 C426 -147 398 -115 352 -115 C307 -115 279 -145 279 -184 C279 -223 308 -252 353 -252 L358 -252 C353 -267 346 -279 337 -288 C313 -314 306 -314 316 -333 C326 -351 358 -362 401 -287 L401 -287 Z " />
<glyph glyph-name="kcommaaccent" unicode="&#x137;" horiz-adv-x="586" d="M135 0 C198 0 208 13 208 98 C208 182 219 182 290 98 C360 13 384 0 467 0 C549 0 546 18 446 135 C346 251 342 284 422 379 C501 473 502 488 431 488 C359 488 339 477 278 403 C217 329 208 346 208 525 C208 704 198 732 135 732 C72 732 62 683 62 366 C62 49 72 0 135 0 L135 0 Z M342 -287 C358 -259 366 -225 366 -186 C366 -147 339 -115 292 -115 C248 -115 220 -145 220 -184 C220 -223 248 -252 293 -252 L298 -252 C294 -267 287 -279 278 -288 C254 -314 246 -314 257 -333 C267 -351 299 -361 342 -287 L342 -287 Z " />
<glyph glyph-name="Lacute" unicode="&#x139;" horiz-adv-x="659" d="M62 366 C62 49 98 0 331 0 C563 0 599 9 599 69 C599 128 573 137 404 137 C234 137 208 177 208 435 C208 692 198 732 135 732 C72 732 62 683 62 366 L62 366 Z M396 902 C416 917 417 918 417 918 C437 938 427 968 409 986 C400 995 388 1002 376 1005 C344 1011 332 983 281 915 C229 847 224 833 240 817 C256 801 278 812 396 902 L396 902 Z " />
<glyph glyph-name="lacute" unicode="&#x13a;" horiz-adv-x="280" d="M186 366 C186 683 177 732 118 732 C58 732 49 683 49 366 C49 49 58 0 118 0 C177 0 186 49 186 366 L186 366 Z M211 902 C231 917 232 918 232 918 C252 938 242 968 224 986 C215 995 203 1002 191 1005 C159 1011 147 983 96 915 C44 847 39 833 55 817 C71 801 93 811 211 902 L211 902 Z " />
<glyph glyph-name="Lcommaaccent" unicode="&#x13b;" horiz-adv-x="659" d="M62 366 C62 49 98 0 331 0 C563 0 599 9 599 69 C599 128 573 137 404 137 C234 137 208 177 208 435 C208 692 198 732 135 732 C72 732 62 683 62 366 L62 366 Z M378 -287 C395 -259 403 -225 403 -186 C403 -147 375 -115 329 -115 C284 -115 256 -145 256 -184 C256 -223 285 -252 330 -252 L335 -252 C330 -267 323 -279 314 -288 C290 -314 283 -314 293 -333 C303 -351 335 -362 378 -287 L378 -287 Z " />
<glyph glyph-name="lcommaaccent" unicode="&#x13c;" horiz-adv-x="280" d="M186 366 C186 683 177 732 118 732 C58 732 49 683 49 366 C49 49 58 0 118 0 C177 0 186 49 186 366 L186 366 Z M189 -287 C205 -259 213 -225 213 -186 C213 -147 186 -115 139 -115 C95 -115 67 -145 67 -184 C67 -223 95 -252 140 -252 L143 -252 C146 -252 150 -262 125 -288 C101 -314 93 -314 104 -333 C114 -351 147 -362 189 -287 L189 -287 Z " />
<glyph glyph-name="Lcaron" unicode="&#x13d;" horiz-adv-x="659" d="M62 366 C62 49 98 0 331 0 C563 0 599 9 599 69 C599 128 573 137 404 137 C234 137 208 177 208 435 C208 692 198 732 135 732 C72 732 62 683 62 366 L62 366 Z M520 605 C536 633 544 667 544 707 C544 746 517 777 470 777 C426 777 398 747 398 708 C398 669 426 640 471 640 L474 640 C477 640 481 630 456 603 C432 578 424 578 435 559 C445 540 477 530 520 605 L520 605 Z " />
<glyph glyph-name="lcaron" unicode="&#x13e;" horiz-adv-x="585" d="M186 366 C186 683 177 732 118 732 C58 732 49 683 49 366 C49 49 58 0 118 0 C177 0 186 49 186 366 L186 366 Z M447 605 C463 633 471 667 471 707 C471 746 444 777 397 777 C353 777 325 747 325 708 C325 669 353 640 398 640 L403 640 C399 626 392 613 382 603 C359 578 351 578 362 559 C372 540 404 530 447 605 L447 605 Z " />
<glyph glyph-name="Ldot" unicode="&#x13f;" horiz-adv-x="659" d="M62 366 C62 49 98 0 331 0 C563 0 599 9 599 69 C599 128 573 137 404 137 C234 137 208 177 208 435 C208 692 198 732 135 732 C72 732 62 683 62 366 L62 366 Z M416 555 C455 555 484 583 484 628 C484 673 455 701 416 701 C376 701 347 674 347 627 C347 583 376 555 416 555 L416 555 Z " />
<glyph glyph-name="ldot" unicode="&#x140;" horiz-adv-x="510" d="M186 366 C186 683 177 732 118 732 C58 732 49 683 49 366 C49 49 58 0 118 0 C177 0 186 49 186 366 L186 366 Z M350 555 C389 555 418 583 418 628 C418 673 389 701 350 701 C311 701 281 674 281 627 C281 583 311 555 350 555 L350 555 Z " />
<glyph glyph-name="Lslash" unicode="&#x141;" horiz-adv-x="659" d="M62 560 C62 410 54 382 4 354 C-46 325 -51 315 -35 287 C-18 258 -10 256 24 275 C57 294 62 277 62 149 C62 20 98 0 331 0 C563 0 599 9 599 69 C599 128 573 137 404 137 C234 137 208 153 208 260 C208 366 216 387 269 417 C322 447 327 457 311 486 C294 515 285 517 250 496 C214 475 208 489 208 602 C208 715 198 732 135 732 C72 732 62 709 62 560 L62 560 Z " />
<glyph glyph-name="lslash" unicode="&#x142;" horiz-adv-x="280" d="M186 190 C186 354 194 385 248 416 C302 447 307 457 291 486 C274 515 265 517 229 495 C192 473 186 488 186 601 C186 714 177 732 118 732 C58 732 49 709 49 562 C49 414 41 386 -13 356 C-66 325 -71 315 -55 287 C-38 258 -29 256 7 277 C43 298 49 281 49 151 C49 20 58 0 118 0 C177 0 186 26 186 190 L186 190 Z " />
<glyph glyph-name="Nacute" unicode="&#x143;" horiz-adv-x="806" d="M207 258 C207 480 231 489 387 324 C542 159 566 124 566 67 C566 9 576 0 640 0 C704 0 714 49 714 366 C714 683 704 732 641 732 C578 732 568 707 568 543 C568 378 544 378 388 543 C231 707 197 732 134 732 C70 732 60 683 60 366 C60 49 70 0 134 0 C197 0 207 35 207 258 L207 258 Z M469 902 C490 917 491 918 491 918 C511 938 500 968 482 986 C474 995 462 1002 450 1005 C418 1011 406 983 355 915 C303 847 298 833 314 817 C330 801 351 812 469 902 L469 902 Z " />
<glyph glyph-name="nacute" unicode="&#x144;" horiz-adv-x="559" d="M218 356 C246 380 285 395 331 344 C347 327 355 301 355 269 L355 135 C355 18 364 0 424 0 C483 0 492 20 492 152 L492 303 C492 411 415 488 302 488 C279 488 258 485 238 477 C187 458 185 447 185 467 C185 486 176 489 117 489 C57 489 48 456 48 245 C48 33 57 0 117 0 C176 0 185 21 185 156 C185 290 182 324 218 356 L218 356 Z M346 657 C367 672 368 673 368 674 C388 694 377 724 359 742 C350 751 338 758 326 761 C294 767 282 739 231 671 C179 603 174 589 190 573 C206 557 228 567 346 657 L346 657 Z " />
<glyph glyph-name="Ncommaaccent" unicode="&#x145;" horiz-adv-x="806" d="M207 258 C207 480 231 489 387 324 C542 159 566 124 566 67 C566 9 576 0 640 0 C704 0 714 49 714 366 C714 683 704 732 641 732 C578 732 568 707 568 543 C568 378 544 378 388 543 C231 707 197 732 134 732 C70 732 60 683 60 366 C60 49 70 0 134 0 C197 0 207 35 207 258 L207 258 Z M451 -287 C468 -259 476 -225 476 -186 C476 -147 449 -115 402 -115 C357 -115 330 -145 330 -184 C330 -223 358 -252 403 -252 L408 -252 C403 -267 396 -279 387 -288 C363 -314 356 -314 366 -333 C376 -351 408 -362 451 -287 L451 -287 Z " />
<glyph glyph-name="ncommaaccent" unicode="&#x146;" horiz-adv-x="559" d="M218 356 C246 380 285 395 331 344 C347 327 355 301 355 269 L355 135 C355 18 364 0 424 0 C483 0 492 20 492 152 L492 303 C492 411 415 488 302 488 C279 488 258 485 238 477 C187 458 185 447 185 467 C185 486 176 489 117 489 C57 489 48 456 48 245 C48 33 57 0 117 0 C176 0 185 21 185 156 C185 290 182 324 218 356 L218 356 Z M328 -287 C345 -259 353 -225 353 -186 C353 -147 325 -115 278 -115 C234 -115 206 -145 206 -184 C206 -223 234 -252 279 -252 L282 -252 C285 -252 289 -262 264 -288 C240 -314 232 -314 243 -333 C253 -351 285 -362 328 -287 L328 -287 Z " />
<glyph glyph-name="Ncaron" unicode="&#x147;" horiz-adv-x="806" d="M207 258 C207 480 231 489 387 324 C542 159 566 124 566 67 C566 9 576 0 640 0 C704 0 714 49 714 366 C714 683 704 732 641 732 C578 732 568 707 568 543 C568 378 544 378 388 543 C231 707 197 732 134 732 C70 732 60 683 60 366 C60 49 70 0 134 0 C197 0 207 35 207 258 L207 258 Z M475 879 C541 953 548 968 530 984 C512 1000 502 998 454 965 C405 932 391 932 343 965 C295 998 285 1000 267 984 C249 968 256 953 322 879 C388 804 408 804 475 879 L475 879 Z " />
<glyph glyph-name="ncaron" unicode="&#x148;" horiz-adv-x="559" d="M218 356 C246 380 285 395 331 344 C347 327 355 301 355 269 L355 135 C355 18 364 0 424 0 C483 0 492 20 492 152 L492 303 C492 411 415 488 302 488 C279 488 258 485 238 477 C187 458 185 447 185 467 C185 486 176 489 117 489 C57 489 48 456 48 245 C48 33 57 0 117 0 C176 0 185 21 185 156 C185 290 182 324 218 356 L218 356 Z M352 635 C418 709 425 724 407 740 C388 756 378 754 330 721 C282 688 268 688 220 721 C172 754 162 756 144 740 C125 724 132 709 199 635 C265 560 285 560 352 635 L352 635 Z " />
<glyph glyph-name="napostrophe" unicode="&#x149;" horiz-adv-x="772" d="M430 356 C459 380 498 395 544 344 C560 327 568 301 568 269 L568 135 C568 18 577 0 637 0 C696 0 705 20 705 152 L705 303 C705 411 627 488 515 488 C492 488 471 485 451 477 C400 458 397 447 397 467 C397 486 388 489 329 489 C270 489 261 456 261 245 C261 33 270 0 329 0 C388 0 397 21 397 156 C397 290 393 324 430 356 L430 356 Z M170 433 C186 461 194 495 194 535 C194 574 167 605 120 605 C76 605 48 575 48 536 C48 497 76 468 121 468 L126 468 C122 454 115 441 106 431 C82 405 74 406 85 387 C95 368 127 358 170 433 L170 433 Z " />
<glyph glyph-name="Eng" unicode="&#x14a;" horiz-adv-x="806" d="M421 -174 C421 -233 428 -242 471 -242 L520 -242 C635 -242 714 -163 714 -47 L714 343 C714 680 704 732 641 732 C578 732 568 701 568 503 C568 304 540 304 358 503 C176 701 142 732 104 732 C66 732 60 683 60 366 C60 49 70 0 134 0 C197 0 207 30 207 227 C207 424 231 427 388 257 C544 86 568 55 568 31 L568 2 C568 -66 535 -102 469 -105 L445 -105 C424 -105 421 -114 421 -174 L421 -174 Z " />
<glyph glyph-name="eng" unicode="&#x14b;" horiz-adv-x="559" d="M209 -198 C209 -246 216 -254 259 -254 L308 -254 C425 -254 492 -174 492 -60 L492 303 C492 411 415 488 302 488 C279 488 258 485 238 477 C187 458 185 447 185 467 C185 486 176 489 117 489 C57 489 48 456 48 245 C48 33 57 0 117 0 C176 0 185 21 185 156 C185 290 182 324 218 356 C246 380 285 395 331 344 C347 327 355 301 355 269 L355 -35 C355 -104 323 -139 257 -142 L233 -142 C212 -142 209 -150 209 -198 L209 -198 Z " />
<glyph glyph-name="Omacron" unicode="&#x14c;" horiz-adv-x="804" d="M23 366 C23 160 182 0 389 0 C596 0 755 159 755 366 C755 573 596 732 389 732 C182 732 23 573 23 366 L23 366 Z M390 137 C258 137 169 238 169 366 C169 494 258 596 389 596 C520 596 609 494 609 366 C609 239 520 137 390 137 L390 137 Z M558 899 C558 933 537 938 402 938 C267 938 246 933 246 899 C246 865 267 860 402 860 C537 860 558 865 558 899 L558 899 Z " />
<glyph glyph-name="omacron" unicode="&#x14d;" horiz-adv-x="562" d="M21 244 C21 104 128 -5 270 -5 C411 -5 519 103 519 244 C519 385 411 493 270 493 C128 493 21 385 21 244 L21 244 Z M269 113 C194 113 144 170 144 244 C144 316 194 375 269 375 C344 375 394 317 394 244 C394 170 344 113 269 113 L269 113 Z M437 655 C437 689 416 694 281 694 C146 694 125 689 125 655 C125 621 146 616 281 616 C416 616 437 621 437 655 L437 655 Z " />
<glyph glyph-name="Obreve" unicode="&#x14e;" horiz-adv-x="804" d="M23 366 C23 160 182 0 389 0 C596 0 755 159 755 366 C755 573 596 732 389 732 C182 732 23 573 23 366 L23 366 Z M390 137 C258 137 169 238 169 366 C169 494 258 596 389 596 C520 596 609 494 609 366 C609 239 520 137 390 137 L390 137 Z M453 912 C441 898 423 890 402 890 C381 890 363 898 350 912 C318 947 326 964 296 964 C266 964 236 930 302 864 C327 839 362 823 402 823 C442 823 477 839 503 864 C568 930 538 964 508 964 C478 964 486 947 453 912 L453 912 Z " />
<glyph glyph-name="obreve" unicode="&#x14f;" horiz-adv-x="562" d="M21 244 C21 104 128 -5 270 -5 C411 -5 519 103 519 244 C519 385 411 493 270 493 C128 493 21 385 21 244 L21 244 Z M269 113 C194 113 144 170 144 244 C144 316 194 375 269 375 C344 375 394 317 394 244 C394 170 344 113 269 113 L269 113 Z M332 668 C320 654 302 646 281 646 C260 646 242 654 229 668 C197 703 205 720 175 720 C145 720 115 686 181 620 C206 595 241 579 281 579 C321 579 356 595 382 620 C447 686 417 720 387 720 C357 720 365 703 332 668 L332 668 Z " />
<glyph glyph-name="Ohungarumlaut" unicode="&#x150;" horiz-adv-x="804" d="M23 366 C23 160 182 0 389 0 C596 0 755 159 755 366 C755 573 596 732 389 732 C182 732 23 573 23 366 L23 366 Z M390 137 C258 137 169 238 169 366 C169 494 258 596 389 596 C520 596 609 494 609 366 C609 239 520 137 390 137 L390 137 Z M367 902 C388 917 389 918 389 918 C409 938 398 968 380 986 C372 995 360 1002 348 1005 C316 1011 304 983 253 915 C201 847 196 833 212 817 C228 801 249 812 367 902 L367 902 Z M569 902 C590 917 591 918 591 918 C611 938 601 968 583 986 C574 995 562 1002 550 1005 C518 1011 506 983 455 915 C403 847 398 833 414 817 C430 801 451 812 569 902 L569 902 Z " />
<glyph glyph-name="ohungarumlaut" unicode="&#x151;" horiz-adv-x="562" d="M21 244 C21 104 128 -5 270 -5 C411 -5 519 103 519 244 C519 385 411 493 270 493 C128 493 21 385 21 244 L21 244 Z M269 113 C194 113 144 170 144 244 C144 316 194 375 269 375 C344 375 394 317 394 244 C394 170 344 113 269 113 L269 113 Z M246 657 C267 672 268 673 268 674 C288 694 277 724 259 742 C251 751 239 758 226 761 C194 767 182 739 131 671 C80 603 75 589 91 573 C107 557 129 567 246 657 L246 657 Z M448 657 C469 672 470 673 470 674 C490 694 479 724 461 742 C453 751 441 758 429 761 C397 767 385 739 334 671 C282 603 277 589 293 573 C309 557 331 567 448 657 L448 657 Z " />
<glyph glyph-name="OE" unicode="&#x152;" horiz-adv-x="968" d="M918 69 C918 128 892 137 723 137 C553 137 527 148 527 220 C527 292 547 303 674 303 C801 303 821 312 821 371 C821 430 801 439 674 439 C547 439 527 450 527 518 C527 585 553 596 723 596 C893 596 919 605 919 664 C919 723 883 732 654 732 L389 732 C182 739 23 568 23 366 C23 166 177 0 389 0 L654 0 C882 0 918 9 918 69 L918 69 Z M169 366 C169 428 190 483 226 524 C325 634 381 564 381 366 C381 168 327 99 229 205 C191 246 169 302 169 366 L169 366 Z " />
<glyph glyph-name="oe" unicode="&#x153;" horiz-adv-x="924" d="M21 244 C21 104 128 -5 270 -5 C305 -5 338 1 368 14 C455 51 458 51 538 19 C570 6 605 0 641 0 C683 0 721 6 754 18 C838 48 836 78 802 112 C768 146 759 139 705 122 C685 115 664 112 641 112 C616 112 592 120 573 134 C524 171 561 195 707 195 C852 195 875 198 875 220 L875 244 C875 385 785 488 641 488 C605 488 572 482 542 470 C460 436 454 437 368 474 C338 487 305 493 270 493 C128 493 21 385 21 244 L21 244 Z M269 113 C194 113 144 170 144 244 C144 316 194 375 269 375 C344 375 394 317 394 244 C394 170 344 113 269 113 L269 113 Z M641 376 C665 376 689 369 708 355 C755 319 725 293 641 293 C556 293 526 319 573 355 C592 369 617 376 641 376 L641 376 Z " />
<glyph glyph-name="Racute" unicode="&#x154;" horiz-adv-x="700" d="M602 392 C625 425 636 469 636 521 C636 662 550 732 379 732 L220 732 C81 732 60 683 60 366 C60 49 70 0 134 0 C197 0 207 20 207 152 C207 283 216 303 274 303 C331 303 352 283 428 152 C504 20 527 0 600 0 C673 0 672 21 593 160 C513 298 542 302 602 392 L602 392 Z M310 605 L413 605 C471 603 501 568 502 520 C501 467 471 431 412 430 L310 430 C221 430 207 442 207 518 C207 593 221 605 310 605 L310 605 Z M416 902 C437 917 438 918 438 918 C458 938 447 968 429 986 C421 995 409 1002 396 1005 C364 1011 352 983 301 915 C250 847 245 833 261 817 C277 801 298 812 416 902 L416 902 Z " />
<glyph glyph-name="racute" unicode="&#x155;" horiz-adv-x="389" d="M125 488 C66 488 57 455 57 244 C57 33 66 0 125 0 C184 0 193 20 193 151 C193 281 190 330 257 352 C329 375 345 360 355 418 C365 475 363 486 343 487 C323 489 307 497 251 474 C196 451 193 439 193 462 C193 485 184 488 125 488 L125 488 Z M260 657 C281 672 282 673 282 674 C302 694 292 724 273 742 C265 751 253 758 241 761 C209 767 197 739 146 671 C94 603 89 589 105 573 C121 557 143 567 260 657 L260 657 Z " />
<glyph glyph-name="Rcommaaccent" unicode="&#x156;" horiz-adv-x="700" d="M602 392 C625 425 636 469 636 521 C636 662 550 732 379 732 L220 732 C81 732 60 683 60 366 C60 49 70 0 134 0 C197 0 207 20 207 152 C207 283 216 303 274 303 C331 303 352 283 428 152 C504 20 527 0 600 0 C673 0 672 21 593 160 C513 298 542 302 602 392 L602 392 Z M310 605 L413 605 C471 603 501 568 502 520 C501 467 471 431 412 430 L310 430 C221 430 207 442 207 518 C207 593 221 605 310 605 L310 605 Z M398 -287 C415 -259 423 -225 423 -186 C423 -147 396 -115 349 -115 C304 -115 276 -145 276 -184 C276 -223 305 -252 350 -252 L355 -252 C350 -267 343 -279 334 -288 C310 -314 303 -314 313 -333 C323 -351 355 -362 398 -287 L398 -287 Z " />
<glyph glyph-name="rcommaaccent" unicode="&#x157;" horiz-adv-x="389" d="M125 488 C66 488 57 455 57 244 C57 33 66 0 125 0 C184 0 193 20 193 151 C193 281 190 330 257 352 C329 375 345 360 355 418 C365 475 363 486 343 487 C323 489 307 497 251 474 C196 451 193 439 193 462 C193 485 184 488 125 488 L125 488 Z M243 -287 C260 -259 268 -225 268 -186 C268 -147 240 -115 193 -115 C149 -115 121 -145 121 -184 C121 -223 149 -252 194 -252 L197 -252 C200 -252 204 -262 179 -288 C155 -314 148 -314 158 -333 C168 -351 200 -362 243 -287 L243 -287 Z " />
<glyph glyph-name="Rcaron" unicode="&#x158;" horiz-adv-x="700" d="M310 605 L413 605 C471 603 501 568 502 520 C501 467 471 431 412 430 L310 430 C221 430 207 442 207 518 C207 593 221 605 310 605 L310 605 Z M602 392 C625 425 636 469 636 521 C636 662 550 732 379 732 L220 732 C81 732 60 683 60 366 C60 49 70 0 134 0 C197 0 207 20 207 152 C207 283 216 303 274 303 C331 303 352 283 428 152 C504 20 527 0 600 0 C673 0 672 21 593 160 C513 298 542 302 602 392 L602 392 Z M422 879 C488 953 495 968 477 984 C459 1000 449 998 401 965 C352 932 338 932 290 965 C242 998 232 1000 214 984 C195 968 202 953 269 879 C335 804 355 804 422 879 L422 879 Z " />
<glyph glyph-name="rcaron" unicode="&#x159;" horiz-adv-x="389" d="M125 488 C66 488 57 455 57 244 C57 33 66 0 125 0 C184 0 193 20 193 151 C193 281 190 330 257 352 C329 375 345 360 355 418 C365 475 363 486 343 487 C323 489 307 497 251 474 C196 451 193 439 193 462 C193 485 184 488 125 488 L125 488 Z M267 635 C333 709 340 724 322 740 C303 756 293 754 245 721 C197 688 183 688 135 721 C87 754 77 756 59 740 C40 724 47 709 114 635 C180 560 200 560 267 635 L267 635 Z " />
<glyph glyph-name="Sacute" unicode="&#x15a;" horiz-adv-x="642" d="M445 712 C405 727 360 732 298 732 C183 732 44 646 44 518 C44 446 73 399 117 368 C237 282 412 357 413 212 C413 171 368 134 278 137 C240 140 206 147 179 159 C114 185 105 198 64 156 C22 114 20 70 144 25 C190 8 242 0 302 0 C425 0 571 83 571 215 C571 363 456 420 327 439 C162 464 167 596 327 596 C356 596 382 591 405 581 C464 556 471 544 513 586 C555 628 559 670 445 712 L445 712 Z M387 902 C408 917 409 918 409 918 C429 938 418 968 400 986 C392 995 380 1002 368 1005 C336 1011 324 983 273 915 C221 847 216 833 232 817 C248 801 269 812 387 902 L387 902 Z " />
<glyph glyph-name="sacute" unicode="&#x15b;" horiz-adv-x="453" d="M318 478 C291 488 260 491 218 491 C132 491 45 431 45 336 C45 284 63 249 92 226 C172 162 213 192 257 178 C280 170 302 138 268 119 C219 90 193 100 143 122 C102 141 96 147 63 111 C30 74 28 45 105 15 C137 2 174 -5 220 -5 C309 -5 402 42 402 141 C402 254 337 291 237 303 C204 310 182 318 171 327 C149 346 172 368 196 374 C207 378 221 379 237 379 C254 379 269 376 283 369 C320 351 325 345 358 382 C391 419 394 449 318 478 L318 478 Z M293 657 C313 672 314 673 314 674 C334 694 324 724 306 742 C297 751 285 758 273 761 C241 767 229 739 178 671 C126 603 121 589 137 573 C153 557 175 567 293 657 L293 657 Z " />
<glyph glyph-name="Scircumflex" unicode="&#x15c;" horiz-adv-x="642" d="M445 712 C405 727 360 732 298 732 C183 732 44 646 44 518 C44 446 73 399 117 368 C237 282 412 357 413 212 C413 171 368 134 278 137 C240 140 206 147 179 159 C114 185 105 198 64 156 C22 114 20 70 144 25 C190 8 242 0 302 0 C425 0 571 83 571 215 C571 363 456 420 327 439 C162 464 167 596 327 596 C356 596 382 591 405 581 C464 556 471 544 513 586 C555 628 559 670 445 712 L445 712 Z M185 812 C203 795 213 797 261 830 C309 863 323 863 372 830 C420 797 430 795 448 811 C466 827 459 842 393 917 C326 991 306 991 240 917 C174 843 167 828 185 812 L185 812 Z " />
<glyph glyph-name="scircumflex" unicode="&#x15d;" horiz-adv-x="453" d="M318 478 C291 488 260 491 218 491 C132 491 45 431 45 336 C45 284 63 249 92 226 C172 162 213 192 257 178 C280 170 302 138 268 119 C219 90 193 100 143 122 C102 141 96 147 63 111 C30 74 28 45 105 15 C137 2 174 -5 220 -5 C309 -5 402 42 402 141 C402 254 337 291 237 303 C204 310 182 318 171 327 C149 346 172 368 196 374 C207 378 221 379 237 379 C254 379 269 376 283 369 C320 351 325 345 358 382 C391 419 394 449 318 478 L318 478 Z M91 567 C109 551 119 553 167 586 C215 619 229 619 278 586 C326 553 336 551 354 567 C372 583 365 598 299 673 C232 747 212 747 146 673 C79 598 72 583 91 567 L91 567 Z " />
<glyph glyph-name="Scedilla" unicode="&#x15e;" horiz-adv-x="642" d="M314 -200 C371 -200 424 -153 424 -91 C424 -71 417 -53 402 -38 C359 7 340 -2 342 1 C344 3 388 -24 500 71 C542 108 571 157 571 215 C571 363 456 420 327 439 C162 464 167 596 327 596 C356 596 382 591 405 581 C464 556 471 544 513 586 C555 628 559 670 445 712 C405 727 360 732 298 732 C183 732 44 646 44 518 C44 446 73 399 117 368 C237 282 412 357 413 212 C413 171 368 134 278 137 C240 140 206 147 179 159 C114 185 105 198 64 156 C22 114 19 78 126 32 C233 -15 256 -2 246 -21 C236 -39 239 -44 273 -54 L311 -65 C331 -71 343 -80 343 -93 C343 -108 328 -120 314 -120 C307 -120 300 -117 293 -111 C274 -96 270 -92 242 -106 C213 -119 203 -140 249 -177 C267 -191 289 -200 314 -200 L314 -200 Z " />
<glyph glyph-name="scedilla" unicode="&#x15f;" horiz-adv-x="453" d="M220 -200 C276 -200 330 -153 330 -91 C330 -71 323 -54 309 -39 C267 6 279 -25 355 39 C384 63 402 97 402 141 C402 254 337 291 237 303 C204 310 182 318 171 327 C149 346 172 368 196 374 C207 378 221 379 237 379 C254 379 269 376 283 369 C320 351 325 345 358 382 C391 419 394 449 318 478 C291 488 260 491 218 491 C132 491 45 431 45 336 C45 284 63 249 92 226 C172 162 213 192 257 178 C280 170 302 138 268 119 C219 90 193 100 143 122 C102 141 96 147 63 111 C30 74 27 53 84 24 C147 -8 161 -3 151 -21 C141 -39 145 -44 179 -54 L217 -65 C236 -71 249 -80 249 -93 C249 -108 234 -120 220 -120 C213 -120 205 -117 199 -111 C179 -96 176 -92 148 -106 C119 -119 108 -140 154 -177 C172 -191 195 -200 220 -200 L220 -200 Z " />
<glyph glyph-name="Scaron" unicode="&#x160;" horiz-adv-x="642" d="M445 712 C405 727 360 732 298 732 C183 732 44 646 44 518 C44 446 73 399 117 368 C237 282 412 357 413 212 C413 171 368 134 278 137 C240 140 206 147 179 159 C114 185 105 198 64 156 C22 114 20 70 144 25 C190 8 242 0 302 0 C425 0 571 83 571 215 C571 363 456 420 327 439 C162 464 167 596 327 596 C356 596 382 591 405 581 C464 556 471 544 513 586 C555 628 559 670 445 712 L445 712 Z M393 879 C459 953 466 968 448 984 C430 1000 420 998 372 965 C323 932 309 932 261 965 C213 998 203 1000 185 984 C167 968 174 953 240 879 C306 804 326 804 393 879 L393 879 Z " />
<glyph glyph-name="scaron" unicode="&#x161;" horiz-adv-x="453" d="M318 478 C291 488 260 491 218 491 C132 491 45 431 45 336 C45 284 63 249 92 226 C172 162 213 192 257 178 C280 170 302 138 268 119 C219 90 193 100 143 122 C102 141 96 147 63 111 C30 74 28 45 105 15 C137 2 174 -5 220 -5 C309 -5 402 42 402 141 C402 254 337 291 237 303 C204 310 182 318 171 327 C149 346 172 368 196 374 C207 378 221 379 237 379 C254 379 269 376 283 369 C320 351 325 345 358 382 C391 419 394 449 318 478 L318 478 Z M299 635 C365 709 372 724 354 740 C336 756 326 754 278 721 C229 688 215 688 167 721 C119 754 109 756 91 740 C72 724 79 709 146 635 C212 560 232 560 299 635 L299 635 Z " />
<glyph glyph-name="Tcommaaccent" unicode="&#x162;" horiz-adv-x="707" d="M23 664 C23 605 39 596 145 596 C251 596 267 556 267 298 C267 40 277 0 341 0 C404 0 414 40 414 298 C414 556 430 596 536 596 C642 596 658 605 658 664 C658 723 615 732 341 732 C66 732 23 723 23 664 L23 664 Z M402 -287 C418 -259 426 -225 426 -186 C426 -147 399 -115 352 -115 C308 -115 280 -145 280 -184 C280 -223 308 -252 353 -252 L358 -252 C354 -267 347 -279 338 -288 C314 -314 306 -314 317 -333 C327 -351 360 -362 402 -287 L402 -287 Z " />
<glyph glyph-name="tcommaaccent" unicode="&#x163;" horiz-adv-x="384" d="M270 0 C285 0 299 2 312 6 C347 16 348 30 336 72 C323 114 318 120 299 117 C293 116 288 115 285 115 C250 115 226 133 226 186 L226 282 C226 364 232 377 268 377 C303 377 309 384 309 433 C309 481 303 488 268 488 C232 488 226 498 226 562 C226 625 217 635 158 635 C98 635 89 625 89 562 C89 498 84 488 53 488 C21 488 16 481 16 433 C16 384 21 377 53 377 C84 377 89 363 89 272 L89 166 C89 62 167 0 270 0 L270 0 Z M240 -287 C257 -259 265 -225 265 -186 C265 -147 238 -115 191 -115 C146 -115 119 -145 119 -184 C119 -223 147 -252 192 -252 L197 -252 C192 -267 185 -279 176 -288 C152 -314 145 -314 155 -333 C165 -351 197 -362 240 -287 L240 -287 Z " />
<glyph glyph-name="Tcaron" unicode="&#x164;" horiz-adv-x="707" d="M23 664 C23 605 39 596 145 596 C251 596 267 556 267 298 C267 40 277 0 341 0 C404 0 414 40 414 298 C414 556 430 596 536 596 C642 596 658 605 658 664 C658 723 615 732 341 732 C66 732 23 723 23 664 L23 664 Z M425 879 C491 953 498 968 480 984 C462 1000 452 998 404 965 C356 932 342 932 294 965 C245 998 235 1000 217 984 C199 968 206 953 273 879 C339 804 359 804 425 879 L425 879 Z " />
<glyph glyph-name="tcaron" unicode="&#x165;" horiz-adv-x="689" d="M270 0 C285 0 299 2 312 6 C347 16 348 30 336 72 C323 114 318 120 299 117 C293 116 288 115 285 115 C250 115 226 133 226 186 L226 282 C226 364 232 377 268 377 C303 377 309 384 309 433 C309 481 303 488 268 488 C232 488 226 498 226 562 C226 625 217 635 158 635 C98 635 89 625 89 562 C89 498 84 488 53 488 C21 488 16 481 16 433 C16 384 21 377 53 377 C84 377 89 363 89 272 L89 166 C89 62 167 0 270 0 L270 0 Z M551 605 C568 633 576 667 576 707 C576 746 548 777 501 777 C457 777 429 747 429 708 C429 669 458 640 502 640 L505 640 C508 640 512 630 487 603 C464 578 456 578 466 559 C476 540 508 530 551 605 L551 605 Z " />
<glyph glyph-name="Tbar" unicode="&#x166;" horiz-adv-x="707" d="M267 167 C267 22 277 0 341 0 C404 0 414 22 414 167 C414 311 419 333 455 333 C490 333 495 338 495 372 C495 406 490 411 455 411 C419 411 414 423 414 504 C414 584 430 596 536 596 C642 596 658 605 658 664 C658 723 615 732 341 732 C66 732 23 723 23 664 C23 605 39 596 145 596 C251 596 267 584 267 504 C267 423 261 411 225 411 C189 411 183 406 183 372 C183 338 189 333 225 333 C261 333 267 311 267 167 L267 167 Z " />
<glyph glyph-name="tbar" unicode="&#x167;" horiz-adv-x="384" d="M89 192 L89 166 C89 62 167 0 270 0 C285 0 299 2 312 6 C347 16 348 30 336 72 C323 114 318 120 299 117 C293 116 288 115 285 115 C250 115 226 133 226 186 L226 202 C226 215 232 217 270 217 C308 217 314 222 314 256 C314 290 308 295 270 295 C232 295 226 301 226 336 C226 371 232 377 268 377 C303 377 309 384 309 433 C309 481 303 488 268 488 C232 488 226 498 226 562 C226 625 217 635 158 635 C98 635 89 625 89 562 C89 498 84 488 53 488 C21 488 16 481 16 433 C16 384 21 377 53 377 C84 377 89 371 89 336 C89 301 83 295 45 295 C7 295 1 290 1 256 C1 222 7 217 45 217 C83 217 89 214 89 192 L89 192 Z " />
<glyph glyph-name="Utilde" unicode="&#x168;" horiz-adv-x="782" d="M49 501 L49 269 C49 102 206 0 366 0 C527 0 684 102 684 269 L684 501 C684 701 674 732 611 732 C547 732 537 704 537 520 L537 308 C537 200 467 146 366 146 C265 146 195 200 195 308 L195 520 C195 704 185 732 122 732 C59 732 49 701 49 501 L49 501 Z M268 868 C275 892 293 895 315 884 C327 878 342 868 359 854 C417 808 485 798 537 821 C680 884 608 983 560 983 C512 983 505 981 505 968 L505 952 C503 920 472 918 417 958 C360 1000 295 1015 242 998 C98 951 156 850 207 850 C257 850 263 853 268 868 L268 868 Z " />
<glyph glyph-name="utilde" unicode="&#x169;" horiz-adv-x="549" d="M310 132 C281 109 243 94 196 144 C180 162 172 188 172 220 L172 355 C172 471 163 489 104 489 C45 489 36 469 36 338 L36 186 C36 78 113 0 226 0 C249 0 270 4 289 11 C340 30 343 41 343 22 C343 3 352 0 412 0 C471 0 480 33 480 245 C480 456 471 489 412 489 C352 489 343 468 343 331 C343 194 346 160 310 132 L310 132 Z M152 624 C154 633 160 644 170 646 C177 648 187 646 199 640 C240 619 278 513 421 577 C563 640 492 739 444 739 C396 739 389 737 389 724 L389 708 C387 676 356 674 301 714 C244 756 179 771 126 754 C-19 707 40 605 91 605 C141 605 147 608 152 624 L152 624 Z " />
<glyph glyph-name="Umacron" unicode="&#x16a;" horiz-adv-x="782" d="M49 501 L49 269 C49 102 206 0 366 0 C527 0 684 102 684 269 L684 501 C684 701 674 732 611 732 C547 732 537 704 537 520 L537 308 C537 200 467 146 366 146 C265 146 195 200 195 308 L195 520 C195 704 185 732 122 732 C59 732 49 701 49 501 L49 501 Z M547 899 C547 933 526 938 391 938 C255 938 234 933 234 899 C234 865 255 860 391 860 C526 860 547 865 547 899 L547 899 Z " />
<glyph glyph-name="umacron" unicode="&#x16b;" horiz-adv-x="549" d="M310 132 C281 109 243 94 196 144 C180 162 172 188 172 220 L172 355 C172 471 163 489 104 489 C45 489 36 469 36 338 L36 186 C36 78 113 0 226 0 C249 0 270 4 289 11 C340 30 343 41 343 22 C343 3 352 0 412 0 C471 0 480 33 480 245 C480 456 471 489 412 489 C352 489 343 468 343 331 C343 194 346 160 310 132 L310 132 Z M431 655 C431 689 410 694 275 694 C139 694 118 689 118 655 C118 621 139 616 275 616 C410 616 431 621 431 655 L431 655 Z " />
<glyph glyph-name="Ubreve" unicode="&#x16c;" horiz-adv-x="782" d="M49 501 L49 269 C49 102 206 0 366 0 C527 0 684 102 684 269 L684 501 C684 701 674 732 611 732 C547 732 537 704 537 520 L537 308 C537 200 467 146 366 146 C265 146 195 200 195 308 L195 520 C195 704 185 732 122 732 C59 732 49 701 49 501 L49 501 Z M442 912 C430 898 412 890 391 890 C370 890 352 898 339 912 C307 947 315 964 285 964 C255 964 225 930 291 864 C316 839 351 823 391 823 C431 823 466 839 492 864 C557 930 527 964 497 964 C466 964 474 947 442 912 L442 912 Z " />
<glyph glyph-name="ubreve" unicode="&#x16d;" horiz-adv-x="549" d="M310 132 C281 109 243 94 196 144 C180 162 172 188 172 220 L172 355 C172 471 163 489 104 489 C45 489 36 469 36 338 L36 186 C36 78 113 0 226 0 C249 0 270 4 289 11 C340 30 343 41 343 22 C343 3 352 0 412 0 C471 0 480 33 480 245 C480 456 471 489 412 489 C352 489 343 468 343 331 C343 194 346 160 310 132 L310 132 Z M326 668 C313 654 296 646 274 646 C253 646 236 654 223 668 C191 703 199 720 169 720 C138 720 108 686 174 620 C199 595 235 579 274 579 C314 579 350 595 375 620 C441 686 411 720 381 720 C350 720 358 703 326 668 L326 668 Z " />
<glyph glyph-name="Uring" unicode="&#x16e;" horiz-adv-x="782" d="M49 501 L49 269 C49 102 206 0 366 0 C527 0 684 102 684 269 L684 501 C684 701 674 732 611 732 C547 732 537 704 537 520 L537 308 C537 200 467 146 366 146 C265 146 195 200 195 308 L195 520 C195 704 185 732 122 732 C59 732 49 701 49 501 L49 501 Z M391 804 C451 804 496 848 496 917 C496 986 451 1030 391 1030 C331 1030 285 988 285 916 C285 848 331 804 391 804 L391 804 Z M391 875 C368 875 352 891 352 917 C352 943 368 958 391 958 C413 958 429 943 429 917 C429 891 413 875 391 875 L391 875 Z " />
<glyph glyph-name="uring" unicode="&#x16f;" horiz-adv-x="549" d="M310 132 C281 109 243 94 196 144 C180 162 172 188 172 220 L172 355 C172 471 163 489 104 489 C45 489 36 469 36 338 L36 186 C36 78 113 0 226 0 C249 0 270 4 289 11 C340 30 343 41 343 22 C343 3 352 0 412 0 C471 0 480 33 480 245 C480 456 471 489 412 489 C352 489 343 468 343 331 C343 194 346 160 310 132 L310 132 Z M275 560 C335 560 380 604 380 673 C380 742 335 786 275 786 C214 786 169 744 169 672 C169 604 214 560 275 560 L275 560 Z M274 631 C252 631 235 647 235 672 C235 699 252 714 274 714 C296 714 313 699 313 673 C313 647 296 631 274 631 L274 631 Z " />
<glyph glyph-name="Uhungarumlaut" unicode="&#x170;" horiz-adv-x="782" d="M49 501 L49 269 C49 102 206 0 366 0 C527 0 684 102 684 269 L684 501 C684 701 674 732 611 732 C547 732 537 704 537 520 L537 308 C537 200 467 146 366 146 C265 146 195 200 195 308 L195 520 C195 704 185 732 122 732 C59 732 49 701 49 501 L49 501 Z M558 902 C579 917 580 918 580 918 C600 938 589 968 571 986 C563 995 551 1002 538 1005 C506 1011 494 983 443 915 C392 847 387 833 403 817 C419 801 440 812 558 902 L558 902 Z M356 902 C377 917 378 918 378 918 C398 938 387 968 369 986 C361 995 349 1002 336 1005 C304 1011 292 983 241 915 C190 847 185 833 201 817 C217 801 238 812 356 902 L356 902 Z " />
<glyph glyph-name="uhungarumlaut" unicode="&#x171;" horiz-adv-x="549" d="M310 132 C281 109 243 94 196 144 C180 162 172 188 172 220 L172 355 C172 471 163 489 104 489 C45 489 36 469 36 338 L36 186 C36 78 113 0 226 0 C249 0 270 4 289 11 C340 30 343 41 343 22 C343 3 352 0 412 0 C471 0 480 33 480 245 C480 456 471 489 412 489 C352 489 343 468 343 331 C343 194 346 160 310 132 L310 132 Z M442 657 C463 672 464 673 464 674 C484 694 473 724 455 742 C446 751 434 758 422 761 C390 767 378 739 327 671 C276 603 271 589 287 573 C303 557 325 567 442 657 L442 657 Z M240 657 C261 672 262 673 262 674 C282 694 271 724 253 742 C244 751 232 758 220 761 C188 767 176 739 125 671 C73 603 68 589 85 573 C101 557 123 567 240 657 L240 657 Z " />
<glyph glyph-name="Uogonek" unicode="&#x172;" horiz-adv-x="782" d="M49 501 L49 269 C49 102 206 0 366 0 C372 0 378 0 384 0 C399 0 397 -2 392 -30 C389 -41 388 -53 388 -66 C388 -153 451 -209 537 -209 C573 -209 601 -201 625 -187 C687 -150 679 -125 647 -102 C614 -79 611 -89 575 -108 C563 -116 548 -119 531 -119 C501 -119 474 -99 474 -49 C474 -35 477 -21 483 -9 C497 24 548 12 632 119 C665 160 684 211 684 269 L684 501 C684 701 674 732 611 732 C547 732 537 704 537 520 L537 308 C537 200 467 146 366 146 C265 146 195 200 195 308 L195 520 C195 704 185 732 122 732 C59 732 49 701 49 501 L49 501 Z " />
<glyph glyph-name="uogonek" unicode="&#x173;" horiz-adv-x="549" d="M310 132 C281 109 243 94 196 144 C180 162 172 188 172 220 L172 355 C172 471 163 489 104 489 C45 489 36 469 36 338 L36 186 C36 137 52 94 81 61 C156 -24 193 -1 188 -29 C185 -41 184 -53 184 -66 C184 -153 248 -209 333 -209 C369 -209 397 -201 421 -187 C483 -150 475 -125 443 -102 C411 -79 408 -89 372 -108 C359 -116 344 -119 327 -119 C297 -119 271 -99 271 -49 C271 -38 273 -27 276 -17 C284 10 295 11 318 25 C341 40 343 41 343 22 C343 3 352 0 412 0 C471 0 480 33 480 245 C480 456 471 489 412 489 C352 489 343 468 343 331 C343 194 346 160 310 132 L310 132 Z " />
<glyph glyph-name="Wcircumflex" unicode="&#x174;" horiz-adv-x="1042" d="M583 245 C643 33 662 0 725 0 C788 0 811 49 896 366 C981 683 983 732 916 732 C848 732 829 702 778 508 C726 314 717 284 711 284 C704 284 695 314 643 508 C591 702 573 732 508 732 C442 732 424 702 371 508 C317 314 308 284 301 284 C293 284 284 314 233 508 C181 702 163 732 95 732 C27 732 30 683 115 366 C199 49 222 0 286 0 C349 0 368 33 429 245 C489 456 499 489 506 489 C512 489 522 456 583 245 L583 245 Z M385 812 C403 795 413 797 462 830 C510 863 524 863 572 830 C620 797 630 795 648 811 C666 827 659 842 593 917 C527 991 507 991 441 917 C374 843 367 828 385 812 L385 812 Z " />
<glyph glyph-name="wcircumflex" unicode="&#x175;" horiz-adv-x="713" d="M473 0 C526 0 543 33 599 245 C655 456 655 489 600 489 C545 489 531 469 498 342 C465 215 455 215 426 342 C396 469 384 489 341 489 C297 489 285 470 253 345 C221 219 211 219 179 345 C146 470 132 489 77 489 C21 489 21 456 78 245 C134 33 151 0 204 0 C257 0 270 16 302 123 C333 229 343 229 375 123 C407 16 420 0 473 0 L473 0 Z M221 567 C239 551 249 553 297 586 C345 619 359 619 407 586 C455 553 465 551 484 567 C502 583 495 598 429 673 C362 747 342 747 276 673 C209 598 202 583 221 567 L221 567 Z " />
<glyph glyph-name="Ycircumflex" unicode="&#x176;" horiz-adv-x="749" d="M286 183 C286 25 296 0 359 0 C422 0 432 25 432 183 C432 341 450 391 567 549 C683 707 690 732 617 732 C544 732 521 716 446 613 C371 509 348 509 274 613 C200 716 177 732 103 732 C29 732 35 707 152 549 C268 391 286 341 286 183 L286 183 Z M239 812 C257 795 267 797 315 830 C363 863 377 863 425 830 C473 797 483 795 502 811 C520 827 513 842 447 917 C380 991 360 991 294 917 C227 843 220 828 239 812 L239 812 Z " />
<glyph glyph-name="ycircumflex" unicode="&#x177;" horiz-adv-x="551" d="M378 139 C499 441 509 488 449 488 C388 488 371 468 321 336 C270 203 254 203 205 336 C155 468 138 488 78 488 C17 488 20 455 95 244 C170 33 177 -14 142 -105 C107 -196 111 -210 170 -210 C228 -210 256 -163 378 139 L378 139 Z M140 567 C158 551 168 553 216 586 C264 619 278 619 326 586 C374 553 384 551 403 567 C421 583 414 598 348 673 C281 747 261 747 195 673 C128 598 121 583 140 567 L140 567 Z " />
<glyph glyph-name="Ydieresis" unicode="&#x178;" horiz-adv-x="749" d="M286 183 C286 25 296 0 359 0 C422 0 432 25 432 183 C432 341 450 391 567 549 C683 707 690 732 617 732 C544 732 521 716 446 613 C371 509 348 509 274 613 C200 716 177 732 103 732 C29 732 35 707 152 549 C268 391 286 341 286 183 L286 183 Z M510 844 C549 844 579 872 579 917 C579 962 549 990 510 990 C471 990 441 963 441 916 C441 872 471 844 510 844 L510 844 Z M239 844 C278 844 307 872 307 917 C307 962 278 990 239 990 C200 990 170 963 170 917 C170 872 200 844 239 844 L239 844 Z " />
<glyph glyph-name="Zacute" unicode="&#x179;" horiz-adv-x="720" d="M463 137 C315 137 315 173 463 408 C611 643 634 683 634 706 C634 728 595 732 341 732 C87 732 48 723 48 664 C48 605 71 596 219 596 C367 596 367 559 219 323 C71 86 48 46 48 25 C48 3 87 0 341 0 C595 0 634 9 634 69 C634 128 611 137 463 137 L463 137 Z M426 902 C447 917 448 918 448 918 C468 938 458 968 439 986 C431 995 419 1002 407 1005 C375 1011 363 983 312 915 C260 847 255 833 271 817 C287 801 308 812 426 902 L426 902 Z " />
<glyph glyph-name="zacute" unicode="&#x17a;" horiz-adv-x="495" d="M330 115 C242 115 242 138 330 284 C418 429 432 454 432 470 C432 485 406 487 237 487 C68 487 42 479 42 430 C42 380 56 372 144 372 C231 372 231 349 144 203 C56 56 42 31 42 17 C42 2 68 0 237 0 C406 0 432 8 432 58 C432 107 418 115 330 115 L330 115 Z M314 657 C334 672 335 673 335 674 C355 694 345 724 327 742 C318 751 306 758 294 761 C262 767 250 739 199 671 C147 603 142 589 158 573 C174 557 196 567 314 657 L314 657 Z " />
<glyph glyph-name="Zdotaccent" unicode="&#x17b;" horiz-adv-x="720" d="M463 137 C315 137 315 173 463 408 C611 643 634 683 634 706 C634 728 595 732 341 732 C87 732 48 723 48 664 C48 605 71 596 219 596 C367 596 367 559 219 323 C71 86 48 46 48 25 C48 3 87 0 341 0 C595 0 634 9 634 69 C634 128 611 137 463 137 L463 137 Z M360 844 C399 844 429 872 429 917 C429 962 399 990 360 990 C321 990 292 963 292 917 C292 872 321 844 360 844 L360 844 Z " />
<glyph glyph-name="zdotaccent" unicode="&#x17c;" horiz-adv-x="495" d="M330 115 C242 115 242 138 330 284 C418 429 432 454 432 470 C432 485 406 487 237 487 C68 487 42 479 42 430 C42 380 56 372 144 372 C231 372 231 349 144 203 C56 56 42 31 42 17 C42 2 68 0 237 0 C406 0 432 8 432 58 C432 107 418 115 330 115 L330 115 Z M248 600 C287 600 316 628 316 673 C316 718 287 746 248 746 C208 746 179 719 179 672 C179 628 208 600 248 600 L248 600 Z " />
<glyph glyph-name="Zcaron" unicode="&#x17d;" horiz-adv-x="720" d="M463 137 C315 137 315 173 463 408 C611 643 634 683 634 706 C634 728 595 732 341 732 C87 732 48 723 48 664 C48 605 71 596 219 596 C367 596 367 559 219 323 C71 86 48 46 48 25 C48 3 87 0 341 0 C595 0 634 9 634 69 C634 128 611 137 463 137 L463 137 Z M432 879 C498 953 505 968 487 984 C469 1000 459 998 411 965 C362 932 348 932 300 965 C252 998 242 1000 224 984 C206 968 213 953 279 879 C345 804 365 804 432 879 L432 879 Z " />
<glyph glyph-name="zcaron" unicode="&#x17e;" horiz-adv-x="495" d="M330 115 C242 115 242 138 330 284 C418 429 432 454 432 470 C432 485 406 487 237 487 C68 487 42 479 42 430 C42 380 56 372 144 372 C231 372 231 349 144 203 C56 56 42 31 42 17 C42 2 68 0 237 0 C406 0 432 8 432 58 C432 107 418 115 330 115 L330 115 Z M320 635 C386 709 393 724 375 740 C356 756 346 754 298 721 C250 688 236 688 188 721 C139 754 129 756 111 740 C93 724 100 709 167 635 C233 560 253 560 320 635 L320 635 Z " />
<glyph glyph-name="longs" unicode="&#x17f;" horiz-adv-x="377" d="M209 274 L209 547 C209 599 233 618 268 618 C280 618 289 617 297 614 C315 609 321 608 353 644 C384 679 387 700 330 720 C308 728 282 732 252 732 C149 732 72 670 72 566 L72 534 C72 505 67 501 36 501 C4 501 -1 494 -1 446 C-1 398 4 391 36 391 C67 391 72 365 72 196 C72 26 81 0 141 0 C200 0 209 37 209 274 L209 274 Z " />
<glyph glyph-name="AEacute" unicode="&#x1fc;" horiz-adv-x="998" d="M929 69 C929 128 903 137 734 137 C564 137 538 148 538 220 C538 292 558 303 685 303 C812 303 832 312 832 371 C832 430 812 439 685 439 C558 439 538 450 538 518 C538 585 564 596 734 596 C904 596 930 605 930 664 C930 723 889 732 622 732 C355 732 294 683 168 366 C41 49 32 0 100 0 C167 0 181 8 200 56 C219 104 233 112 307 112 C381 112 392 104 392 56 C392 8 428 0 661 0 C893 0 929 9 929 69 L929 69 Z M565 902 C586 917 587 918 587 918 C607 938 596 968 578 986 C570 995 558 1002 545 1005 C513 1011 501 983 450 915 C399 847 394 833 410 817 C426 801 447 812 565 902 L565 902 Z M336 259 C288 259 288 278 336 398 C384 518 392 518 392 398 C392 278 384 259 336 259 L336 259 Z " />
<glyph glyph-name="Oslashacute" unicode="&#x1fe;" horiz-adv-x="804" d="M352 2 C364 1 377 0 389 0 C596 0 755 159 755 366 C755 437 736 503 703 558 C619 699 568 695 584 737 C599 778 594 784 547 784 C499 784 491 780 481 754 C471 728 465 726 430 730 C417 731 403 732 389 732 C182 732 23 573 23 366 C23 294 43 227 77 171 C165 27 218 33 203 -9 C188 -50 193 -56 240 -56 C287 -56 296 -52 306 -25 C315 2 322 4 352 2 L352 2 Z M389 596 C395 596 400 596 406 595 C420 594 412 565 345 382 C278 199 239 168 196 252 C179 286 169 325 169 366 C169 494 258 596 389 596 L389 596 Z M390 137 C386 137 381 137 377 137 C367 137 375 166 441 347 C507 528 545 557 585 475 C601 443 609 406 609 366 C609 239 520 137 390 137 L390 137 Z M468 902 C489 917 490 918 490 918 C510 938 500 968 481 986 C473 995 461 1002 449 1005 C417 1011 405 983 354 915 C302 847 297 833 313 817 C329 801 350 812 468 902 L468 902 Z " />
<glyph glyph-name="oslashacute" unicode="&#x1ff;" horiz-adv-x="562" d="M243 -4 C252 -5 261 -5 270 -5 C407 -5 519 100 519 244 C519 292 506 337 483 375 C424 473 389 470 400 501 C411 531 408 536 375 536 C341 536 335 533 328 512 C320 491 316 489 295 492 C287 493 279 493 270 493 C132 493 21 389 21 244 C21 197 34 152 56 114 C113 17 148 19 137 -13 C125 -45 128 -50 161 -50 C194 -50 200 -47 208 -25 C216 -3 220 -1 243 -4 L243 -4 Z M347 657 C368 672 369 673 369 674 C389 694 378 724 360 742 C352 751 340 758 328 761 C296 767 284 739 233 671 C181 603 176 589 192 573 C208 557 230 567 347 657 L347 657 Z M264 114 C260 114 265 130 302 232 C338 333 359 349 381 304 C389 286 394 266 394 244 C394 209 382 176 360 152 C302 89 268 113 264 114 L264 114 Z M273 375 C276 374 271 358 234 257 C197 155 177 139 157 183 C149 201 144 222 144 244 C144 278 157 311 178 335 C236 399 270 375 273 375 L273 375 Z " />
<glyph glyph-name="Scommaaccent" unicode="&#x218;" horiz-adv-x="642" d="M445 712 C405 727 360 732 298 732 C183 732 44 646 44 518 C44 446 73 399 117 368 C237 282 412 357 413 212 C413 171 368 134 278 137 C240 140 206 147 179 159 C114 185 105 198 64 156 C22 114 20 70 144 25 C190 8 242 0 302 0 C425 0 571 83 571 215 C571 363 456 420 327 439 C162 464 167 596 327 596 C356 596 382 591 405 581 C464 556 471 544 513 586 C555 628 559 670 445 712 L445 712 Z M369 -287 C386 -259 394 -225 394 -186 C394 -147 367 -115 320 -115 C275 -115 248 -145 248 -184 C248 -223 276 -252 321 -252 L326 -252 C321 -267 314 -279 305 -288 C281 -314 274 -314 284 -333 C294 -351 326 -362 369 -287 L369 -287 Z " />
<glyph glyph-name="scommaaccent" unicode="&#x219;" horiz-adv-x="453" d="M318 478 C291 488 260 491 218 491 C132 491 45 431 45 336 C45 284 63 249 92 226 C172 162 213 192 257 178 C280 170 302 138 268 119 C219 90 193 100 143 122 C102 141 96 147 63 111 C30 74 28 45 105 15 C137 2 174 -5 220 -5 C309 -5 402 42 402 141 C402 254 337 291 237 303 C204 310 182 318 171 327 C149 346 172 368 196 374 C207 378 221 379 237 379 C254 379 269 376 283 369 C320 351 325 345 358 382 C391 419 394 449 318 478 L318 478 Z M275 -287 C292 -259 300 -225 300 -186 C300 -147 272 -115 226 -115 C181 -115 153 -145 153 -184 C153 -223 182 -252 227 -252 L232 -252 C227 -267 220 -279 211 -288 C187 -314 180 -314 190 -333 C200 -351 232 -362 275 -287 L275 -287 Z " />
<glyph glyph-name="circumflex" unicode="&#x2c6;" horiz-adv-x="306" d="M17 567 C35 551 45 553 93 586 C141 619 155 619 203 586 C251 553 261 551 280 567 C298 583 291 598 225 673 C158 747 138 747 72 673 C5 598 -2 583 17 567 L17 567 Z " />
<glyph glyph-name="caron" unicode="&#x2c7;" horiz-adv-x="306" d="M225 635 C291 709 298 724 280 740 C261 756 251 754 203 721 C155 688 141 688 93 721 C45 754 35 756 17 740 C-2 724 5 709 72 635 C138 560 158 560 225 635 L225 635 Z " />
<glyph glyph-name="breve" unicode="&#x2d8;" horiz-adv-x="286" d="M196 668 C183 654 166 646 144 646 C123 646 105 654 93 668 C60 703 68 720 38 720 C8 720 -22 686 44 620 C69 595 104 579 144 579 C184 579 220 595 245 620 C311 686 281 720 251 720 C220 720 228 703 196 668 L196 668 Z " />
<glyph glyph-name="dotaccent" unicode="&#x2d9;" horiz-adv-x="137" d="M69 600 C108 600 137 628 137 673 C137 718 108 746 69 746 C30 746 0 719 0 672 C0 628 30 600 69 600 L69 600 Z " />
<glyph glyph-name="ring" unicode="&#x2da;" horiz-adv-x="211" d="M106 560 C166 560 211 604 211 673 C211 742 166 786 106 786 C45 786 0 744 0 672 C0 604 45 560 106 560 L106 560 Z M105 631 C83 631 66 647 66 672 C66 699 83 714 105 714 C127 714 144 699 144 673 C144 647 127 631 105 631 L105 631 Z " />
<glyph glyph-name="ogonek" unicode="&#x2db;" horiz-adv-x="288" d="M29 39 C8 13 -8 -21 -8 -66 C-8 -153 56 -209 141 -209 C177 -209 205 -201 229 -187 C291 -150 283 -125 251 -102 C219 -79 216 -89 180 -108 C167 -116 152 -119 135 -119 C105 -119 79 -99 79 -49 C79 -28 86 -8 97 9 C125 54 136 57 119 74 C102 90 79 97 29 39 L29 39 Z " />
<glyph glyph-name="tilde" unicode="&#x2dc;" horiz-adv-x="478" d="M131 624 C133 633 139 644 149 646 C156 648 166 646 178 640 C219 619 257 513 400 577 C542 640 471 739 423 739 C375 739 368 737 368 724 L368 708 C366 676 335 674 280 714 C223 756 158 771 105 754 C-40 707 19 605 70 605 C120 605 126 608 131 624 L131 624 Z " />
<glyph glyph-name="hungarumlaut" unicode="&#x2dd;" horiz-adv-x="404" d="M169 657 C190 672 191 673 191 674 C211 694 201 724 183 742 C174 751 162 758 150 761 C118 767 106 739 55 671 C3 603 -2 589 14 573 C30 557 52 567 169 657 L169 657 Z M372 657 C393 672 394 673 394 674 C414 694 403 724 385 742 C376 751 364 758 352 761 C320 767 308 739 257 671 C205 603 200 589 216 573 C232 557 254 567 372 657 L372 657 Z " />
<glyph glyph-name="Wgrave" unicode="&#x1e80;" horiz-adv-x="1042" d="M583 245 C643 33 662 0 725 0 C788 0 811 49 896 366 C981 683 983 732 916 732 C848 732 829 702 778 508 C726 314 717 284 711 284 C704 284 695 314 643 508 C591 702 573 732 508 732 C442 732 424 702 371 508 C317 314 308 284 301 284 C293 284 284 314 233 508 C181 702 163 732 95 732 C27 732 30 683 115 366 C199 49 222 0 286 0 C349 0 368 33 429 245 C489 456 499 489 506 489 C512 489 522 456 583 245 L583 245 Z M570 915 C518 983 506 1011 474 1005 C462 1002 450 995 441 986 C423 968 413 938 433 918 C434 918 435 917 455 902 C573 812 594 801 610 817 C626 833 621 847 570 915 L570 915 Z " />
<glyph glyph-name="wgrave" unicode="&#x1e81;" horiz-adv-x="713" d="M473 0 C526 0 543 33 599 245 C655 456 655 489 600 489 C545 489 531 469 498 342 C465 215 455 215 426 342 C396 469 384 489 341 489 C297 489 285 470 253 345 C221 219 211 219 179 345 C146 470 132 489 77 489 C21 489 21 456 78 245 C134 33 151 0 204 0 C257 0 270 16 302 123 C333 229 343 229 375 123 C407 16 420 0 473 0 L473 0 Z M405 671 C354 739 342 767 310 761 C297 758 286 751 277 742 C259 724 248 694 268 674 C269 673 270 672 290 657 C407 567 429 557 445 573 C461 589 456 603 405 671 L405 671 Z " />
<glyph glyph-name="Wacute" unicode="&#x1e82;" horiz-adv-x="1042" d="M583 245 C643 33 662 0 725 0 C788 0 811 49 896 366 C981 683 983 732 916 732 C848 732 829 702 778 508 C726 314 717 284 711 284 C704 284 695 314 643 508 C591 702 573 732 508 732 C442 732 424 702 371 508 C317 314 308 284 301 284 C293 284 284 314 233 508 C181 702 163 732 95 732 C27 732 30 683 115 366 C199 49 222 0 286 0 C349 0 368 33 429 245 C489 456 499 489 506 489 C512 489 522 456 583 245 L583 245 Z M587 902 C608 917 609 918 609 918 C629 938 618 968 600 986 C592 995 580 1002 567 1005 C535 1011 523 983 472 915 C421 847 416 833 432 817 C448 801 469 812 587 902 L587 902 Z " />
<glyph glyph-name="wacute" unicode="&#x1e83;" horiz-adv-x="713" d="M473 0 C526 0 543 33 599 245 C655 456 655 489 600 489 C545 489 531 469 498 342 C465 215 455 215 426 342 C396 469 384 489 341 489 C297 489 285 470 253 345 C221 219 211 219 179 345 C146 470 132 489 77 489 C21 489 21 456 78 245 C134 33 151 0 204 0 C257 0 270 16 302 123 C333 229 343 229 375 123 C407 16 420 0 473 0 L473 0 Z M422 657 C443 672 444 673 444 674 C464 694 454 724 436 742 C427 751 415 758 403 761 C371 767 359 739 308 671 C256 603 251 589 267 573 C283 557 305 567 422 657 L422 657 Z " />
<glyph glyph-name="Wdieresis" unicode="&#x1e84;" horiz-adv-x="1042" d="M583 245 C643 33 662 0 725 0 C788 0 811 49 896 366 C981 683 983 732 916 732 C848 732 829 702 778 508 C726 314 717 284 711 284 C704 284 695 314 643 508 C591 702 573 732 508 732 C442 732 424 702 371 508 C317 314 308 284 301 284 C293 284 284 314 233 508 C181 702 163 732 95 732 C27 732 30 683 115 366 C199 49 222 0 286 0 C349 0 368 33 429 245 C489 456 499 489 506 489 C512 489 522 456 583 245 L583 245 Z M657 844 C696 844 725 872 725 917 C725 962 696 990 657 990 C618 990 588 963 588 916 C588 872 618 844 657 844 L657 844 Z M385 844 C424 844 454 872 454 917 C454 962 424 990 385 990 C346 990 316 963 316 917 C316 872 346 844 385 844 L385 844 Z " />
<glyph glyph-name="wdieresis" unicode="&#x1e85;" horiz-adv-x="713" d="M473 0 C526 0 543 33 599 245 C655 456 655 489 600 489 C545 489 531 469 498 342 C465 215 455 215 426 342 C396 469 384 489 341 489 C297 489 285 470 253 345 C221 219 211 219 179 345 C146 470 132 489 77 489 C21 489 21 456 78 245 C134 33 151 0 204 0 C257 0 270 16 302 123 C333 229 343 229 375 123 C407 16 420 0 473 0 L473 0 Z M492 600 C531 600 561 628 561 673 C561 718 531 746 492 746 C453 746 423 719 423 672 C423 627 453 600 492 600 L492 600 Z M221 600 C260 600 289 628 289 673 C289 718 260 746 221 746 C182 746 152 719 152 672 C152 628 182 600 221 600 L221 600 Z " />
<glyph glyph-name="Ygrave" unicode="&#x1ef2;" horiz-adv-x="749" d="M286 183 C286 25 296 0 359 0 C422 0 432 25 432 183 C432 341 450 391 567 549 C683 707 690 732 617 732 C544 732 521 716 446 613 C371 509 348 509 274 613 C200 716 177 732 103 732 C29 732 35 707 152 549 C268 391 286 341 286 183 L286 183 Z M423 915 C372 983 360 1011 328 1005 C315 1002 304 995 295 986 C277 968 266 938 286 918 C287 918 288 917 308 902 C426 812 447 801 463 817 C479 833 474 847 423 915 L423 915 Z " />
<glyph glyph-name="ygrave" unicode="&#x1ef3;" horiz-adv-x="551" d="M378 139 C499 441 509 488 449 488 C388 488 371 468 321 336 C270 203 254 203 205 336 C155 468 138 488 78 488 C17 488 20 455 95 244 C170 33 177 -14 142 -105 C107 -196 111 -210 170 -210 C228 -210 256 -163 378 139 L378 139 Z M324 671 C273 739 261 767 229 761 C216 758 205 751 196 742 C178 724 167 694 187 674 C188 673 189 672 209 657 C326 567 348 557 364 573 C380 589 375 603 324 671 L324 671 Z " />
<glyph glyph-name="endash" unicode="&#x2013;" horiz-adv-x="541" d="M514 234 C514 268 481 273 271 273 C60 273 27 268 27 234 C27 200 60 195 271 195 C481 195 514 200 514 234 L514 234 Z " />
<glyph glyph-name="emdash" unicode="&#x2014;" horiz-adv-x="1000" d="M1000 234 C1000 268 933 273 500 273 C67 273 0 268 0 234 C0 200 67 195 500 195 C933 195 1000 200 1000 234 L1000 234 Z " />
<glyph glyph-name="quoteleft" unicode="&#x2018;" horiz-adv-x="305" d="M137 710 C120 681 112 647 112 608 C112 569 139 537 186 537 C230 537 258 567 258 606 C258 645 230 674 185 674 L180 674 C185 689 192 701 201 711 C224 736 232 736 222 755 C211 774 179 784 137 710 L137 710 Z " />
<glyph glyph-name="quoteright" unicode="&#x2019;" horiz-adv-x="305" d="M167 605 C183 633 191 667 191 707 C191 746 164 777 117 777 C73 777 45 747 45 708 C45 669 73 640 118 640 L121 640 C124 640 128 630 103 603 C79 578 71 578 82 559 C92 540 124 530 167 605 L167 605 Z " />
<glyph glyph-name="quotesinglbase" unicode="&#x201a;" horiz-adv-x="305" d="M225 -36 C242 -7 250 27 250 67 C250 106 223 137 176 137 C131 137 104 107 104 68 C104 29 132 0 177 0 L182 0 C177 -15 170 -27 161 -36 C137 -62 130 -62 140 -81 C150 -100 182 -110 225 -36 L225 -36 Z " />
<glyph glyph-name="quotedblleft" unicode="&#x201c;" horiz-adv-x="481" d="M137 710 C120 681 112 647 112 608 C112 569 139 537 186 537 C230 537 258 567 258 606 C258 645 230 674 185 674 L180 674 C185 689 192 701 201 711 C224 736 232 736 222 755 C211 774 179 784 137 710 L137 710 Z M318 710 C301 681 293 647 293 608 C293 569 320 537 367 537 C412 537 439 567 439 606 C439 645 411 674 366 674 L361 674 C366 689 373 701 382 711 C405 736 413 736 403 755 C393 774 361 784 318 710 L318 710 Z " />
<glyph glyph-name="quotedblright" unicode="&#x201d;" horiz-adv-x="481" d="M346 605 C363 633 371 667 371 707 C371 746 344 777 297 777 C252 777 225 747 225 708 C225 669 253 640 298 640 L303 640 C298 626 291 613 282 603 C259 578 251 578 261 559 C271 540 303 530 346 605 L346 605 Z M165 605 C182 633 190 667 190 707 C190 746 163 777 116 777 C71 777 43 747 43 708 C43 669 72 640 117 640 L122 640 C117 626 110 613 101 603 C78 578 70 578 80 559 C90 540 122 530 165 605 L165 605 Z " />
<glyph glyph-name="quotedblbase" unicode="&#x201e;" horiz-adv-x="481" d="M401 -46 C417 -17 425 17 425 57 C425 96 398 127 351 127 C307 127 279 97 279 58 C279 19 307 -10 352 -10 L357 -10 C353 -25 346 -37 337 -47 C313 -73 305 -72 316 -91 C326 -110 358 -120 401 -46 L401 -46 Z M219 -46 C236 -17 244 17 244 57 C244 96 217 127 170 127 C125 127 98 97 98 58 C98 19 126 -10 171 -10 L176 -10 C172 -25 165 -37 155 -47 C132 -72 124 -72 134 -91 C144 -110 176 -120 219 -46 L219 -46 Z " />
<glyph glyph-name="bullet" unicode="&#x2022;" horiz-adv-x="284" d="M44 364 C44 316 79 281 134 281 C188 281 223 316 223 364 C223 412 190 448 133 448 C79 448 44 412 44 364 L44 364 Z " />
<glyph glyph-name="ellipsis" unicode="&#x2026;" horiz-adv-x="1000" d="M98 68 C98 29 126 0 171 0 C216 0 244 29 244 68 C244 107 217 137 170 137 C125 137 98 107 98 68 L98 68 Z M439 68 C439 29 467 0 512 0 C557 0 585 29 585 68 C585 107 558 137 511 137 C467 137 439 107 439 68 L439 68 Z M782 68 C782 29 810 0 855 0 C900 0 928 29 928 68 C928 107 901 137 854 137 C810 137 782 107 782 68 L782 68 Z " />
<glyph glyph-name="perthousand" unicode="&#x2030;" horiz-adv-x="1360" d="M499 366 C678 683 698 732 647 732 C595 732 559 683 380 366 C200 49 180 0 232 0 C284 0 320 49 499 366 L499 366 Z M29 554 C29 451 109 371 212 371 C316 371 396 451 396 554 C396 658 316 738 212 738 C109 738 29 658 29 554 L29 554 Z M211 458 C156 458 118 501 118 555 C118 609 156 651 210 651 C266 651 304 609 304 555 C304 501 266 458 211 458 L211 458 Z M483 178 C483 75 562 -4 666 -4 C769 -4 848 75 848 178 C848 281 769 360 666 360 C562 360 483 281 483 178 L483 178 Z M663 84 C609 84 572 125 572 179 C572 230 610 273 663 273 C716 273 754 231 754 179 C754 125 717 84 663 84 L663 84 Z M928 178 C928 75 1007 -4 1110 -4 C1213 -4 1292 75 1292 178 C1292 281 1213 360 1110 360 C1007 360 928 281 928 178 L928 178 Z M1107 84 C1053 84 1017 125 1017 179 C1017 230 1054 273 1107 273 C1161 273 1198 231 1198 179 C1198 125 1162 84 1107 84 L1107 84 Z " />
<glyph glyph-name="guilsinglleft" unicode="&#x2039;" horiz-adv-x="330" d="M269 81 C279 81 281 83 281 93 C281 102 274 113 231 169 C188 225 188 243 231 299 C274 355 281 366 281 376 C281 385 279 387 269 387 C259 387 245 377 171 311 C97 244 97 224 171 158 C245 91 259 81 269 81 L269 81 Z " />
<glyph glyph-name="guilsinglright" unicode="&#x203a;" horiz-adv-x="330" d="M159 311 C85 377 71 387 61 387 C51 387 49 385 49 376 C49 366 56 355 99 299 C142 243 142 225 99 169 C56 113 49 102 49 93 C49 83 51 81 61 81 C71 81 85 91 159 158 C233 224 233 244 159 311 L159 311 Z " />
<glyph glyph-name="&amp;#x2044;" unicode="&#x2044;" horiz-adv-x="167" d="M104 350 C239 662 257 710 240 710 C222 710 198 662 63 350 C-73 38 -91 -10 -73 -10 C-55 -10 -31 38 104 350 L104 350 Z " />
<glyph glyph-name="&amp;#x2215;" unicode="&#x2215;" horiz-adv-x="167" d="M104 350 C239 662 257 710 240 710 C222 710 198 662 63 350 C-73 38 -91 -10 -73 -10 C-55 -10 -31 38 104 350 L104 350 Z " />
<glyph glyph-name="Euro" unicode="&#x20ac;" horiz-adv-x="732" d="M0 425 C0 396 3 391 25 391 C46 391 49 389 49 380 L49 368 L49 355 C49 344 46 342 25 342 C3 342 0 337 0 308 C0 279 4 274 30 274 C55 274 53 257 94 183 C136 109 158 73 272 27 C315 9 363 0 415 0 C467 0 516 8 560 25 C677 67 677 105 635 152 C593 198 581 187 507 161 C479 151 449 146 416 146 C350 146 297 167 256 207 C247 217 238 227 231 238 C211 267 231 274 350 274 C469 274 488 279 488 308 C488 337 468 342 342 342 C216 342 196 344 196 355 C195 360 195 364 195 369 C195 373 195 376 196 380 C196 389 216 391 342 391 C468 391 488 396 488 425 C488 454 469 459 350 459 C231 459 212 465 231 494 C238 505 247 515 256 525 C296 565 349 586 415 586 C447 586 477 581 506 572 C581 546 593 535 635 582 C677 628 677 666 560 708 C516 724 467 732 415 732 C311 732 224 697 154 627 C130 603 110 577 94 549 C53 476 55 459 30 459 C4 459 0 454 0 425 L0 425 Z " />
<glyph glyph-name="estimated" unicode="&#x212e;" horiz-adv-x="560" d="M23 244 C23 102 125 0 267 0 C310 0 347 6 381 18 C464 49 462 78 428 112 C394 146 385 139 332 122 C311 115 290 112 267 112 C259 112 251 113 243 114 C223 118 221 126 221 158 C221 190 240 195 361 195 C482 195 501 198 501 220 L501 244 C501 385 411 488 267 488 C125 488 23 387 23 244 L23 244 Z M267 376 C276 376 284 375 292 374 C314 369 316 360 316 329 C316 298 310 293 269 293 C227 293 221 298 221 330 C221 362 223 370 243 374 C251 375 259 376 267 376 L267 376 Z " />
<glyph glyph-name="minus" unicode="&#x2212;" horiz-adv-x="541" d="M502 350 C502 384 471 389 271 389 C70 389 39 384 39 350 C39 316 70 311 271 311 C471 311 502 316 502 350 L502 350 Z " />
<glyph glyph-name="commaaccent" unicode="&#xf6c3;" horiz-adv-x="342" d="M219 -287 C236 -259 244 -225 244 -186 C244 -147 217 -115 170 -115 C125 -115 98 -145 98 -184 C98 -223 126 -252 171 -252 L176 -252 C172 -267 165 -279 155 -288 C131 -314 124 -314 134 -333 C144 -351 176 -362 219 -287 L219 -287 Z " />
<glyph glyph-name="f_f" unicode="&#xfb00;" horiz-adv-x="754" d="M586 196 C586 365 591 391 623 391 C654 391 659 398 659 446 C659 494 654 501 623 501 C591 501 586 504 586 524 L586 547 C586 599 610 618 645 618 C657 618 666 617 674 614 C692 609 698 608 730 644 C761 679 764 700 707 720 C685 728 659 732 629 732 C526 732 449 670 449 566 L449 534 C449 505 433 501 329 501 C225 501 209 504 209 524 L209 547 C209 599 233 618 268 618 C280 618 289 617 297 614 C315 609 321 608 353 644 C384 679 387 700 330 720 C308 728 282 732 252 732 C149 732 72 670 72 566 L72 534 C72 505 67 501 36 501 C4 501 -1 494 -1 446 C-1 398 4 391 36 391 C67 391 72 365 72 196 C72 26 81 0 141 0 C200 0 209 26 209 196 C209 365 225 391 329 391 C433 391 449 365 449 196 C449 26 458 0 518 0 C577 0 586 26 586 196 L586 196 Z " />
<glyph glyph-name="fi" unicode="&#xfb01;" horiz-adv-x="633" d="M562 251 C562 467 538 501 386 501 C233 501 209 504 209 524 L209 547 C209 599 233 618 268 618 C280 618 289 617 297 614 C315 609 321 608 353 644 C384 679 387 700 330 720 C308 728 282 732 252 732 C149 732 72 670 72 566 L72 534 C72 505 67 501 36 501 C4 501 -1 494 -1 446 C-1 398 4 391 36 391 C67 391 72 365 72 196 C72 26 81 0 141 0 C200 0 209 26 209 196 C209 365 224 391 318 391 C411 391 426 365 426 196 C426 26 435 0 494 0 C553 0 562 34 562 251 L562 251 Z " />
<glyph glyph-name="fl" unicode="&#xfb02;" horiz-adv-x="665" d="M561 256 L561 511 C561 673 442 748 317 748 C193 748 72 673 72 516 L72 509 C72 502 67 501 36 501 C4 501 -1 494 -1 446 C-1 398 4 391 36 391 C67 391 72 365 72 196 C72 26 81 0 141 0 C200 0 209 26 209 196 C209 365 214 391 246 391 C277 391 282 398 282 446 C282 494 277 501 244 501 C211 501 184 525 231 590 C248 613 275 628 317 628 C390 628 423 563 423 494 L423 247 C423 33 432 0 492 0 C552 0 561 34 561 256 L561 256 Z " />
<glyph glyph-name="f_f_i" unicode="&#xfb03;" horiz-adv-x="1010" d="M939 251 C939 467 915 501 763 501 C610 501 586 504 586 524 L586 547 C586 599 610 618 645 618 C657 618 666 617 674 614 C692 609 698 608 730 644 C761 679 764 700 707 720 C685 728 659 732 629 732 C526 732 449 670 449 566 L449 534 C449 505 433 501 329 501 C225 501 209 504 209 524 L209 547 C209 599 233 618 268 618 C280 618 289 617 297 614 C315 609 321 608 353 644 C384 679 387 700 330 720 C308 728 282 732 252 732 C149 732 72 670 72 566 L72 534 C72 505 67 501 36 501 C4 501 -1 494 -1 446 C-1 398 4 391 36 391 C67 391 72 365 72 196 C72 26 81 0 141 0 C200 0 209 26 209 196 C209 365 225 391 329 391 C433 391 449 365 449 196 C449 26 458 0 518 0 C577 0 586 26 586 196 C586 365 601 391 695 391 C788 391 803 365 803 196 C803 26 812 0 871 0 C930 0 939 34 939 251 L939 251 Z " />
<glyph glyph-name="f_f_l" unicode="&#xfb04;" horiz-adv-x="1034" d="M938 256 L938 511 C938 673 819 748 695 748 C571 748 449 673 449 516 L449 509 C449 502 433 501 329 501 C225 501 209 504 209 524 L209 547 C209 599 233 618 268 618 C280 618 289 617 297 614 C315 609 321 608 353 644 C384 679 387 700 330 720 C308 728 282 732 252 732 C149 732 72 670 72 566 L72 534 C72 505 67 501 36 501 C4 501 -1 494 -1 446 C-1 398 4 391 36 391 C67 391 72 365 72 196 C72 26 81 0 141 0 C200 0 209 26 209 196 C209 365 225 391 329 391 C433 391 449 365 449 196 C449 26 458 0 518 0 C577 0 586 26 586 196 C586 365 591 391 623 391 C655 391 660 398 660 446 C660 494 655 501 622 501 C588 501 561 525 608 590 C626 613 653 628 695 628 C768 628 801 563 801 494 L801 247 C801 33 810 0 870 0 C929 0 938 34 938 256 L938 256 Z " />
<glyph glyph-name="longs_t" unicode="&#xfb05;" horiz-adv-x="722" d="M604 0 C619 0 633 2 647 6 C682 16 683 30 671 72 C658 114 653 120 633 117 C627 116 622 115 619 115 C584 115 561 133 561 186 L561 282 C561 364 567 377 603 377 C638 377 644 384 644 433 C644 481 638 488 603 488 C567 488 561 490 561 500 L561 511 C561 647 464 748 317 748 C193 748 72 673 72 516 L72 509 C72 502 67 501 36 501 C4 501 -1 494 -1 446 C-1 398 4 391 36 391 C67 391 72 365 72 196 C72 26 81 0 141 0 C200 0 209 34 209 250 L209 499 C210 566 232 628 317 628 C390 628 423 563 423 494 L423 491 C423 488 418 488 387 488 C355 488 350 481 350 433 C350 384 355 377 387 377 C418 377 423 363 423 272 L423 166 C423 62 501 0 604 0 L604 0 Z " />
<glyph glyph-name="s_t" unicode="&#xfb06;" horiz-adv-x="837" d="M723 0 C738 0 752 2 765 6 C800 16 801 30 789 72 C776 114 771 120 752 117 C746 116 741 115 738 115 C703 115 679 133 679 186 L679 282 C679 364 685 377 721 377 C756 377 762 384 762 433 C762 481 756 488 721 488 C685 488 679 490 679 500 L679 511 C679 673 560 748 436 748 C312 748 190 673 190 516 L190 503 C190 491 158 508 89 440 C62 414 45 378 45 336 C45 284 63 249 92 226 C172 162 213 192 257 178 C280 170 302 138 268 119 C219 90 193 100 143 122 C102 141 96 147 63 111 C30 74 28 45 105 15 C137 2 174 -5 220 -5 C309 -5 402 42 402 141 C402 254 337 291 237 303 C204 310 182 318 171 327 C149 346 172 368 196 374 C207 378 221 379 237 379 C254 379 269 376 283 369 C320 351 325 345 358 382 C391 419 393 432 359 455 C330 475 324 476 324 485 L324 494 C324 563 349 628 436 628 C508 628 542 563 542 494 L542 491 C542 488 537 488 506 488 C474 488 469 481 469 433 C469 384 474 377 506 377 C537 377 542 363 542 272 L542 166 C542 62 620 0 723 0 L723 0 Z " />
</font>
</svg>
